/* XPM */
static const char *access[] = {
/* width height num_colors chars_per_pixel */
"    32    32        5            1",
/* colors */
". c none",
"# c #fefefe",
"a c #fefe3f",
"b c #007f7f",
"c c #cbcbcb",
/* pixels */
"................................",
"................................",
"................................",
"................................",
"................................",
"................................",
"................................",
".....acacacac...................",
"....acacacacac..................",
"...acacacacacac.................",
"..acacacacacacac................",
".acacacacacacacacacacacacacacac.",
".#a#a#a#a#a#a#a#a#a#a#a#a#a#a#a.",
".a#a#a#a#a#a#a#a#a#a#a#a#a#a#ac.",
".#a#abbbbbbbbbbbbbbbbbbbb#a#a#a.",
".a#a#a#a#a#a#a#a#a#a#a#a#a#a#ac.",
".#a#a#a#a#a#a#a#a#a#a#a#a#a#a#a.",
".a#a#bbbbbbbbbbbbbbbbb#a#a#a#ac.",
".#a#a#a#a#a#a#a#a#a#a#a#a#a#a#a.",
".a#a#a#a#a#a#a#a#a#a#a#a#a#a#ac.",
".#a#abbbbbbbbbbbbbb#a#a#a#a#a#a.",
".a#a#a#a#a#a#a#a#a#a#a#a#a#a#ac.",
".#a#a#a#a#a#a#a#a#a#a#a#a#a#a#a.",
".a#a#bbbbbbbbbbb#a#a#a#a#a#a#ac.",
".#a#a#a#a#a#a#a#a#a#a#a#a#a#a#a.",
".a#a#a#a#a#a#a#a#a#a#a#a#a#a#ac.",
".#a#abbbbbbbb#a#a#a#a#a#a#a#a#a.",
".a#a#a#a#a#a#a#a#a#a#a#a#a#a#ac.",
".#a#a#a#a#a#a#a#a#a#a#a#a#a#a#a.",
"................................",
"................................",
"................................"
};
