/* XPM */
static const char *application_xpm[] = {
/* width height num_colors chars_per_pixel */
"    32    32       17            1",
/* colors */
". c #000000",
"# c #ffffbe",
"a c #bebe00",
"b c #595959",
"c c #80807f",
"d c #ff8200",
"e c #ffaa59",
"f c #a0a0a0",
"g c #ff0000",
"h c #ffbebe",
"i c #ffffff",
"j c #ffff00",
"k c #008000",
"l c #003c3c",
"m c #3c3c00",
"n c #003c00",
"o c #00003c",
/* pixels */
"iiiiiiiiiiiiiiiiiiiiiiiiiiiiiiii",
"iiiiiiiiiiiiiiiiiiiiiiiiiiiiiiii",
"iiiiiiiiiiiiiiiiiiiiiiiiiiiiiiii",
"iiiiiiiiiiiiiiiiiiiiiiiiiiiiiiii",
"iiiiiiiiiiiii.iiii...iiiiiiiiiii",
"iiiiiiiiiiii.#..i.i#i..iiiiiiiii",
"iiiiiiiiiii.####.i#ibii..iiiiiii",
"iiiiiiiiii.#j##.iii.ibbii..iiiii",
"iiiiiiiii.#j##.iii.iiijbbi#..iii",
"iiiiiiii.#j#j.i#i.gggjjjjbiii..i",
"iiiiiii.jjjj.#ii.kg.jjjj.ii#iii.",
"iiiiii.jjjj.iii.kk.i..j.ii#iii.i",
"iiiii.jajj.##ibbk.i#ii..###i#.ii",
"iiii.jajj.####ii.i#iiiii..ii.iii",
"iii.aaja.##j##i.i#h#iiiiii..iiii",
"ii.aaaa.#j####.#iedghi##iiii..ii",
"i.aaaa.jj##j#mii#edggdii#i#i#i.i",
".aaaa.jjjjj#mi#i###dggdh#i#iiii.",
".caaamlajjjmii#edede#dh#i##i#i.c",
"i.ncaaamnam####de#i#######i##.ci",
"iii..caaan#ia#####d#########.fii",
"iiiii..c.####aa####dd######.fiii",
"iiiiii..jja####aa####aa###.ciiii",
"iiiiii.jjjjaa####aa######ofiiiii",
"iiiii.jjjjjjjaa####aa###.fiiiiii",
"iiiii.cjjjjjjjjaa######.fiiiiiii",
"iiiiii..cjjjjjjjjaa###nciiiiiiii",
"iiiiiiii..cjjjjjjjjjj.ciiiiiiiii",
"iiiiiiiiii..fjjjjjjjnciiiiiiiiii",
"iiiiiiiiiiii..cjjjj.ciiiiiiiiiii",
"iiiiiiiiiiiiii.ncc.fiiiiiiiiiiii",
"iiiiiiiiiiiiiiii..fiiiiiiiiiiiii"
};
