/* XPM */
static const char *audio_xpm[] = {
/* width height num_colors chars_per_pixel */
"    32    32       16            1",
/* colors */
". c #000000",
"# c #ffffbe",
"a c #00bebe",
"b c #bebe00",
"c c #80807f",
"d c #a0a0a0",
"e c #828282",
"f c #ffffff",
"g c #ffff00",
"h c #fbfffb",
"i c #003c3c",
"j c #3c3c00",
"k c #202020",
"l c #003c00",
"m c #00003c",
"n c #c3c3c3",
/* pixels */
"ffffffffffffffffffffffffffffffff",
"ffffffffffffffffffffffffffffffff",
"ffffffffffffffffffffffffffffffff",
"ffffffffffffffffffffffffffffffff",
"fffffffffffff.ffff...fffffffffff",
"ffffffffffff.#..f.f#f..fffffffff",
"fffffffffff.####.f#ff#f..fffffff",
"ffffffffff.#g##.ff#f##fff..fffff",
"fffffffff.#g##.ff#eeff##ef#..fff",
"ffffffff.#g#g.f##enkefffeffff..f",
"fffffff.gggg.#f#enknheffeff#fff.",
"ffffff.gggg.ff#enknnheffefefff.f",
"fffff.gbgg.###enaknhheffefef#.ff",
"ffff.gbgg.#feenaaknhhefnefef.fff",
"fff.bbgb.##ennaaakkhhefeefe.ffff",
"ff.bbbb.#g#eanaaaknkhefefeef..ff",
"f.bbbb.gg##eanaaakekhefefenf#f.f",
".bbbb.gggggkeeaaakkhhefefe#ffff.",
".cbbbjibggg#kkeaaknhhefefe#f#f.c",
"f.lcbbbjlbj###keaknhhefefef##.cf",
"fff..cbbbl#####keknnhefe####.dff",
"fffff..c.##g####keknhefe###.dfff",
"ffffff..ggg##g###keke#####.cffff",
"ffffff.gggggg##g##kkf####mdfffff",
"fffff.ggggggggg#########.dffffff",
"fffff.cgggggggggg##g###.dfffffff",
"ffffff..cgggggggggg###lcffffffff",
"ffffffff..cgggggggggg.cfffffffff",
"ffffffffff..dggggggglcffffffffff",
"ffffffffffff..cgggg.cfffffffffff",
"ffffffffffffff.lcc.dffffffffffff",
"ffffffffffffffff..dfffffffffffff"
};
