/* XPM */
static const char *background[] = {
/* columns rows colors chars-per-pixel */
"40 40 121 2",
"   c #954500",
".  c #9b4b04",
"X  c #9b4c01",
"o  c #9d4e03",
"O  c #9e4f04",
"+  c #9f4f08",
"@  c #9f5005",
"#  c #a05106",
"$  c #a05009",
"%  c #a1510a",
"&  c #a25308",
"*  c #a2520b",
"=  c #a3530c",
"-  c #a35409",
";  c #a4550a",
":  c #a5560b",
">  c #a4540d",
",  c #a5550c",
"<  c #a5550e",
"1  c #a6570c",
"2  c #a6560f",
"3  c #a7570e",
"4  c #a7580d",
"5  c #a8580f",
"6  c #a8590e",
"7  c #a95a0f",
"8  c #a75710",
"9  c #a85811",
"0  c #a95910",
"q  c #a95912",
"w  c #aa5a11",
"e  c #aa5b10",
"r  c #aa5a13",
"t  c #ab5b12",
"y  c #ab5b14",
"u  c #ab5c11",
"i  c #ac5c13",
"p  c #ac5d12",
"a  c #ad5e13",
"s  c #ae5f12",
"d  c #ac5c15",
"f  c #ad5d14",
"g  c #ad5d16",
"h  c #ae5e15",
"j  c #ae5f14",
"k  c #ae5e17",
"l  c #af5f16",
"z  c #af5f18",
"x  c #af6015",
"c  c #b06114",
"v  c #b06017",
"b  c #b06116",
"n  c #b16215",
"m  c #b16217",
"M  c #b26316",
"N  c #b36417",
"B  c #b06019",
"V  c #b16118",
"C  c #b1611a",
"Z  c #b26219",
"A  c #b26318",
"S  c #b2621b",
"D  c #b3631a",
"F  c #b3631c",
"G  c #b36419",
"H  c #b4641b",
"J  c #b4651a",
"K  c #b5661b",
"L  c #b6671a",
"P  c #b4641d",
"I  c #b5651c",
"U  c #b5651e",
"Y  c #b6661d",
"T  c #b6671c",
"R  c #b6661f",
"E  c #b7671e",
"W  c #b7681b",
"Q  c #b7681d",
"!  c #b8691c",
"~  c #b8681f",
"^  c #b8691e",
"/  c #b96a1d",
"(  c #b96a1f",
")  c #bb6c1f",
"_  c #b76720",
"`  c #b86821",
"'  c #b96920",
"]  c #b96922",
"[  c #ba6a21",
"{  c #ba6b20",
"}  c #ba6a23",
"|  c #bb6b22",
" . c #bb6b24",
".. c #bb6c21",
"X. c #bc6c23",
"o. c #bc6d22",
"O. c #bd6e23",
"+. c #bc6c25",
"@. c #bd6d24",
"#. c #bd6d26",
"$. c #be6e25",
"%. c #be6f24",
"&. c #be6e27",
"*. c #bf6f26",
"=. c #bf6f28",
"-. c #bf7023",
";. c #bf7025",
":. c #c07124",
">. c #c07027",
",. c #c07126",
"<. c #c17225",
"1. c #c17227",
"2. c #c27326",
"3. c #c07029",
"4. c #c1712a",
"5. c #c27328",
"6. c #c2722b",
"7. c #c3732c",
"8. c #c6772a",
"9. c #c5752c",
"0. c #c77730",
/* pixels */
"C C C B z k k g B k z F F z g z q < > < > $ $ = % 8 z S S F ` +.C F R R U F C C ",
"k z B C B z g d y q y z C k z S 2 2 r B z q > >   . % > < 9 g S S P _ ] }  .+.+.",
"B C F P U P F S S z z F P F P ` U U } 3.3. ._ ` S U _ _ R R } &.r y g B P _ } +.",
"B B B B C S P U U C z B B g k S k y r g k g B U g g y 2 % + + % 2 < > 2 r z S F ",
"d r 8 < 8 r k C #.] _ ` _ P U ] ` P F U R R ] &.` _ P C g y d g C g r r g B C C ",
"k d 9 2 8 y B F 8 > > 8 8 < 2 q q 9 r B B d r y g k z B S P R _  .R S C F U U F ",
"P F S C S F U _ #. .+.=.3.#.+.=._ U _  . .R F P B C P _  .#.&.&.} R S F _ ] ` U ",
"F P U _ _ R R U ] R _ ] ` F B S +.R S S C z C R P P U _ ` ` R P ` P C P } #.+.] ",
"y k S R ] ` P C ] #.` g d P F r < d y * * r r = F F U ` ] U B k y U F B ]  ._ } ",
"B B C F U R R R `  .R y y S S r < d g 9 q C S d C F ` &.4.=.} R z ` R S } +.] +.",
"R U S C S U ] +.U R B 8 8 k z q q B S z C _ _ C P _  .=.3.&.` F R &.} U +.&. .&.",
"] ` R P F _  .=. . .U k z U R F g S U F F R P z B F P U _ ` U B R &.` C R _ F R ",
"_ ` } ] ` `  .#.3.&.} R _  .#. .d B S S S F C g g z g y z `  .` P  .U g C B y g ",
"C R  .+.] _ _ ] B k y r d k z k y g z C S S S C } } P y g R } _ R &.} P ` _ B S ",
"d S ] } R F S P 2 > = < 8 8 8 8 F S S P P P P U +.&._ d d R ] F S +. ._ &.#._ ` ",
"q l R Y S l z V S v C H R Y U I #.[ ` ~ R H P I r l g 3 g | 3.| , V Z V ' [ H I ",
"0 a H T V u w j t j Z J I T E ( | ^ H A V m v x Z T D u i T E x O.T Q ;.O.m a A ",
"p A Q K b p p p 7 u a j x A T ( K A x a j x j a T { Q x m ( { G -./ ) 2.:.L M W ",
"G ..O.K m G G b e e e e u x J ^ ^ T A m A A A m T { ^ J T ;.,.{ L n N / ! c s n ",
"^ ,.1.^ K ..O.Q j x x j j b J Q 5.;.o.{ { ..{ ( G T T K ( ,.5.;.2.-.<.8.8.<.-.2.",
"Q O.O.Q Q %.,.o.J T ^ Q T K K T O...( ( ..O.%.%.J K K J Q ....( J G J Q ^ K J T ",
"G G J J T ^ { { Q ( ....( Q T Q x j a b K { o.O.{ ^ T K J J m x ....o.O.%.O.O.O.",
"A p p J T m m Q K T Q Q T K Q ( x j a b K { o.O.o.( Q T K A x a b m A m A G G A ",
"K e e T ^ a p K m A m b b G Q ....( ^ ^ ..%.;.;.( Q K Q ^ T G A T ^ ^ T Q ^ ^ Q ",
"{ { ( ^ Q T T K o.T b b J Q K m a m G b p a K O.A m A A x a A ..H I Y E ~ E I H ",
"7 e u a j x x x p u 7 4 4 6 6 4 a m T J j 6 1 1 X o & 1 ; @ # : 5 t h h t 0 0 w ",
"Q ( ..o.O.O.o...{ o.%.%...( { o.J T ^ Q A e - O ; - 4 p p 6 7 a ~ X.*.$.| ~ ~ [ ",
"J K K K G b a p G T ( ....{ { { ^ K m b b x u 4 Q m j x A J ( ;.*.*.*.>.>.$.X.[ ",
"T Q ^ ^ ^ T K J : ; : e b A x e b a u p b m j e x 6 ; 4 u j m K | R F R  .+.R B ",
": 1 6 u j m G J x p p m ( o.Q A j j m K ( Q b u u 1 4 x K G j p U C z S _ ` F g ",
"J J J K ^ ..;.1.J G G K ^ ( T J G J Q { ..{ T G Q m A ..5.,.^ A 8 9 y d d d y y ",
"D b f e 5 7 t p Y ^ ' ^ I G D J Y K D A Z K ~ ..@.G l K @.O.~ I r C ` ` S B P } ",
"} ~ R E } $.3.>.B ' 3.*.} ~ &.9. .| ] I C Z _ | B ~ ] D U *.6.+.#.+.+.#.=.3.&.#.",
"]  .&.=.#.} R P  . .+. .} } +.&._ ` _ U F F _  .7.0.6.` R &.3. .#.=.6.7.6.=. .] ",
"U _ ] ] U C g d 4.} F F _ } ] U } }  .] R U R _ P U B 8 9 S ` R ] +.&.#.` U U R ",
"S k q 8 9 y y y +.F y y S _ R F =.3.=.#.] U S B d k d 9 y U +.#.F P F k q q z U ",
"P y = = y B z y F z y d C R ` ] #.#.#.+.] P z d S F F C C U R U P R _ S d q g S ",
"` S k C _ ` S r S S S F R `  .+.F P U R _ P B d C F U R _ R U P } &.6.4. .P B z ",
"_ R R R R R P S _ _ _ ]  .} _ U C C S P R R S k U R } =.4.6.6.6.}  .+.+.} ` U P ",
"P U P z y d P +.+.} ` } #.} S r _ U U R ` _ F z k k B P U U U R P z r 9 d S `  ."
};
