/* XPM */
static const char *bbdb[] = {
/* width height num_colors chars_per_pixel */
"    31    32       38            1",
/* colors */
". c #101010",
"# c #545454",
"a c #877360",
"b c #ffddc7",
"c c #ffdbc2",
"d c #ffd6b7",
"e c #fbd1b1",
"f c #f7ccac",
"g c #f3c7a6",
"h c #efc29f",
"i c #eabd99",
"j c #e6b792",
"k c #e4b48f",
"l c #ddb18b",
"m c #d6ac87",
"n c #d1a983",
"o c #cca680",
"p c #c79f7b",
"q c #bf9c77",
"r c #ba9673",
"s c #b4926e",
"t c #af8f6a",
"u c #a68765",
"v c #9c8360",
"w c #92805a",
"x c #8b7754",
"y c #806e4e",
"z c #736a47",
"A c #6a6040",
"B c #cacaca",
"C c #b4b4b4",
"D c #969696",
"E c #cab79f",
"F c #a39273",
"G c #c79947",
"H c #ffeadb",
"I c #ffd6b1",
"J c #ffcc99",
/* pixels */
"########xvvvutttttuvvx#########",
"########xvvvutttttuvvx#########",
"######zvwsqnljjjlnptvwvz#######",
"#####zvtqnlkjlmpppqqttwxz######",
"#####ztrtqpmrnqottttvwzzA######",
"####AyvtvqpqqqqxqvxvxzAAAA#####",
"####AyxwvqwpuuquxuxyvAzzyA#####",
"####AxxttwqwutuuqqqrruxyxA#####",
"####AxwtqtwowtqompoqqquxxA#####",
"####AxvqnmoommmmmmoomnqwxA#####",
"####AxtpjkkmonnnnomkkjpvxA#####",
"####AxtpjkkmonnnnomkkjpvxA#####",
"####AxtpjfgjloqqoljgfjptxA#####",
"####Axty.wpggjiijggccgmtxA#####",
"###muxtrty.pcleelchowyytxum####",
"###muaqmvy...vnnv.yyyvrmaum####",
"###quFmt..BD.xwwx...BCtmFuq####",
"###uvrmqnfnuvqjjqvunfnqmrvu####",
"###rvriilnqnjneenjnqnliirvr####",
"###qvqjhfhkgcgccgcgkhfhjqvq####",
"####vronlifdhiIHihdfilnorv#####",
"####vtpolfbinpEEpnibfloptv#####",
"####vtpolfbinpEEpnibfloptv#####",
"#####tmpicgowtrrtwogcipmt######",
"#####vkpgeljhloolhjlegpkv######",
"#####wnoigjiebiibeijgionw######",
"######rnkiqtGGGGGGtqiknr#######",
"######wqmkkkigJJgikkkmqw#######",
"#######upjhknqssqnkhjpu########",
"########uojhkkggkkhjou#########",
"#########wrmigbbgimrw##########",
"###########uqooooqu############"
};
