/* XPM */
static const char *binary_xpm[] = {
/* width height num_colors chars_per_pixel */
"    32    32       10            1",
/* colors */
". c #000000",
"# c #ffffbe",
"a c #bebe00",
"b c #80807f",
"c c #a0a0a0",
"d c #ffffff",
"e c #ffff00",
"f c #3c3c00",
"g c #003c00",
"h c #00003c",
/* pixels */
"dddddddddddddddddddddddddddddddd",
"dddddddddddddddddddddddddddddddd",
"dddddddddddddddddddddddddddddddd",
"dddddddddddddddddddddddddddddddd",
"dddddddddddddddddddddddddddddddd",
"dddddddddddddddddddddddddddddddd",
"ddddddddd.###...####...ddddddddd",
"ddddddddd.dd.ddd.dd.ddd.d..ddddd",
"ddddddddd.dd.ddd.dd.ddd.###..ddd",
"dddddddd.fdd.ddd.dd.ddd.ddddd..d",
"ddddddd.h.dd.ddd.dd.ddd.d#d#ddd.",
"dddddd.df.dd.ddd.dd.ddd.dd#ddd.d",
"ddddd.ed.hddd...dddd...dd##d#.dd",
"dddd.eadddddddddddddddddd.dd.ddd",
"ddd.aaeddddddddddddddddddd..dddd",
"dd.aaaadd...dddd.ddd...ddddd..dd",
"d.aaaaad.ddd.ddd.dd.ddd.dd#d#d.d",
".aaaaaad.ddd.ddd.dd.ddd.dd#dddd.",
".baaaaad.ddd.ddf.dd.ddd.d##d#d.b",
"d.gbaaad.ddd.dd.hdd.ddd.d#d##.bd",
"ddd..bad.ddd.dd.fdd.ddd.d###.cdd",
"ddddd..ee..fdddh.ddd..fdd##.cddd",
"dddddd.eeee###############.bdddd",
"dddddd.eeeeaa####aa######hcddddd",
"ddddd.eeeeeeeaa####aa###.cdddddd",
"ddddd.beeeeeeeeaa######.cddddddd",
"dddddd..beeeeeeeeaaee#gbdddddddd",
"dddddddd..beeeeeeeeee.bddddddddd",
"dddddddddd..ceeeeeeegbdddddddddd",
"dddddddddddd..beeee.bddddddddddd",
"dddddddddddddd.gbb.cdddddddddddd",
"dddddddddddddddd..cddddddddddddd"
};
