/* XPM */
static const char * calendar_xpm[] = {
"32 32 6 1",
" 	s None	c None",
".	c grey4",
"X	c white",
"o	c grey89",
"O	c grey51",
"+	c red1",
"                                ",
"         .           .          ",
"        .X.         .o.         ",
"        ...         ...         ",
" ........X...........X........  ",
" .XXXXXX.X..X.XXXXXX.o..o.XXX.O ",
" .XXXXXX...X.oXXXXXX...o.XXXX.O ",
" .XXXXX..X...XXXXXX..X...XXXX.O ",
" .XXXXX..o..XXXXXXX..o..XXXXX.O ",
" .XXXXXX...XXXX+++XX...XXXXXX.O ",
" .XXXXXXXXXX++++++XXXXXXXXXXX.O ",
" .XXXXXXXXXX++++++XXXXX+X+X+X.O ",
" .XXXXXXXXXX++++++XXXXXXXXXXX.O ",
" .XXXXXXXXXXXXX+++XXXXXX++X+X.O ",
" .XXXXXXXXXXXXX+++XXXXXXXXXXX.O ",
" .XXXXXXXXXXXXX+++XXXXX+X++XX.O ",
" .XXXXXXXXXXXXX+++XXXXXXXXXXX.O ",
" .XXXXXXXXXXXXX+++XXXXXXXXXXX.O ",
" .XXXXXXXXXXXXX+++XXXXXXXXXXX.O ",
" .XXXXXXXXXXXXX+++XXXXXXXXXXX.O ",
" .XXXXXXXXXXXXX+++XXXXXXXXXXX.O ",
" .oXXXXXXXXXXXX+++XXXXXXXXXXX.O ",
" ........XXXXXX+++XXXXXXXXXXX.O ",
" ..OOOOO.XXXXXX+++XXXXXXXXXXX.O ",
" .o.OOOO.++XXXXXXXoXXX+XXXXXX.O ",
" .Xo.OOO.X+XX+oo+++oX++X++XoX.O ",
" .XXo.OO.+XX+o+X+o+o+o+oX+XoX.O ",
" .XXXo.O.++Xo+oX+o+oo++X++XoX.O ",
" .XXXXo..XXXXXXXooooooXXXXXXX.O ",
" .............................O ",
"   OOOOOOOOOOOOOOOOOOOOOOOOOOOO ",
"                                "};
