/* XPM */
static char *compose[] = {
/* columns rows colors chars-per-pixel */
"32 32 252 2",
"   c #9C600A",
".  c #9C610A",
"X  c #9F620A",
"o  c #9E630A",
"O  c #9F630B",
"+  c #A2640B",
"@  c #A5650B",
"#  c #A6660B",
"$  c #A8670A",
"%  c #A6680C",
"&  c #A7680C",
"*  c #A8680B",
"=  c #A8690C",
"-  c #A86A0E",
";  c #A96A0F",
":  c #A26611",
">  c #A46812",
",  c #AA6A10",
"<  c #AB6D13",
"1  c #A96F1A",
"2  c #AF7119",
"3  c #AD731F",
"4  c #B3741B",
"5  c #AE7625",
"6  c #AF792B",
"7  c #B17723",
"8  c #B27824",
"9  c #B37825",
"0  c #B47A27",
"q  c #BA7C22",
"w  c #BC7D22",
"e  c #B77D2A",
"r  c #B38239",
"t  c #FD9D13",
"y  c #FD9E15",
"u  c #FD9F18",
"i  c #FDA21F",
"p  c #C5872C",
"a  c #C38933",
"s  c #C68D3D",
"d  c #CE903A",
"f  c #FDA526",
"g  c #FDA629",
"h  c #FDA930",
"j  c #FDAF3E",
"k  c #FDAF3F",
"l  c #BB8F50",
"z  c #AE9670",
"x  c #C28C40",
"c  c #DBA048",
"v  c #FDB040",
"b  c #FDB041",
"n  c #FDB143",
"m  c #FDB347",
"M  c #FDB349",
"N  c #FDB44A",
"B  c #E1A651",
"V  c #E6AA53",
"C  c #E2AB5D",
"Z  c #E4AD5E",
"A  c #EEB45F",
"S  c #FDB651",
"D  c #FEB650",
"F  c #FEB751",
"G  c #FEB854",
"H  c #FEB957",
"J  c #FDBA58",
"K  c #FEBA59",
"L  c #FEBB5B",
"P  c #FEBB5C",
"I  c #C19F6B",
"U  c #C3A06D",
"Y  c #DEB77E",
"T  c #E7B163",
"R  c #EBB86F",
"E  c #FEBD60",
"W  c #FEBD61",
"Q  c #FEBE62",
"!  c #FEBF64",
"~  c #F3BB6B",
"^  c #E1B476",
"/  c #F2BE73",
"(  c #F0BD75",
")  c #FEC066",
"_  c #FEC067",
"`  c #FEC068",
"'  c #F8C06D",
"]  c #FEC36E",
"[  c #FEC36F",
"{  c #FEC675",
"}  c #F6C47E",
"|  c #F7C67F",
" . c #FBC67B",
".. c #FEC87A",
"X. c #FEC97D",
"o. c #FCC87E",
"O. c #8C8E89",
"+. c #8E908B",
"@. c #8E908C",
"#. c #9C9D9A",
"$. c #B19F84",
"%. c #9FA09D",
"&. c #AEA189",
"*. c #A0A19D",
"=. c #A4A6A3",
"-. c #A5A6A3",
";. c #A5A7A3",
":. c #A6A7A4",
">. c #A6A8A4",
",. c #A7A8A5",
"<. c #A7A9A5",
"1. c #ABACA9",
"2. c #ACAEAA",
"3. c #B2B3B0",
"4. c #B4B4B4",
"5. c gray71",
"6. c gray72",
"7. c #BBBBBB",
"8. c gray74",
"9. c #C3A880",
"0. c #E8BD80",
"q. c #E2C08E",
"w. c #FECB80",
"e. c #FECB82",
"r. c #F9CA85",
"t. c #FECC84",
"y. c #FECC86",
"u. c #FECD86",
"i. c #FBCC89",
"p. c #F8CC8B",
"a. c #FECD88",
"s. c #FDCE8A",
"d. c #FECF8B",
"f. c #FECF8D",
"g. c #FED08E",
"h. c #FDD091",
"j. c #FED190",
"k. c #FED191",
"l. c #FED292",
"z. c #FED293",
"x. c #F8D197",
"c. c #FED396",
"v. c #FED497",
"b. c #FED498",
"n. c #FDD59D",
"m. c #FDD69C",
"M. c #FED69C",
"N. c #FED69D",
"B. c #FED79F",
"V. c #D6C7B2",
"C. c #D7CCBC",
"Z. c #EDD1A6",
"A. c #ECD1AB",
"S. c #ECD2AD",
"D. c #FDD8A1",
"F. c #FED9A4",
"G. c #FEDAA5",
"H. c #FEDAA8",
"J. c #FEDBA9",
"K. c #FEDDAD",
"L. c #FCDCAE",
"P. c #FCDDB2",
"I. c #FDDFB5",
"U. c #FBE2BC",
"Y. c #FBE2BE",
"T. c #C0C0C0",
"R. c #C3C3C3",
"E. c #C5C5C5",
"W. c #C7CCC7",
"Q. c #CDCDCD",
"!. c #CECECE",
"~. c #CECFCE",
"^. c gray81",
"/. c #D7CEC1",
"(. c #DDD4C3",
"). c #DBD5CD",
"_. c #D0D0D0",
"`. c #D2D2D2",
"'. c #D5D5D5",
"]. c #D7D7D7",
"[. c #DDDBD6",
"{. c #D8D8D8",
"}. c gray85",
"|. c #DADADA",
" X c gainsboro",
".X c #DDDDDD",
"XX c #DDDFDD",
"oX c #DEDFDE",
"OX c #DFDFDF",
"+X c #E7DDCF",
"@X c #DCE0DC",
"#X c #F4E1C5",
"$X c #FDE7C7",
"%X c #F2E1C9",
"&X c #FBE8CC",
"*X c #E5E1DB",
"=X c #E1E0DE",
"-X c #E0E0DF",
";X c #ECE5DC",
":X c #F1E3D0",
">X c #F1E6D6",
",X c #FBE9D0",
"<X c #FBEBD5",
"1X c #FBEDD9",
"2X c gray88",
"3X c #E1E1E1",
"4X c #E1E2E1",
"5X c #E2E2E2",
"6X c gray89",
"7X c #E4E3E1",
"8X c #E4E3E3",
"9X c #E3E4E3",
"0X c #E4E4E4",
"qX c gray90",
"wX c #E6E6E6",
"eX c #E7E7E7",
"rX c #E8E8E7",
"tX c #EEEBE7",
"yX c gray91",
"uX c #E9E9E9",
"iX c #EAEAEA",
"pX c gray92",
"aX c #ECECEC",
"sX c gray93",
"dX c #EEEEEE",
"fX c #EFEEEE",
"gX c #EFEFEF",
"hX c #F4ECE0",
"jX c #FBF0E0",
"kX c #FCF2E3",
"lX c #F6F3EF",
"zX c #FCF4E9",
"xX c #F8F4ED",
"cX c gray94",
"vX c #F1F1F1",
"bX c gray95",
"nX c #F3F3F3",
"mX c #F7F5F1",
"MX c #F4F4F4",
"NX c gray96",
"BX c #F6F6F6",
"VX c gray97",
"CX c #F8F6F2",
"ZX c #F8F7F5",
"AX c #F8F8F8",
"SX c #F9F9F9",
"DX c gray98",
"FX c #FBFBFB",
"GX c gray99",
"HX c #FDFDFD",
"JX c gray100",
"KX c None",
/* pixels */
"KXKXKXKXKXKXKXKXKXKXKXKXKXKXKXKXKXKXKXKXKXKXKXKXKXKXKXKXKXKXKXKX",
"KXKXKXKXKXKXKXKXKXKXKXKXKXKXKXKXKXKXKXKXKXKXKXKXKXKXKXKXKXKXKXKX",
"KXKXKXKXKXKXKXKXKXKXKXKXKXKXKXKXKXKXKXKXKXKXKXKXKXKXKXKXKXKXKXKX",
"KXKXKXKXKXKXKXKXKXKXKXKXKXKXKXKXKXKXKXKXKXKXKXKXKXKXKXKXKXKXKXKX",
"KXKXKXO.;.,.,.,.,.,.,.,.,.,.,.:.:.:.:.:.:.:.-.=.=.=.=.=.@.KXKXKX",
"KXKXKX#.JXJXGXGXGXGXGXFXDXDXDXSXAXAXAXVXBXBXBXMXMXnXnXMX%.KXKXKX",
"KXKXKX<._.HXSXAXAXAXVXVXVXVXBXBXBXBXNXNXNXNXMXMXMXMXMXE.1.KXKXKX",
"KXKXKX<.AX!.HXVXVXBXBXBXBXNXNXNXNXMXMXMXMXnXnXnXnXMX_.vX1.KXKXKX",
"KXKXKX<.FXiX].GXNXNXNXNXMXMXMXMXnXnXnXnXbXbXbXbXMX X}.SX2.KXKXKX",
"KXKXKX<.FXnX2X5XDXMXMXnXnXnXnXbXbXbXbXvXvXvXvXnXyXQ.uXVX3.KXKXKX",
"KXKXKX<.FXbXvX'.aXSXbXbXbXbXvXvXvXvXcXcXcXcXvXdXR.yXyXVX3.KXKXKX",
"KXKXKX<.DXcXcXgX^.dXAXvXvXcXcXcXcXgXgXgXgXvXgX8.yXeXeXBX3.KXKXKX",
"KXKXKX<.DXgXdXdXbX`.dXmXfXgXgXgXdXdXdXdXcXvX7.eXwXwXqXBX3.KXKXKX",
"KXKXKX<.DXdXsXsXdXAXfXhX%XtXdXsXsXsXsXcXvX$.qXqXqXqX0XNX3.KXKXKX",
"KXKXKX<.SXaXaXpXpXpXCXlX:XZ.ZXAXBXBXBXqX4.X U 8X0X6X6XNX3.KXKXKX",
"KXKXKX<.SXpXpXiXiXrX(.xXzXS.9.7.6.5.4.T.~.1 d l =X5X3XMX3.KXKXKX",
"KXKXKX<.SXiXuXuX9XW.>XkXjX1X^ V.2X.X|.{.OX3 k.c r [.3XMX3.KXKXKX",
"KXKXKX<.AXyXyXoX@XFX;X#X1X&XU.x C.6X6X5X5X3 l.d.V 6 ).MX3.KXKXKX",
"KXKXKX<.AXeXXXnXBXeX*XA.<XY.I.x.e I /.-X3X3 j.P w.A 5 +X3.KXKXKX",
"KXKXKX<.VX4XNXsX0X0X7Xq.,XP.n.N.D.T s 0 7 > l.S M { ~ 9 &.KXKXKX",
"KXKXKX>.JXDXDXDXSXSXSXY $XH.f.t.y.z.N.M.v.b.c.N j h K ' 8 KXKXKX",
"KXKXKX+.*.*.*.*.*.*.*.z 0.L.u.X.{ ] ) W L F m k g t t M  .q . KX",
"KXKXKXKXKXKXKXKXKXKXKXKX2 p.J.a.[ _ E H D M v f t t t t Q h.: KX",
"KXKXKXKXKXKXKXKXKXKXKXKXKX- Z m.F.g...` J b i t t t t n s.p $ KX",
"KXKXKXKXKXKXKXKXKXKXKXKXKXKXo ; a C ( | o.e.j.t t t G i.w KXKXKX",
"KXKXKXKXKXKXKXKXKXKXKXKXKXKXKXKXKXKX  + @ O v.t y ! r.4 KXKXKXKX",
"KXKXKXKXKXKXKXKXKXKXKXKXKXKXKXKXKXKXKXKXKX# B.u { } < KXKXKXKXKX",
"KXKXKXKXKXKXKXKXKXKXKXKXKXKXKXKXKXKXKXKXKX% G.d./ , KXKXKXKXKXKX",
"KXKXKXKXKXKXKXKXKXKXKXKXKXKXKXKXKXKXKXKXKX& K.R & KXKXKXKXKXKXKX",
"KXKXKXKXKXKXKXKXKXKXKXKXKXKXKXKXKXKXKXKXKX= B $ KXKXKXKXKXKXKXKX",
"KXKXKXKXKXKXKXKXKXKXKXKXKXKXKXKXKXKXKXKXKXX * KXKXKXKXKXKXKXKXKX",
"KXKXKXKXKXKXKXKXKXKXKXKXKXKXKXKXKXKXKXKXKXKXKXKXKXKXKXKXKXKXKXKX"
};
