/* XPM */
static char * ComposeFrame_xpm[] = {
"48 48 77 1",
" 	c None",
".	c #54420C",
"+	c #ECCE6C",
"@	c #FCF6DC",
"#	c #ECCA5C",
"$	c #7C6614",
"%	c #FCFAF4",
"&	c #F4DE9C",
"*	c #ECD274",
"=	c #C49E1C",
"-	c #F4F6F4",
";	c #C4A21C",
">	c #BC9A1C",
",	c #ECD27C",
"'	c #CCA21C",
")	c #BC961C",
"!	c #746214",
"~	c #B4961C",
"{	c #B48E1C",
"]	c #F4EAC4",
"^	c #F4E2A4",
"/	c #947614",
"(	c #F4E6B4",
"_	c #F4DE94",
":	c #ECDA8C",
"<	c #D4D6D4",
"[	c #FCFEFC",
"}	c #CCCACC",
"|	c #ECEEEC",
"1	c #C4C6C4",
"2	c #ECCA64",
"3	c #BCBEBC",
"4	c #E4E6E4",
"5	c #E4EAE4",
"6	c #DCDEDC",
"7	c #9C9E9C",
"8	c #F4F6FC",
"9	c #FCF6F4",
"0	c #ECF2EC",
"a	c #DCE2E4",
"b	c #E4C654",
"c	c #DCB21C",
"d	c #947A14",
"e	c #E4DEDC",
"f	c #E4E2DC",
"g	c #8C8E8C",
"h	c #CCD2CC",
"i	c #DCDEE4",
"j	c #E4DEE4",
"k	c #E4E6EC",
"l	c #ACAEAC",
"m	c #A4AAAC",
"n	c #B4B6B4",
"o	c #D4CECC",
"p	c #CCD2D4",
"q	c #D4CED4",
"r	c #D4DADC",
"s	c #C4CAC4",
"t	c #A4A2A4",
"u	c #F4FAFC",
"v	c #ECE6E4",
"w	c #D4DAD4",
"x	c #DCDAD4",
"y	c #CCC6C4",
"z	c #D4D6DC",
"A	c #ECE6EC",
"B	c #DCD6D4",
"C	c #DCD6DC",
"D	c #949294",
"E	c #7F00EF",
"F	c #ECF2F4",
"G	c #DCE2DC",
"H	c #BCBEC4",
"I	c #D4D2CC",
"J	c #BCB6BC",
"K	c #ECEAE4",
"L	c #B4B2AC",
"                                                ",
"                                                ",
"                                                ",
"                                                ",
"                                                ",
"                      .+                        ",
"                      @#$                       ",
"                     %&*=$                      ",
"                    -&&*;>$                     ",
"                   %&&&,'=)!                    ",
"                  %&&&&*'>~{!                   ",
"                 ]^^&&&,;>////                  ",
"                    (&&*=~!                     ",
"                    ]_:*>)!                     ",
"                    (&&+>~!                     ",
"      <[[[[[[[[[[[[ ^&_+>~$ }|[[[[[[[[[[1       ",
"      [%[--------|| (__2){! 3<4444454|647       ",
"      6[89---0-|||| ^:,#~~! 3<64444444a47       ",
"      1[[--0---|||4 bcc{d/$ 3<64e44a4f|gg       ",
"      43[[--||||||4         3hi6j64ifk1lm       ",
"      [4n[---|||||46133333331<66i6f6417ol       ",
"      [843[-|||5|4466<p<}q}h<<6666r4}7s<t       ",
"      [u%43[-||v444446666w6w66w6x6417yz<t       ",
"      [89-43[-A444af6666666BzzBr64371C<Bt       ",
"      [%8--6n[|444fi66666xz<B<<643D1C<z<t       ",
"      [89--06l[|46666rCw<<<<<<x4nD16<B<<t       ",
"      [8-----Bn[A6666x<<<<<<<<4nD1xz<z<<t       ",
"      [9--EEEEEE[vrBz<<<<po<<flEEEEE6<<<m       ",
"      [---|-EEEEnF[|6<<<}<<46nEEEEr<Bw<<t       ",
"      [9---0EEEEE}16e44G66xptnEEEEzBr<<<t       ",
"      [---|FEEEEE4}}H3nnlltl1EEEEE<<w<I<t       ",
"      [--||-EEEEEE5v4444fi466EEEEE16<<p<l       ",
"      [-|-F6EuEEEE444444ae64E6EEEEn1<<<<t       ",
"      [--|63E|EEEEEk444afie6ExEEEE<n1h<}l       ",
"      [0-4n[E||EEEE444j4Ge6E66EEEE<<l1<}l       ",
"      [-6n||E||EEEEE44Gei66E66EEEE<<<l1ql       ",
"      [GJ[||EK|4EEEE444ji6E6rxEEEE<<h<l3n       ",
"      [l[|||E|kvEEEEEaG666E666EEEE<<<homt       ",
"      3nntllEllllEEEEnLnnEnnnnEEEE3n3n33D       ",
"            E    EEEEE   E    EEEE              ",
"            E     EEEE  E     EEEE              ",
"            E     EEEEE E     EEEE              ",
"            E      EEEEE      EEEE              ",
"            E      EEEEE      EEEE              ",
"            E       EEE       EEEE              ",
"            E       EEE       EEEE              ",
"          EEEEE      E      EEEEEEEE            ",
"                                                "};
