/* XPM */
static char *dspam[] = {
/* columns rows colors chars-per-pixel */
"32 32 256 2",
"   c #000100",
".  c #000200",
"X  c #010400",
"o  c #020501",
"O  c #0A0301",
"+  c #040702",
"@  c #050804",
"#  c #070905",
"$  c #080B07",
"%  c #0A0C08",
"&  c #100A08",
"*  c #0B0D0A",
"=  c #0C0F0B",
"-  c #0E100C",
";  c #0F110D",
":  c #10120F",
">  c #111310",
",  c #141216",
"<  c #121411",
"1  c #131412",
"2  c #141513",
"3  c #151614",
"4  c #161815",
"5  c #171816",
"6  c #181917",
"7  c #191B18",
"8  c #1A1C19",
"9  c #1C1D1B",
"0  c #1D1F1C",
"q  c #1E1F1D",
"w  c #1F201E",
"e  c #20211F",
"r  c #212320",
"t  c #222421",
"y  c #232422",
"u  c #252724",
"i  c #262825",
"p  c #272826",
"a  c #282927",
"s  c #292B28",
"d  c #2A2C29",
"f  c #2B2D2A",
"g  c #2C2D2B",
"h  c #2D2E2C",
"j  c #2E2F2D",
"k  c #2F312E",
"l  c #323033",
"z  c #30322F",
"x  c #313330",
"c  c #323331",
"v  c #333432",
"b  c #333533",
"n  c #343633",
"m  c #363835",
"M  c #373936",
"N  c #383937",
"B  c #393A38",
"V  c #3A3B39",
"C  c #3B3D3A",
"Z  c #3C3E3B",
"A  c #3D3F3C",
"S  c #3E403D",
"D  c #40413F",
"F  c #414240",
"G  c #414341",
"H  c #434542",
"J  c #444643",
"K  c #454744",
"L  c #464845",
"P  c #49474B",
"I  c #484947",
"U  c #494A48",
"Y  c #4A4B49",
"T  c #4A4C4A",
"R  c #4C4E4B",
"E  c #4D4F4C",
"W  c #4E504D",
"Q  c #514F52",
"!  c #4F514E",
"~  c #50524F",
"^  c #515350",
"/  c #525451",
"(  c #535452",
")  c #545553",
"_  c #555654",
"`  c #59575B",
"'  c #575956",
"]  c #595B58",
"[  c #5A5C59",
"{  c #5B5D5A",
"}  c #5C5E5B",
"|  c #5D5F5C",
" . c #5E605D",
".. c #5F615E",
"X. c #60625F",
"o. c #616360",
"O. c #626461",
"+. c #636562",
"@. c #656664",
"#. c #676866",
"$. c #686967",
"%. c #686A67",
"&. c #6A6C69",
"*. c #6B6D6A",
"=. c #6D6F6C",
"-. c #6E706D",
";. c #727471",
":. c #737572",
">. c #747673",
",. c #767875",
"<. c #777976",
"1. c #787A77",
"2. c #797B78",
"3. c #7A7C79",
"4. c #7B7D7A",
"5. c #7C7E7B",
"6. c #7D7F7C",
"7. c #7E807D",
"8. c #7F817E",
"9. c #80827F",
"0. c #818380",
"q. c #828481",
"w. c #838582",
"e. c #848683",
"r. c #858784",
"t. c #868885",
"y. c #878986",
"u. c #888A87",
"i. c #898B88",
"p. c #8C8A8E",
"a. c #8A8C89",
"s. c #8B8D8A",
"d. c #8E8C90",
"f. c #8C8E8B",
"g. c #8D8F8C",
"h. c #8E908D",
"j. c #8F918E",
"k. c #90928F",
"l. c #919390",
"z. c #929491",
"x. c #939592",
"c. c #949693",
"v. c #959794",
"b. c #969895",
"n. c #979996",
"m. c #989A97",
"M. c #9A9B98",
"N. c #9B9D99",
"B. c #9E9CA0",
"V. c #9C9E9B",
"C. c #9D9F9C",
"Z. c #9EA09D",
"A. c #9FA19E",
"S. c #A0A29F",
"D. c #A1A3A0",
"F. c #A2A4A1",
"G. c #A3A5A2",
"H. c #A4A6A3",
"J. c #A5A7A4",
"K. c #A6A8A5",
"L. c #A7A9A6",
"P. c #A8AAA7",
"I. c #A9ABA8",
"U. c #AAACA9",
"Y. c #ABADAA",
"T. c #ACAEAB",
"R. c #ADAFAC",
"E. c #AEB0AD",
"W. c #B0B2AE",
"Q. c #B1B3AF",
"!. c #B2B4B1",
"~. c #B3B5B2",
"^. c #B6B3B8",
"/. c #B4B6B3",
"(. c #B5B7B4",
"). c #B6B8B5",
"_. c #B7B9B6",
"`. c #B8BAB7",
"'. c #B9BBB8",
"]. c #BABCB9",
"[. c #BBBDBA",
"{. c #BCBEBB",
"}. c #BDBFBC",
"|. c #BEC1BD",
" X c #C1BFC3",
".X c #C0C2BE",
"XX c #C1C3BF",
"oX c #C2C4C1",
"OX c #C5C2C7",
"+X c #C3C5C2",
"@X c #C4C6C3",
"#X c #C5C7C4",
"$X c #C6C8C5",
"%X c #C7C9C6",
"&X c #C8CAC7",
"*X c #C9CBC8",
"=X c #CACCC9",
"-X c #CBCECA",
";X c #CDCFCB",
":X c #CED0CC",
">X c #CFD1CE",
",X c #D0D2CF",
"<X c #D1D3D0",
"1X c #D2D4D1",
"2X c #D3D5D2",
"3X c #D4D6D3",
"4X c #D5D7D4",
"5X c #D6D8D5",
"6X c #D9D7DB",
"7X c #D8DAD6",
"8X c #D9DBD7",
"9X c #DADCD9",
"0X c #DBDDDA",
"qX c #DCDEDB",
"wX c #DDDFDC",
"eX c #DEE0DD",
"rX c #DFE1DE",
"tX c #E0E2DF",
"yX c #E1E4E0",
"uX c #E3E5E1",
"iX c #E4E6E3",
"pX c #E5E7E4",
"aX c #E6E8E5",
"sX c #E7E9E6",
"dX c #E8EAE7",
"fX c #E9EBE8",
"gX c #EAECE9",
"hX c #EBEEEA",
"jX c #EDEFEB",
"kX c #EEF0ED",
"lX c #EFF1EE",
"zX c #F0F2EF",
"xX c #F1F3F0",
"cX c #F2F4F1",
"vX c #F5F3F7",
"bX c #F3F5F2",
"nX c #F4F7F3",
"mX c #F6F8F4",
"MX c #F7F9F6",
"NX c #F8FAF7",
"BX c #F9FBF8",
"VX c #FAFCF9",
"CX c #FBFDFA",
"ZX c #FCFFFB",
"AX c #FEFFFC",
"SX c gray100",
"DX c gray100",
"FX c gray100",
"GX c gray100",
"HX c gray100",
"JX c gray100",
"KX c gray100",
"LX c gray100",
"PX c gray100",
"IX c gray100",
"UX c gray100",
/* pixels */
"v           . . . . . . . . . . . . . . . . .     .           ` ",
"l           . . . . . . . . . . . . . . . . . . . .            .",
"n           . . . . . . . . . . . . . . . . . . O O           } ",
"l           . . . . . . . . . . . . . . . . . .   +           ` ",
"v           . . . . . . . . . . . . . . . . . .   .           | ",
"l           . . . . . . . . . . . . . . . . . . . .           ` ",
"n           r c c c c c c c c c x y % . . . . .   .           ` ",
"l           B.CXCXCXCXCXCXCXCXCXCXvXvXoX-.1 . . . .            .",
"m           n Y q.AXAXAXAX6.U Y =..XvXCXCXsX .. O O           } ",
"l               ` vXAXAXAXQ         =.BXAXCXvX2.  +           ` ",
"n           . . ( AXAXvXAXY           b.AXCXCXVXP .           | ",
"l           . . Q AXAXAXAXQ . .   . . l vXAXAXCX+X#           ` ",
"v             . ^ AXAXvXAXY .   . . . + 2XAXAXCXvXB           ` ",
"l           . . ` vXAXAXAXQ . . . . .   ^.AXAXAXAX*.          { ",
"n           . . ) AXAXvXAXY . . . . . . M.AXAXAXCXd.          ` ",
"l           . . Q AXAXAXAXQ . . . . . . B.AXAXAXAXZ.          | ",
"v             . ^ AXAXvXAXY . . . . . . z.AXAXAXAXB.          ` ",
"l           . . ` vXAXAXAXQ . . . . . + B.vXAXAXAX7.          } ",
"n           . . ) AXAXvXAXY . . . .   . &XAXAXAXCXQ           ` ",
"l           . . Q AXAXAXAXQ . . . . . , sXAXAXAXfX8            .",
"v             . ^ AXAXvXAXY . . . . . ` VXAXAXCXd.O           } ",
"l           . . ` vXAXAXAXQ . . . . 5 qXCXAXAX2X2             ` ",
"n           . . ) AXAXvXAXU . . + P :XAXAXAX6Xe   .           ` ",
"l           4.].>XAXAXAXAXOX].%X6XVXCXAXuX3.%     .           } ",
"l           4.^.].'.'.`.{. X^.{.].L.7.P ,   . .   O           ` ",
"l             .         . . .         . . . . .   .           X.",
"l             . . . . . . . . . . . . . . . . .   O           } ",
"n               . . . . .   . . . . . . . . . . . .           ` ",
"l           . . . . . . . . . . . . . . . . . .   .           | ",
"n             . . . . . . . . . . . . . . . . .   +           ` ",
"l           . . . . . . . . . . . . . . . . . .   .           ..",
"n             . . . . . . . . . . . . . . . . . . .           ` "
};
