/* XPM */
static const char *dvi_xpm[] = {
/* width height ncolors chars_per_pixel */
"32 32 15 1",
/* colors */
"` c #000000",
"a c #FFFFBE",
"b c #BEBEFF",
"c c #BEBE00",
"d c #80807F",
"e c #0000BE",
"f c #C0C0C0",
"g c #A0A0A0",
"h c #FFFFFF",
"i c #FFFF00",
"j c #003C3C",
"k c #3C3C00",
"l c #3C003C",
"m c #003C00",
"n c #00003C",
/* pixels */
"hhhhhhhhhhhhhhhhhhhhhhhhhhhhhhhh",
"hhhhhhhhhhhhhhhhhhhhhhhhhhhhhhhh",
"hhhhhhhhhhhhhhhhhhhhhhhhhhhhhhhh",
"hhhhhhhhhhhhhhhhhhhhhhhhhhhhhhhh",
"hhhhhhhhhhhhh`hhhh```hhhhhhhhhhh",
"hhhhhhhhhhhhlh`nh`hhh``hhhhhhhhh",
"hhhhhhhhhhhkaebebhfebeb``hhhhhhh",
"hhhhhhhhhh`aaebeebebebebennhhhhh",
"hhhhhhhhh`aaaebeeebebebeeehnnhhh",
"hhhhhhhh`aiaabeebhhhhhhheebeb`nh",
"hhhhhhh`iiaaiebhheeheehhbeebhhhn",
"hhhhhh`iaaiiaehhebbhbbehebehhhnh",
"hhhhh`iiiiaaaebebeebeehhbehhanhh",
"hhhh`iicifaaaebebeebeehhebhhnhhh",
"hhh`iccikaaaiebebbhhbehhbeenhhhh",
"hh`cciijaaiiaehheeheehhhebhhn`hh",
"h`ccicniiiaaehhhhhhhhhhebebhah`h",
"`cccc`iiiiiebhhhhhehhhhbhbehhhh`",
"`dcccnniiiiebeebeehhhhheebhhah`d",
"h`mdcccnniiehbeeebhhhehhbehaa`dh",
"hhh``dcccniebhbbbhheehheaaaa`ghh",
"hhhhh``dniiieeeeeeehhhheaaa`ghhh",
"hhhhhh``iiiiebhhhhhhbeaaaa`dhhhh",
"hhhhhh`iiiiiiebhhhbeeaaaanghhhhh",
"hhhhh`iiiiiiiieeeeeiiaaa`ghhhhhh",
"hhhhh`diiiiiiiiiiiiiiii`ghhhhhhh",
"hhhhhh``diiiiiiiiiiiiimdhhhhhhhh",
"hhhhhhhh``diiiiiiiiii`dhhhhhhhhh",
"hhhhhhhhhh``giiiiiiimdhhhhhhhhhh",
"hhhhhhhhhhhh``diiii`dhhhhhhhhhhh",
"hhhhhhhhhhhhhh`mdd`ghhhhhhhhhhhh",
"hhhhhhhhhhhhhhhh``ghhhhhhhhhhhhh"
};
