/* XPM */
static const char *magick[] = {
/* columns rows colors chars-per-pixel */
"32 32 16 1",
"  c Gray0",
". c #800000",
"X c #008000",
"o c #808000",
"O c #000080",
"+ c #800080",
"@ c #008080",
"# c #808080",
"$ c none",
"% c Red",
"& c Green",
"* c Yellow",
"= c Blue",
"- c Magenta",
"; c Cyan",
": c Gray100",
/* pixels */
"$$$$$$$$$#######$$$$$$$$$$$$$$$$",
"$$$$$$$##:@:@=@@##$$$$$$$$$$$$$$",
"$$$$$##:$#=X&X&=XX##$$$$$$$$$$$$",
"$$$$#:$::=O&X&XXXXXX $$$$$$$$$$$",
"$$$#::#:&X=X&X&X&XXXX $$$$$$$$$$",
"$$#:$X#=X&X&X&X&XXXXOX $$$$$$$$$",
"$$#$:=$X&X&O&XO=&=&XXO $$$$$$$$$",
"$#:::::&X====#############$$$$$$",
"$#$::$X@O=OX=#*:::*:::*::# $$$$$",
"#:$::XO=$====#::*:::*:::*## $$$$",
"#@:::$@$&X&O&#*:::*:::*::#$# $$$",
"#@:::=$&X&X&X#::*:::*:::*#:$# $$",
"#$@::$#X&X&X&#*:::*:::*::#::$# $",
"#@$:=::&X&X&X#::*:::*:::*#      ",
"#$@==$&X&X&X&#*:::*:$@@@::*:::$ ",
"#@$@==##@&X&X#::*::$@#@X@:::*:$ ",
"$#=$======&X&#*:::*@$@=@X#*:::$ ",
"$#X@======X&X#::*::@*$XO=O::*:$ ",
"$$#X======&X&#*:::*@$#X@=O*:::$ ",
"$$#@=======&X#::*::#==X=OO::*:$ ",
"$$$#=O====&X&#*:::*$O=OO :*:::$ ",
"$$$$#=O=O=O&X#::*:::$   $:::*:$ ",
"$$$$$  O=O=XO#*:::*:::*:::*:::$ ",
"$$$$$$$  OOOO#::============*:$ ",
"$$$$$$$$$    #*:::::::::::::::$ ",
"$$$$$$$$$$$$$#::============*:$ ",
"$$$$$$$$$$$$$#*:::::::::::::::$ ",
"$$$$$$$$$$$$$#::============*:$ ",
"$$$$$$$$$$$$$#*:::*:::*:::*:::$ ",
"$$$$$$$$$$$$$#::*:::*:::*:::*:$ ",
"$$$$$$$$$$$$$#$$$$$$$$$$$$$$$$$ ",
"$$$$$$$$$$$$$                   "
};
