/* XPM */
static char * folder_imap_xpm[] = {
"32 32 24 1",
" 	c None",
".	c #000000",
"+	c #C0C0C0",
"@	c #49ACFF",
"#	c #FFC0C0",
"$	c #0000FF",
"%	c #800000",
"&	c #FFFFC0",
"*	c #FFA858",
"=	c #FFFF00",
"-	c #C0C000",
";	c #808000",
">	c #C6AA00",
",	c #AA5500",
"'	c #550000",
")	c #FFE3E3",
"!	c #FFAAAA",
"~	c #FFC7C7",
"{	c #FF0000",
"]	c #FF3939",
"^	c #FF5555",
"/	c #FF1D1D",
"(	c #FF7272",
"_	c #FF8E8E",
"                                ",
"                                ",
"                   .            ",
"                  .+.           ",
"                 .+.            ",
"            ... .+.             ",
"           .@@@.#.     .        ",
"          .@$$$$$.    .+.       ",
"         .@$$$$$$$.  .+.        ",
"        .@$$$$$$$$$..+.         ",
"       .@$$$$$$$$$$$#.          ",
"       .@$$$$$$$$$$$.           ",
"       .@$$$$$$$$$$$%.          ",
"       .@$$$$$$$$$$$%.          ",
"       .@$$$$$$$$$$$%.          ",
"       .@$$$$$$$$$$%..          ",
"       .@$$$$$$$$$%..           ",
"       .@$$$$$$$$%..            ",
"      .&*$$$$$$$%..             ",
"     .&=-%%%%%%%..              ",
"    .&=-;........               ",
"   .&=-;........                ",
"  .&=-;..                       ",
" .&=>,'.)!!   !!)  ~!!!  )!!!!) ",
" .=-,{{ !{{! !{{!  ]{{{) !{{{{{~",
"  .;'{{ !{{^ ^{{!  {{]{! !{{!/{^",
"   .'{{ !{^/ /^{! !{/({^ !{{ ]{^",
"    !{{ !{_{_{_{! ^{^!{{ !{{{{{_",
"    !{{ !{!]]]!{! {{{{{{~!{{^^_ ",
"    !{{ !{!_{_!{!~{{^^/{(!{{    ",
"    !{{ !{!~{~!{!({{  ({/!{{    ",
"                                "};
