/* XPM */
static char * unknown[] = {
"16 16 176 2",
"   s None c None",
".. c #636563",
"#. c #889280",
"a. c #7c7d79",
"b. c #3c3d4d",
"c. c #626859",
"d. c #747a6e",
"e. c #92958b",
"f. c #97a292",
"g. c #37374c",
"h. c #52596f",
"i. c #646364",
"j. c #999e98",
"k. c #888e82",
"l. c #4a4a5c",
"m. c #8a8880",
"n. c #464345",
"o. c #313848",
"p. c #828d7f",
"q. c #818177",
"r. c #5e6a59",
"s. c #30303a",
"t. c #818b80",
"u. c #727874",
"v. c #3f495e",
"w. c #838786",
"x. c #7f8583",
"y. c #898b88",
"z. c #323545",
"A. c #83827b",
"B. c #5b6162",
"C. c #4b4e5f",
"D. c #7a8572",
"E. c #8e9488",
"F. c #7d7c7a",
"G. c #6d8171",
"H. c #7b7475",
"I. c #7b818a",
"J. c #7e7977",
"K. c #656a6f",
"L. c #474656",
"M. c #49425c",
"N. c #939c96",
"O. c #2b2b39",
"P. c #707664",
"Q. c #a5b198",
"R. c #6c7975",
"S. c #818e7b",
"T. c #7a887a",
"U. c #889293",
"V. c #696464",
"W. c #8d928e",
"X. c #717768",
"Y. c #626358",
"Z. c #7f877a",
"0. c #46454e",
"1. c #2d2e45",
"2. c #44484d",
"3. c #28283b",
"4. c #686763",
"5. c #343733",
"6. c #3d553b",
"7. c #628870",
"8. c #83847b",
"9. c #919799",
".# c #8b9788",
"## c #6e6c72",
"a# c #17121f",
"b# c #778a7a",
"c# c #808174",
"d# c #30465e",
"e# c #536659",
"f# c #6e7274",
"g# c #161316",
"h# c #322f40",
"i# c #5b5a59",
"j# c #42424c",
"k# c #7b8478",
"l# c #3a4e5e",
"m# c #303c48",
"n# c #545e4b",
"o# c #8f949b",
"p# c #84867f",
"q# c #6c766a",
"r# c #9d9d91",
"s# c #9e9e8c",
"t# c #969389",
"u# c #425c41",
"v# c #44484e",
"w# c #626362",
"x# c #40494e",
"y# c #6f796d",
"z# c #a8b6ad",
"A# c #7c867c",
"B# c #304751",
"C# c #35354b",
"D# c #a3a0aa",
"E# c #354755",
"F# c #737876",
"G# c #798375",
"H# c #3f484f",
"I# c #606b68",
"J# c #696f6e",
"K# c #7a818c",
"L# c #494e54",
"M# c #8b9382",
"N# c #4a4a63",
"O# c #34364b",
"P# c #484151",
"Q# c #809177",
"R# c #5e666f",
"S# c #748184",
"T# c #747c70",
"U# c #77826d",
"V# c #464c51",
"W# c #797f77",
"X# c #627360",
"Y# c #403c47",
"Z# c #80907c",
"0# c #31313c",
"1# c #7a7672",
"2# c #7d7d73",
"3# c #3e5043",
"4# c #7b827a",
"5# c #7a7c74",
"6# c #454550",
"7# c #464f50",
"8# c #313536",
"9# c #828780",
".a c #9fa4a5",
"#a c #40484b",
"aa c #768376",
"ba c #636562",
"ca c #3e5c47",
"da c #4c545f",
"ea c #8fa699",
"fa c #95a196",
"ga c #899e87",
"ha c #6a876d",
"ia c #11181f",
"ja c #7c8475",
"ka c #717069",
"la c #8b9582",
"ma c #41464c",
"na c #8b8381",
"oa c #5a795f",
"pa c #463d4b",
"qa c #687874",
"ra c #778770",
"sa c #808482",
"ta c #727271",
"ua c #a5a8a3",
"va c #314247",
"wa c #53634f",
"xa c #6d6e6f",
"ya c #9f9e92",
"za c #849280",
"Aa c #949486",
"Ba c #95a08e",
"Ca c #727873",
"Da c #5d6452",
"Ea c #30474e",
"Fa c #8e988e",
"Ga c #8e978a",
"Ha c #a2b396",
"Ia c #3e3d48",
"Ja c #383f3f",
"Ka c #3b4050",
"La c #8ca293",
"Ma c #a4a8a8",
"Na c #486550",
"Oa c #7e8679",
"Pa c #474548",
"Qa c #443e47",
"Ra c #7c8b80",
"Sa c #3c494c",
"    x#K#o#f#B...w###U.F#Ja      ",
"    v#e#oaNacau#6.3#7.ha5.      ",
"    SaJ.i#Y.8.Oaw.saAaF.m#      ",
"    V#s#f.Bat##.GaQ.Hap#Ea      ",
"    L#M#G#m..#T.Z#FaE.naB#      ",
"    Y#e.k.r.baP.X.Rasaq.d#      ",
"    Iar#c#k#4#D.aazaga2#l#      ",
"    mayaq#U#d.y#laS.Q#jav.      ",
"    j#A.kawan#c.X#DaraH.E#      ",
"    6#J#xap.b#T#G.CaA#1#va      ",
"    0.W.u..aMauaD#z#R.V.o.      ",
"    Qa5#I#Laj.faN.eaqai.z.      ",
"    b.taa.W#y.t.x.Z.9#4.s.      ",
"    2.M.0#3.ia8#a#h#g#l.O.      ",
"    n.paS#R#h.daL.I.K.9.g.      ",
"    P#1.C#Ka7#Pa#aH#O#C.N#      "};