/* XPM */
static const char * folder_pop_xpm[] = {
"16 16 55 1",
" 	c None",
".	c #000000",
"+	c #353535",
"@	c #080808",
"#	c #031717",
"$	c #000505",
"%	c #2E3E3E",
"&	c #3C4040",
"*	c #4A3A3A",
"=	c #FF6B6B",
"-	c #DA3A3A",
";	c #7D2F2F",
">	c #FF3B3B",
",	c #FF0000",
"'	c #430000",
")	c #304040",
"!	c #3E4040",
"~	c #001313",
"{	c #FF6868",
"]	c #FF0808",
"^	c #483535",
"/	c #001414",
"(	c #FF6363",
"_	c #3A0000",
":	c #001314",
"<	c #FF6263",
"[	c #EA0000",
"}	c #1C0000",
"|	c #00141E",
"1	c #FF5C63",
"2	c #E60000",
"3	c #00000C",
"4	c #C5D45C",
"5	c #EB711F",
"6	c #BF0000",
"7	c #C70000",
"8	c #C30000",
"9	c #240000",
"0	c #00000E",
"a	c #CFCF59",
"b	c #E2E80A",
"c	c #041700",
"d	c #0B0B08",
"e	c #D8D859",
"f	c #E9E910",
"g	c #0B1100",
"h	c #2D2C3C",
"i	c #8B595B",
"j	c #8A5656",
"k	c #3E3E3E",
"l	c #0D0D03",
"m	c #9F9F08",
"n	c #272700",
"o	c #8B5C5E",
"p	c #815454",
"         ..     ",
"         +@     ",
"      #$%&      ",
"     *=-;  +@   ",
"    *>,,,')!.   ",
"   ~{,,,,]^     ",
"   /(,,,,,_     ",
"   :<,,,,[}     ",
"   |1,,,2}.     ",
"  3456789.      ",
" 0abc....       ",
"defghijk        ",
"lmn.o           ",
"... p           ",
"                ",
"                "};
