/* XPM */
static const char *magick[] = {
/* columns rows colors chars-per-pixel */
"16 16 121 2",
"   c Gray0",
".  c #010000",
"X  c #010100",
"o  c #010101",
"O  c #020202",
"+  c #020205",
"@  c #050504",
"#  c #050506",
"$  c Gray3",
"%  c #090909",
"&  c #0c0c0c",
"*  c #0c0d0d",
"=  c #111111",
"-  c #121415",
";  c #161616",
":  c #141b1b",
">  c #1e1e1e",
",  c Gray12",
"<  c #1f1f2d",
"1  c #282800",
"2  c #2c2c09",
"3  c #353500",
"4  c Gray16",
"5  c #2c2c2c",
"6  c Gray20",
"7  c #343434",
"8  c Gray21",
"9  c #3d3d3e",
"0  c #3c3c4b",
"q  c #3e3e50",
"w  c #540a0a",
"e  c #4d4d03",
"r  c #4f4f03",
"t  c #505008",
"y  c #595905",
"u  c #444444",
"i  c #4b4b4b",
"p  c #414151",
"a  c Gray32",
"s  c #565656",
"d  c Gray34",
"f  c Gray35",
"g  c #6d5b5b",
"h  c #656565",
"j  c #676767",
"k  c #646e6e",
"l  c #696964",
"z  c #6a6a6a",
"x  c Gray42",
"c  c #6d6d6d",
"v  c Gray43",
"b  c #6b6d70",
"n  c #717171",
"m  c #717575",
"M  c #747676",
"N  c #767575",
"B  c #747878",
"V  c #777878",
"C  c #767d7d",
"Z  c #7a7272",
"A  c Gray48",
"S  c #7b7b7b",
"D  c Gray50",
"F  c #758383",
"G  c #9c0000",
"H  c #877676",
"J  c #e30000",
"K  c #9d9d00",
"L  c #9e9e00",
"P  c #a1a100",
"I  c #818181",
"U  c #838383",
"Y  c #858a8a",
"T  c #8b8e8e",
"R  c #8d8d8d",
"E  c #8e8e8e",
"W  c Gray56",
"Q  c #939393",
"!  c Gray58",
"~  c Gray61",
"^  c #9f9f9f",
"/  c #a0a0a0",
"(  c #a7a7a7",
")  c #a8abab",
"_  c #aaaaaa",
"`  c #acacac",
"'  c Gray68",
"]  c #aeaeae",
"[  c Gray71",
"{  c #b6b6ba",
"}  c #b9b9b9",
"|  c #bebebe",
" . c #babac2",
".. c #cccbcb",
"X. c Gray81",
"o. c #c8d3d3",
"O. c #d0d0d0",
"+. c #d2d2d2",
"@. c #d5d5d5",
"#. c #d6d7d7",
"$. c #d7d7d8",
"%. c Gray85",
"&. c #dadade",
"*. c gainsboro",
"=. c #e6e6e6",
"-. c #e3e8e8",
";. c #e6eaea",
":. c #e8e8e7",
">. c Gray91",
",. c Gray92",
"<. c Gray93",
"1. c #f0f3f3",
"2. c Gray95",
"3. c #f4f4f4",
"4. c #f6f6f6",
"5. c Gray97",
"6. c #f9f9f9",
"7. c Gray98",
"8. c Gray99",
"9. c Gray100",
"0. c None",
/* pixels */
"0.0.$ i A s ; o   0.0.0.0.0.0.0.",
"0.  c 4.=.O.^ u     0.0.0.0.0.0.",
"0.& 9.9.7.2.>.X./ u     0.0.0.0.",
"  n 9.6.9.9.5.2.>.+._ 8 $ 0.0.0.",
"  V -.o.1.,.9.9.8.9./ j ] 5 0.0.",
"  m Z w F #.3.<.9.%.f ( c | O 0.",
"  C H J . : N @.9.S E h D d o 0.",
"  B T G g Y = % ~ v Q R ! a   0.",
"  * k M ) ;...x U c W ' I n $ 0.",
"0.0.  - b  .&.$.*.j E ` } [ $ 0.",
"0.0.0.0.  t l { :.c ~ } S 6   0.",
"0.0.0.0.@ L 3 < D z z 7   0.0.0.",
"0.0.0.0.+ K r 0 >     0.0.0.0.0.",
"0.0.0.0.+ L e q 4 0.0.0.0.0.0.0.",
"0.0.0.0.# P y p 5   0.0.0.0.0.0.",
"0.0.0.0.X 1 2 9 ,   0.0.0.0.0.0."
};
