/* XPM */
static const char * folder_imap_xpm[] = {
"16 16 52 1",
" 	c None",
".	c #000000",
"+	c #353535",
"@	c #080808",
"#	c #071303",
"$	c #000500",
"%	c #433E2B",
"&	c #40403D",
"*	c #16344A",
"=	c #275FFF",
"-	c #2035D7",
";	c #413070",
">	c #1635FF",
",	c #0000FF",
"'	c #000044",
")	c #43402D",
"!	c #3F403F",
"~	c #071000",
"{	c #275BFF",
"]	c #0B08FF",
"^	c #473535",
"/	c #071200",
"(	c #265AFF",
"_	c #0B00FF",
":	c #3B0000",
"<	c #051000",
"[	c #2357FF",
"}	c #2A00C0",
"|	c #280000",
"1	c #07120A",
"2	c #2554FF",
"3	c #2800BC",
"4	c #290000",
"5	c #00000C",
"6	c #D7D44B",
"7	c #A57262",
"8	c #330086",
"9	c #430083",
"0	c #45007E",
"a	c #270000",
"b	c #00000E",
"c	c #C7CF59",
"d	c #DBE705",
"e	c #0E1400",
"f	c #0B0B08",
"g	c #CFD959",
"h	c #F9D30C",
"i	c #332000",
"j	c #6D5366",
"k	c #0D0D03",
"l	c #8A9906",
"m	c #000108",
"         ..     ",
"         +@     ",
"      #$%&      ",
"     *=-;  +@   ",
"    *>,,,')!.   ",
"   ~{,,,,]^     ",
"   /(,,,,_:     ",
"   <[,,,,}|     ",
"   12,,,34.     ",
"  567890a.      ",
" bcde....       ",
"fghij           ",
"kl.             ",
" m              ",
"                ",
"                "};
