/* XPM */
static char * folder_palmpilot_xpm[] = {
"26 39 35 1",
" 	c None",
".	c #666666",
"+	c #003333",
"@	c #000000",
"#	c #336666",
"$	c #330033",
"%	c #99CCCC",
"&	c #CCCCCC",
"*	c #333366",
"=	c #999999",
"-	c #333333",
";	c #996699",
">	c #CCFFFF",
",	c #666699",
"'	c #669999",
")	c #663366",
"!	c #9999CC",
"~	c #003300",
"{	c #000033",
"]	c #CCCC99",
"^	c #669966",
"/	c #99CC99",
"(	c #CC9999",
"_	c #003366",
":	c #996666",
"<	c #999966",
"[	c #336633",
"}	c #666633",
"|	c #663333",
"1	c #330000",
"2	c #FFFFCC",
"3	c #333300",
"4	c #CCCCFF",
"5	c #660000",
"6	c #FFFFFF",
".........................+",
"@#$%&*&=--.........&...-.@",
"-.#;>&&>=,'......)!>>>&&.@",
"-.-~~~~~~~~~~~~~~~~~~~~~.@",
"{.-===================&-.@",
"+.-=@@@@@@@]@^--.@@]--=-.@",
"+.-=&.=/(/&'&.=&'&&====-._",
"+.-=]=.=^.:.<..]=/=]//=-._",
"-.-=]'.]=&&]/&==^:^.=.=-.+",
"*.-=]=.[=--.--/@&&/(/==-.+",
"#.-=/.==&=/===/===<'<==-.+",
"-.-=/}*<.<==/../<'=====-._",
"{.-=(=^..=.^.}..-..--==-._",
"{.-=/.=.}#.|./=/&/===^=-._",
"1.-=&=-=[...-=-|@=/====-._",
"{.-=]<.==/===<^'<.'.^.=-._",
"{.-=&.-<=../<'====<==^=-.#",
"+.-=]#..-.-1-@=^<'^<^==-.*",
"-.-=].-/]%]&/=.<,<..=^=-._",
"{.-=&.-}-.-+.=^=^.=.^.=-.*",
"-.-=2&=/.^<.<=<.=<^<.==-._",
"{.-=@@.@=@..--~'---^&-=-.+",
"{.-=@-=3'-^}#.-<-.-.[.=-.+",
"-.-=>.&&<='(==<'/===&==-.+",
"*.-=..===%=/=/=!==/=--=-.{",
"{.-==@@============%@@=-.{",
"-.-=><&'==========/.&==-.+",
"1.-=]*%<========='==^*=-.{",
"{.-=@@-&'/==/==/==/!@@=-.{",
"{.-==@&[@=..^.#..^-[&@=-.@",
"{.-=&&&&&&&&&&&&&&&&&&=-.{",
"{.----------------------.@",
"{.,,@@@@@@+@@@@@@@@@@@@*.@",
"[.1@44@@44@@&%;@,4--@44@.{",
"[.@@4=-+*,@-@@+-@4--.&-@.{",
"{.)@,-%-.-4{'&*-&@/-!-.&.{",
"1..@-=-@=&+--$--*&*--%!..{",
"5+......................@{",
"6{{{{{{{{+-----+-+@{{{-*{6"};
