/* XPM */
static const char *magick[] = {
/* columns rows colors chars-per-pixel */
"32 32 256 2",
"   c Gray100",
".  c #ffffffffcccc",
"X  c #ffffffff3333",
"o  c Yellow",
"O  c #ffff99996666",
"+  c #ffff66663333",
"@  c #ffff33333333",
"#  c Red",
"$  c #cccccccc3333",
"%  c #cccccccc0000",
"&  c #cccc9999ffff",
"*  c #cccc6666ffff",
"=  c #cccc33330000",
"-  c Gray60",
";  c #999999993333",
":  c #999999990000",
">  c #99993333ffff",
",  c #99990000ffff",
"<  c #99990000cccc",
"1  c #66669999ffff",
"2  c #666666660000",
"3  c #66660000cccc",
"4  c #666600009999",
"5  c #666600000000",
"6  c Gray20",
"7  c #333333330000",
"8  c #333300006666",
"9  c #333300003333",
"0  c #333300000000",
"q  c Green",
"w  c #0000cccc0000",
"e  c #000099990000",
"r  c #000066660000",
"t  c #00003333ffff",
"y  c #00003333cccc",
"u  c #000033339999",
"i  c #000033330000",
"p  c #000000006666",
"a  c #000000003333",
"s  c #eeee00000000",
"d  c #bbbb00000000",
"f  c #aaaa00000000",
"g  c #888800000000",
"h  c #777700000000",
"j  c #444400000000",
"k  c #111100000000",
"l  c #0000dddd0000",
"z  c #0000bbbb0000",
"x  c #0000aaaa0000",
"c  c #000088880000",
"v  c #000077770000",
"b  c #000055550000",
"n  c #000044440000",
"m  c #000022220000",
"M  c #000011110000",
"N  c #000000008888",
"B  c #000000007777",
"V  c #000000005555",
"C  c #000000004444",
"Z  c #000000002222",
"A  c #000000001111",
"S  c #eeeeeeeeeeee",
"D  c #aaaaaaaaaaaa",
"F  c #777777777777",
"G  c #555555555555",
"H  c #444444444444",
"J  c #222222222222",
"K  c Gray0",
"L  c None",
"P  c Gray100",
"I  c Gray100",
"U  c Gray100",
"Y  c Gray100",
"T  c Gray100",
"R  c Gray100",
"E  c Gray100",
"W  c Gray100",
"Q  c Gray100",
"!  c Gray100",
"~  c Gray100",
"^  c Gray100",
"/  c Gray100",
"(  c Gray100",
")  c Gray100",
"_  c Gray100",
"`  c #ffffdedeffff",
"'  c #ffff9c9cffff",
"]  c #ffff6b6bffff",
"[  c #ffff3939ffff",
"{  c #ffff5a5affff",
"}  c #ffff9494ffff",
"|  c #ffffadadffff",
" . c #ffffd6d6ffff",
".. c #ffffdedeffff",
"X. c #fffff7f7ffff",
"o. c #ffffa5a5ffff",
"O. c #ffff4242ffff",
"+. c #ffff3131ffff",
"@. c #ffff3939ffff",
"#. c #ffff3939ffff",
"$. c #ffff3939ffff",
"%. c #ffff3939ffff",
"&. c #ffff3939ffff",
"*. c #ffff3939ffff",
"=. c #ffff3131ffff",
"-. c #ffff8c8cffff",
";. c Gray100",
":. c Gray100",
">. c Gray100",
",. c Gray100",
"<. c Gray100",
"1. c Magenta",
"2. c Gray100",
"3. c Gray100",
"4. c Gray100",
"5. c Gray100",
"6. c Gray100",
"7. c Gray100",
"8. c Gray100",
"9. c Gray100",
"0. c Gray100",
"q. c Gray100",
"w. c Gray100",
"e. c Gray100",
"r. c Gray100",
"t. c Gray100",
"y. c Gray100",
"u. c Gray100",
"i. c Gray0",
"p. c Gray0",
"a. c Gray0",
"s. c Gray0",
"d. c Gray0",
"f. c Gray0",
"g. c Gray0",
"h. c Gray0",
"j. c Gray0",
"k. c Gray0",
"l. c Gray0",
"z. c Gray0",
"x. c Gray0",
"c. c Gray0",
"v. c Gray0",
"b. c Gray0",
"n. c Gray0",
"m. c Gray0",
"M. c Gray0",
"N. c Gray0",
"B. c Gray0",
"V. c Gray0",
"C. c Gray0",
"Z. c Gray0",
"A. c Gray0",
"S. c Gray0",
"D. c Gray0",
"F. c Gray0",
"G. c Gray0",
"H. c Gray0",
"J. c Gray0",
"K. c Gray0",
"L. c Gray0",
"P. c Gray0",
"I. c Gray0",
"U. c Gray0",
"Y. c Gray0",
"T. c Gray0",
"R. c Gray0",
"E. c Gray0",
"W. c Gray0",
"Q. c Gray0",
"!. c Gray0",
"~. c Gray0",
"^. c Gray0",
"/. c Gray0",
"(. c Gray0",
"). c Gray0",
"_. c Gray0",
"`. c Gray0",
"'. c Gray0",
"]. c Gray0",
"[. c Gray0",
"{. c Gray0",
"}. c Gray0",
"|. c Gray0",
" X c Gray0",
".X c Gray0",
"XX c Gray0",
"oX c Gray0",
"OX c Gray0",
"+X c Gray0",
"@X c Gray0",
"#X c Gray0",
"$X c Gray0",
"%X c Gray0",
"&X c Gray0",
"*X c Gray0",
"=X c Gray0",
"-X c Gray0",
";X c Gray0",
":X c Gray0",
">X c Gray0",
",X c Gray0",
"<X c Gray0",
"1X c Gray0",
"2X c Gray0",
"3X c Gray0",
"4X c Gray0",
"5X c Gray0",
"6X c Gray0",
"7X c Gray0",
"8X c Gray0",
"9X c Gray0",
"0X c Gray0",
"qX c Gray0",
"wX c Gray0",
"eX c Gray0",
"rX c Gray0",
"tX c Gray0",
"yX c Gray0",
"uX c Gray0",
"iX c Gray0",
"pX c Gray0",
"aX c Gray0",
"sX c Gray0",
"dX c Gray0",
"fX c Gray0",
"gX c Gray0",
"hX c Gray0",
"jX c Gray0",
"kX c Gray0",
"lX c Gray0",
"zX c Gray0",
"xX c Gray0",
"cX c Gray0",
"vX c Gray0",
"bX c Gray0",
"nX c Gray0",
"mX c Gray0",
"MX c Gray0",
"NX c Gray0",
"BX c Gray0",
"VX c Gray0",
"CX c Gray0",
"ZX c Gray0",
"AX c Gray0",
"SX c Gray0",
"DX c Gray0",
"FX c Gray0",
"GX c Gray0",
"HX c Gray0",
"JX c Gray0",
"KX c Gray0",
"LX c Gray0",
"PX c Gray0",
"IX c Gray0",
"UX c Gray0",
/* pixels */
"L L L L L L L K K L L L L L L L L L L L L L L L L L L L L L L L ",
"L L L L L L L K K K L K K K K L L L L L L L L L L L L L L L L L ",
"L L L L L L L K 7 7 K K K K K L L L L L L L L L L L L L L L L L ",
"L L L L L L L K 7 $ : : 2 K L L L L L L L L L L L L L L L L L L ",
"L L L L L K K 7 ; . o o K K L L L L L L L L L L L L L L L L L L ",
"L L L K K K K : $ X X o : K K L L L L L L L L L L L L L L L L L ",
"L L L L K K K K K % o 7 2 k K K L L L L L L L L L L L L L L L L ",
"L L L L L L L L K : 7 K K K K K L L L L L L L L L L L L L L L L ",
"L L L L L L L L K k K c r M K K L L L L L L L L L L L L L L L L ",
"L L L L L L L K K K e e e e r M K K L L L L L L L L L L L L L L ",
"L L L L L L K K b b w e e c i Z 9 K K K L L L L L L L L L L L L ",
"L L L L L K K r x l z e e n 8 * > 3 K K K L L L L L L L L L L L ",
"L L L L L K i e e e e e e m > & * , a K L L L L L L L L L L L L ",
"L L L L K M v v c x e e e m < > , , Z K L L L L L L L L L L L L ",
"L L L L K K K M c x v c e r 9 , , 4 M K K L L L L L L L L L L L ",
"L L L L L L K r m 0 j k r e b m M i c v M K K L L L L L L L L L ",
"L L L L L K m b 5 + @ s k c e e e e e e c i K K L L L L L L L L ",
"L L L L K K c i = O + # h v e e e r n r e e r K K K L L L L L L ",
"L L L K K n z v f @ # # 0 v e e i J H J i e v m K K K L L L L L ",
"L L L K M e q l k f d g m e e r 6   S - J K K K K K L L L L L L ",
"L L K K v e e e v i m n c e e n G     - H K K K L L L L L L L L ",
"L K K M b v n v e x e e e e e r H D D - 6 K K L L L L L L L L L ",
"L K K K K K K c x l e e e e e e M H F H M e n K K L L L L L L L ",
"L L L L K K K i l w e e e e e e c b n b c v e r K K K L L L L L ",
"L L L K A u y N m x e e e e e e e e e e e v i c c m K K L L L L ",
"L L L K B 1 1 t p r e e e e e e e e e e e c i i c e n K K K L L ",
"L L L K u 1 1 t N n e e e e e e e e e v b i i i n e e r K K K L ",
"L L K K V t t t C v e e e e e c r n i i n r v c c r i K K K K L ",
"L K K i i a N Z n e e e e v b r r c c e e v b m K K K K K L L L ",
"K K K c e v v c e e e e e e e c v b n m K K K K K K L L L L L L ",
"K K K i n n n n n n n m m M K K K K K K K K K L L L L L L L L L ",
"K K K K K K K K K K K K K K K K K K L L L L L L L L L L L L L L "
};
