/* XPM */
static const char *magick[] = {
/* columns rows colors chars-per-pixel */
"16 16 126 2",
"   c Gray0",
".  c #010101",
"X  c #020201",
"o  c #040405",
"O  c #0b0b0b",
"+  c #0d0d0e",
"@  c #0f0f0d",
"#  c #0f0f0e",
"$  c #120f0b",
"%  c #120f0d",
"&  c #101011",
"*  c #151515",
"=  c Gray9",
"-  c #191919",
";  c #211c17",
":  c #301f10",
">  c #28231b",
",  c #29292a",
"<  c #2b2b2c",
"1  c #2d2d2c",
"2  c #2d2d2e",
"3  c #2e2e2d",
"4  c #432820",
"5  c #423c35",
"6  c #453c34",
"7  c #463c34",
"8  c #493c34",
"9  c #533a26",
"0  c #533b34",
"q  c #484037",
"w  c #4f4738",
"e  c #52483e",
"r  c #744921",
"t  c #774920",
"y  c #784920",
"u  c #7b4920",
"i  c #7e5026",
"p  c #7f5225",
"a  c #755536",
"s  c #4b4f58",
"d  c #5a5655",
"f  c #5e5751",
"g  c #5c6167",
"h  c #635b55",
"j  c #7a7a7b",
"k  c #7a7a7c",
"l  c #7a7a7d",
"z  c #7d7d7e",
"x  c #7c7d83",
"c  c #74808e",
"v  c #825327",
"b  c #a76325",
"n  c #8c6a44",
"m  c #8f6d45",
"M  c #816d51",
"N  c #837059",
"B  c #8d7a5f",
"V  c #977449",
"C  c #917c5c",
"Z  c #957e5d",
"A  c #ffae56",
"S  c #e0b27a",
"D  c #e2b37c",
"F  c #f7b975",
"G  c #ffbd77",
"H  c #9f9fa3",
"J  c #bea683",
"K  c #a0a0a4",
"L  c #a1a1a6",
"P  c #a2a2a6",
"I  c #a3a3a7",
"U  c #a1a6ac",
"Y  c #a2a7ad",
"T  c #a3a7ad",
"R  c #a4a4a8",
"E  c #a7a7ab",
"W  c #a8a8ab",
"Q  c #aaaaad",
"!  c #a9adb5",
"~  c #acacb1",
"^  c #adacb0",
"/  c #adadb2",
"(  c #afafb1",
")  c #afafb2",
"_  c #acb2b9",
"`  c #afb3ba",
"'  c #b1b1b2",
"]  c #b0b0b4",
"[  c #b3b3b5",
"{  c #b5b5b7",
"}  c #b6b6b7",
"|  c #b0b7bf",
" . c #b6b6b8",
".. c #bbbbbb",
"X. c #bbbbbc",
"o. c #b8bcbf",
"O. c #bcbcbc",
"+. c #bcbcbd",
"@. c #bcc2c8",
"#. c #ffd494",
"$. c #fffdb2",
"%. c #c1c1c1",
"&. c #c3c3c6",
"*. c #c8c8c7",
"=. c #c8c8c8",
"-. c Gray79",
";. c #c8c9cc",
":. c #cfcfce",
">. c #c6cbd1",
",. c #cbcfd3",
"<. c #d2d2d2",
"1. c #d3d3d2",
"2. c Gray84",
"3. c #d7d7d7",
"4. c Gray85",
"5. c #dddddd",
"6. c #fffec6",
"7. c #ffffc7",
"8. c #e1e1e1",
"9. c #e9e9e9",
"0. c Gray92",
"q. c #f1f2f2",
"w. c #f4f4f4",
"e. c Gray97",
"r. c Gray100",
"t. c None",
/* pixels */
"  $ M > X   t.t.t.t.t.t.t.t.t.t.",
"+ d V S Z @   t.  t.t.t.t.t.t.t.",
"- r.>.h m D C # N w   t.t.t.t.t.",
"- r.r.r.@.f n #.7.6.J   t.t.t.t.",
"- r.r.w.q.,.s b A G $.B   t.t.t.",
"- r.e.8.3.1.o.g 9 4 v F % t.t.t.",
"- w.9.2.-.O.*.;._ | c a i t.t.t.",
"= 0.5.-.O.%.X. .' ) ! 5 r t.t.t.",
"* 4.<...%.+.{ ( W P U 0 u t.t.t.",
"& } :.=.+.{ ( W H L Y 8 y t.t.t.",
"o 2 z X.&.[ W H H I T 6 t t.t.t.",
"      , j ] / R K I T 7 t t.t.t.",
"t.t.t.    < k Q ~ E T 7 t   t.t.",
"t.t.t.t.t.    1 l ^ ` q t       ",
"t.t.t.t.t.t.t.    3 x e p       ",
"t.t.t.t.t.t.t.t.  . O ; :       "
};
