/* XPM */
static char * imap_xpm[] = {
"32 32 22 1",
".	c None",
"+	c #000000",
"@	c #C0C0C0",
"#	c #FFC0C0",
"$	c #FF0000",
"%	c #800000",
"&	c #FFFFC0",
"*	c #FFA858",
"=	c #FFFF00",
"-	c #C0C000",
";	c #808000",
">	c #C6AA00",
",	c #AA5500",
"'	c #550000",
")	c #FFE3E3",
"!	c #FFAAAA",
"~	c #FFC7C7",
"{	c #FF3939",
"]	c #FF5555",
"^	c #FF1D1D",
"/	c #FF7272",
"(	c #FF8E8E",
"................................",
"................................",
"...................+............",
"..................+@+...........",
".................+@+............",
"............+++.+@+.............",
"...........+###+#+.....+........",
"..........+#$$$$$+....+@+.......",
".........+#$$$$$$$+..+@+........",
"........+#$$$$$$$$$++@+.........",
".......+#$$$$$$$$$$$#+..........",
".......+#$$$$$$$$$$$+...........",
".......+#$$$$$$$$$$$%+..........",
".......+#$$$$$$$$$$$%+..........",
".......+#$$$$$$$$$$$%+..........",
".......+#$$$$$$$$$$%++..........",
".......+#$$$$$$$$$%++...........",
".......+#$$$$$$$$%++............",
"......+&*$$$$$$$%++.............",
".....+&=-%%%%%%%++..............",
"....+&=-;++++++++...............",
"...+&=-;++++++++................",
"..+&=-;++.......................",
".+&=>,'+)!!...!!)..~!!!..)!!!!).",
".+=-,$$.!$$!.!$$!..{$$$).!$$$$$~",
"..+;'$$.!$$].]$$!..$${$!.!$$!^$]",
"...+'$$.!$]^.^]$!.!$^/$].!$$.{$]",
"....!$$.!$($($($!.]$]!$$.!$$$$$(",
"....!$$.!$!{{{!$!.$$$$$$~!$$]](.",
"....!$$.!$!($(!$!~$$]]^$/!$$....",
"....!$$.!$!~$~!$!/$$../$^!$$....",
"................................"};
