/* XPM */
static const char *folder_outbox_xpm[] = {
/* columns rows colors chars-per-pixel */
"16 16 192 2",
"   c Gray0",
".  c Transparent",
"X  c Gray1",
"o  c #040506",
"O  c #070707",
"+  c #00000a",
"@  c #080809",
"#  c #090909",
"$  c #09090a",
"%  c Gray4",
"&  c #090d0e",
"*  c #0a0c0d",
"=  c #0a0e0e",
"-  c #0c0c0c",
";  c #0c0d0d",
":  c #0d0d0c",
">  c #0e0d0d",
",  c #0e0e0e",
"<  c #000715",
"1  c #050916",
"2  c #070c13",
"3  c #0d1114",
"4  c #100d0d",
"5  c #17140e",
"6  c #111211",
"7  c #131111",
"8  c #131112",
"9  c Gray7",
"0  c #131414",
"q  c Gray8",
"w  c #151515",
"e  c Gray9",
"r  c #151819",
"t  c #1b1a15",
"y  c #191919",
"u  c #1b1b18",
"i  c Gray10",
"p  c Gray11",
"a  c #1d1d1d",
"s  c Gray12",
"d  c #1b1e21",
"f  c #1e2020",
"g  c #291e1b",
"h  c #342a1b",
"j  c #202020",
"k  c Gray13",
"l  c #222121",
"z  c #222327",
"x  c Gray14",
"c  c #272727",
"v  c Gray17",
"b  c #2e2d29",
"n  c Gray18",
"m  c #2e2f2f",
"M  c #262a36",
"N  c #2c3120",
"B  c #3c2e25",
"V  c #313131",
"C  c #313232",
"Z  c #343434",
"A  c #353535",
"S  c #31363d",
"D  c #3d3c3c",
"F  c #3f3f3f",
"G  c #2f3846",
"H  c #363848",
"J  c #3e3d42",
"K  c #3c4042",
"L  c #3f434a",
"P  c #453d3d",
"I  c #4b3135",
"U  c #543432",
"Y  c #573c3c",
"T  c #653f3f",
"R  c #423d41",
"E  c #443b44",
"W  c #493f44",
"Q  c #4f3e41",
"!  c #763f46",
"~  c #4f4422",
"^  c #48403f",
"/  c #494b36",
"(  c #505239",
")  c #6f4919",
"_  c #68453a",
"`  c #63503f",
"'  c #685934",
"]  c #6f5c3b",
"[  c #7b4634",
"{  c #7d512b",
"}  c #785b2f",
"|  c #7e533c",
" . c #6e6c3f",
".. c #78662c",
"X. c #7f642b",
"o. c #746335",
"O. c #75613d",
"+. c #7a6737",
"@. c #7d6431",
"#. c Gray25",
"$. c #414141",
"%. c #424343",
"&. c #434444",
"*. c #42424b",
"=. c #46484a",
"-. c #4f4945",
";. c #48494c",
":. c #494a4d",
">. c #4b4c4c",
",. c #4d484f",
"<. c #4d4c48",
"1. c #544040",
"2. c #544142",
"3. c #51484c",
"4. c #594c4d",
"5. c #555040",
"6. c #51524d",
"7. c #595c5c",
"8. c #5c5d5d",
"9. c #5d5d5d",
"0. c #5f5f5f",
"q. c #5f5361",
"w. c #5f5961",
"e. c #644242",
"r. c #665542",
"t. c #685b46",
"y. c #695e43",
"u. c #695253",
"i. c #6d5558",
"p. c #6d595b",
"a. c #6e5a5b",
"s. c #724546",
"d. c #745758",
"f. c #67625b",
"g. c #777453",
"h. c #616264",
"j. c #686868",
"k. c Gray41",
"l. c #86531b",
"z. c #895921",
"x. c #8b5f28",
"c. c #845030",
"v. c #8e7f16",
"b. c #89781f",
"n. c #9c6518",
"m. c #876321",
"M. c #8b612f",
"N. c #806030",
"B. c #866f36",
"V. c #827723",
"C. c #877420",
"Z. c #8b7427",
"A. c #8f7027",
"S. c #8f7725",
"D. c #80703e",
"F. c #97612e",
"G. c #98752f",
"H. c #ad5f06",
"J. c #a76f0c",
"K. c #ad6b06",
"L. c #aa770c",
"P. c #ab7b0c",
"I. c #b36604",
"U. c #b67900",
"Y. c #907b42",
"T. c #c37a0b",
"R. c #9b8902",
"E. c #97831b",
"W. c #9d8012",
"Q. c #9f891f",
"!. c #9d8f39",
"~. c #a1840f",
"^. c #a68f00",
"/. c #aa8a0e",
"(. c #ae8916",
"). c #ad9300",
"_. c #b58a00",
"`. c #bb8202",
"'. c #be8708",
"]. c #bf8c10",
"[. c #b9aa39",
"{. c #91865d",
"}. c #ad9c50",
"|. c #c08200",
" X c #c08804",
".X c #c48900",
"XX c #cd9802",
"oX c #dd8a00",
"OX c #c89d24",
"+X c #c29232",
"@X c #aaaba0",
"#X c None",
/* pixels */
"#X#X#X#X#X#X$ t b @ #X#X#X#X#X#X",
"#X#X#X#XM / {.OX+XB.N #X#X#X#X#X",
": L y.!.}.Y.E.oXU.J.Q. .5 #X#X#X",
"u @X[.^._.'.Z.x.A.O.` [ a.h.f X ",
"; *.C.).R.v.b.G.t.) X.c.w.d.f.V ",
", W E ( V.W.~..XK.m.] | i.2.h 6 ",
"> 1.Q H g./.(. XH.L.N.B g & o O ",
"4 Y T =.q.s.P.|.z.~ d 3 r 0 9 # ",
"7 e.u.:.! { S.<.G S z w k p q % ",
", >.p.U } ..M.;.K $.F s k j i - ",
"#X= 4.' +.l.n.-.R #.#.n c a e q ",
"#X#X* 6.F.I.`.5.J %.&.x v k 0.Z ",
"#X#X#X2 o.T.].,.K ^ D m 9.j.A O ",
"#X#X#X#X< @.XX_ I P 8.k.V #X#X#X",
"#X#X#X#X#X1 D.r.3.7.C #X#X#X#X#X",
"#X#X#X#X#X#X8 l y X #X#X#X#X#X#X"
};
