/* XPM */
static char * news_xpm[] = {
"32 32 20 1",
".	c None",
"+	c #000000",
"@	c #FFFFFF",
"#	c #708090",
"$	c #EFD3D3",
"%	c #FD1B1B",
"&	c #FF0000",
"*	c #F39E9E",
"=	c #F94F4F",
"-	c #F58484",
";	c #550000",
">	c #EE0E10",
",	c #8D0000",
"'	c #F76A6A",
")	c #E20000",
"!	c #CF2A30",
"~	c #AF4750",
"{	c #AA0000",
"]	c #FB3535",
"^	c #F1B9B9",
"................................",
"................................",
"................................",
"............+++.................",
"...........+@@@++...............",
"..........+@@+@@@++.............",
".........+@@++@+@@@++...........",
"........+@@+@++@@+#@@++.........",
".......+@@+@@+@@+@#+@@@++.......",
"......+@.@@@+@@+.+@@+@@@@++.....",
".....+@@#+#@@@+#@@@+@#@#@@@++...",
"....+@.@@@#+.@@.+@+@##@+@+#@@++.",
"...+@@#+#@@@.+#@@@+++@+@+@#+@@@+",
"..+@.@@@#+.@@@#+#@@@++@@@+@@@@+.",
".+@@#+#@@@.+#@@@.@+@@@+#@+@@@+.+",
"+#.@@@#+.@@@#+#@@+@++@@#+@@@+.+.",
"+@#+#@@@.+#@@@.@+.@@@++@@@@+.+.+",
"+@@@#+.@@@#+#@@+....@@@+@@+.+.+.",
"+.+#@@.+#@@@.@+###....+@@+.+.+.+",
"+#..+#@@#+#@@@++####.+@@+.+.+.+.",
".++#...#@@#..@@@++##+@@+.+.+.+..",
"...++#..+#@@.+#@@@++@@+.+.+.+...",
".....++#..+#@@#+#@@@@+.+.+.+....",
".......++#.@.#@@#+@@+.+.+.+.....",
".........++#.#+#@@@+.+.+.+......",
"...........++#..+@+.+.+.+.......",
"..$%&&*.=&&&-+;>&&,.+,&&%*.=&...",
"..=&*'=.=&*%&$&);!&~-&{*%&$=&...",
"..*&&]-.=&*%&*&*.+&{{&..*&*=&...",
"..*^*=&^=&&&**&-.$&==&$.-&*=&...",
"..]&=%&^=&....%&=%&^^&%=&%.=&==-",
"..$'==^.-=....$'==^..^=='$.-===-"};
