/* XPM */
static const char *folder_news_xpm[] = {
/* columns rows colors chars-per-pixel */
"16 16 133 2",
"   c Gray0",
".  c #010100",
"X  c #010101",
"o  c #060708",
"O  c Gray5",
"+  c #100f0f",
"@  c #101010",
"#  c #1b1e20",
"$  c #1e2022",
"%  c #212326",
"&  c #27292c",
"*  c Gray19",
"=  c #313131",
"-  c #323232",
";  c #313538",
":  c #373a3e",
">  c #3f3f3f",
",  c #3f4851",
"<  c #474646",
"1  c Gray28",
"2  c #484847",
"3  c #4a4949",
"4  c #4a4a4b",
"5  c #4b4b4a",
"6  c #4c4b4b",
"7  c #4d4c4c",
"8  c #505050",
"9  c #515151",
"0  c Gray32",
"q  c #555555",
"w  c #565656",
"e  c #51565b",
"r  c #56595c",
"t  c #5b5b5c",
"y  c Gray37",
"u  c #556475",
"i  c #606060",
"p  c #63676a",
"a  c #666a6d",
"s  c #686868",
"d  c Gray42",
"f  c #6c6c6c",
"g  c #626b72",
"h  c #6f7070",
"j  c #777676",
"k  c #72777c",
"l  c Gray",
"z  c #7f7f7e",
"x  c #7d7e80",
"c  c #7f8181",
"v  c #808080",
"b  c #838382",
"n  c #848385",
"m  c #848484",
"M  c #858484",
"N  c #848687",
"B  c #868585",
"V  c #8b8d8f",
"C  c #8d8e8e",
"Z  c #868e95",
"A  c #898d93",
"S  c #8c9197",
"D  c #8b939a",
"F  c #8d939b",
"G  c #8c939c",
"H  c #8e959b",
"J  c #8c959c",
"K  c #939697",
"L  c #959595",
"P  c #909498",
"I  c #93999f",
"U  c #99999a",
"Y  c #9b9b9a",
"T  c #9d9d9c",
"R  c #979da3",
"E  c #979ea3",
"W  c #999fa3",
"Q  c #9fa09f",
"!  c #97a1ab",
"~  c #97a1ac",
"^  c #9ea2a6",
"/  c #a1a0a0",
"(  c #a7a9a8",
")  c #aeaeae",
"_  c #aaaeb2",
"`  c #a9afb4",
"'  c #afafb0",
"]  c #acb2b5",
"[  c #afb3b7",
"{  c #adb3b8",
"}  c #adb3ba",
"|  c #b0b0af",
" . c #b0b4ba",
".. c #b0b5bb",
"X. c #b6b6b9",
"o. c #b5b8b9",
"O. c #b7b8b9",
"+. c #b4b8bc",
"@. c #b8b8b6",
"#. c #b8b9bb",
"$. c #bdbcbb",
"%. c #bcbcbc",
"&. c #bfbebd",
"*. c #bebebe",
"=. c #b8bdc2",
"-. c #bebec0",
";. c Gray78",
":. c #c0c5ca",
">. c #c7c7c8",
",. c #c4c8ce",
"<. c #c6cace",
"1. c #cbcacb",
"2. c #cfcfce",
"3. c #cdd0d3",
"4. c #d1cfcf",
"5. c #d1d0cf",
"6. c #d1d2d3",
"7. c #d1d3d6",
"8. c #d2d3d4",
"9. c #d4d3d1",
"0. c #d5d4d1",
"q. c #d1d6dc",
"w. c #d4d8db",
"e. c #dcdada",
"r. c #e2e2e2",
"t. c #e6e9ea",
"y. c #ebebe9",
"u. c #ebebed",
"i. c #edecea",
"p. c #f0eeeb",
"a. c #f8f7f9",
"s. c Gray100",
"d. c None",
/* pixels */
"d.d.d.d.d.d.d.d.d.d.d.d.d.d.d.d.",
"d.d.d.d.d.d.@   d.d.d.d.d.d.d.d.",
"d.d.d.d.d.t ;.%.1   d.d.d.d.d.d.",
"d.d.d.d.8 2.> Y 6.S 2   d.d.d.d.",
"d.d.d.6 r.1./ Q x ^ e.8.2   d.d.",
"d.d.5 u.} H 0.P *.b ! =.-.A < O ",
". 7 u.{ I 5.#.Z 3.j 4 ) c +.s.s ",
": t. .I 4.X.F w.| L T H K s.v y ",
"V ..R 9.O.D 7.( C i.$.n a.z 9 i ",
"r W _ o.G <.y.; u ~ U @.l 0 d = ",
"o $ k :.E ,.&.[ N , ' B q d * X ",
"d.d.  # p ] q.J ` p.m w d * d.d.",
"d.d.d.d.  & g S >.M 3 f * d.d.d.",
"d.d.d.d.d.d.  % a e h - d.d.d.d.",
"d.d.d.d.d.d.d.d.    + d.d.d.d.d.",
"d.d.d.d.d.d.d.d.d.d.d.d.d.d.d.d."
};
