/* XPM */
static const char *folder_trash_xpm[] = {
/* columns rows colors chars-per-pixel */
"16 16 130 2",
"   c Gray0",
".  c #020202",
"X  c #020203",
"o  c #050503",
"O  c #040404",
"+  c #060606",
"@  c #080809",
"#  c #0c0c0c",
"$  c #111111",
"%  c Gray8",
"&  c Gray10",
"*  c Gray12",
"=  c #152525",
"-  c #202020",
";  c Gray13",
":  c #232323",
">  c #202125",
",  c #252222",
"<  c #2c2c2c",
"1  c #233435",
"2  c #303f3f",
"3  c Gray23",
"4  c #3b3b3d",
"5  c #3c3c3c",
"6  c #3c3c3d",
"7  c Gray24",
"8  c #3d3d3e",
"9  c #3e3e3f",
"0  c #454839",
"q  c #4a493a",
"w  c #414040",
"e  c #464646",
"r  c #49494a",
"t  c #49494b",
"y  c #4a4a4b",
"u  c #49494c",
"i  c #4a4a4c",
"p  c #4e4e4d",
"a  c #4e4e50",
"s  c #4f4e50",
"d  c #4b574b",
"f  c #5c594e",
"g  c #535356",
"h  c #545155",
"j  c #545455",
"k  c #555657",
"l  c #565656",
"z  c #575758",
"x  c #5a5a5b",
"c  c Gray36",
"v  c #626261",
"b  c Gray39",
"n  c #666363",
"m  c #646464",
"M  c #656564",
"N  c #656565",
"B  c #626969",
"V  c #6a6969",
"C  c #6b6b6c",
"Z  c #647173",
"A  c #6d7871",
"S  c #747474",
"D  c #767677",
"F  c #777776",
"G  c #7a7a79",
"H  c #7b7b7a",
"J  c #7b9798",
"K  c #838384",
"L  c #868688",
"P  c #89898a",
"I  c #8c8c88",
"U  c #8c8c8e",
"Y  c #8d8d8f",
"T  c #8e8e8f",
"R  c #8e8e90",
"E  c #8f8f92",
"W  c #8f8f93",
"Q  c #829797",
"!  c #919197",
"~  c #929294",
"^  c #939395",
"/  c #939397",
"(  c #949495",
")  c #969698",
"_  c #969699",
"`  c #979799",
"'  c #99999b",
"]  c #9f9fa3",
"[  c #a1a1a0",
"{  c #a0a0a2",
"}  c #a1a1a3",
"|  c #a1a1a4",
" . c #a4a4a4",
".. c #a7a7ab",
"X. c #a5a8aa",
"o. c #a8a8ab",
"O. c #ababad",
"+. c #acacaf",
"@. c #b1b0b4",
"#. c #b2b2b6",
"$. c #b7b6b6",
"%. c #b9b9bc",
"&. c #bfbec1",
"*. c #c2c2c3",
"=. c #c2c2c4",
"-. c #c3c3c5",
";. c #c5c5c6",
":. c #c6c6c9",
">. c #c7c7c9",
",. c #c8c8c9",
"<. c #c8c8ca",
"1. c #cdcdcc",
"2. c #d0d0d0",
"3. c #d0d0d3",
"4. c #d1d5d2",
"5. c #d4d4d6",
"6. c #d7d8d6",
"7. c #dad8d9",
"8. c #e8e7e3",
"9. c #e9e9e8",
"0. c #ededec",
"q. c #efefee",
"w. c #efefef",
"e. c #f0f0ef",
"r. c #f1f0f0",
"t. c #f2f2f3",
"y. c #f5f1f4",
"u. c #f7f7f6",
"i. c Gray100",
"p. c None",
/* pixels */
"p.p.p.p.    . $ o p.p.p.p.p.p.p.",
"p.p.p.  + 4 > A 0       p.p.p.p.",
"p.  k $.i.8.d f Z h >.K r   p.p.",
"p.  J y.i.r.4.6.q z 2.O.P X p.p.",
"p.  Q 7.,.:.1.*.I L D c e   p.p.",
"p.  1 X.&.;.+.W ! / G p %   p.p.",
"p.p.s @.5.%.[ T S C F 7 : p.p.p.",
"p.p.t } t.o.<.' { y b 3 - p.p.p.",
"p.p.i } q.U =.~ ) 8 m 7 ; p.p.p.",
"p.p.i | e.R -.^ ` 9 N 7 ; p.p.p.",
"p.p.i | e.R -.^ ` 9 N 7 ; p.p.p.",
"p.p.i } e.R -.^ ` 9 M 5 - p.p.p.",
"p.p.u ] 0.Y -.^ _ 6 v w , p.p.p.",
"p.p.g 3.u.E =.Y ( l V B = p.p.p.",
"p.p.&  .i.9.w...#.H n 2   p.p.p.",
"p.p.  @ * j x a i < # O   p.p.p."
};
