/* XPM */
static char * mosaic_xpm[] = {
"32 32 8 1",
" 	s None	c None",
".	c grey39",
"X	c blue3",
"o	c blue4",
"O	c yellow4",
"+	c turquoise4",
"@	c grey13",
"#	c grey64",
"                                ",
"             ......             ",
"          ......Xooooo          ",
"        .....OO.+Xoooooo        ",
"       .....OOO.oXooooooo       ",
"      ....OOOO.+++Xooooooo      ",
"     ...OOOOOO.XXXXoooooooo     ",
"    ...OOOOOOOO.XXoooooooooo    ",
"   ...OOOOOOO.O.+Xooooooooooo   ",
"   ...OOOOOO...XXXooooooooooo   ",
"  ....OOOOO..OXXXXXXoooooooooo  ",
"  ....OOOO....+XXXXXXooooooooo  ",
"  ...OOOO+..OO.XXXXXXooooXXooo  ",
" @.....O.oX+X+XXXXXXXX++.+oXooo ",
" @...o..ooooXXXXXX#XXXX+++XXooo ",
" @..oo..ooooXXXXX#XXXXXXX+Xoooo ",
" ...ooo.oXooX+++XXXXXXX+X++Xooo ",
" ..oooooooooooX++XXXXX+OOOO+ooo ",
" ..ooooooooooooooooooXOOOOO.ooo ",
"  @.@oooooooooooooooX.OOOOOO.o  ",
"  .@@ooooooooooooooX+OOOOOO..o  ",
"  @@@ooooooooooooooo.OOO...ooo  ",
"   @@ooooooooooooooo....ooooo   ",
"   @@@ooooooooooooooooooooooo   ",
"    @@@ooooooooooooooooooooo    ",
"     @@@@oooooooooooooooooo     ",
"      @@@@oooooooooooooooo      ",
"       @@@@@ooooooooooooo       ",
"        @@@@@@oooooo@oo@        ",
"          @@@@@oo@o@@@          ",
"             @@@@@@             ",
"                                "};
