/* XPM */
static const char *folder_newmail_xpm[] = {
/* columns rows colors chars-per-pixel */
"16 16 141 2",
"   c Gray0",
".  c #010100",
"X  c #000002",
"o  c #000003",
"O  c #020202",
"+  c #000004",
"@  c #000005",
"#  c #000006",
"$  c #020205",
"%  c #040405",
"&  c #050504",
"*  c #050506",
"=  c #060606",
"-  c #060607",
";  c #00000c",
":  c #060609",
">  c #030909",
",  c Gray3",
"<  c #0c0909",
"1  c #0c0c0c",
"2  c #101313",
"3  c #1f1f1e",
"4  c Gray12",
"5  c #1f1f2d",
"6  c #282800",
"7  c #2d2d00",
"8  c #2c2c09",
"9  c #353500",
"0  c #202929",
"q  c #2b2020",
"w  c #282828",
"e  c Gray16",
"r  c #28282d",
"t  c #28282e",
"y  c #2c2c2c",
"u  c #3c2f2f",
"i  c #3d3d3e",
"p  c #000048",
"a  c #3c3c43",
"s  c #3c3c4b",
"d  c #3e3e50",
"f  c #3c5555",
"g  c #5d2020",
"h  c #5f2323",
"j  c #6c0000",
"k  c #4d4d03",
"l  c #4f4f03",
"z  c #535300",
"x  c #555504",
"c  c #505008",
"v  c #595900",
"b  c #595905",
"n  c #49493c",
"m  c #63631e",
"M  c #6b6b26",
"N  c #7f7f2d",
"B  c Gray25",
"V  c #464747",
"C  c #414151",
"Z  c #4f4f5a",
"A  c Gray32",
"S  c #555555",
"D  c #59595a",
"F  c #585876",
"G  c #5d6161",
"H  c #626266",
"J  c #646464",
"K  c Gray40",
"L  c #676767",
"P  c #64646a",
"I  c #696964",
"U  c #6d6d65",
"Y  c #6a6a6a",
"T  c #627979",
"R  c #6f7676",
"E  c #707066",
"W  c #797966",
"Q  c Gray44",
"!  c #717171",
"~  c #727171",
"^  c #757572",
"/  c Gray46",
"(  c #757578",
")  c #0000bb",
"_  c #1c1cbd",
"`  c Blue",
"'  c #3636c5",
"]  c #4949cd",
"[  c #5555c5",
"{  c #800000",
"}  c #810101",
"|  c #9a0b0b",
" . c #cf0000",
".. c #e20000",
"X. c Red",
"o. c #9d9d00",
"O. c #9e9e00",
"+. c #a1a100",
"@. c #a2a200",
"#. c #828275",
"$. c #b7b74a",
"%. c #ebeb00",
"&. c #fdfd00",
"*. c Yellow",
"=. c #808080",
"-. c #85858c",
";. c #8f8f8b",
":. c #808098",
">. c #999998",
",. c #a1aaaa",
"<. c #adadaf",
"1. c #aeb9b9",
"2. c #b6b6ba",
"3. c #bebebe",
"4. c Gray75",
"5. c #b8b8c0",
"6. c #c0c0c0",
"7. c #c1c1c1",
"8. c #c3c3c3",
"9. c #cacaca",
"0. c Gray80",
"q. c #cdcdcd",
"w. c Gray83",
"e. c #d5d5d5",
"r. c #d6d6dc",
"t. c Gray85",
"y. c #d9d9e1",
"u. c #d6eded",
"i. c #e4e4e4",
"p. c #e7e7e7",
"a. c #e7e7eb",
"s. c Gray91",
"d. c Gray92",
"f. c #ececeb",
"g. c #e2f9f9",
"h. c #f1f7f7",
"j. c ivory",
"k. c #f8ffff",
"l. c #feffff",
"z. c Gray100",
"x. c None",
/* pixels */
"x.x., V u q 2 O   x.x.x.x.x.x.x.",
"x.  ~ g.| ..h 0 >   x.x.x.x.x.x.",
"x.1 z.k.} X.X.{ f S     x.x.x.x.",
"  ! z.l.1.g  .j T f.<.a # x.x.x.",
"  ! d.i.h.u.,.< R z.>.x 7 + x.x.",
"  J w.q.e.s.z.G Q j.p ' $.@.n % ",
"  K t.4.3.6.p.A ^ ;.) ` [ *.M : ",
"  L s.9.8.7.w.B D #._ ] *.v ; x.",
"  = Y 6.t.0.0./ -.W &.*.z X o x.",
"x.x.  - H 5.r.e.y.E %.N F t   x.",
"x.x.x.x.  c I 2.a.U m :.( w   x.",
"x.x.x.x.& O.9 5 =.P Z r   x.x.x.",
"x.x.x.x.$ o.l s 3     x.x.x.x.x.",
"x.x.x.x.$ O.k d e x.x.x.x.x.x.x.",
"x.x.x.x.* +.b C y   x.x.x.x.x.x.",
"x.x.x.x.. 6 8 i 4   x.x.x.x.x.x."
};
