/* XPM */
static const char *folder_nntp_xpm[] = {
/* columns rows colors chars-per-pixel */
"16 16 135 2",
"   c Gray0",
".  c #000100",
"X  c #010101",
"o  c #000d00",
"O  c #08070a",
"+  c #001000",
"@  c #100f0f",
"#  c #003f00",
"$  c #0b3512",
"%  c #261e2c",
"&  c #222927",
"*  c #2a2030",
"=  c #2f2334",
"-  c #203a27",
";  c Gray19",
":  c #313131",
">  c #323232",
",  c #004600",
"<  c #004700",
"1  c #004800",
"2  c #064b05",
"3  c #044c03",
"4  c #074b08",
"5  c #074a0b",
"6  c #005000",
"7  c #005b00",
"8  c #007600",
"9  c #2a483a",
"0  c #2e682e",
"q  c #2d7e2d",
"w  c #2f7f2f",
"e  c #327e35",
"r  c #43594a",
"t  c #5f5e5f",
"y  c #5c5666",
"u  c #674966",
"i  c #6e516e",
"p  c #6f526f",
"a  c #6f556f",
"s  c #6e566e",
"d  c #616061",
"f  c #6e6b6e",
"g  c #6f6b6f",
"h  c #6f6c6f",
"j  c #696a70",
"k  c #737075",
"l  c #706b81",
"z  c #796782",
"x  c #008300",
"c  c #018603",
"v  c #058106",
"b  c #009500",
"n  c #009b00",
"m  c #009d00",
"M  c #09960c",
"N  c #1a8d1d",
"B  c #1f8d29",
"V  c #1a932b",
"C  c #1f9128",
"Z  c #00a000",
"A  c #00ae00",
"S  c #00af00",
"D  c #0aa00b",
"F  c #00b800",
"G  c #00bc00",
"H  c #08b30e",
"J  c #0fbc0d",
"K  c #0bbe10",
"L  c #14be14",
"P  c #18a220",
"I  c #1cb826",
"U  c #278527",
"Y  c #2a8429",
"T  c #2f802f",
"R  c #2d842c",
"E  c #239532",
"W  c #249333",
"Q  c #2a9936",
"!  c #289d35",
"~  c #32953f",
"^  c #329e3d",
"/  c #20af2c",
"(  c #2aa92c",
")  c #26b026",
"_  c #22bd2c",
"`  c #27b333",
"'  c #26b430",
"]  c #2bb336",
"[  c #28b533",
"{  c #36b639",
"}  c #35b838",
"|  c #39b93b",
" . c #378e46",
".. c #319540",
"X. c #00c700",
"o. c #00ca00",
"O. c #00cf00",
"+. c #03d207",
"@. c #05d306",
"#. c #00da00",
"$. c #1ac71c",
"%. c #1cd021",
"&. c #00ee00",
"*. c #00f700",
"=. c Green",
"-. c #26d425",
";. c #25d82c",
":. c #28d32d",
">. c #30ca38",
",. c #3dcf3a",
"<. c #3ad337",
"1. c #3dd03b",
"2. c #2aeb28",
"3. c #2fe230",
"4. c #35eb38",
"5. c #35eb39",
"6. c #3de941",
"7. c #429449",
"8. c #44ae4d",
"9. c #4aa15e",
"0. c #44b847",
"q. c #57b25f",
"w. c #53be52",
"e. c #5ac864",
"r. c #59d665",
"t. c #72ec6f",
"y. c #799185",
"u. c #7c9f84",
"i. c #83778d",
"p. c #8464a4",
"a. c #838e84",
"s. c #889987",
"d. c #a3c5ad",
"f. c #c6a1db",
"g. c None",
/* pixels */
"g.g.g.g.g.g.g.g.g.g.g.g.g.g.g.g.",
"g.g.g.g.g.g.+   g.g.g.g.g.g.g.g.",
"g.g.g.g.g.7 X.G <   g.g.g.g.g.g.",
"g.g.g.g.6 O.# n +.C 1   g.g.g.g.",
"g.g.g.4 3.o.Z D e P #.@.1   g.g.",
"g.g.2 5.] ~ -.7.L x 9._ K B , o ",
". 3 4.` Q 1.|  .%.8 5 A v I =.0 ",
"- 6.' Q ,.{ W ;.) b m ..M =.T t ",
"N [ ! <.} W :.( a.t.J x *.w i d ",
"r u.8.0.V >.2.$ p.f.s.F q p f : ",
"O * i.d.^ e.w.H c 9 S U a g ; X ",
"g.g.  % z q.r.E / &.R s g ; g.g.",
"g.g.g.g.  & l y.$.Y u h ; g.g.g.",
"g.g.g.g.g.g.  = j y k > g.g.g.g.",
"g.g.g.g.g.g.g.g.    @ g.g.g.g.g.",
"g.g.g.g.g.g.g.g.g.g.g.g.g.g.g.g."
};
