/* XPM */
static char * folder_pop_xpm[] = {
"32 32 9 1",
" 	c None",
".	c #0A0A0A",
"+	c #C2C2C2",
"@	c #828282",
"#	c #FFFFFF",
"$	c #FF0000",
"%	c #8B8B00",
"&	c #AD1603",
"*	c #FF1D00",
"       .....                    ",
"     ..+++@@..                  ",
"    .@#+++++@@..                ",
"    .#+#+#++++@@..              ",
"   .#####+#+#+++@@..            ",
"   .########+#++++@@..          ",
"  .#+########+#+#+++@@..        ",
"  .+#+#+########+#++++@@..      ",
"  .#+#+#+#+######+#+#+.....     ",
"  .+++++#+#+########+..#....    ",
"  .++..@+++#+#+#####..@###..@   ",
"  .++.$..@++#+#+#+#+.@@@@###.@  ",
"  .++.$$...@+++#+#+..@@@@@###.  ",
"  .++.$$.....@++#+#.@@@@@###.@  ",
"  .++.$$.+@....@+#+.@@@@###..   ",
"  .++..$.+++@....@+.#@@###...   ",
"  ..++@..+++++@..++.#####....   ",
"    ..++++++++++@++.####.....   ",
"      ..+++++++++++.###.@....   ",
"        ..+++++++++.##.@@@@..   ",
"         ...+++++++.#.@@@@@..   ",
"         .%%..+++++..@@@@..     ",
"         .%%%...+++.@@@.&*****  ",
"         .%%%..@..+.@.. ******* ",
"         .%%%.@.@....   ********",
"         .%%%..@..      ***  ***",
"         .%%%.@.@.      ***  ***",
"         .%%%..@..      ********",
"         .%%%.@.@.      ******* ",
"         .%%%..@..      ***     ",
"           %%.@.@.      ***     ",
"             ..@        ***     "};
