/* XPM */
static const char *folder_sentmail_xpm[] = {
/* columns rows colors chars-per-pixel */
"16 16 124 2",
"   c Gray0",
".  c #010000",
"X  c #010100",
"o  c #010101",
"O  c #020202",
"+  c #020205",
"@  c #040404",
"#  c #050504",
"$  c #050506",
"%  c #060606",
"&  c Gray3",
"*  c #090909",
"=  c #0c0c0c",
"-  c #0c0d0d",
";  c #111111",
":  c #121415",
">  c #161616",
",  c #141b1b",
"<  c Gray10",
"1  c #1f1f1e",
"2  c Gray12",
"3  c #1f1f2d",
"4  c #282800",
"5  c #2c2c09",
"6  c #353500",
"7  c Gray13",
"8  c #282828",
"9  c Gray16",
"0  c #2c2c2c",
"q  c #3a3a3a",
"w  c #3d3d3e",
"e  c #3c3c4b",
"r  c #3e3e50",
"t  c #540a0a",
"y  c #4d4d03",
"u  c #4f4f03",
"i  c #505008",
"p  c #595905",
"a  c #434343",
"s  c #444444",
"d  c #484848",
"f  c #4b4b4b",
"g  c Gray30",
"h  c Gray31",
"j  c #414151",
"k  c Gray32",
"l  c #565656",
"z  c #585858",
"x  c #6d5b5b",
"c  c Gray39",
"v  c #646464",
"b  c #646e6e",
"n  c #696964",
"m  c Gray42",
"M  c #6d6d6d",
"N  c #6f6f6f",
"B  c #6b6d70",
"V  c #717171",
"C  c Gray45",
"Z  c #717575",
"A  c Gray46",
"S  c #747676",
"D  c #767575",
"F  c #767676",
"G  c #747878",
"H  c #777878",
"J  c #767d7d",
"K  c #7a7272",
"L  c Gray48",
"P  c Gray50",
"I  c #758383",
"U  c #9c0000",
"Y  c #877676",
"T  c #e30000",
"R  c #9d9d00",
"E  c #9e9e00",
"W  c #a1a100",
"Q  c #80807f",
"!  c #808080",
"~  c #858a8a",
"^  c Gray54",
"/  c #8b8e8e",
"(  c #959595",
")  c Gray61",
"_  c #9f9f9f",
"`  c #a0a0a0",
"'  c #a2a2a2",
"]  c #a8abab",
"[  c #aeaeae",
"{  c Gray70",
"}  c #b6b6ba",
"|  c #b9b9b9",
" . c #babac2",
".. c #cccbcb",
"X. c Gray81",
"o. c #c8d3d3",
"O. c #d0d0d0",
"+. c #d2d2d2",
"@. c #d5d5d5",
"#. c #d6d7d7",
"$. c #d7d7d8",
"%. c #dadada",
"&. c #dadade",
"*. c Gray87",
"=. c Gray88",
"-. c #e6e6e6",
";. c #e7e7e7",
":. c #e3e8e8",
">. c #e6eaea",
",. c Gray91",
"<. c #eaeaea",
"1. c Gray92",
"2. c Gray93",
"3. c #f0f3f3",
"4. c Gray95",
"5. c #f4f4f4",
"6. c #f6f6f6",
"7. c Gray97",
"8. c #f9f9f9",
"9. c Gray98",
"0. c #fbfbfb",
"q. c Gray99",
"w. c Gray100",
"e. c None",
/* pixels */
"e.e.& f L l > o   e.e.e.e.e.e.e.",
"e.  M 6.-.O._ s     e.e.e.e.e.e.",
"e.= w.w.9.4.,.X.` s     e.e.e.e.",
"  V w.8.w.w.7.4.,.+.[ q   e.e.e.",
"  H :.o.3.1.w.w.q.w.( h 7   e.e.",
"  Z K t I #.5.2.w.=.< ' *.) d @ ",
"  J Y T . , D @.w.V a F | w.m % ",
"  G / U x ~ ; * ) C ^ { w.k   e.",
"  - b S ] >...m ! V 0.w.g     e.",
"e.e.  : B  .&.$.%.N <.P z 8   e.",
"e.e.e.e.  i n } ;.M c ! A 8   e.",
"e.e.e.e.# E 6 3 Q v h 8   e.e.e.",
"e.e.e.e.+ R u e 1     e.e.e.e.e.",
"e.e.e.e.+ E y r 9 e.e.e.e.e.e.e.",
"e.e.e.e.$ W p j 0   e.e.e.e.e.e.",
"e.e.e.e.X 4 5 w 2   e.e.e.e.e.e."
};
