/* XPM */
static const char *magick[] = {
/* columns rows colors chars-per-pixel */
"24 24 21 1",
"  c Black",
". c #212e1f",
"X c Gray17",
"o c #658b5e",
"O c #00bebe",
"+ c #8cad86",
"@ c #8dad88",
"# c #96b491",
"$ c #a6bfa2",
"% c #bebebe",
"& c #acc3a8",
"* c #b8ccb5",
"= c #bccfb8",
"- c #c3d4c1",
"; c #cbdac9",
": c #d2dfd0",
"> c #e1e9e0",
", c #e6ede4",
"< c #ebf1ea",
"1 c #f0f4ef",
"2 c #f3f6f3",
/* pixels */
"%%%%%%%%%%%%%%%%%%%%%%%O",
"%%%%%%%%%%%%%%%%%%%%%%%%",
"%%%%%%%%%%%%%%%%%%%%%%%%",
"%%%%%%%%%%%%%%%%%%%%%%%%",
"%%%%%%%%%     %%%%%%%%%%",
"%%%%%%%% $1<>; %%%%%%%%%",
"%%%%%%% ;21>>>: %%%%%%%%",
"%%%%%% -1&   =>&X%%%%%%%",
"%%%%%%% ,.%%% >> %%%%%%%",
"%%%%%%%; %%%% >& %%%%%%%",
"%%%%%%%%%%%% >>o %%%%%%%",
"%%%%%%%%%%% >>+ %%%%%%%%",
"%%%%%%%%%% >>+ %%%%%%%%%",
"%%%%%%%%% #>+ %%%%%%%%%%",
"%%%%%%%%% ># %%%%%%%%%%%",
"%%%%%%%%%    %%%%%%%%%%%",
"%%%%%%%%%%%%%%%%%%%%%%%%",
"%%%%%%%%%%  %%%%%%%%%%%%",
"%%%%%%%%% >* %%%%%%%%%%%",
"%%%%%%%%% *@ %%%%%%%%%%%",
"%%%%%%%%%%  %%%%%%%%%%%%",
"%%%%%%%%%%%%%%%%%%%%%%%%",
"%%%%%%%%%%%%%%%%%%%%%%%%",
"%%%%%%%%%%%%%%%%%%%%%%%%"
};
