/* XPM */
static const char *ComputerPC[] = {
/* width height num_colors chars_per_pixel */
"    32    32       20            1",
/* colors */
". c #000000",
"# c #202030",
"a c #2f2b4e",
"b c #304161",
"c c #41346e",
"d c #413051",
"e c #414141",
"f c #4a4464",
"g c #616161",
"h c #516161",
"i c #617996",
"j c #61518e",
"k c none",
"l c #38fb30",
"m c #928e92",
"n c #9e9aa6",
"o c #aeb2ae",
"p c #bebabe",
"q c #d1d0d1",
"r c #e7ebe7",
/* pixels */
"kkkkkkrrrrrrrrqqqqqqqqppppmmkkkk",
"kkkkkkrrrrrrqqqqqqppppooooggmkkk",
"kkkkkkrrmmmmmmmmmmmmmmmmoogggggk",
"kkkkkkrr................nogggggk",
"kkkkkkrr................nogggggk",
"kkkkkkrr..a##aaaadaaaa..oogggggk",
"kkkkkkrr..aaaccffccfdc..nogggggk",
"kkkkkkrr..aacfcffhfccb..nogggggk",
"kkkkkkrq..acchfjjfhfcf..nogggggk",
"kkkkkkrq..ddffjjfjfffc..nogggggk",
"kkkkkkrq..ddffcffcfcfc..nogggggk",
"kkkkkkrq..accchcfhhfcf..nnggggkk",
"kkkkkkrq..abcfffccfccb..nnggggkk",
"kkkkkkrq..aaaccffcccec..nnggggkk",
"kkkkkkrq................nngggkkk",
"kkkkkkrq................nngggkkk",
"kkkkkkrqqqppppppppppoonnnnggkkkk",
"kkkkkkrqqqppppppoooooollnnggkkkk",
"kkkkkkkkkkkrrponmmmmmmmnnnggkkkk",
"kkkkkkkkkrkrmniggggggggggggggiii",
"kkkkkkkrrrnmiiiiiiggggggggiiiigg",
"kkkkkkpoooqqqppmmgiigggggiiigggg",
"kkkkkkpo..ooooooooooopqqqpgggggg",
"kkkkkkpolloooooooooooooooogggggg",
"kkkkkkpooooooooooommgggnmmgggggg",
"kkkkkkpppoooooooooooqqqqmmgggggg",
"kkknqqmmmmmmqnqnqnoooooooogggggk",
"kknqrpnpnpnommmmmmpqpppoooggggkk",
"gnnqrrrrmmpmpmpmprmnmmmgpg#kkkkk",
"kiignnqqqrrrrromqooonomqggkkkkkk",
"kkkkkkkkkiiignnnqqrrrrog#kkkkkkk",
"kkkkkkkkkkkkkkiiignnqqggkkkkkkkk"
};
