/* XPM */
static const char *hlink_xpm[] = {
/* width height num_colors chars_per_pixel */
"    32    32       14            1",
/* colors */
". c #020204",
"# c #028204",
"a c #fa1644",
"b c #bebefc",
"c c #023e04",
"d c #020284",
"e c #fefe04",
"f c #02fe04",
"g c #0202fc",
"h c #befebc",
"i c #02be04",
"j c #827e7c",
"k c #0202bc",
"l c none",
/* pixels */
"llllllllllllllllllllllllllllllll",
"llllllllllllllllllllllllllllllll",
"llllllllllllllllllllllllllllllll",
"llllllllllllllllllllllllllllllll",
"llllllllllllllllllllllllllllllll",
"llllllllllllllllllllllllllllllll",
"llllllllllddddddblllllllllllllll",
"llllllllddbblbbbdddlllllllllllll",
"llllllldgbbfhhgggggdllllllllllll",
"lllllldgbifiiii#cgggdlllllllllll",
"llllldfggfiiiii#cggggdllllllllll",
"lllldf#ggfiiii#cgggggkdlllllllll",
"lllldf#ggcfii#cggggggkdlllllllll",
"llldkf#ggg#iicgggggggkkdllllllll",
"llldk#gggg####gggggggkkdllllllll",
"llldkkgggggc###cgggggkkdllllllll",
"llldkkkgggggc#fiigggkkkdllllllll",
"lllldkkkggggg#iiiikkkkdllll.llll",
"lllldkkkkkkgggci##ckkkdljl.jllll",
"llllldkkkkkkkkc###ckkdljaajll.ll",
"lllllldkkkkkkkkc##kkdljaaaal.jll",
"llllllldkkkkkkkk#kkdljaaaaaajlll",
"lllllllldddkkkkkdddlljaaaaaajlll",
"llllllllllldddddllllljaaaaaj.lll",
"llllllllllllllllllllljaaaaj.llll",
"lllllllllllllllllllljejjjj.lllll",
"llllllllllllllllllljejj...llllll",
"lllllllllllllllllljejjllllllllll",
"llllllllllllllllllljjlllllllllll",
"llllllllllllllllllljllllllllllll",
"llllllllllllllllllllllllllllllll",
"llllllllllllllllllllllllllllllll"
};
