/* XPM */
static const char *image_both_xpm[] = {
/* columns rows colors chars-per-pixel */
"16 16 256 2",
"   c Gray100",
".  c Gray100",
"X  c Yellow",
"o  c #ffff66663333",
"O  c Red",
"+  c #99999999ffff",
"@  c #999900006666",
"#  c #808080808080",
"$  c #808080800000",
"%  c #c0c0c0c0c0c0",
"&  c #000037373c3c",
"*  c #42429a9aa7a7",
"=  c #808000000000",
"-  c #66666666cccc",
";  c #333333336666",
":  c #222222222222",
">  c Cyan",
",  c Green",
"<  c #000080808080",
"1  c #000080800000",
"2  c Blue",
"3  c #000000008080",
"4  c #ffff6666cccc",
"5  c #ffffffffcccc",
"6  c #ccccccccffff",
"7  c #cccc99996666",
"8  c #999966669999",
"9  c #3333ffff9999",
"0  c #00009999ffff",
"q  c Gray50",
"w  c Gray50",
"e  c Gray50",
"r  c Gray50",
"t  c Gray50",
"y  c Gray50",
"u  c Gray50",
"i  c Gray50",
"p  c Gray50",
"a  c Gray50",
"s  c Gray50",
"d  c Gray50",
"f  c Gray50",
"g  c Gray50",
"h  c Gray50",
"j  c Gray50",
"k  c Gray50",
"l  c Gray50",
"z  c Gray50",
"x  c Gray50",
"c  c Gray50",
"v  c Gray50",
"b  c Gray50",
"n  c Gray50",
"m  c Gray50",
"M  c Gray50",
"N  c Gray50",
"B  c Gray50",
"V  c Gray50",
"C  c Gray50",
"Z  c Gray50",
"A  c Gray50",
"S  c Gray50",
"D  c Gray50",
"F  c Gray50",
"G  c Gray50",
"H  c Gray50",
"J  c Gray50",
"K  c Gray50",
"L  c Gray50",
"P  c Gray50",
"I  c Gray50",
"U  c Gray50",
"Y  c Gray50",
"T  c Gray50",
"R  c Gray50",
"E  c Gray50",
"W  c Gray50",
"Q  c Gray50",
"!  c Gray50",
"~  c Gray50",
"^  c Gray50",
"/  c Gray50",
"(  c Gray50",
")  c Gray50",
"_  c Gray50",
"`  c Gray50",
"'  c Gray50",
"]  c Gray50",
"[  c Gray50",
"{  c Gray50",
"}  c Gray50",
"|  c Gray50",
" . c Gray50",
".. c Gray50",
"X. c Gray50",
"o. c Gray50",
"O. c Gray50",
"+. c Gray50",
"@. c Gray50",
"#. c Gray50",
"$. c Gray50",
"%. c Gray50",
"&. c Gray50",
"*. c Gray50",
"=. c Gray50",
"-. c Gray50",
";. c Gray50",
":. c Gray50",
">. c Gray50",
",. c Gray50",
"<. c Gray50",
"1. c Gray50",
"2. c Gray50",
"3. c Gray50",
"4. c Gray50",
"5. c Gray50",
"6. c Gray50",
"7. c Gray50",
"8. c Gray50",
"9. c Gray50",
"0. c Gray50",
"q. c Gray50",
"w. c Gray50",
"e. c Gray50",
"r. c Gray50",
"t. c Gray50",
"y. c Gray50",
"u. c Gray50",
"i. c Gray50",
"p. c Gray50",
"a. c Gray50",
"s. c Gray50",
"d. c Gray50",
"f. c Gray50",
"g. c Gray50",
"h. c Gray50",
"j. c Gray50",
"k. c Gray50",
"l. c Gray50",
"z. c Gray50",
"x. c Gray50",
"c. c Gray50",
"v. c Gray50",
"b. c Gray50",
"n. c Gray50",
"m. c Gray50",
"M. c Gray50",
"N. c Gray50",
"B. c Gray50",
"V. c Gray50",
"C. c Gray50",
"Z. c Gray50",
"A. c Gray50",
"S. c Gray50",
"D. c Gray50",
"F. c Gray50",
"G. c Gray50",
"H. c Gray50",
"J. c Gray50",
"K. c Gray50",
"L. c Gray50",
"P. c Gray50",
"I. c Gray50",
"U. c Gray50",
"Y. c Gray50",
"T. c Gray50",
"R. c Gray50",
"E. c Gray50",
"W. c Gray50",
"Q. c Gray50",
"!. c Gray50",
"~. c Gray50",
"^. c Gray50",
"/. c Gray50",
"(. c Gray50",
"). c Gray50",
"_. c Gray50",
"`. c Gray50",
"'. c Gray50",
"]. c Gray50",
"[. c Gray50",
"{. c Gray50",
"}. c Gray50",
"|. c Gray50",
" X c Gray50",
".X c Gray50",
"XX c Gray50",
"oX c Gray50",
"OX c Gray50",
"+X c Gray50",
"@X c Gray50",
"#X c Gray50",
"$X c Gray50",
"%X c Gray50",
"&X c Gray50",
"*X c Gray50",
"=X c Gray50",
"-X c Gray50",
";X c Gray50",
":X c Gray50",
">X c Gray50",
",X c Gray50",
"<X c Gray50",
"1X c Gray50",
"2X c Gray50",
"3X c Gray50",
"4X c Gray50",
"5X c Gray50",
"6X c Gray50",
"7X c Gray50",
"8X c Gray50",
"9X c Gray50",
"0X c Gray50",
"qX c Gray50",
"wX c Gray50",
"eX c Gray50",
"rX c Gray50",
"tX c Gray50",
"yX c Gray50",
"uX c Gray50",
"iX c Gray50",
"pX c Gray50",
"aX c Gray50",
"sX c Gray50",
"dX c Gray50",
"fX c Gray50",
"gX c Gray50",
"hX c Gray50",
"jX c Gray50",
"kX c Gray50",
"lX c Gray50",
"zX c Gray50",
"xX c Gray50",
"cX c Gray50",
"vX c Gray50",
"bX c Gray50",
"nX c Gray50",
"mX c Gray50",
"MX c Gray50",
"NX c Gray50",
"BX c Gray50",
"VX c Gray50",
"CX c Gray50",
"ZX c Gray50",
"AX c Gray50",
"SX c Gray50",
"DX c Gray50",
"FX c Gray50",
"GX c Gray50",
"HX c Gray50",
"JX c Gray50",
"KX c Gray50",
"LX c Gray50",
"PX c Gray50",
"IX c Gray50",
"UX c Gray0",
/* pixels */
". . . . . . . . . . . . . . . . ",
"- - - - - - - - - - . . . . . . ",
"-                 ; . . . . . . ",
"-   q q           ; . . . . . . ",
"-                 ; q q . . . . ",
"-   q q q q q q   ; 5 5 q . . . ",
"-                 ; 5 5 5 q . . ",
"-   q q q q q q   ; 5 5 5 % ; . ",
"-                 ; % % % q ; q ",
"-   q q q q q q   ;   5 q 5 ; q ",
"-                 ; 5 q 5   ; q ",
"-                 ; q q   5 ; q ",
"; ; ; ; ; ; ; ; ; ; 5   q   ; q ",
". . q 5   5   5   5   5   q ; q ",
". . ; ; ; ; ; ; ; ; ; ; ; ; ; q ",
". . . q q q q q q q q q q q q q "
};
