/* XPM */
static const char *image_xpm[] = {
/* width height ncolors chars_per_pixel */
"32 32 21 1",
/* colors */
"` c #000000",
"a c #FFFFBE",
"b c #800000",
"c c #BEBEFF",
"d c #BEBE00",
"e c #595959",
"f c #80807F",
"g c #C0C0C0",
"h c #A0A0A0",
"i c #FF0000",
"j c #FFBEBE",
"k c #000080",
"l c #FFFFFF",
"m c #FFFF00",
"n c #00BE00",
"o c #003C3C",
"p c #3C3C00",
"q c #BEFFBE",
"r c #003C00",
"s c #00003C",
"t c #0000FF",
/* pixels */
"llllllllllllllllllllllllllllllll",
"llllllllllllllllllllllllllllllll",
"llllllllllllllllllllllllllllllll",
"llllllllllllllllllllllllllllllll",
"lllllllllllll`llll```lllllllllll",
"llllllllllll`a``l`lal``lllllllll",
"lllllllllll`aaaa`lallal``lllllll",
"llllllllll`amaa`llalaalal``lllll",
"lllllllll`amaa`llaaallaalaa``lll",
"llllllll`amam`laaaaalallallll``l",
"lllllll`mmmm`alalalaallalalalll`",
"llllll`mmmm`jiijqnnqctcaalalll`l",
"lllll`mdmm``iiiinnnrtttk`aala`ll",
"llll`mdmm`a`eiiibnnrttkk`aal`lll",
"lll`ddmd`aa`efiibnnrhtke`la`llll",
"ll`dddd`ama`efibglnrhtke`lll``ll",
"l`dddd`mmaa`efibglnrhkke`lalal`l",
"`dddd`mmmmm`efibglrrhhfe`lallll`",
"`fdddpodmmm`efibglaghhfe`aalal`f",
"l`rfdddprdm`efbbglaghhfe`alaa`fl",
"lll``fdddrm`effhglaghhfe`aaa`hll",
"lllll``f`mm`effhglaghhfe`aa`hlll",
"llllll``mmmm`ffhglaghhfe`a`fllll",
"llllll`mmmmmm```````````ashlllll",
"lllll`mmmmmmmmmaaaaaaaaa`hllllll",
"lllll`fmmmmmmmmmmmaaaaa`hlllllll",
"llllll``fmmmmmmmmmmmmarfllllllll",
"llllllll``fmmmmmmmmmm`flllllllll",
"llllllllll``hmmmmmmmrfllllllllll",
"llllllllllll``fmmmm`flllllllllll",
"llllllllllllll`rff`hllllllllllll",
"llllllllllllllll``hlllllllllllll"
};
