/* XPM */
static const char *M_32x32[] = {
/* width height num_colors chars_per_pixel */
"    32    32      225            2",
/* colors */
".. c #04060c",
".# c #7c8480",
".a c #24426c",
".b c #3c629c",
".c c #a4cad4",
".d c #949288",
".e c #444341",
".f c #5c6362",
".g c #1c2222",
".h c #84a6b4",
".i c #244479",
".j c #9caaa0",
".k c #5c82bc",
".l c #d4d1d0",
".m c #143058",
".n c #2c5288",
".o c #5c74b2",
".p c #4472a4",
".q c #848eec",
".r c #445577",
".s c #b4b6a4",
".t c #4c6288",
".u c #b4defc",
".v c #1c324c",
".w c #7492bc",
".x c #647264",
".y c #bcc4bc",
".z c #94b6ec",
".A c #2c5498",
".B c #344879",
".C c #2c2e54",
".D c #94a09c",
".E c #6c86bc",
".F c #4c5551",
".G c #acb7b7",
".H c #4c63ac",
".I c #8c9590",
".J c #445796",
".K c #c4d2c4",
".L c #0c1317",
".M c #343432",
".N c #9cadb9",
".O c #747573",
".P c #3462a4",
".Q c #242c2a",
".R c #1c3a64",
".S c #345b99",
".T c #5c6e9c",
".U c #2c4b7a",
".V c #646c66",
".W c #4c75bc",
".X c #ecf2ec",
".Y c #848484",
".Z c #84b2d4",
".0 c #b4bab2",
".1 c #a4a5a2",
".2 c #545352",
".3 c #5c82d4",
".4 c #c4cedc",
".5 c #747e94",
".6 c #9cc9f4",
".7 c #acaca6",
".8 c #3c5387",
".9 c #344c8d",
"#. c #3c433f",
"## c #7ca3e2",
"#a c #6c92e0",
"#b c #c4ccc5",
"#c c #6c8edc",
"#d c #4c6daf",
"#e c #041428",
"#f c #747c77",
"#g c #3c6ab4",
"#h c #949a94",
"#i c #14223c",
"#j c #244688",
"#k c #243660",
"#l c #445b89",
"#m c #4f6ba4",
"#n c #9ca6a4",
"#o c #343c3e",
"#p c #545b5b",
"#q c #344e7f",
"#r c #445e9c",
"#s c #a4d2fc",
"#t c #4e6ec0",
"#u c #8c9dbf",
"#v c #4c64a4",
"#w c #2c3335",
"#x c #3c5597",
"#y c #d4fefc",
"#z c #2c3d62",
"#A c #3c5c9a",
"#B c #547bc4",
"#C c #b4bcbd",
"#D c #8cacf0",
"#E c #040a10",
"#F c #9ca0a7",
"#G c #848a84",
"#H c #5c7cc3",
"#I c #648bdc",
"#J c #34456c",
"#K c #749ce8",
"#L c #0c1c2c",
"#M c #7c7c78",
"#N c #5c5d5a",
"#O c #444a4c",
"#P c #2c4477",
"#Q c #a4b2ac",
"#R c #d6d9d4",
"#S c #1c365f",
"#T c #34538a",
"#U c #5c74c0",
"#V c #5474b2",
"#W c #c0ecfc",
"#X c #6c8ec8",
"#Y c #2c2c2c",
"#Z c #243d67",
"#0 c #acd6dc",
"#1 c #6c86ac",
"#2 c #7c9ce2",
"#3 c #7c92b4",
"#4 c #747ecc",
"#5 c #ecfdfa",
"#6 c #b4c2bc",
"#7 c #e4ece8",
"#8 c #acc6fc",
"#9 c #2c3e71",
"a. c #1c2e34",
"a# c #94b9f8",
"aa c #acb0b7",
"ab c #e4e6e4",
"ac c #cceaec",
"ad c #142a47",
"ae c #374b6c",
"af c #b4b6c4",
"ag c #5c6a7c",
"ah c #b4d5fc",
"ai c #749ad4",
"aj c #c4dadc",
"ak c #8cbad4",
"al c #ccdae4",
"am c #4463a8",
"an c #e4fcfc",
"ao c #e4d6dc",
"ap c #7c8aa4",
"aq c #fcfcf4",
"ar c #2c3a3c",
"as c #accee4",
"at c #446a9c",
"au c #648acc",
"av c #7c96dc",
"aw c #6c7a74",
"ax c #9cbae4",
"ay c #6476e4",
"az c #dce6e4",
"aA c #949595",
"aB c #7293d4",
"aC c #445264",
"aD c #a7b9cc",
"aE c #344254",
"aF c #040d1f",
"aG c #bce6f4",
"aH c #8c9a9c",
"aI c #acb2ac",
"aJ c #3c5a8c",
"aK c #44548c",
"aL c #2c4c86",
"aM c #2c364c",
"aN c #44639a",
"aO c #a4aca9",
"aP c #6483c6",
"aQ c #1c3255",
"aR c #6476a4",
"aS c #4c73af",
"aT c #bcb6b4",
"aU c #546694",
"aV c #243347",
"aW c #6c756f",
"aX c #9cb2dc",
"aY c #345496",
"aZ c #7488bc",
"a0 c #4c5a94",
"a1 c #ccd3cf",
"a2 c #7c767c",
"a3 c #5475bf",
"a4 c #ccccc9",
"a5 c #446cae",
"a6 c #dcdedc",
"a7 c #4c5d87",
"a8 c #3c3b36",
"a9 c #8c8b88",
"b. c #1c2c45",
"b# c #ccf2f4",
"ba c #84b2ec",
"bb c #748ed8",
"bc c #9c9a99",
"bd c #3c4e80",
"be c #4c5e9a",
"bf c #acd2f0",
"bg c #8492a4",
"bh c #2c446b",
"bi c #646363",
"bj c #c4c6b4",
"bk c #9ca19b",
"bl c #3c63a7",
"bm c #bcbcb4",
"bn c #6485d6",
"bo c #84a4e4",
"bp c #546db1",
"bq c #0c152b",
"br c #2c4484",
"bs c #dcfbf9",
"bt c #647cbe",
"bu c #4c4b48",
"bv c #6476c4",
"bw c #f4fdfb",
"bx c #c4c6c4",
"by c #04021c",
"bz c #5c86cc",
"bA c #143264",
"bB c #b4b4b4",
"bC c #4c6494",
"bD c #344a84",
"bE c #6c8acc",
/* pixels */
"#Z.i.i.i#q.n#l.b#r.n#T.S#vaN.E#Bam.Wbzav###HaP#B#da5a5a5aN.UaL.i",
"#Z.ibr.naY.n.S#AaNbp#r.Jambp.kbb#X.3#Ibo#Dau#B#HaSa3#B#r.S#x#T#q",
"#P.ibd.8.8#l#laJa7aNbp#VaN#dbE##ai#I#a#8###KavaZ#1.E.TbCbe#q#q#j",
".9#qa.ar.Q.Q#o#wa.#P.S#Vau#VaP##bf#aaiah.zbo#3.4#C.D#n.s.KaH.i.8",
"aL.8bd#w.Ma8#wa8.L.namatbpaB##av.6aG.6#y#0baaX.DbmaO.0.y.GaF.UaL",
"aLaL#l#w.Q.Qa8ar#O#ma3a5a3#BaBbfak#yacbs#WaGaXaO#haIbm.IaA#S.S.9",
"bD.nbe#w#Y#.#wa8.2bh#VaS#U#Ka##s.c#y#5#5.Xb#.G.0#R.Gbm.0a9.U#m.b",
"aL#T.8#o#w#.bu.2#O#O#l.W#V.kaB.Z.c#5aqaq#5aj.y.Obkab.K.7bxaea5#r",
".A.SaU.Q#N.F.F#N.V#NaMaB#2##.6asaGan#5.Xbw.K.l.7.G#b.4aIaObh#v.b",
".8aN#v.g#O.f.LaW#f#f.f.obb#cai.z.ub##5#7#5.GbBaO.L#b#Gbma9aea5#r",
"#T#ra7.f.2.F#e#fbi#G.faC#Bbz#a###saGbs.h#b#Qbm#C#z.y.G#n.1.aataN",
".n.n#v#O.Fbi#LaR.V.Y.d.5aSbn#I##baax#0.h.ja4#b..#4.j.G#Ma9#z#r#A",
"#T.na7#p#f#f.LaSap.j#hbk.p#H#aau#Dbaahala6#6.Dad.q.GaObc.j#kaYaY",
"aL#T#r.xa2.##e#BaRaIbk.YaE.o#Bbz#2a##u#o.#a1#E#A#t.jbk.g#G#k.S.n",
"br.n#r.x.f#M#La5#VaO#G.1.#bh#H#Ibn##as#b.1a9a..kay.V.FaAbc#ZaJ.n",
"aL.Ube.#.O.I#e.W.W#u.D.O.IaCbt#I.k.w#Qa4.s#waJ.3#BaOaO.Y.##J.SaY",
"aL.n#va9.I.I#ea5#g.obg.ya4.jaNaP#a.N.GaOaOaV.w#Bbn.#.I#f#Mbh#r#q",
"bD.SaK.#.I#hbqbl.W#d#1.1ao#RaV.kbnaf#C#h.Fa0aPa3a3aW#G.OaW#k.b#T",
".U.S.8.V.I.G.L.p#d#gaY#nbkbj.Ga7apaOaTaO#E#H#V#H#t.O.x#pbi.a.8#T",
"#jaJ.JaO.#.0#eamblbl#daDbjaIaaae#nbkaA.f#iaS.Wbta5#G.F.Vbi.vaL#q",
"#P.n#Tbk.Ibjbq.P#A.Pbl.Ta1bm.ybk.FaO.Gby.ia5#d.WbpaWaW#Nbi.v.n.U",
".i.UbdaH.7.Dbq.A.A.S#A#V#F.V#.#o.K#nbkaV.S.S#Hatbp.V#Nbu.2.maL.i",
".i.SaK.D#C.0#E.S#AaY#x.HaJ.j.Kbm#nbk..#TaYaY#d.bbv.x#N#..M.v.n#9",
"#Z.U.8#p#R.KaF#x.naYaJ#rataDbkbk.D.f#LaJ.A.nam.p#m#p#.a8.Q.vaLbr",
"#j.n.B#C.KazaFbl.9.n.8.SaY#q#Gbc.I.L.a.S.9aL#AaSaN.g#Ea8.e.RaL#Z",
".UaL.r#b.Ya1aFaY#T.n.9aL.A.Sag#N.ea.aN.9aL.iaJbla7.F.e.g.QaVaL.i",
".iaL.8azaw.D#e.n#q#j.BaL.UaYa7.j#w#S#TaL.i#j.n#r#l.g#E.g#o#S.U.i",
"#Z.nae#7#Raz..#q#q.i#P.R.U.8#qap#ebd.U.i.R.i.B.S.t#Y#Y#..Qa..U.i",
"#9#T#u#6#C#Oaj#z.abh#Z#Z.a.Ubhbh.v#P.Ubh.R.R.i#qa.#war#o#waV.R#z",
"aQ.m#Sb.ad#i.v#k.R#Z#S#Z#Z#P.abh.a.a.a#Z.R#S#9.a.U.CaV.vadad.m#S",
"#S.mbh#Zbh.a.a.R#Z#S#S#S#z.R#k#Z#k#Z#z#S#kbA#S#P.B#P.U#qbh.R#ZaQ",
".v.m.R.R#Z.R.a.R#k.m.m.C#SaV.R#k.m#Z#SaQaQ.m#S.R#Pbh.a.U.a#Z#SaQ"
};
