/* XPM */
static char *MainFrame_xpm[] = {
/* width height num_colors chars_per_pixel */
"    64    48      247            2",
/* colors */
".. c #ec1d1c",
".# c #8caacc",
".a c #bccade",
".b c #cc92a4",
".c c #d45a64",
".d c #ccb6c7",
".e c #e4e6ec",
".f c #e4cad4",
".g c #dc5660",
".h c #94aed2",
".i c #e43e44",
".j c #dc727c",
".k c #b4aec4",
".l c #ecaeb8",
".m c #ec8e94",
".n c #e4dae4",
".o c #dc4e58",
".p c #ccdaec",
".q c #e42c2c",
".r c #dc6874",
".s c #b4bed7",
".t c #d4cadb",
".u c #ec9ea0",
".v c #f4cacb",
".w c #a4bedc",
".x c #ecbec8",
".y c #ccbecf",
".z c #e4828c",
".A c #bc7e94",
".B c #d49fac",
".C c #a4aecc",
".D c #f4dadb",
".E c #f4f7f4",
".F c #f43a3b",
".G c #f45857",
".H c #f42c2c",
".I c #dcbfcb",
".J c #b490a4",
".K c #f47576",
".L c #c4c0d3",
".M c #eca9ad",
".N c #f4e8ea",
".O c #f44b4a",
".P c #f4d3d4",
".Q c #f41b1c",
".R c #d4d5e3",
".S c #fcc1c2",
".T c #c47a8c",
".U c #c4d2e3",
".V c #d4a8b7",
".W c #aca8c0",
".X c #b4b9d4",
".Y c #ecbac4",
".Z c #ec989c",
".0 c #f46767",
".1 c #f4f0ee",
".2 c #e4d5dd",
".3 c #a4b8d6",
".4 c #f4e2e3",
".5 c #f46061",
".6 c #94b6d4",
".7 c #b4c6dd",
".8 c #ccc6d7",
".9 c #f44442",
"#. c #c48498",
"## c #c46e7c",
"#a c #e4e2eb",
"#b c #ecc6d0",
"#c c #f48584",
"#d c #f43433",
"#e c #f47c7b",
"#f c #c4b8ca",
"#g c #cccbdb",
"#h c #e49096",
"#i c #dcb0c0",
"#j c #dc4244",
"#k c #dcccda",
"#l c #fca1a1",
"#m c #f45250",
"#n c #f42525",
"#o c #f46e6e",
"#p c #fcb2ac",
"#q c #f4cdd4",
"#r c #f4dde4",
"#s c #dc626c",
"#t c #f4b0b1",
"#u c #ec3433",
"#v c #d4c0d2",
"#w c #b497ae",
"#x c #fca9a7",
"#y c #f4d5dc",
"#z c #e4a6a8",
"#A c #9cb1d1",
"#B c #ec7b80",
"#C c #fc9192",
"#D c #ecdce2",
"#E c #ec4d51",
"#F c #bcc0d7",
"#G c #f4a09f",
"#H c #f4bfc0",
"#I c #e4a0a0",
"#J c #e4c6d4",
"#K c #fce8ea",
"#L c #bca0b8",
"#M c #bcb9d1",
"#N c #ecd4dc",
"#O c #e42324",
"#P c #dcdce6",
"#Q c #acb0cb",
"#R c #fc5858",
"#S c #e4c1cb",
"#T c #c4c6da",
"#U c #fc4c49",
"#V c #dcd3de",
"#W c #d47884",
"#X c #fc9898",
"#Y c #fc6969",
"#Z c #fceff2",
"#0 c #acb9d5",
"#1 c #fc6160",
"#2 c #fc4443",
"#3 c #c4cce0",
"#4 c #c46674",
"#5 c #ecccd5",
"#6 c #ec575c",
"#7 c #f48f91",
"#8 c #d4cde4",
"#9 c #fccbcb",
"a. c #acc6dc",
"a# c #a4a2bc",
"aa c #ac88a0",
"ab c #ec8387",
"ac c #d46c78",
"ad c #dc9aa4",
"ae c #ec6e74",
"af c #cc98a8",
"ag c #d48494",
"ah c #bca6c0",
"ai c #ec747c",
"aj c #ec4449",
"ak c #ec5e64",
"al c #d46571",
"am c #c490a4",
"an c #dcb6c4",
"ao c #dc8a94",
"ap c #fcfefc",
"aq c #cc7e8c",
"ar c #cc7284",
"as c #f48a8c",
"at c #fcc6c9",
"au c #ec5257",
"av c #fc2c2b",
"aw c #fc7472",
"ax c #f4a9a7",
"ay c #ccd3e4",
"az c #f4b8b8",
"aA c #fc7d7c",
"aB c #e4aeb8",
"aC c #fc2423",
"aD c #c49eac",
"aE c #dc6e7c",
"aF c #dce2ec",
"aG c #ec8a8c",
"aH c #d4727c",
"aI c #fce2e4",
"aJ c #bcc6dc",
"aK c #f4c6c9",
"aL c #d4b8c8",
"aM c #ece7ec",
"aN c #e4585c",
"aO c #ec3b3f",
"aP c #e4767c",
"aQ c #bcb2c6",
"aR c #e44f57",
"aS c #ec2b2b",
"aT c #acbfd9",
"aU c #dc9faf",
"aV c #fcdbdc",
"aW c #fc3b3a",
"aX c #fcd4d4",
"aY c #fc1d1c",
"aZ c #cc7888",
"a0 c #dca8b6",
"a1 c #b4a6bc",
"a2 c #f4989a",
"a3 c #9cb7d6",
"a4 c #fc3432",
"a5 c #fcced4",
"a6 c #fcdde4",
"a7 c #e45e64",
"a8 c #bc96ac",
"a9 c #fcd6dc",
"b. c #ec2426",
"b# c #b4889c",
"ba c #e498a0",
"bb c #d49aa4",
"bc c #d48ea4",
"bd c #ccc2dc",
"be c #fcf9f4",
"bf c #dcc2d4",
"bg c #bc91a4",
"bh c #c4c2dc",
"bi c #f4eaf4",
"bj c #f44e54",
"bk c #b4badc",
"bl c #cc6a7c",
"bm c #fc8484",
"bn c #f47e84",
"bo c #c4bad4",
"bp c #cccde4",
"bq c #dccee4",
"br c #e4a8b4",
"bs c #9cb2dc",
"bt c #ecdeec",
"bu c #f4c2cc",
"bv c #ecd5e4",
"bw c #ccd6ec",
"bx c #d4dae6",
"by c #d4c6d6",
"bz c #ece2ea",
"bA c #e4424c",
"bB c #fc5253",
"bC c #fc6e6d",
"bD c #e4b6bc",
"bE c #94aacc",
"bF c #f4e2ec",
"bG c #c4c6e4",
"bH c #e48a94",
"bI c #fc8a8c",
"bJ c #bcc6e4",
"bK c #d45e6c",
"bL c #ccbacc",
"bM c #e4cedb",
"bN c #94b2d4",
"bO c #b4b2cc",
"bP c #ecb2b8",
"bQ c #ec9299",
"bR c #e4dee4",
"bS c #b4c2da",
"bT c #d4ceda",
"bU c #eca2a4",
"bV c #f4cecc",
"bW c #ecc2cc",
"bX c #ccc2d3",
"bY c #a4b2d2",
"bZ c #f4dedc",
"b0 c #f43e3c",
/* pixels */
".RbT#VbT#V#V.2.n#D.NbF#N.2#N#N#N#y#y#N#q.P#5aK#q.vaK#qa9.PaKaK#q#q#JbfbfaL#vbfbT.t.L#M.Xbk.X#0bY.C#AbE.CbY#A.3bs.3a3a3a3#AbN.h.#",
"bT.R#k#V#V.2#V.n#D#rbt#D#D#N.D#N#N#y#N#q.P.v.v.v.vaK.v#yaXaKaK#q#5bW#S.I.I#v#k#kbybdbo#F.X.X#Q.C.C.CbY.C#A.3#A.3a3.3a3#AbN.h.hbN",
"#V#V#V.2.2#V.2.2.2.2#D#r#r#r#y#y#y.P#y.P#q.P.vaK#9at.va9#qataKaXbu.x.x#S#b#Nbv.f.t.8bd.L.X#M#0#Q#0bO#0.3.3.3.3bs#A#A.h.h.#.h.#.#",
"#V.n#V.n.2#D.nbM.2#N.2#y.D#r.4bZ#yaX.PaX#ya5#9aKataK.S.Pa5buat#qbubububWa6#y#q#5bvbqbybo#f#M.Lbh#FaJbS#0#0#A#A#AbEbE.h.h.h.hbNbN",
".2#V.2.2.n#D.2.D.2#N#N#N#5#N#rbZ#yaX#yaX.Pa5.v#9bu.Sbua5#q.SaKa5bu.S.v.P#ra9#ybvbv#kby.LbXbh.8bG#T#FbS#0.3#AbEbE#AbE#A#A.h.h.h.#",
"#V#V#V.2#V.2.2.2.D.D#N.fby#v#J#5.D#y.PaX#qa5.v#9#H.SazaK#9#H.S#H.Sbu.Da6#ya9#r.P#5.f.f#kbq#8.t#gbh.s.X#0bYbY#AbYbE#A.hbE.h.#bE.#",
"#V#V#V#V#k#V#VbM.2bM#Vby#v#v#vbf#S#5#qaX#q#9aKbuazaz#paK#9#H.SazaKaXbZ.DaV.DaX#y#y#r#rbvbq.t.8bdbh.L#F.X#0bY#A#A#AbEbEbE.#bE.#.#",
"#k#V#k#kbTbT.f#V#VbT.fbXbX#vbfbf.IbW#b.Pa5bVaKatazazazaXbVataK#p.PaV.D#yaV#ya9.Da6a6#rbv#k.tbybd.8bh.L.X#0bY#A#AbE#AbE.#bE.#bE.#",
"#P#V#P#V#kbT#k#kbyby#f#f#f.yaL#v#S.xbW#H#HaK.v#H#H.v.P#Z.E#KbZbVaV.DaX.PaVbZaI.DaV.P#y#5bMbM.tby.L.L#F.X#QbY#A#A#A.h#AbE.#bE.#.h",
"bTbT#VbT#V#V.2#V#k.8.8bX.Vba#h#h#h#7a2#l#G#x#p#H.P.1.E.Eap.Ebe.EaI.D#yaX.Da9.PaX.PaX#q#5.M.Z.m#h#hbHaoagagagaq.Taq.T#w.h.h.h.h.h",
"#g#g#gbTbT#V#V#kbTbXbXbXad#B#o#o.K.KaAbnbma2axazbZbebe.Eap.Eap.EbZ.DaX.Pa5bVa5#qaX#q.P#qas.0#1.5.5.Gak.GauauaRauaRau#.#AbN#AbNbN",
"#M#F.L.L.8.8byby.y#faQ.yba#B.5.5bj#m#R.0bCas#xaz.4.E.Eap.Eap.Ebe.NaXbVaX#yaVbZa6.4aI.4#q#o.O#2.9aW.FaW#da4#d#d.Fau#6am.3a3a3a3a3",
"aJ#F#F#F#T.8by#V.f#T.y#kbf#JbubPas.5#1#oawasaxaz#K.Eap.Eap.Eap.Ebe.4bZbZbZ.4.NaI.NaI.4axbj#2.9#2b0aW#da4#d#d.jafaQbO#0a3.3a3a3a3",
"#T#T#F.LbX#g#V#V#V.t.t#k#k#k#5.P#t.5.0aw#e#C#t#9.1ap.Eap.Eap.Eap.N.D.PaX.DbZaI.4a6.4a6#7.9.9aW.Fa4#da4#dav.Hbc#FaT.3#A.3a3a3bs.6",
"#T#g#T#T#T.L#Tby.tbyby#vbLbLaL#S.l.0.5bC#ebIaxazbZ.Eap.Eap.Eap.EbZ.PaXbV.PaXbZaI.NaIbVae#2.9.9aW.Fa4#dav#daSaf.LaT#0.3.3.3#A#A.h",
"#T#T.8#T#T.L.L.L.Lby#v.8bL#f#vbf.l.0.5aw#c#c#X#x.PaI.Nbe.E.1.EbZaV.DaVbZaV.PaX#yaV.Dax.O.9.5.GaW.Fa4#da4#d#d.Bbp.7aTaT#0aT.w.3bN",
"#T#T#g#T#T#T#M#F#f.8.8#v.y.y#v#vbr.0.5bC#c#c#C#GbV.P.D#Z.NbZaV.P.P.PaV.DbZaI.DaX.Da5#G.9.9#e.0.Fa4#da4.HavaS.Bbp.7bSaTaT.s.w.3bN",
"#F#T#T#T.L.L#M.L.L.8#g.tbX#f#fbLa0.0.G#Yas#l#7#G#x#X#tbV.Saz#HaKbVbV.PaVaV.4aI.NaI#t#e#2.0.u#Y#da4.Ha4.Hav#ubb#3#F.s#0aT#0a3a3bN",
".s.s#F#T#TaJ#T#F.L.L.y.L#f#fbLbLa0.5#m#Y#7#ta2bI#e#e#Xax#X#G#x.S#9a5.PaVbZaVbZ#K.N#7.G.9a2.P#Y#dav.Hav.HavaSbb#g.7bSaT.3.wbsbNbN",
"#0aT#F#T#T#T.L#F.L#f.LaQ.L.ybLbL.B.G.G#1#7#Ha2#ebC#e#Ca2asbI#G#HbV.PaX.PaI.4aXbZaI#c#m.OaxaV#oa4.Hav#naC#n.Hbb#3#FbSaT.3.3a3bN.h",
"#0.X#FaJ#F#F.s#M#M#M.L.L#f.LbLbL#zak.O#1#7aV#7.0#1.0bm#e#eaw#cazata5.DaX.DaI.NaV#H.5#2.0bV.Naw#da4.Hav#naCb..b.L.s#0#0.w.3a3.6bN",
"#0#0aT.X#0.X#M#F#F#F.L#M#f#M.y.ya0#6#U#oa2#Jbaai.G#1.KbC#Y.5.0a2bW#b#y.DaX#ya6.Pa2b0.FaG#K.Naw.Fa4#dav.HavaSad#g#F.s#0.3.3bN.hbN",
".3#Q#0#Q.s.s.s#F#T.L#M#M#f.LbXbX.V.G.O#obQ.I#zab#m#1#o#1.0#R.GaG.xbWbV.DaV#yaVazas#2b0a2.4#K.KaW#dav.Hav.H.Had#V#T#TbS#0.3bN.h.#",
"bY#Q#0#0.X.s#M#F#F#F#F.L.LbXbXbX.V#6#R.5.z.daL#I.5.5#R.G#R#mbB.0.l#b#q#y.DaV#y#c.G.O.0.vaV.DbC#da4#da4.HavaS#I.n.Ray#3.7aTbYa3a3",
"#0#0#0.X#0.X.s.s#M.L#T#T#T.L.LbL.V.5.O.OaPaQ#iaLai.GbB#mbB.O#2.O.u#5bV.PaVbZaX.0a4.9#c.N.4#r.5av.Ha4.Ha4#d.H.Mbz.n#V.Ray.U.a.aaT",
"#0#0#0bO#0.X#0.s#MaJ.L#T.L#f.L.L#iak#2#Eae#faQ.dab.5#U#m#U.9#2.O#7.Y.P.P.DaI#H.G#d#m.m#K#KaI.0.HaC.Hav.Hav#u.M.4bzbR#PbT.Ray.U#3",
".X.X.X#0bO#0.X.X#F#T#T#T.L.L.8.8#i#m.FajaE.kaQbL#I#B.9#2.OaWb0#2.5aG#N#N.P#ya2.Fa4#e.Y.4.N#K.0avaC#naC#naC#u#t.1.N.NbzbR#P#P#Pbx",
"#0#0#0#0.s#0.X.s.s#F#F.L#T.8bp#8.Vajavb0acbOaQ#f#v#h#2b0#2b0a4b0.F.5bW#N.2bW.5.F.FbU.D#NbF#K#oa4.HaC#naY#n#n.M#K#Z.N.1.N.4bzbzbz",
"#0#0#QaT#0.s#0.s.X#M#MaJ#T#gbpbp.Vaj.Hb0ac.k.X#F#vaUb0b0#2#da4.FaW.ObP#N#NaB.O#d.9bP.D#D.DbF#oa4.HaC#naY#n#nbU.N.N#K.N.1.N.NaMbz",
"bSbSaT.s.saT.s#0.X#0.s#F#3#3bp.LaDaOavaOac#Q#M.L.L#iaNaWb0a4#da4#d.FbQ#J#b.Z.H.F#o#N#D#D#D#D.0.Ha4.HaC#naYb.bU.4bz.N.N.1.N#Z.1.N",
"#T#3.a#FbSbS#0#0#0.s.saJ#3bG.s.Xa8.iavaOalbO#F.L.L#F#W#daW#dav#da4a4.0ba#I#o.H#6.Z.n#D#D#D#D.5aC.HaC.HaC#nb.#I#D#a#DbzaM.NaM.NaM",
"ay.U#3#T.7aT#0#0aT.s.saJbJbS.X.Xa8aO#n#ual#Q#F#F#T#M.baOaW.Hav.Ha4.H#E#B.z#Eavaibr.n.n#D.4#D.5aY#nav.HaC#n#nbU#DbRbRbRbzbzaMaM.N",
".Rayay#3aJ.s#0aT.sbS.7aJ.saT#0bY.JaO#n#ualbO#F.L.s.saQaN#dav.HaC.Hav.Haj.O.H.H#h#k.n#Dbz#Dbz.5#naY#naC.HaCaS#z#DbRbRbRbRbRbR.e#a",
"bxbx.Ray#TaJ.XaTbS.7bSaT#0.3bYbY#w#uaC#dal.s#F#F.X#0#QaH.O.HaC#nav.Hav.H.H#n.Oan#V#V.n#Dbz.4.5#naY.QaY#naCaS.M.4bR#D.n.n#P#P#P#P",
"#V#PbTay#TaJ.sbSbS.7bS.s.3.3bY.3.J#u#n#u.r.XbS#F.X#0bYaqaNav#naC.Hav#nav#nav#6.f#V#V.nbz#D.4.5aC.QaY.QaC#n.HbUaMbz#abR#V#Pbx#Pbx",
".R.Rayay#3#T.7aJ.7.7aT#0.3bYbY#A#w#uaY#ual#0.sbS#0#0bYahaq.HaC#naC#nav#naCaS#h#V.2.n.nbzbzbz.5aC.QaY.QaY.Q#n.M.NaM.NbRbR#P#Vbx.R",
".Rayay#gay#3#3.a.7aTaT.3#AbYa3bYaa.q.QaS.c.3aT#0.3.3bY#0ahaj#naY#naC#naC#n.O#S.n.n.2bRbRbzbz.5#naY.QaY.QaY..bUaM.NaMaMaMbR#P#Pbx",
"aybTay.Uay.U#3aJ.7aT#0bYa3.Ca3.3aa.q.Qb.bK#0.3#0#0bY#A#0bOaR#naC#naC#naC#nakbM#VbR#D.n.n#DaM.5.QaC.QaY.QaY..#z.NaM.NaMaM.e#a#Pbx",
"ayayayayayay.U.7.7#0#0bYbYa3bYa3b##OaYaS.c.3#0.3.3bY#A.3#0acaO.QaY#naC#nb0#B#VbRbRbR.D#PbZbR.5#naY.QaY.Q.Q..#I#DaMaMbiaMaMbz#a#P",
"ayayayayayay#3.a.7.3.w#A.3#AbY#A.Ab..Qb..g#0.3.3.3#A#Aa3.3a8#s.QaY#naC.Qaea0#V#P.2.nbRbR#PbR.5aC.QaY.QaYaY..babR#DaMaMaMaMaM.e.e",
"ayayayay.p.U#3.7aT#0.3.3#AbY#AbY.T..aY#n.gbY.3.3bY#A#A.3.3a1ar.QaY.QaC#n.z.I#V#P.2bRbR#PbR.nakaY.QaY.QaY.Q..#I.nbRbzaM.N.NaM#a#a",
".Uay.pbxaybw.a#FaT#0.3.3bYa3bY.C.caY.Q#n.i#L.3a3.3#A#A.3.3bYbgaS.QaY.Q.H.BbTbT#V#P#V#P.n#PbV#m.QaY.QaY.QaY.Q.ZbZ#DbR#abzaM.eaM.e",
"bw.Rayay.U.U.abS#0#0.3.3.WbgaZalb.aY.QaC#n.oaZaq.T.Ja3bY.wa3.W.oaY.Q.Ha7.8#3bTbx.R.fbD.Zab.0#naY.QaY.QaY.Q.Q.O#B.Z.Z#S.n#a#a.eaF",
"bx.p.pbw.U#TaJ.s.s.w#0.3bgbl.i#u.Q.QaY.QaYaS#E#E.o###Aa3.3a3bY#4#O#O#j.j#T#3ay.R.R.I#h.G.9#d.Q.QaY.QaY.Q.Q.Q#n.F#m#m.u.n#PaF#aaF",
"bwayay.U#3.a.7bSaTaTaT.3amacajbA.Oajau#EaR#E#EaRajbl#A.3a3a3#Aa#aaaaaD.k.a.a#Tayayan#h#m.G#U#m#U#m#RbBbBbB#U#mbB#mbBba#V.R#Pbx#P",
".U.a.aaJ.a.7bS.7#F.7.7aT#0#Q#Q.W#Q#0bO#0bO#Q.X#Q.C.C#Aa3.3a3#AbN#Aa3.3aTbSbS.a#T#3bTbTbM.2.2#N.2#D#D#D#DbR.n.2.2.2.2#Vay.Raybw.R",
".a.a.7.7.7.7bSbS.7.7.7bS#0bYa3a3a3.3.w.3a3.wa3.3a3.hbN.3a3a3#AbN#A.3.3.w#0aT.7.a#3#3ay.R.R#P#PbR#PbRbzbRbR#P#Pbxbx#Pbxay.Rayayay",
"a.a.aTaTaT.waTaT.7aTbS.saT.wbY.3.3.w.3a3.w.wa3a3#A#AbNa3.3a3bN#A#A#A.3.3.3.waT.7.7.a#T#3.R.R#PbR#PbRbRaF#aaFbx#P.Rbx.Rayayay.Uay"
};
