/* XPM */
static const char *MainFrame_xpm[] = {
/* width height num_colors chars_per_pixel */
"    64    48      253            2",
/* colors */
".. c #04020b",
".# c #74828c",
".a c #24426c",
".b c #9cc2e8",
".c c #446294",
".d c #94999e",
".e c #646361",
".f c #444a4c",
".g c #8c9ba6",
".h c #bce4fc",
".i c #2c3236",
".j c #a4aeb0",
".k c #7c8387",
".l c #c4c5c7",
".m c #3c62a4",
".n c #243238",
".o c #244276",
".p c #acb0b5",
".q c #64749c",
".r c #5473a8",
".s c #445580",
".t c #345388",
".u c #acd3f6",
".v c #0c2244",
".w c #7c8cae",
".x c #5c82c4",
".y c #041224",
".z c #9ca2a2",
".A c #647274",
".B c #c4d2d8",
".C c #b4c2bc",
".D c #749ad8",
".E c #4c575c",
".F c #dce3e4",
".G c #6c8fd0",
".H c #2c3a5c",
".I c #34497b",
".J c #94b5eb",
".K c #7c8ea4",
".L c #546d9e",
".M c #1c355e",
".N c #acbbc1",
".O c #7ca6dc",
".P c #94a4c8",
".Q c #4c72b4",
".R c #1c2947",
".S c #14141c",
".T c #546e94",
".U c #323a40",
".V c #747979",
".W c #d4d4d6",
".X c #1c222a",
".Y c #3c4241",
".Z c #4c6ba2",
".0 c #345694",
".1 c #5c636b",
".2 c #445d95",
".3 c #6c86c0",
".4 c #b4c6e9",
".5 c #dff9fc",
".6 c #647cb3",
".7 c #04152f",
".8 c #a4a9ab",
".9 c #54595a",
"#. c #1c2a3b",
"## c #accae8",
"#a c #94bbe4",
"#b c #243b64",
"#c c #04031c",
"#d c #444d5c",
"#e c #7f8a9f",
"#f c #2c4a7c",
"#g c #c4d3e7",
"#h c #84a1e4",
"#i c #374e7a",
"#j c #bcbdc0",
"#k c #1f2e4a",
"#l c #34456b",
"#m c #646b6c",
"#n c #ccf2fc",
"#o c #445c88",
"#p c #8c9293",
"#q c #9cb2d4",
"#r c #c4cbd0",
"#s c #1c3254",
"#t c #acb6c1",
"#u c #7c92b4",
"#v c #6c96d4",
"#w c #547abc",
"#x c #747e84",
"#y c #546486",
"#z c #9b9ea3",
"#A c #cce6f4",
"#B c #2c304c",
"#C c #848a8f",
"#D c #4c649f",
"#E c #647aa2",
"#F c #5c7aac",
"#G c #3c5a8c",
"#H c #b4daf4",
"#I c #97aab1",
"#J c #7ca2e0",
"#K c #acbcce",
"#L c #8cace7",
"#M c #3c3e3c",
"#N c #0c1b36",
"#O c #5c75a3",
"#P c #3c5487",
"#Q c #6c7a84",
"#R c #2c3b52",
"#S c #ecfcfa",
"#T c #a4bee4",
"#U c #3a4c6c",
"#V c #4c5e84",
"#W c #6c84b4",
"#X c #9fc3fc",
"#Y c #142b4c",
"#Z c #648acc",
"#0 c #bccad4",
"#1 c #7c9cde",
"#2 c #546eae",
"#3 c #1c2438",
"#4 c #6f8ac1",
"#5 c #b4cce0",
"#6 c #545c6f",
"#7 c #94baf4",
"#8 c #646c78",
"#9 c #8c96ac",
"a. c #141e34",
"a# c #dceeec",
"aa c #a4aac1",
"ab c #545254",
"ac c #8c9bbc",
"ad c #445670",
"ae c #d4dcdd",
"af c #d4eef9",
"ag c #040c22",
"ah c #bcd6ec",
"ai c #747ea4",
"aj c #9caabc",
"ak c #5c76b4",
"al c #2c3e62",
"am c #4c5254",
"an c #34363c",
"ao c #84aedc",
"ap c #3c5e9b",
"aq c #575e61",
"ar c #445267",
"as c #c4daf4",
"at c #a4b6d0",
"au c #546a91",
"av c #6c8ab4",
"aw c #94a2ac",
"ax c #6a7686",
"ay c #747a88",
"az c #446aac",
"aA c #a4cbfa",
"aB c #1c3a6c",
"aC c #8196c1",
"aD c #c4eaf9",
"aE c #243a54",
"aF c #84a2c4",
"aG c #4c5e74",
"aH c #040a0c",
"aI c #e3fefc",
"aJ c #344e84",
"aK c #1c2e55",
"aL c #d4fafc",
"aM c #949eb0",
"aN c #6c8acf",
"aO c #99aacf",
"aP c #2c4c85",
"aQ c #8c949d",
"aR c #4c638f",
"aS c #4c4c4f",
"aT c #343234",
"aU c #848689",
"aV c #4463a0",
"aW c #b4b2b4",
"aX c #6484c5",
"aY c #0c1320",
"aZ c #ccd4d5",
"a0 c #7491cd",
"a1 c #3c4a74",
"a2 c #848f9b",
"a3 c #b4bcbe",
"a4 c #84a7e5",
"a5 c #242a44",
"a6 c #5c6f8f",
"a7 c #bcc5dc",
"a8 c #6c7eac",
"a9 c #242b37",
"b. c #9cbbe4",
"b# c #a4b1c7",
"ba c #cccdd4",
"bb c #5c7cbc",
"bc c #6c7b9b",
"bd c #bcdef2",
"be c #7486a7",
"bf c #e4edf1",
"bg c #2c364f",
"bh c #3c4250",
"bi c #2c3e6d",
"bj c #b4b6b8",
"bk c #7496d5",
"bl c #7c7e84",
"bm c #1c1e2c",
"bn c #4c5261",
"bo c #ccdaef",
"bp c #5c6a8a",
"bq c #748aa9",
"br c #2c436c",
"bs c #a4c3e9",
"bt c #14233b",
"bu c #c4e6f8",
"bv c #2c4477",
"bw c #142645",
"bx c #6c7378",
"by c #bcc3c4",
"bz c #5c6e9f",
"bA c #24365f",
"bB c #5474b5",
"bC c #7c7a74",
"bD c #242624",
"bE c #3c5995",
"bF c #0c1630",
"bG c #5c5a5c",
"bH c #8ca2dc",
"bI c #6c6a64",
"bJ c #243452",
"bK c #8495af",
"bL c #d4e2ec",
"bM c #343a54",
"bN c #f4fefc",
"bO c #24263c",
"bP c #bccae2",
"bQ c #9cbefc",
"bR c #6c6e74",
"bS c #dcdedc",
"bT c #9ca5af",
"bU c #bcc4cd",
"bV c #4c6dad",
"bW c #accefc",
"bX c #243d6c",
"bY c #040314",
"bZ c #949aac",
"b0 c #64666c",
"b1 c #8c9ab4",
"b2 c #2c3144",
"b3 c #a4afbc",
"b4 c #7c8494",
"b5 c #c4c6d4",
"b6 c #243444",
/* pixels */
"................................................................bY..bY..........................................................",
"........................bY..bYbYbYbYbYbYbYbY#cbY#cbYbYbY#cbY#c#c#c#c#c#c#c#c#c#c#c#c#c#c#c#c#c#cbY#cbY#c#cbY#cbYbYbYbYbYbY......",
"...X#.#3.R#.#kbJ#k#kbJbJ.R#kbJbJbJbJ.H.H.Hal#l#l#U#U#l#l#U#l#lbr.I#la1.s#Pad.s#V#P#Ua1.I#U#Ubr#l#lalal.HbAbJbJ.HbgbJbJbJ#k#ka9..",
"..#3#..R.R#Y#k#k#sbJbJ.MaE.M.M.MbAbXbi#b#lbrbv#l#U#P.s#i#i#Pbvbv#f#faJbE.s.2#o#D.s#i#P.IaJ.I.I.IbvbvbibibXbibi.H#bbAbJbJ#s.R#.bY",
"aHa.bw#3#Ybw.R#k#sbJbAaE#bbrbral.MbXbibibv.I#laJ.t#iaR#o#P#P.0#f.0#PaJaV#DaV#D.L.2#PbE#P#PaJbE#f.I#f.Ibv#lbvbrbvbXbA#saKaK#k#k..",
"...X.R.R#Y.R#Y#YaK#s.MbAbXbr.I#f.I.IbXbX.I#faP.I#i.t#P.2.2ap.c#P.0apbEbV#2#2bBakap#D.0#D.0aV#P.0aJ.IaJaJaJ#i.obXbA.M.MbJ#sbJb6bY",
"bY#3.R#Y.RbwaKaK.M.MbAbX.abvbvaJaJ#PbEaJ.IaP.I.tbE#P.2.c.r.Z.Z.ZapazbEbVakbbaXakaVaz#2.2#2apbEbEbEbE.2bE#faP.a#b#b#bbAaBbJaK#kbY",
"..#3.R.RaK#YaKaK.M#bbXbX.abv#faJ#P#P.2.2.2bEaJaJ#P#PaVaV.ZakbBakazaVbVbBaXbkbkbbak#2azakazazaVaV.ZaV.2#PaPbvbvbvbvbXbA.M#sbJb2bY",
"..#3.R.R#YaKaK.MaB#bbXbvaP.IaPaJ.t#P#G.2#D.Z.LaVbEbE.2#2.ZakaNaX.3bVbb#wbk#ha4#ZbbaNaXbb#2#2akakbV#D.0#P.0.0#i#fbX#baB#bbAaE#BbY",
"bYa9.R#saKaK.MbA#bbXbv#f#P.t.s#P#V#o#o#o#VaR#D#2bBbVbE.2bBbb.3a4#v#1#v#w#LbQ.Jbk.GaN.3a8.6#4a8akau#oaRaR#P.tbvbv.IbvbibX.MbJ#kbY",
"..#3#k#kbJ#sbAbAbi.IaJbvbAbJaEb6b6bJbJbJal#s.I#PbVakaXbb#2bba0bkbWa4#Z.OaA.u.J#h.D#OaO.4a7#ga7a7ajahas.4aR.t#G.t.I.obX#bbAbJbJ..",
"bY#3.R#YaK#sbA#bbiaP#i#P#obwa..X.n.U.i.na9.7aK.IaVaV#2bb#1#1aXa4#XaD#H.Jbd#n.bbsb.aFbP#KbZ#tbU#r#tbjb4.7#s#f.I.IbvbibXbAbAbJ#kbY",
"..#..R#kaKaKbAbAbvbvaJ.t#V#U.i.ibD.i.i.Ubh#.#o.LaVbVbV#2.xaN#XaA#a#HaLbdaI.5bdbu##ahaj.d.8.8#ja3aZba#dbF#obE.taPbvbibXbA.MbJa5bY",
"bYa9.R.R#s.MbA#bbv.I.taJ#oalb2.ia9aT.Y.Y.E.9#V.6bbbbak#2.x#Z#v.Jbu#H.5aI.5aI.5af##.P.j#z.z#j#jbabCb4aabw.sbEaJaP.obi.o#bbAbJ#BbY",
"..#3.R.R#sbJbA#bbvbv.0#PaR#la9.ibD.iaTan.9.Ea5.sakakbb#w#1#L#XbWb.aDaI#SbN#SaI#SbL.j.Nbj.W.l.V#jba.pay.v.L.Z.2.2#PaJbvbvbi.HbM#c",
"bY#..R.RaKaKbA#bbv.IaP#P#o#U.Y.X.fanabaS.fbn.E.R.L#2#wbBaX.G#1ao#5bd#S#S#S#SbN#S.N.B.z#p.zby.Wba.8.kbZ#k.LbV.2ap#Pa1bv#lal.HbgbY",
"..#3.RbJ#s.MbXbibv.t#P#o.T#U.i.9aS.9ambG.Vb0bn#6#V#4a0#h#h#L#X.u.hbuaI#SbNbNbNaeaZ.j.8aZbjbSbS.W.W#z.ka..L#D.2bEaJaJbvbibi.H#BbY",
"bYa9#kbJ#saEalbr#l#P#G.cbz#Ubhamab.eaY.fbRbC#mb4#Rau.3a0.Gbk.O#a.u.u.5aI#Sa##S.j#r.8bf#z.yaZba#p.p.p#8bw.L.ZaVbEaJ.Ibvbi#b.HbgbY",
"bYa5#k#kbJ.MbXbv.I#ibEaR#Oad.1aSam.1.Sb0aq#maU#p#8.R.rbbaN.D#L#JaAbsbu#A.5#I#0bybSbyaeaq.Y#rbyaW#z.p#xbw.L.ZaV#oaJ#ibvbi.H.HbgbY",
"bYa9bJ#k.MbA#bbibv#f#P#PaR#V#d.9#m.1a.#6bx#8bl.kaw.K#VbbaN.G#Z.J#J.J###n#A.ga#bSbfaZbT.yaxa7.p.p.p.8aybwau#D.2bEaJ#ibvbrbX.H#RbY",
"..#3#k#kbJ#sbAbibv.I#P#P#obpaq#mbx#m.7aGax.q.VbT.Va2#kaRbBaNbkaN#J#7.Jbsas.C#0.p.V#paH#k.PaaaQ#p#p#zay.v#obEbE#P.I#fbvbibX.H#RbY",
"bYa9.RaKaKbJ#bbX#laP#PbE#obp#8.V.V#Cbtadbcbpa2#CbT.CaObw.3aN.x#Za4#Jb.#T#g#0aU.j.F#QbJbz#EaO#z.d.d.1bnbw.sbEaJaP#fbvbibiaEbJ#BbY",
"bY#3.R.R#s.MbA#bbvbvaJ.0#o.qbxbn.V#8.7aR.6a6b#aw#paMbU#e#VakaXaN#1aN#L#q#5.j.8#m.nag.Ta8a8.w#6an.V#zaxbw.2bE.taPbvbX#bbA.M.H#BbY",
"bY#3.R.RaKaK.MbAbr.o#f#P#Pbp#9.V#CaQ#N#P#F#FaCa2a3.laU.1bwakaN.G.x.3av.4a3#raW#raYbJ.6.3.6#q.8.8.d#p#6#3#oapaJaJbvbibX.MbAaKa5bY",
"..#3.R.R#YaK.MbA.o.oaJaJ#o#y.1#m.d#p.7#o.LbV.L.w#e#C#jb5a7.H.3aXaXbH#q.4bya3bj#t#.au#F.6ak#u#eaQaU.d.1a..2.2#PaPbv.obA#b.MaK#kbY",
"bY#..RbwaKaK.M.Mbi#faJ#P#Vbca2.d.d#C.7#ibV.Z.ra8bP#rb5bab3arak.3.6aCaObU.8.8.ja.aEa0bbak.3.wb4#pbC.V#6bwaR.2#PaJbvbibXbA.M#ka5bY",
"..#3.R.RaKbwbAbXbvbv.t.2#Pai#e.d.V#x.7.I.r.QbB.rajat.Waeae#g#la8aCaC#t#r.d.d.Eag#Ebb.3ak.6beayaQaU.V#d#NaR.2.0aJbvbX#b.MbA#k#kbY",
"bY#3.RbwaKaKbA#bbv#f.I#G#Pbc.f.1.j.p.y#PbVbVaz#DaubK#t.8by.Nax#Vb1bKb3bj.8.8ag#Ya0ak#Z.6.L.waybIabaSbna.#PbE#PaJbvbv#bbA.M#ka5bY",
"..#..R.RaK#s.MaBbX.oaJ#o#PbKb3.V.pbT.7#P.ZaV.maV#D.qa7bU.pbybT#d#x.g#z#CaU.1#Y.t#Wbbbb.6#2.wblbn.eaq#d#N#iaJaJaJ.IbX#bbAbJ#k#k..",
"..#3.R.R#YaK.MbAbibraPaJ#obe#p#p.8b3#N#UaVapap.m#DaRboaea3aZbjbTbxaq.p#j.A#cbv#P.QbbbB.6#Obpax.VbI.1bha.#iaJ.Ibvbvbi#b#bbA#B#kbY",
"..#3.R#YaK#Y.M.M.o.o.IaP.sbeb3.p.p#p.7#ibEbEapapap.L#VaM.AbxbD.Ya3#r.8.d#cbX#GbEaVbbazbB#O#ybR.e.f.fbha.#P.IaPbi.o#bbibA#sbJb2..",
"bY#3#3bwaK#YbA.Mbi.abv#i#obebT.8byby.7#lbE.0.0bEbE.L.Lbcaj.E#j#r.z.8#zaQbt.s#P.0aVaz.Z.Z.q#y.1.9aSaSb2.v#iaPbv.obXbA.MbAbJb6a5bY",
"..bt#..R#YaK#s.M#bbXbv#f#ob1bn#rbS#Cagbr#GbE.0.0bE.2.2#V.KaZ.8#paU.d.k#c#l#o.0aPbEazbV.Z#Oa6aS#M.YanaY#N#iaJbv.obX.MbAbJ#s#sa9bY",
"..#3.R.RbwaKaK.MbA.oaP#iaR#y.B.jbDax.7#lbEaJaJ#PbEapbE.Iauaja2aU#paQbY.R.sbEaJaP.0bEbV#o.Tad.fbD.SaH#3bt.IaJbvbiaB.MbA#Y#k.Ra5bY",
"..a.#3#Y.Rbw.MbAbibvaJaJ#iat.z.kba#r.y#l.taJ.0aJ.0#P.0#P#o#U#x#x.k#Cbt#l#G#PaPaPaP.0#D.Z#oar#d.f.Ya9aY#N#iaJbv.obAaBaKaK#Y.Ra5bY",
"bY.Xbw.RbwaKaKbAbX.o.IaJ#Uat.Fae#ja2.7alaJaJaJaJaJaP.I.t#P#V#9a2aQaH#s.s#PaPaP.obvaJ.c.Z#o#NaHaH....#.#N.IaJbv.obA.M#YaKaK.R#3bY",
"..a.#3btaKaK.MaKbibXbvbv.sbc#8aZae#ragal#iaJbvaPbvbvaP.I#P#P#y.gbF.y#l#o.Ibvbv.o.oaPbEaRad#R.U.Y.i.nbm.7#U.I.obX.MbAaK#Y.R.R#3bY",
"..a.btbtbwaKaKbAbAbXbv.t#i#KbfbLae.Bagal.IaJ.IbvbX.obraP#U#P#lbqag.R#i#P.obv.o.o.obv.t.saRbh.n.i.U.UaYbF.I.IbibXbA.MaKaKbw#Y#3bY",
"..a.#3bw.RbwaK#s.M#bbX.s.4ac#K.N.#bYasa6brbvbvbXbX.o.abv.I#f#l#UbXbX#laJbv.obXaB.o.o.I#f#s#R#R.U.U.nb6#k#bbrbiaB.MaK#Y#YaKbt#3bY",
"..a.a..R.R#Y.RaK#s.M#b#sbr#s#k#kbw#YbJbwbXbibXaBbA#b.Mbibrbvbr.abr#bbi.I#b#bbXbXaBbX#f#U.IbJbJbJ#s#k.R#YbwaK.MbA.M#YaKbwbwbw#3bY",
"...X#3bt.Rbw#YaKaK#s.M.MbXbralbralbralbXbXbXbA.M.M.MbAbXbXal#bbi#b#bbXbibAaBbA.M.MbAbX.I.t#U#l#U#i#Ubrbr#b#bbA.MaKaK#YaKbw.R#3bY",
"..a.btbwa..R#Ybw#YaKbA.MaEaB#bbX#bbrbr#bbAbA.M.MaK.M.MbAbAbAbA#bbAbJalbAbJ.M.M.MaK.M#b.a#lbvbrbr#fbrbibXbA.M.M.MaKaKbwbw.Rbta.bY",
"..a.a.btbw.v.R#Y#Y#YaKaK.M.MbJbA#baE.MbA#s#saKaKaK#k.MbJ.M.MbJ#s#s#sbAbA#sbJaKaKaKaK.MaBbibral#balbr#bbA.M.MaKaK#Y#Y#Y#Ybtbt#3..",
"..a.a.#Na.bt.vbtbwbw#YaKaKaKaK.M#s#sbJ.MaK.RaK#Y#k#s#s#sbJ#s#saKbJaKbJbJ#saKaK#Y#YaKaK#sbA#b#b#s#baEbAbAaKbwaK#YaKbw.RbwbwbtbtbY",
"...Xa.bt#N.vbtbtbw.v#Y.v#Y#Y#Y#sbAaKaK#kbw#Y.Rbw.R.R#k.R.R.R#k.R#YaK#kaKaK.Rbw#Y#Y.vaK#Y.MbAbA#saKbA#saKaKaKbw.Rbwbw.Rbwbtbt.X..",
"..a.a.a.btbt#Nbta.bt.Rbw.RbwaK.R.R.R.R#Y.R.Rbw.R#Y.R.R#Y.R.R.R.R.R.R#k.R.R.RbwbwbwbwbwaK#kbJ#kbJ.R.R.R.R.R.Rbwbtbtbtbtbwbta.a...",
"..bma.a.a.a.a.bma.a.a.bt#3#3.R.R#3.R#.#3.R#3.R#3bOa5.R#3bO.Ra5.RbO#3a5a5.R#3#3#3bw.vbO#3.R.R.RbO.R.RbO.R.R.Rbm#3#3a.bm#3.Xa..X..",
"........bYbY#c#c#c#c#c#c#c#cbY#cbYbY#c#c#c#c#c#c#cbY#c#cbY#cbY#c#c#c#cbY#c#c#c#c#c#c#c#c#c#c#c#cbYbY#cbY#c#c#c#c#c#c#c#cbY......"
};
