/* XPM */
static const char *message[] = {
/* width height num_colors chars_per_pixel */
"    32    32       15            1",
/* colors */
". c none",
"# c #e3e3e3",
"a c #636363",
"b c #424242",
"c c #ffffff",
"d c #0a0a0a",
"e c #828282",
"f c #a3a3a3",
"g c #c2c2c2",
"h c #cd2626",
"i c #00868b",
"j c #8b2323",
"k c #212121",
"l c #cd8500",
"m c #121212",
/* pixels */
"................................",
"................#a..............",
"...............#c#a.............",
"..............#####b............",
".............#######b...a.......",
"............###acd###ac.a.......",
"...........#c##c#gfaccccca......",
"..........###d#fggcccccccc......",
".........####gfgccccccfccca.....",
"........###fgdcccccchaccccb.....",
".......#cfggcccccchccccaccca....",
"......##fdc#####hd####a#####....",
".....#aaffajaabbbbbdbbbbddbbb...",
"...ccccccccccccccccccccccccccc..",
"..#bgbbb##################g##cb.",
"..#c#####################bhh#cbb",
"..#######################lbh#ckb",
"..#bb##bbb###############hkb#ckb",
"..##########################gckb",
"..#######################ggg#ckb",
"..######da##bagaa########gg##ckb",
"..#########################g#ckb",
"..######a#bf#badaf#b######gg#ckb",
"..####################g##ggg#ckb",
"..######aaafab#d#aa#baabgggg#ckb",
"..######################gggg#ckb",
"..####################gggggg#ckb",
"..################g##ggg##g##ckb",
"..cccccccccccccccccccccccccccckb",
"..ddddddddddddddddddddddddddddkb",
"....bbbbbbbbbbbbbbbbbbbbbbbbbbba",
"................................"
};
