/* XPM */
static char *MFrame_xpm[] = {
/* width height num_colors chars_per_pixel */
"    48    48      200            2",
/* colors */
".. c #000000",
".# c #050000",
".a c #060606",
".b c #0f0000",
".c c #060800",
".d c #0b0b00",
".e c #0e0e00",
".f c #0c070a",
".g c #090809",
".h c #09080d",
".i c #0d0d0d",
".j c #110000",
".k c #121200",
".l c #181900",
".m c #1b1c00",
".n c #1c1c00",
".o c #050711",
".p c #050417",
".q c #070914",
".r c #090813",
".s c #090814",
".t c #09091a",
".u c #0c0c1f",
".v c #1a1b1b",
".w c #1e1e1e",
".x c #3d0000",
".y c #272900",
".z c #2d2d00",
".A c #323200",
".B c #353600",
".C c #363f00",
".D c #131326",
".E c #141426",
".F c #181820",
".G c #151528",
".H c #1e1e31",
".I c #202121",
".J c #262626",
".K c #2a2a2a",
".L c #2e2e2e",
".M c #242436",
".N c #27273a",
".O c #2f2f39",
".P c #313132",
".Q c #353535",
".R c #3a3939",
".S c #3d3d3d",
".T c #555500",
".U c #5b5b00",
".V c #6a6a00",
".W c #737300",
".X c #7b7b00",
".Y c #7d7d00",
".Z c #3a3a4b",
".0 c #454545",
".1 c #4e4d46",
".2 c #494949",
".3 c #4a4a4e",
".4 c #4d4d4d",
".5 c #525252",
".6 c #545454",
".7 c #595959",
".8 c #5d5d5d",
".9 c #58596a",
"#. c #606060",
"## c #676767",
"#a c #727272",
"#b c #7b7b7b",
"#c c #7d7e7e",
"#d c #8e0b00",
"#e c #921000",
"#f c #a33400",
"#g c #ff0c05",
"#h c #ff2616",
"#i c #ff2a19",
"#j c #e91025",
"#k c #e0223e",
"#l c #f2323e",
"#m c #c86b00",
"#n c #ff4b39",
"#o c #b61457",
"#p c #ca3361",
"#q c #816c6e",
"#r c #e84b5e",
"#s c #848400",
"#t c #929200",
"#u c #949400",
"#v c #979d00",
"#w c #999901",
"#x c #949308",
"#y c #99990c",
"#z c #9da400",
"#A c #a6a900",
"#B c #b5a900",
"#C c #b6bb00",
"#D c #bbbb00",
"#E c #bfbf00",
"#F c #999927",
"#G c #999937",
"#H c #dea300",
"#I c #bec100",
"#J c #c1c100",
"#K c #c2c500",
"#L c #c6c600",
"#M c #c8c800",
"#N c #cece00",
"#O c #cad300",
"#P c #dedd00",
"#Q c #e4e400",
"#R c #eaf100",
"#S c #f2f200",
"#T c #fdf200",
"#U c #fafa00",
"#V c #fefe00",
"#W c #ffff07",
"#X c #ffff10",
"#Y c #ffff27",
"#Z c #ffff35",
"#0 c #99994a",
"#1 c #99997c",
"#2 c #ebee4b",
"#3 c #ffff41",
"#4 c #ffff45",
"#5 c #ffff71",
"#6 c #ffff7f",
"#7 c #3700bd",
"#8 c #64008b",
"#9 c #4a00a3",
"a. c #4e00a7",
"a# c #2200d2",
"aa c #2900d1",
"ab c #0000ff",
"ac c #828282",
"ad c #848482",
"ae c #858585",
"af c #878d8c",
"ag c #8a8b8a",
"ah c #8e8e8e",
"ai c #82938b",
"aj c #8f928f",
"ak c #99998b",
"al c #99998c",
"am c #908f93",
"an c #929292",
"ao c #969696",
"ap c #989d92",
"aq c #93939a",
"ar c #96969a",
"as c #9a9a9a",
"at c #999a9d",
"au c #9c9c9c",
"av c #9999ab",
"aw c #9f9fb1",
"ax c #a2a1a2",
"ay c #a4a3a4",
"az c #a6a6a6",
"aA c #aaacab",
"aB c #afafaf",
"aC c #b1b1b2",
"aD c #b2b2b4",
"aE c #b6b6b6",
"aF c #bababa",
"aG c #bebebe",
"aH c #ffa094",
"aI c #ffb1a8",
"aJ c #ffff8a",
"aK c #ffff8c",
"aL c #ffff9a",
"aM c #ffc1af",
"aN c #ffcdbc",
"aO c #c3c3c3",
"aP c #c6c6c6",
"aQ c #cacaca",
"aR c #cfcfcf",
"aS c #c5ddc5",
"aT c #d2d2d2",
"aU c #d6d6d6",
"aV c #d9d9d9",
"aW c #dcdcdc",
"aX c #ffd3cb",
"aY c #ffd3ce",
"aZ c #ffdddc",
"a0 c #d2ecd2",
"a1 c #e1e1e1",
"a2 c #e4e3ea",
"a3 c #e1eded",
"a4 c #eae9ea",
"a5 c #efefef",
"a6 c #ffe9e7",
"a7 c #fff3ec",
"a8 c #fff5ef",
"a9 c #eff2f0",
"b. c #f3f3f3",
"b# c #f5f7f5",
"ba c #fff4f4",
"bb c #f1ffff",
"bc c #f9faf9",
"bd c #fafcfa",
"be c #f9ffff",
"bf c #ffffff",
/* pixels */
"aPaPaPaPaPaPaPaPaPaPaPaPaPaPaPaPaPaPaPaPaPaPaPaPaPaPaPaPaPaPaPaPaPaPaPaPaPaPaPaPaPaPaPaPaPaPaPaP",
"aPaPaPaPaPaPaPaPaPaPaPaPaPaPaPaPaPaPaPaPaPaPaPaPaPaPaPaPaPaPaPaPaPaPaPaPaPaPaPaPaPaPaPaPaPaPaPaP",
"aPaPaPaPaPaPaPaPaPaPaPaPaPaPaPaPaPaPaPaPaPaPaPaPaPaPaPaPaPaPaPaPaPaPaPaPaPaPaPaPaPaPaPaPaPaPaPaP",
"aPaPaPaPaPaPaPaPaPaPaPaPaPaPaPaPaPaPaPaPaPaPaPaPaPaPaPaPaPaPaPaPaPaPaPaPaPaPaPaPaPaPaPaPaPaPaPaP",
"aPaPaPaPaPaPaPaPaPaPaPaPaPaPaPaPaPaPaPaPaPaPaPaPaPaPaPaPaPaPaPaPaPaPaPaPaPaPaPaPaPaPaPaPaPaPaPaP",
"aPaPaPaPaPaPaPaPaPaPaPaPaPaPaPaPaPaPaPaPaPaPaPaPaPaPaPaPaPaPaPaPaPaPaPaPaPaPaPaPaPaPaPaPaPaPaPaP",
"aPaPaPaPaPaPaPaPaPaPaPaPaPaPaPaPaPaPaPaPaPaPaPaPaPaPaPaPaPaPaPaPaPaPaPaPaPaPaPaPaPaPaPaPaPaPaPaP",
"aPaPaPaPaPaPaPaPaPaPaPaPaPaPaPaPaPaPaPaPaPaPaPaPaPaPaPaPaPaPaPaPaPaPaPaPaPaPaPaPaPaPaPaPaPaPaPaP",
"aPaPaPaPaPaPaPaPaPaPaPaPaPaPaPaPaPaPaPaPaPaPaPaPaPaPaPaPaPaPaPaPaPaPaPaPaPaPaPaPaPaPaPaPaPaPaPaP",
"aPaPaPaPaPaPaPaPaPaPaPaPaPaPaPaPaPaPaPaPaPaPaPaPaPaPaPaPaPaPaPaPaPaPaPaPaPaPaPaPaPaPaPaPaPaPaPaP",
"aPaPaPaPaPaPaPaPaPaPaPaPaPaPaPaPaPaPaPaPaPaPaPaPaPaPaPaPaPaPaPaPaPaPaPaPaPaPaPaPaPaPaPaPaPaPaPaP",
"aPaPaPaPaPaPaPaRaRaRaRaRaRaRaRaRaRaRaRaRaRaRaRaRaRaRaRaRaRaRaRaRaRaRaRaRaRaRaRaRaPaPaPaPaPaPaPaP",
"aPaPaPaPaPaPaOasaraqaqaqaqaqaqaqaqaqaqaqaqaqaqaqaqaqaqaqaqaqaqaqaqaqaqaqaqaqarazaQaPaPaPaPaPaPaP",
"aPaPaPaPaPaQaC...d.e.e.e.e.e.e.e.e.e.e.e.e.e.e.e.e.e.e.e.e.e.e.e.e.e.e.e.e.e...PaTaPaPaPaPaPaPaP",
"aPaPaPaPaPaQaD..#Q#V#V#V#V#V#V#V#V#V#V#V#V#V#V#V#V#V#V#V#V#V#V#V#V#V#V#V#V#V.Y.NaTaPaPaPaPaPaPaP",
"aPaPaPaPaPaQaD..#S.T.k.e.e.e.e.e.e.e.e.e.e.e.e.e.e.e.e.e.e.e.e.e.e.e.e.e.l#N#t.GanagaOaPaPaPaPaP",
"aPaPaPaPaPaQaD..#S.z.V#N#E#E#E#E#E#E#E#E#E#E#E#E#E#E#E#E#E#E#E#E#E#E#E#L.d#E#u.DagacaOaPaPaPaPaP",
"aPaPaPaPaPaQaD..#S.z#w#3#6#WaL#W#6#4#Z#6#VaL#W#5#4#ZaJ#VaL#X#5#4#YaK#V#V.l#D#u.EagaeaOaPaPaPaPaP",
"aPaPaPaPaPaQaD..#S.z#w#2ap#xaw#wak#0#Gal#wav#w#1#0#Gas#wav#y#1#0#Fat#z#V.l#E#u.EagaeaOaPaPaPaPaP",
"aPaPaPaPaPaQaD..#S.z#A#B.b.y...p.h.r.s.h.t.g.t.h.r.s.g.t.g.t.h.r.t.f.j#V.m#D#u.EagaeaOaPaPaPaPaP",
"aPaPaPaPaPaQaD..#S.z#v#H#f#R.g#cahagagagagagagagagagagagagagagagaf#q#e#T.l#E#u.EagaeaOaPaPaPaPaP",
"aPaPaPaPaPaQaD..#S.C.x#m#O.oaSaSaSaSaSaSaSaSaSaSaSaSaSaSaSaSaSa0ai.n#V#d..#K#u.EagaeaOaPaPaPaPaP",
"aPaPaPaPaPaQaD..#S.B...#.c...qa9bfbcbdbfb#aeb#bfbfaQajbfbdbdbdbfaA...l....#J#u.EagaeaOaPaPaPaPaP",
"aPaPaPaPaPaQaD..#U#P#K#I#E#L#E.1a2bfbfbfbfaUaxa4bfb.aQaybfbfbfbfbbam..#C#M#V#t.DagaeaOaPaPaPaPaP",
"aPaPaPaPaPaQaC...U.X.X.X.X.Y.X...3aRbfbfbfbfaPaBa1bfbcaGbfbfbfaIaHbead.W#s.Y.A.FagaeaOaPaPaPaPaP",
"aPaPaPaPaPaQaF.2.Z.M.H.H.H.H.H.P.J.7aRbfbfbfbfaOaCa1bfbfbfbfaN#p#oaMbf.9...u.O.2agaeaOaPaPaPaPaP",
"aPaPaPaPaPaPaPaTaUasaeagagagagagao.Q.0a5bfbfbfbfaGaCbfbfbfa6#l#9a##jaZbf.2.6aeagacacaOaPaPaPaPaP",
"aPaPaPaPaPaPaPaPaQaoacaeaeaeaeaeaeah.2.Kbfbfbfbfbfbfbfbfbf#ia.ababaa#gbabf.0.LanaeaeaOaPaPaPaPaP",
"aPaPaPaPaPaPaPaPaPaPaPaPaPaPaPaQanacag#..abfbfbfbfbfbfbfbfbf#n#8#7#hbfbf.vacaTaPaPaPaPaPaPaPaPaP",
"aPaPaPaPaPaPaPaPaPaPaPaPaPaPaPaPaOauacac##.wbcbfbfbfbfbfbfbfa8#r#ka7bf.IaeaOaQaPaPaPaPaPaPaPaPaP",
"aPaPaPaPaPaPaPaPaPaPaPaPaPaPaPaPaRax#baeae.5.RaUbfbfbfbfbfbfbfaYaXbb.R#baOaQaPaPaPaPaPaPaPaPaPaP",
"aPaPaPaPaPaPaPaPaPaPaPaPaPaPaPaPaQaEasacaeag.S.4aQbfbfbfbfbfbfbfa3.8#.aRaQaPaPaPaPaPaPaPaPaPaPaP",
"aPaPaPaPaPaPaPaPaPaPaPaPaPaPaPaPaPaRaB#caeacan.L.7aWbfbfbfbfbfa1#a.JaVaPaPaPaPaPaPaPaPaPaPaPaPaP",
"aPaPaPaPaPaPaPaPaPaPaPaPaPaPaPaPaPaQaCaeacaeacao.Q.0a4bfbfbfb..7.wazaPaPaPaPaPaPaPaPaPaPaPaPaPaP",
"aPaPaPaPaPaPaPaPaPaPaPaPaPaPaPaPaPaPaQaFacacaeacah.2.vbfbfbf.S.QazaQaPaPaPaPaPaPaPaPaPaPaPaPaPaP",
"aPaPaPaPaPaPaPaPaPaPaPaPaPaPaPaPaPaPaQaEacaeaeacaeae##.ibf.K.5acaoaQaPaPaPaPaPaPaPaPaPaPaPaPaPaP",
"aPaPaPaPaPaPaPaPaPaPaPaPaPaPaPaPaPaPaPaPaFaeacaeacaeac##.w.8#caxaOaPaPaPaPaPaPaPaPaPaPaPaPaPaPaP",
"aPaPaPaPaPaPaPaPaPaPaPaPaPaPaPaPaPaPaPaQaP#cacaeaeacaeae.5ac#cazaRaPaPaPaPaPaPaPaPaPaPaPaPaPaPaP",
"aPaPaPaPaPaPaPaPaPaPaPaPaPaPaPaPaPaPaPaPaPaxaeacaeaeacaeahacaoaEaQaPaPaPaPaPaPaPaPaPaPaPaPaPaPaP",
"aPaPaPaPaPaPaPaPaPaPaPaPaPaPaPaPaPaPaPaPaPaQagacaeaeaeaeae#caEaRaPaPaPaPaPaPaPaPaPaPaPaPaPaPaPaP",
"aPaPaPaPaPaPaPaPaPaPaPaPaPaPaPaPaPaPaPaPaPaPanaeacaeaeacacagaEaQaPaPaPaPaPaPaPaPaPaPaPaPaPaPaPaP",
"aPaPaPaPaPaPaPaPaPaPaPaPaPaPaPaPaPaPaPaPaPaPaQaoacaeaeacacaFaQaPaPaPaPaPaPaPaPaPaPaPaPaPaPaPaPaP",
"aPaPaPaPaPaPaPaPaPaPaPaPaPaPaPaPaPaPaPaPaPaPaQao#caeaeacacaFaQaPaPaPaPaPaPaPaPaPaPaPaPaPaPaPaPaP",
"aPaPaPaPaPaPaPaPaPaPaPaPaPaPaPaPaPaPaPaPaPaPaPaOas#cacacaFaPaPaPaPaPaPaPaPaPaPaPaPaPaPaPaPaPaPaP",
"aPaPaPaPaPaPaPaPaPaPaPaPaPaPaPaPaPaPaPaPaPaPaPaQaGaoacaBaQaPaPaPaPaPaPaPaPaPaPaPaPaPaPaPaPaPaPaP",
"aPaPaPaPaPaPaPaPaPaPaPaPaPaPaPaPaPaPaPaPaPaPaPaPaQaFazaQaPaPaPaPaPaPaPaPaPaPaPaPaPaPaPaPaPaPaPaP",
"aPaPaPaPaPaPaPaPaPaPaPaPaPaPaPaPaPaPaPaPaPaPaPaPaPaQaQaPaPaPaPaPaPaPaPaPaPaPaPaPaPaPaPaPaPaPaPaP",
"aPaPaPaPaPaPaPaPaPaPaPaPaPaPaPaPaPaPaPaPaPaPaPaPaPaPaPaPaPaPaPaPaPaPaPaPaPaPaPaPaPaPaPaPaPaPaPaP"
};
