/* XPM */
static const char* lemacs = {
"32 32 9 1",
"  c None",
"` c #adadad",
"a c #666666",
"b c #e3e3e3",
"c c #030303",
"d c #4848aa",
"e c #969696",
"f c #4a4a4a",
"g c #7f7f7f",
"   cccccccccccccccccccccccccca  ", 
"   cddddddddddddddddddddddddda  ", 
"   cdbbbdbdbdbbdddddddddddddda  ", 
"   cddddddddddddddddddddddddda  ", 
"   cddddddddddddddddddddddddda  ", 
"   cddddddddddddddddddddddddda  ", 
"   cbbbbbbbbbbbbbbbbbbbbbbbbea  ", 
"   cbfgfbfbgfbfgfgfbbbbbbbbbea  ", 
"   cbbbbbbbbbbbbbbbbbbbbbbbbea  ", 
"   cbbbbbbbbbbbbbbbbbbbbbbbbea  ", 
"   cbfgfgbffbgfbbfbbbbbbbbbbea  ", 
"   cbbbbbbbbbbbbbbbbbbbbbbbbea  ", 
"   cbbbbbbbbbbbbbbbbbbbbbbbbea  ", 
"   cbgfgbfgfbfbgfgbfbfgfbbbbea  ", 
"   cbbbbbbbbbbbbbbbbbbbbbbbbea  ", 
"   cbbbbbbbbbbbbbbbbbbbbbbbbea  ", 
"   cbfgfbfbgfbfgfgfbbbbbbbbbea  ", 
"   cbbbbbbbbbbbbbbbbbbbbbbbbea  ", 
"   cbbbbbbbbbbbbbbbbbbbbbbbbea  ", 
"   cbfgfgbgbbgfgfbbfgbfbbbbbea  ", 
"   cbbbbbbbbbbbbbbbbbbbbbbbbea  ", 
"   cbbbbbbbbbbbbbbbbbbbbbbbbea  ", 
"   cbffbgfbfbfgfgfbfbbbbbbbbea  ", 
"   cbbbbbbbbbbbbbbbbbbbbbbbbea  ", 
"   cbbbbbbbbbbbbbbbbbbbbbbbbea  ", 
"   cbfgfbgfbfbgbbfgffbfbbbbbea  ", 
"   cbbbbbbbbbbbbbbbbbbbbbbbbea  ", 
"   cbbbbbbbbbbbbbbbbbbbbbbbbea  ", 
"   cbgffgbffbgfbbfbbbbbbbbbbea  ", 
"   cbbbbbbbbbbbbbbbbbbbbbbbbea  ", 
"   ceeeeeeeeeeeeeeeeeeeeeeeeea  ", 
"   aaaaaaaaaaaaaaaaaaaaaaaaaaa  ", 
} ;
