/* XPM */
static const char *msg_recent_xpm[] = {
"16 16 22 1",
"       c None",
".      c #868686",
"+      c #000000",
"@      c #626262",
"#      c #B6B6B6",
"$      c #E6E6E6",
"%      c #B1FFFF",
"&      c #CECECE",
"*      c #FFFFFF",
"=      c #323232",
"-      c #FFB1B1",
";      c #DADADA",
">      c #6BFFFF",
",      c #6E6E6E",
"'      c #626200",
")      c #4A4A00",
"!      c #BDAA25",
"~      c #F2F2F2",
"{      c #A39828",
"]      c #A1992B",
"^      c #AF9200",
"/      c #937A00",
"     @++@       ",
"    @$$##@      ",
"   @#$%$&$@     ",
"  #$$*$$$$&@    ",
" =*$$$$%$$$&@   ",
" @@*$$>$$%&$$@  ",
" +++@$$$$$&,+') ",
" +!'+@$$$~,+'!+ ",
" )!!'+&##&+'!!) ",
" '!!{')'')'{!!+ ",
" ){{])^!!^)]{{) ",
" +]])/!{{!/)]]+ ",
" )])/^{{{{^/)]) ",
" +)/^!{{{{!^/)+ ",
" )'+'''+)'+)+++ ",
"                "};
