/* XPM */
static const char * old_unread_xpm[] = {
"16 16 13 1",
"       g None",
".      g #E3E3E3",
"+      g #CFCFCF",
"@      g #AEAEAE",
"#      g #2C2C2C",
"$      g #747474",
"%      g #FFFFFF",
"&      g #F1F1F1",
"*      g #C1C1C1",
"=      g #575757",
"-      g #A1A1A1",
";      g #6E6E6E",
">      g #8A8A8A",
"                ",
"                ",
"                ",
" .=####==####== ",
" =%%&&.....++*# ",
" #&&&&....++*@= ",
" #$#@..+++*@#$= ",
" #-$#@++++@#$-= ",
" #@-$#++**#$-@= ",
" =@*-=@@@@=-*@= ",
" =*;$>$==$>$;*= ",
" =;$>-@--@->$;# ",
" =$>-@@@@@@->$# ",
" ######$$#$==## ",
"                ",
"                "};
