/* XPM */
static const char *msg_new_xpm[] = {
"16 16 13 1",
"       c None",
".      c #F8E2B1",
"+      c #DFD48E",
"@      c #C3B848",
"#      c #323200",
"$      c #937A00",
"%      c #FFFFFF",
"&      c #FFF0D4",
"*      c #D1C96B",
"=      c #626200",
"-      c #BDAA25",
";      c #6E6E6E",
">      c #AF9200",
"                ",
"                ",
"                ",
" .###=$##=#=##$ ",
" =%%&&.....++*$ ",
" #&&&&....++*@= ",
" =$#@..+++*@#$= ",
" #-$#@++++@#$-= ",
" #@-$#++**#$-@= ",
" =@*-=@@@@=-*@= ",
" #*;$>$==$>$;*= ",
" #;$>-@--@->$;# ",
" #$>-@@@@@@->$# ",
" ##==###$#$==## ",
"                ",
"                "};
