/* XPM */
static const char *magick[] = {
/* columns rows colors chars-per-pixel */
"16 16 110 2",
"   c #131313131313",
".  c #23231f1f0000",
"X  c #232323232323",
"o  c #272727272727",
"O  c #44443c3c0808",
"+  c #42423e3e1717",
"@  c #6e6e3a3a3a3a",
"#  c #4d4d48481a1a",
"$  c #4f4f4a4a1f1f",
"%  c #505040400808",
"&  c #535350502a2a",
"*  c #62625c5c0000",
"=  c #69695d5d2323",
"-  c #7c7c40402f2f",
";  c #666662621717",
":  c #666662621b1b",
">  c #6c6c65651717",
",  c #77776c6c0000",
"<  c #75756d6d1919",
"1  c #797975751919",
"2  c #4e4e4e4e4e4e",
"3  c #5d5d5d5d5d5d",
"4  c #68685f5f4e4e",
"5  c #6d6d6d6d6d6d",
"6  c #8b8b46462323",
"7  c #878770700000",
"8  c #868676760000",
"9  c #858574740808",
"0  c #888875750505",
"q  c #8a8a76760505",
"w  c #8a8a79792323",
"e  c #898979792727",
"r  c #afaf74740000",
"t  c #acac7b7b0000",
"y  c #90905d5d5d5d",
"u  c #818175755d5d",
"i  c #cece74740000",
"p  c #cece7b7b1919",
"a  c #9b9b84840000",
"s  c #98988a8a2323",
"d  c #95958a8a3434",
"f  c #9c9c93933939",
"g  c #adad8a8a0000",
"h  c #acac92920505",
"j  c #b8b895950505",
"k  c #adad9e9e2323",
"l  c #abab9d9d2b2b",
"z  c #b9b9a8a82b2b",
"x  c #bcbca9a92828",
"c  c #bbbbadad3939",
"v  c #a5a58b8b4a4a",
"b  c #a1a19d9d6c6c",
"n  c #bebeb5b55353",
"m  c #cece8e8e0f0f",
"M  c #d9d983830000",
"N  c #d2d282821111",
"B  c #d8d893930b0b",
"V  c #dcdc9d9d0808",
"C  c #dcdc91912222",
"Z  c #dbdba4a41717",
"A  c #c2c2abab2b2b",
"S  c #c1c1b1b13737",
"D  c #e8e8a6a61111",
"F  c #eeeeb0b00000",
"G  c #efefb7b70000",
"H  c #ececb8b80000",
"J  c #ececbebe1919",
"K  c #f3f3acac0e0e",
"L  c #f3f3adad1717",
"P  c #e1e1a2a22222",
"I  c #e1e1aaaa2d2d",
"U  c #e2e2adad3333",
"Y  c #eeeebaba2626",
"T  c #f1f1b8b83a3a",
"R  c #c4c4b9b94a4a",
"E  c #c4c4baba6363",
"W  c #e4e4bdbd5454",
"Q  c #dddddada0000",
"!  c #deded8d80000",
"~  c #ebebc0c00000",
"^  c #e1e1d4d40000",
"/  c #ebebc9c92222",
"(  c #efefc4c43333",
")  c #fcfcd9d92222",
"_  c #fafad2d23b3b",
"`  c #f9f9eaea0000",
"'  c #fafaebeb0000",
"]  c #ffffeeee0000",
"[  c #ffffefef0404",
"{  c #fafaf4f40000",
"}  c #fcfcf2f20000",
"|  c #fafaf6f60808",
" . c #fcfcf5f50c0c",
".. c #f8f8f8f80000",
"X. c #cbcbc1c15d5d",
"o. c #cbcbc2c25e5e",
"O. c #cecec5c56464",
"+. c #cfcfc6c66666",
"@. c #d1d1c9c96b6b",
"#. c #f3f3cbcb7777",
"$. c #d9d9cece8080",
"%. c #d9d9cfcf8080",
"&. c #dedecece8282",
"*. c #d9d9d0d08181",
"=. c #dadad0d08282",
"-. c #dfdfd4d48e8e",
";. c #f8f8f8f8a3a3",
":. c #fdfdfdfda3a3",
">. c Gray100",
",. c None",
/* pixels */
",.,.,.,.N ,.,.,.,.,.,.,.,.,.,.,.",
",.,.,.C _ p ,.,.,.,.,.,.,.,.,.,.",
"y 6 M / | J i - @ @ @ @ @ @ @ y ",
"u B ~ Q ;.! G m               3 ",
"W ' { ;.:...} ` #.-.-.-.%.n + 2 ",
"4 r H ! ..^ F I -.-.-.=.n < . 2 ",
"2 % V (  .Y U &.-.-.*.X.> 9 O 2 ",
"2 # A L [ T &.-.-.=.X.: q z # 2 ",
"2 $ R K ] Z E $.O.n ; 0 S R $ 2 ",
"2 & o.D ) t 1 l l 1 * d +.o.& 2 ",
"2 & @.v P g 8 , , 8 a w b @.& 2 ",
"2 & b e j x c k k c x h e b & 2 ",
"2 X = 7 s f f f f f f s 7 = X 2 ",
"5 o o o o o o o o o o o o o o 5 ",
",.,.,.,.,.,.,.,.,.,.,.,.,.,.,.,.",
",.,.,.,.,.,.,.,.,.,.,.,.,.,.,.,."
};
