 /* XPM */
static const char * msg_normal_xpm[] = {
"16 16 22 1",
"       g None",
".      g #868686",
"+      g #000000",
"@      g #626262",
"#      g #B6B6B6",
"$      g #E6E6E6",
"%      g #E7E7E7",
"&      g #CECECE",
"*      g #FFFFFF",
"=      g #323232",
"-      g #C8C8C8",
";      g #DADADA",
">      g #D2D2D2",
",      g #6E6E6E",
"'      g #575757",
")      g #414141",
"!      g #A1A1A1",
"~      g #F2F2F2",
"{      g #AEAEAE",
"]      g #C1C1C1",
"^      g #8A8A8A",
"/      g #747474",
"     .#@@       ",
"    @$$$$@      ",
"   @#$%$$$@     ",
"  #$$*$$$&$@    ",
" =*$;>$%$$$$@   ",
" @@$$$$$$%&$$@  ",
" +++@*$>;$&,+') ",
" +!'+@-$$$,+'!+ ",
" )!!'+&$$&+'!!) ",
" '!!{')'')'{!!+ ",
" ){{])^!!^)]{{) ",
" +]])/!{{!/)]]+ ",
" )])/^{{{{^/)]) ",
" +)/^!{{{{!^/)+ ",
" )'+'''+)'+)+++ ",
"                "};
