/* XPM */
static char * MsgViewFrame_xpm[] = {
"48 48 69 1",
" 	c None",
".	c #BCD2BC",
"+	c #ACC6A4",
"@	c #A4C2A4",
"#	c #748E6C",
"$	c #64825C",
"%	c #ACCAAC",
"&	c #5C7A54",
"*	c #546A44",
"=	c #6C9264",
"-	c #C4D6BC",
";	c #6C8E64",
">	c #ACC6AC",
",	c #8CA684",
"'	c #B4CEAC",
")	c #B4CAB4",
"!	c #445A2C",
"~	c #74A26C",
"{	c #D4D6D4",
"]	c #FCFEFC",
"^	c #F4F6F4",
"/	c #E4E6E4",
"(	c #749A64",
"_	c #ECEAEC",
":	c #C4C2C4",
"<	c #FCFAF4",
"[	c #DCDEDC",
"}	c #0C120C",
"|	c #7C9E74",
"1	c #BCBEBC",
"2	c #E4EAE4",
"3	c #E4E6EC",
"4	c #ECEAE4",
"5	c #9C9E9C",
"6	c #F4F6FC",
"7	c #FCF6F4",
"8	c #ECF2EC",
"9	c #D4DADC",
"0	c #E4E2DC",
"a	c #DCE2E4",
"b	c #E4DEE4",
"c	c #CCCACC",
"d	c #8C8E8C",
"e	c #DCE2DC",
"f	c #DCDEE4",
"g	c #ACAEAC",
"h	c #A4AAAC",
"i	c #B4B6B4",
"j	c #CCCAC4",
"k	c #E4DEDC",
"l	c #D4CECC",
"m	c #C4CAC4",
"n	c #A4A6A4",
"o	c #F4FAFC",
"p	c #ECE6E4",
"q	c #DCDAD4",
"r	c #D4D6DC",
"s	c #DCD6D4",
"t	c #DCD6DC",
"u	c #949294",
"v	c #ECE6EC",
"w	c #8B66CB",
"x	c #CCD2D4",
"y	c #D4DAD4",
"z	c #ECF2F4",
"A	c #D4D2CC",
"B	c #D4CED4",
"C	c #BCB6BC",
"D	c #B4B2AC",
"                                                ",
"                                                ",
"                                                ",
"                                                ",
"                                                ",
"                    .+@#$$$                     ",
"                    .%+$&&*                     ",
"                    .+@=&&*                     ",
"                    -+@;&&*                     ",
"                    .>+=&&*                     ",
"                    -+@=&&*                     ",
"                    -@+=&**                     ",
"                 ,')%%@;&&&**!                  ",
"                  ~+)%+=&&&&!                   ",
"                   =>@+;&&&!                    ",
"      {]]]]]]]]]^/{ (@+=&&! {_^]]]]]]]]]:       ",
"      ]<]^^^^^^^__[:}|@;&! 1{[/////234[/5       ",
"      []67^^^8^___/9: ;;! 1{[0ab/////3a/5       ",
"      :]]^^8^^^___4/{1 ! 1c[[/0b/0/a/0_dd       ",
"      /1]]^^______34[{: 1c[e/ff[bf/[//:gh       ",
"      ]/i]^^^_____///[{jc[[k[[[[[[ek/:5lg       ",
"      ]6/1]^___2_////e[9[[[[[[[[[[9/c5m{n       ",
"      ]o</1]^__p/////b[[[[[[9[q[q[/:5:rsn       ",
"      ]67^/1]^_///a0[[[[[[9srrs9[/15:t{{n       ",
"      ]<6^^[i]_///0f[[[[[qrs{s{9/1u:t{t{n       ",
"      ]67^^8[g]_/[[[[9t{{{{{{{q/iu:[s{{{n       ",
"      ]6^^^^^si]v[[[[s{{{{{{{{/iu:qr{r{{n       ",
"      ]7^^wwwwww]/[qr{{{{xl{{0gwwwww[{{{g       ",
"      ]^^^_^wwwwi^o_[{{{c{{/[iwwww9{{y{{n       ",
"      ]7^^^8wwwwwc:[[//[[[qxniwwwwt{[{{xn       ",
"      ]^^^_zwwwww/cc:1iiggng:wwwww{{y{A{n       ",
"      ]^^__^wwwwww2p////0f/[[wwwww:[{x{{g       ",
"      ]^_^z[wowwww//////ak[/w[wwwwi:{{x{n       ",
"      ]^^_[1w_wwwww3///a0fk[wqwwww{i:A{lg       ",
"      ]8^/i]w__wwww///b/ek[w[[wwww{{g:xcg       ",
"      ]^[i__w__wwwww//ekf[[w[[wwww{{{g:Bg       ",
"      ]eC]__w4_/wwww///bf[w[9qwwww{xAxg1i       ",
"      ]g]___w_3pwwwwwae[[[w[[[wwww{{{Acgn       ",
"      1iinggwggggwwwwiDiiwiiiiwwww1i1i11u       ",
"            w    wwwww   w    wwww              ",
"            w     wwww  w     wwww              ",
"            w     wwwww w     wwww              ",
"            w      wwwww      wwww              ",
"            w      wwwww      wwww              ",
"            w       www       wwww              ",
"            w       www       wwww              ",
"          wwwww      w      wwwwwwww            ",
"                                                "};
