/* XPM */
static const char *network[] = {
/* width height num_colors chars_per_pixel */
"    32    32        10            1",
/* colors */
"$ c #000000",
"# c #000084",
"a c #0000ff",
"b c #c0c0c0",
"c c #00ff00",
"d c #00ffff",
"e c #848484",
"f c #c6c6c6",
"g c #ffffff",
". c none",
/* pixels */
"...........eeeeeeeeee...........",
"..........egffffffffe$..........",
"..........ege$$$$$efe$..........",
"..........ege$dbbbefe$..........",
"..........ege$bbbbefe$..........",
"..........ege$bbbbefe$..........",
"..........ege$bbbbefe$..........",
"..........egffffffffe$..........",
"..........eeeeeeeeeee$..........",
"..........e$$$$$$$$$$f$.........",
".........eggggggggggge$.........",
".........egfffffeeeefe$.........",
".........egfccff$$$$fe$.........",
".........eeeeeeeeeeeee$.........",
"..........$$$$$$$$$$$$..........",
"...............$................",
"...............$................",
"..eeeeeeeeee...$...eeeeeeeeee...",
".egffffffffe$..$..egffffffffe$..",
".ege$$$$$$fe$.$$$.ege$$$$$$fe$..",
".ege$daaa#fe$$...$ege$daaa#fe$..",
".ege$aaaa#fe$.....ege$aaaa#fe$..",
".ege$aaaa#fe$.....ege$aaaa#fe$..",
".ege$#####fe$.....ege$#####fe$..",
".egffffffffe$.....egffffffffe$..",
".eeeeeeeeeee$.....eeeeeeeeeee$..",
".e$$$$$$$$$$f$....e$$$$$$$$$$f$.",
"eggggggggggge$...eggggggggggge$.",
"egfffffeeeefe$...egfffffeeeefe$.",
"egfccff$$$$fe$...egfccff$$$$fe$.",
"eeeeeeeeeeeee$...eeeeeeeeeeeee$.",
".$$$$$$$$$$$$.....$$$$$$$$$$$$.."
};
