/* XPM */
static const char *magick[] = {
/* columns rows colors chars-per-pixel */
"24 24 90 1",
"  c Black",
". c Gray14",
"X c #343434",
"o c #373736",
"O c #3d3d37",
"+ c #3c3c3c",
"@ c #4d4d45",
"# c #4e4e4e",
"$ c #505050",
"% c #646464",
"& c #797973",
"* c #7c7c7c",
"= c #00bebe",
"- c #818174",
"; c #828274",
": c #8f8f80",
"> c #929282",
", c #959585",
"< c #969686",
"1 c #98988f",
"2 c #a5a594",
"3 c #a6a694",
"4 c #a6a696",
"5 c #a7a796",
"6 c #adad9c",
"7 c #b2b29f",
"8 c #b8b8a6",
"9 c #bbbba8",
"0 c #bebeab",
"q c #bebeae",
"w c #bebebe",
"e c #ceceb7",
"r c #cdcdb8",
"t c #d0d0b9",
"y c #d1d1b9",
"u c #d2d2bc",
"i c #d3d3bc",
"p c #d5d5bd",
"a c #d5d5bf",
"s c #d6d6bf",
"d c #d7d7c0",
"f c #d7d7c1",
"g c #d8d8c1",
"h c #d8d8c2",
"j c #d9d9c2",
"k c #d9d9c3",
"l c #dadac3",
"z c #dbdbc4",
"x c #dcdcc4",
"c c #dcdcc5",
"v c #ddddc5",
"b c #ddddc6",
"n c #ddddc7",
"m c #dedec6",
"M c #dfdfc7",
"N c #dfdfc8",
"B c #e0e0c8",
"V c #e0e0c9",
"C c #e1e1c9",
"Z c #e1e1ca",
"A c #e2e2ca",
"S c #e3e3cb",
"D c #e4e4cb",
"F c #e4e4cc",
"G c #e5e5cd",
"H c #e6e6ce",
"J c #e7e7cf",
"K c #e8e8d0",
"L c #e9e9d0",
"P c #e9e9d1",
"I c #eaead1",
"U c #eaead2",
"Y c #ebebd2",
"T c #ebebd3",
"R c #ececd3",
"E c #ececd4",
"W c #ededd4",
"Q c #eeeed5",
"! c #efefd6",
"~ c #f0f0d7",
"^ c #f1f1d8",
"/ c #f2f2d9",
"( c #f3f3da",
") c #f4f4db",
"_ c Beige",
"` c #e7e7e7",
"' c #eeeee5",
"] c #eeeee6",
"[ c #ececec",
"{ c Gray93",
/* pixels */
"wwwwwwwwwwwwwwwwwwwwwww=",
"wwwwwwwwwwwwwwwwwwwwwwww",
"wwwwwwwwwwwww wwwwwwwwww",
"wwwwwwwwwww  6 wwwwwwwww",
"wwwwwwwww  ,cN.wwwwwwwww",
"wwwwwww  5fkxnZ wwwwwwww",
"wwwww  3sffhzMS7 wwwwwww",
"wwww *%spadlmCGPXwwwwwww",
"wwww `o8ifjvBGKEQ wwwwww",
"wwww [{OeazBHKUQ^2 wwwww",
"wwww ''+:tBDIR!^/( wwwww",
"wwww ]$>yxCJYQ^(()_ wwww",
"wwww  <uzVSLW~())__0 www",
"wwww &gjbZJIQ^(_____h ww",
"wwww 1zcNFJYQ^(_____- ww",
"wwwww MBAGPR!/)____  www",
"wwwww qGGKUW~()__l wwwww",
"wwwwww#KPUW!/()/; wwwwww",
"wwwwww TEW!^//l wwwwwwww",
"wwwwwww !~^/P2 wwwwwwwww",
"wwwwwww 9/(r@ wwwwwwwwww",
"wwwwwwww (4 wwwwwwwwwwww",
"wwwwwwwww  wwwwwwwwwwwww",
"wwwwwwwwwwwwwwwwwwwwwwww"
};
