/* XPM */
static const char *magick[] = {
/* columns rows colors chars-per-pixel */
"32 32 117 2",
"   c Gray0",
".  c #15150d0d0000",
"X  c #212115150000",
"o  c #2e2e1d1d0000",
"O  c #3b3b26260000",
"+  c #3f3f28280000",
"@  c #323232323232",
"#  c #343434343434",
"$  c #373737373737",
"%  c Gray23",
"&  c #3e3e3e3e3e3e",
"*  c #47472e2e0000",
"=  c #505033330000",
"-  c #595939390000",
";  c #6d6d46460000",
":  c #6f6f48480000",
">  c #717149490000",
",  c #73734a4a0000",
"<  c #7b7b50500000",
"1  c #7d7d52520202",
"2  c #7f7f52520000",
"3  c #797952520a0a",
"4  c #747452521515",
"5  c #696954542d2d",
"6  c #7f7f5f5f2828",
"7  c #787862623939",
"8  c Gray27",
"9  c #464646464646",
"0  c #626262626262",
"q  c Gray43",
"w  c #000000008080",
"e  c #808000000000",
"r  c #848459590d0d",
"t  c #8c8c5b5b0000",
"y  c #8d8d5c5c0000",
"u  c #999964640000",
"i  c #969669691a1a",
"p  c #858562622020",
"a  c #a2a26a6a0000",
"s  c #a7a778782727",
"d  c #dddd00000000",
"f  c #efef00000000",
"g  c #fafa00000000",
"h  c Red",
"j  c #b9b988883535",
"k  c #caca97974242",
"l  c #dcdca7a75050",
"z  c #ededb6b65d5d",
"x  c #ffffc6c66b6b",
"c  c #808080808080",
"v  c #868686868686",
"b  c #898989898989",
"n  c #8b8b8b8b8b8b",
"m  c #8d8d8d8d8d8d",
"M  c #909090909090",
"N  c #929292929292",
"B  c Gray60",
"V  c #989898989b9b",
"C  c #9b9b9b9b9b9b",
"Z  c Gray61",
"A  c #9c9c9c9c9f9f",
"S  c Gray62",
"D  c #9d9d9d9da1a1",
"F  c #9e9e9e9ea2a2",
"G  c #a0a0a0a0a4a4",
"H  c Gray66",
"J  c #aaaaaaaaaaaa",
"K  c Gray67",
"L  c #b6b6b6b6b6b6",
"P  c #b7b7b7b7b7b7",
"I  c Gray72",
"U  c #b9b9b9b9b9b9",
"Y  c Gray74",
"T  c #c6c6c6c6c6c6",
"R  c Gray78",
"E  c Gray79",
"W  c #cdcdcdcdcdcd",
"Q  c #cececececece",
"!  c #d0d0d0d0d0d0",
"~  c Gray82",
"^  c #d3d3d3d3d3d3",
"/  c Gray83",
"(  c #d5d5d5d5d5d5",
")  c #d7d7d7d7d7d7",
"_  c #d8d8d8d8d8d8",
"`  c Gray85",
"'  c #dadadadadada",
"]  c Gray86",
"[  c gainsboro",
"{  c #dddddddddddd",
"}  c Gray87",
"|  c #dfdfdfdfdfdf",
" . c Gray88",
".. c #e1e1e1e1e1e1",
"X. c #e2e2e2e2e2e2",
"o. c Gray89",
"O. c #e4e4e4e4e4e4",
"+. c Gray90",
"@. c #e6e6e6e6e6e6",
"#. c #e7e7e7e7e7e7",
"$. c Gray91",
"%. c #e9e9e9e9e9e9",
"&. c #eeeeeeeeeeee",
"*. c Gray94",
"=. c Gray95",
"-. c #f3f3f3f3f3f3",
";. c #f4f4f4f4f4f4",
":. c Gray96",
">. c #f6f6f6f6f6f6",
",. c Gray97",
"<. c #f9f9f9f9f9f9",
"1. c Gray98",
"2. c #fbfbfbfbfbfb",
"3. c Gray99",
"4. c #fdfdfdfdfdfd",
"5. c Gray100",
"6. c None",
/* pixels */
"6.6.6.6.6.6.6.6.6.6.6.6.6.6.6.6.6.6.6.6.6.6.          6.6.6.6.6.",
"6.6.6.6.6.6.6.6.6.6.6.6.6.6.6.6.6.6.6.6.    @.@.@.@.@.  6.6.6.6.",
"6.6.6.6.6.6.6.6.6.6.6.6.6.6.6.6.6.6.    +.@.O.X. .| { 5.  6.6.6.",
"6.6.6.6.6.6.6.6.6.6.6.6.6.6.6.6.    o.O.+.@.X.| ] 5.5.5.5.  6.6.",
"6.6.6.6.6.6.6.6.6.6.6.6.6.6.    }  ...o.O.@. .5.5.5.5.5.5.  6.6.",
"6.6.6.6.6.6.6.6.6.6.6.      ` ' [ }  .X.O.@.5.5.5.5.5.5.L   6.6.",
"6.6.6.6.6.6.6.6.6.    & & &   ) ` [ } ..5.5.5.5.5.5.h g J   6.6.",
"6.6.6.6.6.6.6.6.  & & & &       ) ' 5.5.5.5.5.5.R f g e S   6.6.",
"6.6.6.6.6.6.6.  & & &     < , ,   5.5.5.5.5.' Q h g e e 0   6.6.",
"6.6.6.6.6.6.6.  &     6 y ,     q   5.5.X.@._ h e e e e v   6.6.",
"6.6.6.6.6.6.6.    l k 6     ' L N q   { ..@.d e P H e b 0   6.6.",
"6.6.6.6.6.6.  x z l 6   =.=.=.' L N   ~ ^ d e I 0 0 n 0 @   6.6.",
"6.6.6.6.6.6.6.  z l ,   =.=.5.5.' L w   T e I 0 C m 0 @   6.6.6.",
"6.6.6.6.6.6.6.    l k ,   =.=.=.' w q   U I 0 Z 0 0 @   6.6.6.6.",
"6.6.6.6.6.6.6.  &   k j ,   =.=.' L q   K 0 C 0 0 @   6.6.6.6.6.",
"6.6.6.6.6.6.6.  & &   j j ,   =.' L w   0 B 0 0 @   6.6.6.6.6.6.",
"6.6.6.6.6.6.6.          j s ,   ' L q   M 0 0 @   6.6.6.6.6.6.6.",
"6.6.6.6.6.6.  c c c       s i ,   L q   0 0 @     6.6.6.6.6.6.6.",
"6.6.6.6.6.  F c c c c c     i r ,   q   0 @   ,   6.6.6.6.6.6.6.",
"6.6.6.6.  Y Y D G V c c c c   r , ,     @   > ;   6.6.6.6.6.6.6.",
"6.6.6.  <.1.2.Y I Y D G G V c   ,           : 7   6.6.6.6.6.6.6.",
"6.6.6.  -.:.,.<.2.4.Y Y I Y F A   &     ,   p 7   6.6.6.6.6.6.6.",
"6.6.6.  &.*.-.>.<.3.5.5.;.%.F A F @   , ,   , p   6.6.6.6.6.6.6.",
"6.6.6.  &.*.-.>.<.3.5.5.;.%.| / @     , ,   p 7   6.6.6.6.6.6.6.",
"6.6.6.  $.#.@.@.+.O.O.O.' ! # 9   6.  , ,   7 ,   6.6.6.6.6.6.6.",
"6.6.6.6.  # ` ( ~ W E E # %     6.6.  7 7   - O   6.6.6.6.6.6.6.",
"6.6.6.6.6.  $ # @ @ % 8     6.6.6.6.  , 7   = o   6.6.6.6.6.6.6.",
"6.6.6.6.6.6.            6.6.6.6.6.6.  a t   * X   6.6.6.6.6.6.6.",
"6.6.6.6.6.6.6.6.6.6.6.6.6.6.6.6.6.6.  u 2   + .   6.6.6.6.6.6.6.",
"6.6.6.6.6.6.6.6.6.6.6.6.6.6.6.6.6.6.  , ,   + +   6.6.6.6.6.6.6.",
"6.6.6.6.6.6.6.6.6.6.6.6.6.6.6.6.6.6.  1 3   + +   6.6.6.6.6.6.6.",
"6.6.6.6.6.6.6.6.6.6.6.6.6.6.6.6.6.6.  4 5   + +   6.6.6.6.6.6.6."
};
