/* XPM */
static const char *nomail_s[] = {
/* width height num_colors chars_per_pixel */
"    48    48       11            1",
/* colors */
". c None",
"# c #ffffff",
"a c #dedede",
"b c #636363",
"c c #949494",
"d c #adadad",
"e c #bdbdbd",
"f c #737373",
"g c #bdbdbd",
"h c #424242",
"i c #636363",
/* pixels */
"................................................",
"................................................",
"................................................",
"................................................",
"................................................",
"................................................",
"................................................",
"................................................",
"................................................",
"................................................",
"................................................",
"................................................",
"................................................",
"................................................",
"................................................",
"................................................",
"................................................",
"................................................",
"................................................",
"................................................",
".......##########a#a#a#a#a#aaaaaaaaaaaab........",
"......#cddddddddddddddddddddddddddddddddb.......",
".....#ecccdddddddddddddddddddddddddddddedb......",
"....#efccccddddddddddddddddddddddddddddcedb.....",
"...#effccccccddddddddddddddddddddddddddccedb....",
"..#efffccccccccddddddddddddddddddddddddcccedb...",
".#dffffcccccccccdddddddddddddddddddddddccccedb..",
"#addddddddccccccccddddddddddddddddddfffffffffcg.",
"#adeeeeeeefccccccccddddddddddddddddfeeeeeeeeehg.",
"#aadcccccccfeeeeeeeaaaaaaaaaaaaaaafeccccccfiihg.",
"#adddccccccfeeeeeeeaaaaaaaaaaaaaaafecccccfffihg.",
"#aadcccccccfeeeeeeaaaaaaaaaaaaaaaafeccccccfiihg.",
"#adddccccccfeeeeeeaaaaaaaaaaaaaaaafecccccfffihg.",
"#aadccccccccfeeeeaaaaaaaaaaaaaaaafecccccccfiihg.",
"#adddccccccccffffffffffffffffffffecccccccfffihg.",
"#aadcccccccccceeeeeeeeeeeeeeeeeeecccccccccfiihg.",
"#adddccccccccccccccccccccccccccccccccccccfffihg.",
"#aadccccccccccccccccccccccccccccccccccccccfiihg.",
"#adddccccccccccccccccccccccccccccccccccccfffihg.",
"eddffffffffffffffffffffffffffffffffffffffffiihg.",
"diiiiiiiiiiiiiiiiiiiiiiiiiiiiiiiiiiiiiiiiiiiiig.",
"gggggggggggggggggggggggggggggggggggggggggggggg..",
"................................................",
"................................................",
"................................................",
"................................................",
"................................................",
"................................................"
};
