/* XPM */
static const char * noxface_xpm[] = {
"48 48 11 1",
" 	c None",
".	c #FFFFFF",
"+	c #000000",
"@	c #8E8E8E",
"#	c #555555",
"$	c #AAAAAA",
"%	c #1D1D1D",
"&	c #E3E3E3",
"*	c #727272",
"=	c #C7C7C7",
"-	c #393939",
"................................................",
"................................................",
"................................................",
"................................................",
"................................................",
"................................................",
"................................................",
"................................................",
"................................................",
"................................................",
"................................................",
"................++@...#+$.......................",
"................++%&..#+$.......................",
"................+++*..#+$..=##@.................",
"................++%+=.#+$.*++++%&...............",
"................++=+-.#+$=++=.#+*...............",
"................++.#+@#+$*+*..&+%...............",
"................++.&%%-+$#+$...++...............",
"................++..@+++$#+@..&++...............",
"................++...-++$=+%=.#+#...............",
"................++...=++$.#++++%&...............",
"................$$....=$&..=##@&................",
"................................................",
"................................................",
"................................................",
"................................................",
"................................................",
"....=++=..-+-.#++++++#..........................",
".....#+-.=++&.#+-####@..........................",
".....&++=-+*..#+$......&@##$....@#*&...=##=.....",
"......@+%+%...#+$......%++++*.&%++++=.$++++#....",
".......%++=...#+-####.$+-.=++.*+-.$+-.%+=&%+=...",
".......#++&...#++++++.&$&&@++.%+=..##=+#..@+*...",
"......$+++-...#+$......*+++++.++.....$++++++#...",
"......%+=%+$..#+$.....*+#&.++.++&..$$$+-$$$$=...",
".....*+-.@+%&.#+$.....#+@.$++.#+#.$+-&+%&.*#$...",
"....=++=..-+#.#+$.....@+++%++.&%++++$.*++++%....",
"....=$$...&$$.=$&......$#*&$$&.&@#*=...$##@.....",
"................................................",
"................................................",
"................................................",
"................................................",
"................................................",
"................................................",
"................................................",
"................................................",
"................................................",
"................................................"};
