/* XPM */
static const char *magick[] = {
/* columns rows colors chars-per-pixel */
"26 19 7 1",
"  c Gray0",
". c #7b0000",
"X c #7b7b7b",
"o c Green",
"O c Red",
"+ c none",
"@ c Gray100",
/* pixels */
"++++++++++++++++++++++++++",
"++++++++++++++++++++++++++",
"++++++++++++++++++++++++++",
"++++++++++++++++++++++++++",
"++++++++++++++++++++++++++",
"++++X    X++++++X    X++++",
"+++  oooo  ++++        +++",
"++X +@oooo X++X O@    .X++",
"++ o@+ooooo ++  @O   .. ++",
"++ oooooooo ++       .. ++",
"++ oooooo+o X+      .O. X+",
"++ ooooo++o X+     .OO. X+",
"++X ooo++o XX+X  ..OO. XX+",
"+++  oooo  XXX+ .....  XXX",
"++++X    XXXX+++X    XXXX+",
"+++++++XXXXXX++++++XXXXXX+",
"++++++++++X+++++++++++X+++",
"++++++++++++++++++++++++++",
"++++++++++++++++++++++++++"
};
