/* XPM */
static char *magick[] = {
/* columns rows colors chars-per-pixel */
"24 24 72 1",
"  c Black",
". c #73644b",
"X c #74654d",
"o c #75674e",
"O c #766850",
"+ c #786c53",
"@ c #7a6e54",
"# c #7a6f55",
"$ c #7b7156",
"% c #00bebe",
"& c #80827c",
"* c #80837d",
"= c #80837f",
"- c #9b8666",
"; c #9b8767",
": c #9c8968",
"> c #9e8b6a",
", c #9e8d6b",
"< c #a1906e",
"1 c #a29270",
"2 c #a49471",
"3 c #a49573",
"4 c #a3a79f",
"5 c #a4a8a0",
"6 c #abafa7",
"7 c #acb0a9",
"8 c #acb0aa",
"9 c #bebebe",
"0 c #cfb489",
"q c #cfb58a",
"w c #d0b68a",
"e c #d0b78b",
"r c #d1b78b",
"t c #d1b88c",
"y c #d2b98c",
"u c #d2b98d",
"i c #d2ba8d",
"p c #d2ba8e",
"a c #d3ba8e",
"s c #d3bb8e",
"d c #d3bb8f",
"f c #d4bc8f",
"g c #d4bc90",
"h c #d4bd90",
"j c #d5bd90",
"k c #d5bd91",
"l c #d5be91",
"z c #d6bf92",
"x c #d6c093",
"c c #d7c093",
"v c #d7c193",
"b c #d7c194",
"n c #d8c294",
"m c #d8c295",
"M c #d8c395",
"N c #d9c396",
"B c #d9c496",
"V c #d9c497",
"C c #dac597",
"Z c #dac698",
"A c #dbc798",
"S c #dbc799",
"D c #dcc89a",
"F c #e5e9dd",
"G c #e5e9de",
"H c #e5eadf",
"J c #e5eae0",
"K c #e6ebe1",
"L c #e6ebe2",
"P c #e6ece3",
"I c #e6ece4",
"U c #e6ede5",
/* pixels */
"99999999999999999999999%",
"999999999999999999999999",
"999999999999999999999999",
"999999999999999999999999",
"999999999999999999999999",
"999999999999     9999999",
"9999   99   4HGF     999",
"99   I8  5JJH   +<xl 999",
"99 UIIPLKJ   @1mvzlh 999",
"99 8IPL   #2CNnczlgs 999",
"99 =PL $3SZVMnczkfsu 999",
"999 LL DSCBMbxzjfaut 999",
"999 7K ACBmbxlhfaurw 999",
"999 *J CBmvzlhdpyrw0 999",
"9999 J Nnczlgsiteq-. 999",
"9999 6 nczkfsute;.  9999",
"9999 & xzjfau:X   999999",
"99999  lhf>o   999999999",
"99999  ,O   999999999999",
"999999   999999999999999",
"999999999999999999999999",
"999999999999999999999999",
"999999999999999999999999",
"999999999999999999999999"
};
