/* XPM */
static const char *palmpilot_xpm[] = {
/* columns rows colors chars-per-pixel */
"24 32 255 2",
"   c #000100",
".  c #000605",
"X  c #000907",
"o  c #000d0c",
"O  c #05130e",
"+  c #011411",
"@  c #021a15",
"#  c #021c1a",
"$  c #091a16",
"%  c #111c17",
"&  c #0a200f",
"*  c #06201f",
"=  c #112c0f",
"-  c #13281e",
";  c #133414",
":  c #1a3917",
">  c #052421",
",  c #0b2423",
"<  c #0d2926",
"1  c #0d2c2b",
"2  c #122d2c",
"3  c #1b2928",
"4  c #112f36",
"5  c #1c312e",
"6  c #153431",
"7  c #153e3c",
"8  c #1c3635",
"9  c #18363c",
"0  c #193a39",
"q  c #233d1e",
"w  c #262d2b",
"e  c #273a36",
"r  c #3b3e3a",
"t  c #153f40",
"y  c #1b3d41",
"u  c #1b501a",
"i  c #0b4c34",
"p  c #1a6118",
"a  c #214f1e",
"s  c #235c17",
"d  c #2d4d20",
"f  c #2a413d",
"g  c #26512c",
"h  c #36413d",
"j  c #345828",
"k  c #3a5c34",
"l  c #296223",
"z  c #276c3b",
"x  c #2c7237",
"c  c #3c7f24",
"v  c #387837",
"b  c #1c4445",
"n  c #1c4448",
"m  c #254b4b",
"M  c #2c4342",
"N  c #2c4b4c",
"B  c #264648",
"V  c #294e54",
"C  c #2d4d59",
"Z  c #265848",
"A  c #2a5354",
"S  c #2e5857",
"D  c #2e5958",
"F  c #2a5357",
"G  c #344544",
"H  c #314b4d",
"J  c #3d524d",
"K  c #31545b",
"L  c #335b5d",
"P  c #3d5453",
"I  c #3c5e5d",
"U  c #365656",
"Y  c #355d61",
"T  c #3a5c64",
"R  c #3c5e6a",
"E  c #345460",
"W  c #276642",
"Q  c #386948",
"!  c #376056",
"~  c #3d625e",
"^  c #3b6265",
"/  c #3f656c",
"(  c #407e2d",
")  c #477536",
"_  c #455d5d",
"`  c #545d59",
"'  c #444a48",
"]  c #47605f",
"[  c #4b605d",
"{  c #437c47",
"}  c #4b7c56",
"|  c #47725c",
" . c #43666e",
".. c #486969",
"X. c #466a74",
"o. c #4b6b74",
"O. c #4b6d79",
"+. c #446673",
"@. c #586967",
"#. c #527374",
"$. c #5c7a7c",
"%. c #577578",
"&. c #557869",
"*. c #617c7d",
"=. c #677572",
"-. c #557982",
";. c #5b7e88",
":. c #2f8024",
">. c #338127",
",. c #38882b",
"<. c #389d2a",
"1. c #3e9b33",
"2. c #3a8b35",
"3. c #3db12d",
"4. c #3aa52b",
"5. c #29cf7f",
"6. c #47892e",
"7. c #4a8c32",
"8. c #469028",
"9. c #479b2f",
"0. c #4b922e",
"q. c #4b9f32",
"w. c #499635",
"e. c #56893c",
"r. c #57973e",
"t. c #599c3e",
"y. c #529835",
"u. c #43ac34",
"i. c #44ad3a",
"p. c #4aa133",
"a. c #48a738",
"s. c #42a635",
"d. c #44b734",
"f. c #46b339",
"g. c #46ba36",
"h. c #49b33b",
"j. c #52a02f",
"k. c #54a433",
"l. c #58a838",
"z. c #5eb237",
"x. c #5cb23b",
"c. c #5db83d",
"v. c #61af3c",
"b. c #63b93b",
"n. c #478b49",
"m. c #498751",
"M. c #4a9b44",
"N. c #4d9b4a",
"B. c #5b8e45",
"V. c #5c9649",
"C. c #5c9c41",
"Z. c #549d4b",
"A. c #5f935e",
"S. c #57847f",
"D. c #5ea342",
"F. c #608f4a",
"G. c #619e48",
"H. c #699770",
"J. c #64ac44",
"K. c #66ab4b",
"L. c #69a44e",
"P. c #64a447",
"I. c #6fad50",
"U. c #6ca651",
"Y. c #6bbc43",
"T. c #6dba48",
"R. c #71b54e",
"E. c #77b559",
"W. c #7cba5b",
"Q. c #76b555",
"!. c #6bc53c",
"~. c #6fd13f",
"^. c #6cc441",
"/. c #72c24a",
"(. c #74cd45",
"). c #7ace4b",
"_. c #76ce4b",
"`. c #7dc459",
"'. c #7bc754",
"]. c #77d148",
"[. c #7ad44c",
"{. c #7eda4d",
"}. c #7ad647",
"|. c #7ed351",
" X c #1f9c5e",
".X c #5e8e83",
"XX c #698787",
"oX c #678686",
"OX c #6f9190",
"+X c #7b8e8d",
"@X c #708b8a",
"#X c #738f90",
"$X c #7c918e",
"%X c #769393",
"&X c #779998",
"*X c #82c55e",
"=X c #80da4f",
"-X c #82d655",
";X c #84dc53",
":X c #89dc5b",
">X c #86d45c",
",X c #91df5f",
"<X c #85c463",
"1X c #8fdc62",
"2X c #8fd763",
"3X c #99df6f",
"4X c #94da65",
"5X c #85e04f",
"6X c #8ae15b",
"7X c #91e85f",
"8X c #8fe062",
"9X c #94e366",
"0X c #96e469",
"qX c #9ae46c",
"wX c #9bec68",
"eX c #9ee371",
"rX c #9ee971",
"tX c #a3ea74",
"yX c #a3f76e",
"uX c #adf37f",
"iX c #abf376",
"pX c #838685",
"aX c #829b9b",
"sX c #899695",
"dX c #959a98",
"fX c #8ca5a5",
"gX c #98a8a8",
"hX c #9fb5b6",
"jX c #a0adaa",
"kX c #a7b6b6",
"lX c #b0b1b0",
"zX c #b1bfbc",
"xX c #b6c0bf",
"cX c #bdc1bf",
"vX c #bac9c5",
"bX c #c5cecd",
"nX c #cacfce",
"mX c #cbd5d5",
"MX c #c6d1d0",
"NX c #d4dbda",
"BX c #d5d9d8",
"VX c #cde8dc",
"CX c #d8e0df",
"ZX c #d4e0df",
"AX c #d6e8e0",
"SX c #dce2e2",
"DX c #eaecec",
"FX c #e4e8e8",
"GX c #eff0f0",
"HX c #f2f4f4",
"JX c #f6f9f8",
"KX c none",
"LX c #fcfdfd",
"PX c #fafcfb",
"IX c #f5f8f7",
/* pixels */
"KXKXKXKXKXKXKXKXKXKXKXKXKXKXPXPXPXJXIXIXIXJXKXKX",
"KXKXKXKXkXgXfXaXaXaXaX%X%X%XXXXXXX$.$.@Xo.oXgXPX",
"KXKXKXSXb D &XOX%XD D ^ ^ D Y ^ o./ kXZX^ U % DX",
"KXKXKXbXA T *.*.%.N t B V y 9 9 9 6 M N  .~ w HX",
"KXKXKXgXF ..; : : : k e.) q ) e.B.B.e.Q -.H ' KX",
"KXKXKX+XY &.a j ) k F.W.L.k *X<X<X<XW.m.-.e =.KX",
"KXKXKX#.R H.4X3XW.E.E.*X<XE.W.<XzXyXiX} -., dXKX",
"KXKXKXI +.A.7X`.U.I.L.R.rXeXtX7XyXyX*XI ;.+ zXKX",
"KXKXDXm o.V.yX>XG.P.I.P.G.P.V.Q.qXtX2X~ $.X FXKX",
"KXKXmXn O.C.'.>X9XwX0X0XqXwX0X9X9XrX'.T #.$ HXKX",
"KXKXkXn o.J.).D.D.C.P.t.P.1X1X9X9XwXK./ T 3 KXKX",
"KXKX+XB ..b.9X/.J.t.J.P.l.D.r.'.9XwXZ.+.N h KXKX",
"KXKX$.V | v.Y.|.-X-X;X:X>X1X6X:X:X).{ O.8 ` KXKX",
"KXKX] C Q (./.0.6.7.y.w.t.T.;X{.-Xv.Q O., pXKXKX",
"KXPXm E v }._.v.T.v.Y.J./.{.[.|.6X5XQ +.+ lXKXKX",
"KXDXt T ( b.x.Y.Y.^.Y.{.{.[.[.[.{.!.Z  .X BXKXKX",
"KXmX7 T 8.~.b.l.k.l.l._.).].].].{.z.C ^ X DXKXKX",
"KXkXt I = y.l.j.v.z.k.p.k.k.k.(.^.>.K S % KXKXKX",
"KXaXn ~ s w.a.q.q.9.9.q.k.q.p.c.k.v T b e KXKXKX",
"KX*.F Q u l s.f.f.i.i.i.i.f.s.a : z o.< @.KXKXKX",
"IX~ K x <.1.u.f.f.f.f.f.f.f.s.,.>.W O.# dXKXKXKX",
"DXm K x ,.s.i.i.f.f.f.f.f.f.i.h.3.Z Y # nXKXKXKX",
"CXb K u ; :.4.g.d.d.d.d.g.u.>.& p A m - HXKXKXKX",
"MX7 ^ m.n.N.n.Z.N.N.M.M.M.2.w.g x S 7 e KXKXKXKX",
"xX> m V C K T /  .o.%.%.$.%..X.X#.A > ` KXKXKXKX",
"vXi @ 3 , < , 2 6 G y 4 1 7 1 * 9 i . dXKXKXKXKX",
"VX5.# sXP * @.f 8 M < G @.# 3 =.$ ,   nXKXKXKXKX",
"AX XH %.2 N _ 6 2 5 8 =.sX, P $X# + $ PXKXKXKXKX",
"NXX $ 8 # G I 1 e ..M %.6 2 #.5 $   r KXKXKXKXKX",
"DX3   X     X o @   o # # o $ + X   pXKXKXKXKXKX",
"KXJXSXmXzXjX$X[ _ J M e 2 @ # # o   BXKXKXKXKXKX",
"KXKXKXKXKXKXPXGXIXHXDXFXFXbXNXBXmXNXPXKXKXKXKXKX"
};
