/* XPM */
static const char *pgp_sign[] = {
/* columns rows colors chars-per-pixel */
"22 22 223 2",
"   c #010100",
".  c #010101",
"X  c #030201",
"o  c #020202",
"O  c #020203",
"+  c #040303",
"@  c #060302",
"#  c #070401",
"$  c #060503",
"%  c #070503",
"&  c #060504",
"*  c #070504",
"=  c #050506",
"-  c #060607",
";  c #080502",
":  c #080503",
">  c #0E0906",
",  c #0C0C0E",
"<  c #0E0E0F",
"1  c #110A06",
"2  c #140B06",
"3  c #14110F",
"4  c #0C0C11",
"5  c #121215",
"6  c #121216",
"7  c #141416",
"8  c #181613",
"9  c #151518",
"0  c #15151B",
"q  c #23160A",
"w  c #24150B",
"e  c #24160D",
"r  c #351F0F",
"t  c #211813",
"y  c #231D14",
"u  c #2D1D10",
"i  c #291D18",
"p  c #382111",
"a  c #3D2A11",
"s  c #36271D",
"d  c #191920",
"f  c #222227",
"g  c #352820",
"h  c #392F23",
"j  c #2A2A30",
"k  c #2F2F36",
"l  c #323238",
"z  c #4E2F17",
"x  c #4B3410",
"c  c #593216",
"v  c #583419",
"b  c #503918",
"n  c #423024",
"m  c #493827",
"M  c #543820",
"N  c #563E2C",
"B  c #74431A",
"V  c #774920",
"C  c #735037",
"Z  c #7E5D31",
"A  c #3B3B44",
"S  c #44444B",
"D  c #43434E",
"F  c #45454F",
"G  c #4D4A57",
"H  c #685B55",
"J  c #796240",
"K  c #535360",
"L  c #5D5D6C",
"P  c #60606C",
"I  c #62626D",
"U  c #7C6F69",
"Y  c #686875",
"T  c #8F591D",
"R  c #92551A",
"E  c #A65C18",
"W  c #B06818",
"Q  c #AD711F",
"!  c #BB741F",
"~  c #8F5A2D",
"^  c #9B5B25",
"/  c #936635",
"(  c #B2762D",
")  c #A67434",
"_  c #AC7E3C",
"`  c #CE710F",
"'  c #CB7E17",
"]  c #D67C12",
"[  c #B8863F",
"{  c #E2810D",
"}  c #ED8108",
"|  c #F98704",
" . c #FE9007",
".. c #FF9107",
"X. c #F1900D",
"o. c #FF980A",
"O. c #FF980B",
"+. c #FE990B",
"@. c #FF990B",
"#. c #FB9D0F",
"$. c #E19217",
"%. c #F79D11",
"&. c #FFA00E",
"*. c #FFA00F",
"=. c #FFA10F",
"-. c #EFA218",
";. c #FFA110",
":. c #FFA210",
">. c #FEA613",
",. c #FFA713",
"<. c #FFA914",
"1. c #FFAE16",
"2. c #FFAE17",
"3. c #FFAF17",
"4. c #FFB017",
"5. c #FFB319",
"6. c #FFB51A",
"7. c #FFB61B",
"8. c #FFB71C",
"9. c #FFB91D",
"0. c #FFBB1D",
"q. c #FFBB1E",
"w. c #FFBD1F",
"e. c #FFBF1F",
"r. c #EEAF22",
"t. c #F7B120",
"y. c #F3B22F",
"u. c #FBBA28",
"i. c #FFC020",
"p. c #FFC120",
"a. c #FFC222",
"s. c #FFC422",
"d. c #FFC724",
"f. c #FFCA26",
"g. c #FFCB26",
"h. c #FFCE28",
"j. c #FECE2C",
"k. c #FFD129",
"l. c #FFD42A",
"z. c #FFD42B",
"x. c #FFD72C",
"c. c #FFD72D",
"v. c #FFD92E",
"b. c #FFDC2F",
"n. c #FFDF31",
"m. c #FFE232",
"M. c #FFE233",
"N. c #FFE534",
"B. c #FFE835",
"V. c #FFE836",
"C. c #FFEA37",
"Z. c #FFEB37",
"A. c #FFED39",
"S. c #FFEE3A",
"D. c #FFF13D",
"F. c #FFF13E",
"G. c #9F825A",
"H. c #BA9543",
"J. c #A48351",
"K. c #C29B59",
"L. c #D4A641",
"P. c #CFA758",
"I. c #D1A750",
"U. c #D6AD5C",
"Y. c #D5B255",
"T. c #DAB757",
"R. c #DDBA5C",
"E. c #D0A967",
"W. c #C3A373",
"Q. c #EECB43",
"!. c #FAE74C",
"~. c #FBEA4F",
"^. c #FFF346",
"/. c #FFF447",
"(. c #FAEE5E",
"). c #FEF351",
"_. c #FEF355",
"`. c #E5C566",
"'. c #EED463",
"]. c #EDD366",
"[. c #F5E464",
"{. c #F5E565",
"}. c #FBEF61",
"|. c #767686",
" X c #7A7783",
".X c #7A7A84",
"XX c #898997",
"oX c #8C8C9A",
"OX c #8C8C9B",
"+X c #8E8E9B",
"@X c #90909D",
"#X c #9797A2",
"$X c #9A9AA4",
"%X c #9B9BA9",
"&X c #A2A2AE",
"*X c #AAAAB6",
"=X c #ABABB8",
"-X c #B0B0B9",
";X c #B8B8BD",
":X c #CBB597",
">X c #BFBFC1",
",X c #BCBCC4",
"<X c None",
"1X c #C1C1CA",
"2X c #C3C3CA",
"3X c #C6C6CB",
"4X c #D6CFC5",
"5X c #CFCFD7",
"6X c #D2D2D6",
"7X c #D5D5D6",
"8X c #D5D5DB",
"9X c #D8D8DA",
"0X c #DEDEE4",
"qX c #E3E3E5",
"wX c #E4E4E7",
"eX c #E4E4E8",
"rX c #E7E7E8",
"tX c #E6E6EA",
"yX c #EAEAEB",
"uX c #EBEBED",
"iX c #EDEDF0",
"pX c #F2F2F3",
"aX c #F4F4F5",
/* pixels */
"<X<X<X<X<X<X<X<X<X<X<X<X<X<X<X<X<X<X<X<X<X<X",
"<X<X<X<X<X<X<X<X<X<X<X<X<X<X<X<X<X<X<X<X<X<X",
"<X<X<X<X<X<X<X<X<X<X<XO , 6 7 = <X<X<X<X<X<X",
"<X<X<X<X<X<X<X<X<X<X0 K oX&X%XY 9 <X<X<X<X<X",
"<X<X<X<X<X<X<X<X. d OX0XpXaXaXtX#Xj . <X<X<X",
"<X<X<X<X<X<X<X<X4 |.uXqX1X*X2XyXiX@X< <X<X<X",
"<X<X<X<X<X# x a G 6X9XXX<X<Xl $XrX5XS <X<X<X",
"<X<X<X<X<Xb T.Y.W.4X+X<X<X<X<XF 3XeXI o <X<X",
"<X<X<X<Xq H.!._.'.E.H <X<X<X<Xk -XwXP . <X<X",
"<X<X<X: Z Q.M.C.^.{.P.J <X<X<XA ;X8XD <X<X<X",
"<X<XX M L.j.x.n.B.D.(.`.J.<X<X.X7X=Xf <X<X<X",
"<X<Xu [ u.a.g.l.b.N.S.).].K.U >X,XL - <X<X<X",
"<X2 / y.9.q.i.d.k.v.m.Z./.[.U.:X X5 <X<X<X<X",
"<Xw ) t.6.6.7.0.s.h.c.n.V.F.}.R.G.8 <X<X<X<X",
"<X; z Q -.1.2.3.5.e.f.z.b.N.A.~.I.h <X<X<X<X",
"<X<X@ r T $.>.,.,.<.4.8.w.p.i.r._ y <X<X<X<X",
"<X<X<X  i V ' #.&.&.*.=.;.:.%.( m + <X<X<X<X",
"<X<X<X<Xo > v W X.o.O.O.@.+.! N & <X<X<X<X<X",
"<X<X<X<X<X<X$ p R {  .....] C 3 <X<X<X<X<X<X",
"<X<X<X<X<X<X<X  e B ` | } ~ t <X<X<X<X<X<X<X",
"<X<X<X<X<X<X<X<X. 1 c E ^ n . <X<X<X<X<X<X<X",
"<X<X<X<X<X<X<X<X<X<X% s g * <X<X<X<X<X<X<X<X"
};
