/* XPM */
static const char *pgp_nosign[] = {
/* columns rows colors chars-per-pixel */
"22 22 256 2",
"   c gray1",
".  c gray54",
"X  c gray55",
"o  c gray30",
"O  c gray75",
"+  c gray16",
"@  c gray53",
"#  c gray77",
"$  c #444444",
"%  c #AAAAAA",
"&  c LightGray",
"*  c gray7",
"=  c #2C2C2C",
"-  c #6C6C6C",
";  c gray87",
":  c #B4B4B4",
">  c #393939",
",  c gainsboro",
"<  c #B9B9B9",
"1  c #A9A9A9",
"2  c #161616",
"3  c #C5C5C5",
"4  c #646464",
"5  c gray52",
"6  c #626262",
"7  c #A2A2A2",
"8  c #DFDFDF",
"9  c #232323",
"0  c #B1B1B1",
"q  c #AFAFAF",
"w  c #CACACA",
"e  c LightGray",
"r  c #EEEEEE",
"t  c gray21",
"y  c gray4",
"u  c gray61",
"i  c #626262",
"p  c #282828",
"a  c gray69",
"s  c #B2B2B2",
"d  c #5F5F5F",
"f  c gainsboro",
"g  c #ACACAC",
"h  c #777777",
"j  c #9B9B9B",
"k  c #A9A9A9",
"l  c gray85",
"z  c #131313",
"x  c #3C3C3C",
"c  c gray51",
"v  c gray90",
"b  c gray73",
"n  c #808080",
"m  c gray35",
"M  c #BBBBBB",
"N  c gray58",
"B  c gray77",
"V  c #989898",
"C  c gray81",
"Z  c #A9A9A9",
"A  c #3F3F3F",
"S  c gray67",
"D  c #222222",
"F  c gray77",
"G  c #9D9D9D",
"H  c #E4E4E4",
"J  c gray11",
"K  c gray",
"L  c gray81",
"P  c gray86",
"I  c gray24",
"U  c #0E0E0E",
"Y  c #2D2D2D",
"T  c gray2",
"R  c #929292",
"E  c #2C2C2C",
"W  c #4C4C4C",
"Q  c gray83",
"!  c #343434",
"~  c gray72",
"^  c #3F3F3F",
"/  c #E4E4E4",
"(  c #727272",
")  c #676767",
"_  c gray66",
"`  c #E2E2E2",
"'  c #B7B7B7",
"]  c gray84",
"[  c gray96",
"{  c gray5",
"}  c #A4A4A4",
"|  c #686868",
" . c gray73",
".. c #555555",
"X. c #E2E2E2",
"o. c #B4B4B4",
"O. c #7C7C7C",
"+. c #151515",
"@. c gray48",
"#. c #E6E6E6",
"$. c gray69",
"%. c #CECECE",
"&. c gray12",
"*. c #434343",
"=. c #313131",
"-. c gray55",
";. c gray56",
":. c gray32",
">. c gray76",
",. c #232323",
"<. c #868686",
"1. c #C6C6C6",
"2. c #464646",
"3. c gray68",
"4. c #191919",
"5. c gray18",
"6. c gray47",
"7. c gray89",
"8. c #B7B7B7",
"9. c gray23",
"0. c gray87",
"q. c gray11",
"w. c #8E8E8E",
"e. c gray43",
"r. c gray63",
"t. c #E1E1E1",
"y. c #B6B6B6",
"u. c #A7A7A7",
"i. c gray80",
"p. c #A0A0A0",
"a. c #5F5F5F",
"s. c #646464",
"d. c #CECECE",
"f. c #959595",
"g. c #6C6C6C",
"h. c gray49",
"j. c #1E1E1E",
"k. c gray",
"l. c #979797",
"z. c #343434",
"x. c #818181",
"c. c #A9A9A9",
"v. c #9D9D9D",
"b. c gray68",
"n. c gray89",
"m. c #F3F3F3",
"M. c #626262",
"N. c #B7B7B7",
"B. c gray68",
"V. c gray92",
"C. c #D5D5D5",
"Z. c #B2B2B2",
"A. c gray86",
"S. c #3E3E3E",
"D. c #BCBCBC",
"F. c gray78",
"G. c gray82",
"H. c #D7D7D7",
"J. c #D0D0D0",
"K. c #0C0C0C",
"L. c #797979",
"P. c #3F3F3F",
"I. c gray3",
"U. c #181818",
"Y. c gray13",
"T. c black",
"R. c black",
"E. c black",
"W. c gray4",
"Q. c gray10",
"!. c #020202",
"~. c black",
"^. c #070707",
"/. c #0B0B0B",
"(. c #191919",
"). c gray5",
"_. c DimGray",
"`. c #0E0E0E",
"'. c #646464",
"]. c gray5",
"[. c #484848",
"{. c #888888",
"}. c gray14",
"|. c #464646",
" X c gray73",
".X c gray10",
"XX c #808080",
"oX c #313131",
"OX c #646464",
"+X c gray70",
"@X c #0B0B0B",
"#X c black",
"$X c #090909",
"%X c black",
"&X c #252525",
"*X c gray14",
"=X c #020202",
"-X c black",
";X c black",
":X c black",
">X c black",
",X c black",
"<X c black",
"1X c black",
"2X c #5F5F5F",
"3X c #D7D7D7",
"4X c gray16",
"5X c #464646",
"6X c #020202",
"7X c gray40",
"8X c #393939",
"9X c #222222",
"0X c gray25",
"qX c gray67",
"wX c #313131",
"eX c black",
"rX c #111111",
"tX c gray8",
"yX c #191919",
"uX c gray5",
"iX c #676767",
"pX c #989898",
"aX c gray14",
"sX c gray5",
"dX c #6C6C6C",
"fX c #3E3E3E",
"gX c #3F3F3F",
"hX c #626262",
"jX c gray31",
"kX c #838383",
"lX c gray23",
"zX c #535353",
"xX c #A9A9A9",
"cX c #B1B1B1",
"vX c gray62",
"bX c gray59",
"nX c #777777",
"mX c gray75",
"MX c gray23",
"NX c #464646",
"BX c gray37",
"VX c #777777",
"CX c #4C4C4C",
"ZX c #777777",
"AX c #7F7F7F",
"SX c gray2",
"DX c #6F6F6F",
"FX c black",
"GX c gray55",
"HX c #010101",
"JX c #101010",
"KX c None",
"LX c gray2",
"PX c gray10",
"IX c #191919",
"UX c gray5",
/* pixels */
"KXKXKXKXKXKXKXKXKXKXKXKXKXKXKXKXKXKXKXKXKXKX",
"KXKXKXKXKXKXKXKXKXKXKXKXKXKXKXKXKXKXKXKXKXKX",
"KXKXKXKXKXKXKXKXKXKXKXKXKXKXKXKXKXKXKXKXKXKX",
"KXKXKXKXKXKXKXKXKXKXKX..;.} v.g.KXKXKXKXKXKX",
"KXKXKXKXKXKXKXKXKXKX;.; m.[ [ #.l.= KXKXKXKX",
"KXKXKXKXKXKXKXKXKXh V.7.# g # V.V.N KXKXKXKX",
"KXKXKXKXKXKX> Y W e P X x KX5.u #.e $ KXKXKX",
"KXKXKXKXKX> N.s u.C ;.j.KXKXKX2.1.7.4 KXKXKX",
"KXKXKXKXKXV , / J.q d KXKXKXKX5.o.v a.KXKXKX",
"KXKXKXKX6 3 H.A.` f c.) KXKXKXx o.] $ KXKXKX",
"KXKXKX^ 1 w G.Q l t.X.F @ &.KXO.C.b.,.KXKXKX",
"KXKX9 w.K >.F.L G.l 8 / %.p.( k.k.a.KXKXKXKX",
"KXKXe.' D.D.O B i.G.H.8 ` f $.< L.KXKXKXKXKX",
"KXKXh.y.~ b b D.B F.L Q A.` n. .<.KXKXKXKXKX",
"KXKXz.@.k Z.~ : ~ >.F.L G.l 8 0.1 =.KXKXKXKX",
"KXKXKX9 M.G a a a Z.~ b O >.O 0 5 KXKXKXKXKX",
"KXKXKXKX&.:.. % % % % 3.Z % Z n I KXKXKXKXKX",
"KXKXKXKXKXKX9.6.r._ r._ _ _ x.*.KXKXKXKXKXKX",
"KXKXKXKXKXKXKX9 i R 7 7 7 -.m KXKXKXKXKXKXKX",
"KXKXKXKXKXKXKXKXKXo c j f.s.KXKXKXKXKXKXKXKX",
"KXKXKXKXKXKXKXKXKXKX9.- | =.KXKXKXKXKXKXKXKX",
"KXKXKXKXKXKXKXKXKXKXKX+ E KXKXKXKXKXKXKXKXKX"
};
