/* XPM */
static const char *pgpsig_bad[] = {
/* columns rows colors chars-per-pixel */
"48 48 237 2",
"   c #000000",
".  c #090401",
"X  c #0C0905",
"o  c gray5",
"O  c #140200",
"+  c #120A05",
"@  c #1A0100",
"#  c #1A0800",
"$  c #16110A",
"%  c #1B140C",
"&  c #141414",
"*  c #1E1912",
"=  c #1B1B1B",
"-  c #210400",
";  c #240B00",
":  c #2B0D01",
">  c #251105",
",  c #2B1203",
"<  c #291C0C",
"1  c #231B11",
"2  c #291F10",
"3  c #3B0000",
"4  c #301404",
"5  c #351807",
"6  c #361808",
"7  c #3B1D0B",
"8  c #2C2215",
"9  c #3F210F",
"0  c #312416",
"q  c #352919",
"w  c #392D1B",
"e  c #222222",
"r  c gray18",
"t  c #323232",
"y  c #530000",
"u  c #40280E",
"i  c #4D2A0E",
"p  c #40321E",
"a  c #502C10",
"s  c #443521",
"d  c #4F3322",
"f  c #4D3C26",
"g  c #473D32",
"h  c #513523",
"j  c #553926",
"k  c #613813",
"l  c #683D1A",
"z  c #524029",
"x  c #5A462D",
"c  c #724918",
"v  c #7A4C1A",
"b  c #6D5536",
"n  c #714A24",
"m  c #755B37",
"M  c #745B3B",
"N  c #79603F",
"B  c gray27",
"V  c #4B4B4B",
"C  c #574F47",
"Z  c #53504C",
"A  c #5B5B5B",
"S  c #6F5442",
"D  c #715745",
"F  c #735946",
"G  c #765D4C",
"H  c #785941",
"J  c #7F6440",
"K  c gray39",
"L  c #747474",
"P  c #7A7A7A",
"I  c #930000",
"U  c #990101",
"Y  c #9D0C0C",
"T  c #A01515",
"R  c #A41E1E",
"E  c #A62323",
"W  c #AC3333",
"Q  c #AE3A3A",
"!  c #864C13",
"~  c #875014",
"^  c #8B5214",
"/  c #904C16",
"(  c #97551A",
")  c #835A2C",
"_  c #965E25",
"`  c #85663F",
"'  c #89683E",
"]  c #906B3A",
"[  c #A55E1F",
"{  c #A3641C",
"}  c #A56922",
"|  c #A66F28",
" . c #AA6C23",
".. c #AE732B",
"X. c #AD7131",
"o. c #B86F27",
"O. c #B0752F",
"+. c #BC732A",
"@. c #B17532",
"#. c #B47935",
"$. c #B67C39",
"%. c #BC7632",
"&. c #B97D36",
"*. c #BA7E3D",
"=. c #866942",
"-. c #886B45",
";. c #8F7554",
":. c #94744A",
">. c #97784F",
",. c #9F7A4D",
"<. c #917356",
"1. c #9F7F53",
"2. c #927E63",
"3. c #947C6A",
"4. c #9B7C61",
"5. c #B34646",
"6. c #B75454",
"7. c #BA5454",
"8. c #BA5858",
"9. c #A7744D",
"0. c #A47C47",
"q. c #A17E50",
"w. c #C06767",
"e. c #C37575",
"r. c #B78035",
"t. c #BB823E",
"y. c #96806E",
"u. c #99826F",
"i. c #A58356",
"p. c #AC8553",
"a. c #AC8859",
"s. c #B78142",
"d. c #BC8442",
"f. c #BB8649",
"g. c #BC8845",
"h. c #BC8C4D",
"j. c #BC8E51",
"k. c #B88F59",
"l. c #B6915F",
"z. c #BE9054",
"x. c #BD945C",
"c. c #BF9762",
"v. c #C58C47",
"b. c #C08F4C",
"n. c #CC8D51",
"m. c #C09256",
"M. c #C1945B",
"N. c #C2985D",
"B. c #CC9454",
"V. c #C49760",
"C. c #C49A62",
"Z. c #C89E66",
"A. c #C89F69",
"S. c #CAA065",
"D. c #CCA26B",
"F. c #CBA472",
"G. c #D1A66F",
"H. c #D1A672",
"J. c #D0A974",
"K. c #D3AB7B",
"L. c #848484",
"P. c gray54",
"I. c #939393",
"U. c #9C9C9C",
"Y. c #BEA083",
"T. c #BDA995",
"R. c #BCAE9C",
"E. c #A4A4A4",
"W. c #A2A6AB",
"Q. c #ABABAB",
"!. c #B5B5B5",
"~. c #BABABA",
"^. c #C18585",
"/. c #CB8585",
"(. c #D19595",
"). c #D29D9D",
"_. c #C2A184",
"`. c #C8AA8E",
"'. c #C5B39B",
"]. c #D6AE80",
"[. c #D6B081",
"{. c #D4B48A",
"}. c #D9B283",
"|. c #DBB589",
" X c #DDBA8D",
".X c #D2BD9F",
"XX c #DEBC92",
"oX c #DABD9B",
"OX c #D5A2A2",
"+X c #D8B0B0",
"@X c #E0BA89",
"#X c #E0BD93",
"$X c #DDC4A4",
"%X c #DFCBB6",
"&X c #DCCFBE",
"*X c #E0C097",
"=X c #E2C29B",
"-X c #EBC89B",
";X c #E5C6A0",
":X c #E6C9A4",
">X c #E1CBAD",
",X c #E8C7A1",
"<X c #E8CDAA",
"1X c #E3CFB3",
"2X c #E0CDB8",
"3X c #EDD1AC",
"4X c #E2D1BC",
"5X c #EBD2B2",
"6X c #EEDABC",
"7X c #F2DBBB",
"8X c #C2C2C2",
"9X c #CBCBCB",
"0X c #C9CDD0",
"qX c #D2D1D1",
"wX c #DCDCDC",
"eX c #E1C2C2",
"rX c #E8CBCB",
"tX c #E3D2C0",
"yX c #E8D8C2",
"uX c #EADBC8",
"iX c #F1DEC7",
"pX c #F3E0C5",
"aX c #F5E2CC",
"sX c #FBE4C4",
"dX c #FAE5CA",
"fX c #FEE9CD",
"gX c #F7E7D1",
"hX c #F7E8D2",
"jX c #F1E8DC",
"kX c #FEECD3",
"lX c #E3E3E3",
"zX c #EBEBEB",
"xX c #ECEEF0",
"cX c #F3F3F3",
"vX c #F8F5F5",
"bX c #FCFCFC",
"nX c None",
/* pixels */
"nXnXnXnXnXnXnXnXnXnXnXnXnXnXnXnXnXnXnXnXnXnXnXnXnXnXnXnXnXnXnXnXnXnXnXnXnXnXnXnXnXnXnXnXnXnXnXnX",
"nXnXnXnXnXnXnXnXnXnXnXnX                    nXnXnXnXnXnXnX                nXnXnXnXnXnXnXnXnXnXnX",
"nXnXnXnXnXnXnXnXnXnX                          nXnXnXnXnX                    nXnXnXnXnXnXnXnXnXnX",
"nXnXnXnXnXnXnXnX                  & &           nXnXnX    U.L.                  nXnXnXnXnXnXnXnX",
"nXnXnXnXnXnXnX          r A P.!.qX~.e           nXnXnX    V V P U.                nXnXnXnXnXnXnX",
"nXnXnXnXnXnX          & ~.zXcXcXzXr             nXnXnX    o wXlXqX!.B             nXnXnXnXnXnXnX",
"nXnXnXnXnX          W.cXcXcXzXzXlXK t e         nXnX        I.lXwX9X~.K             nXnXnXnXnXnX",
"nXnXnXnXnX  .   8 U.zXcXzXlXwXqX0XqXL t         nXnX      & P wXwXwX8X~.V             nXnXnXnXnX",
"nXnXnXnX      & L.zXcXlXqXU.A t o = t e         nXnX          U.wXlXqX~.!.            nXnXnXnXnX",
"nXnXnX        A zXcXlXqXP =                     nXnXnX          I.wXlX9X!.I.            nXnXnXnX",
"nXnXnX      = !.vXzXqXL                       nXnXnXnX            E.lXwX8X!.            nXnXnXnX",
"nXnXnX      r bXxXwXI.                        nXnXnXnXnX          . wXzXqXQ.P           nXnXnXnX",
"nXnX        9XcXlXqX=                       nXnXnXnXnXnXnX          L.zXwX!.U.          nXnXnXnX",
"nXnX        qXcXwXQ.=                 nXnXnXnXnXnXnXnXnXnXnX        = zXlX8XQ.            nXnXnX",
"nXnX      P lXzXqXP &                 nXnXnXnXnXnXnXnXnX              zXlX8XQ.              nXnX",
"nXnX      P zXlX9XP                           nXnXnXnX                lXlX9XQ.                nX",
"nXnX      B vXzX9XI.                # .       nXnXnX      . 5 5 6 6 6 [ +.+.[ 6 6 6 6 :       nX",
"nXnX      e cXxX9XW.    . @ @ - ; 4 7 .         nX      . Z iX,X;X;X=X=X#XXX#X@X}.K.[ 6       nX",
"nX          qX2X_.9.; : 9 j H 4.Y.oXg .         nX      Z &XZ.S.Z.C.V.M.m.h.d.*.%.} ^ 6       nX",
"nX  , ; - ; / %.n.G.`.$X3X3X-X@XK.H $           nX    . jXC.C.C.V.N.M.m.h.f.0.*.@.} ^ 6       nX",
"nX  , n Y.tXiX6X<X;XXX].J.S.A.Z.Z.8 X                   q $XZ.C.C.N.M.b.h.d.t.$...{ ^ 5       nX",
"nX  - <.sX6X:X#X].].K.J.G.G.Z.k.p.,.f .                   w $XZ.Z.C.C.N.z.h.g.t.$. .^ 6       nX",
"nX  @ G kX<X;X X}.K.K.K.J.F.C.q.N 8   %                     M :XC.C.N.x.j.f.*.$.X.} ^ 6       nX",
"nX  @ j kX<X<XXX}.K.K.J.F.D.i.-.1                 nX        *  XZ.C.C.C.z.h.g.t.&. .^ 6       nX",
"nX  . 7 hX5X<X#X].K.].K.F.G.<.x                 nXnX          >XZ.V.N.z.b.j.d.*.#.} ^ 6       nX",
"nX    : 4X5X<X#X|.].K.K.G.F.a.2                 nXnX        % $XV.m.m.h.f.d.$.#...{ ~ 6       nX",
"nX    - T.7X:X*X}.K.K.K.J.G.x.s               nXnXnX        M $XM.m.b.h.f.d.$.$...} ^ 6       nX",
"nX    @ u.dX<X=X|.K.K.K.H.G.V.=.8             nXnXnX    * y.1X{.C.c.N.m.h.d.$.$.X.} ^ 6       nX",
"nX    @ F fX:X;X|.K.K.H.D.D.D.Z.1.z %           nXnX      oXF.C.C.M.z.z.h.g.t.$.#. .^ 6       nX",
"nX    @ h kX<X:X X].K.[.K.K.D.D.Z.,.            nX        '.C.C.N.m.z.b.f.t.$.$.....^ 6       nX",
"nX    . 7 hX<X<X#X[.K.J.D.D.Z.C.N.q..           nX        ;.$XC.x.m.j.h.g.t.$.$...d.~ 6       nX",
"nX      : 2X5X:X XK.K.K.J.F.D.D.c.:.X           nX        b $XN.c.x.z.j.f.s.$.@.X.h.! 5 3 I y   ",
"nX      # T.iX<X#X|.].].K.J.D.A.C.w X           nX        p .XF.M.                      I I 3   ",
"nX      @ 3.dX<X=X XK.K.J.G.A.Z.k.0             nX        q ' oXh.  bXbXbXbXbXbXbXbXbXT U @     ",
"nXnX    @ D fX:X=X}.J.H.F.D.Z.M.p.<                         M {.c.  bX+XQ 6.cXcXcXcXT U ^.      ",
"nXnX    @ h fX:X,X}.J.H.G.A.Z.C.` X                   $XC.C.C.C.N.  bXe.I Y ).cXcXQ U (.wX      ",
"nXnX    . 7 aX:X;X|.K.H.J.G.S.D.C.x z f X             R.F.z.z.z.j.  bXcXOXU Y eX5.U w.vXwX      ",
"nXnX      : %X<X;XXXK.K.K.H.G.D.Z.C.x.m.$             q uXC.C.C.c.  bXcXcX(.U U I 5.vXvXlX      ",
"nXnX      - T.7X<XXX[.K.H.F.Z.Z.C.C.N.C.s $ X           * yXC.Z.Z.  bXcXcX/.W U U cXvXbXwX      ",
"nXnX      @ 3.sX:X*X].J.G.F.Z.Z.C.N.N.z.z.] <             oX....|   bXvX8.Q I T U Y cXvXlX      ",
"nXnXnX    @ S fX;X=X}.J.H.D.Z.m.h.t.r.O.} c u             6 6 6 6   bXOXY U E vX).U T vXlX      ",
"nXnXnX    @ d kX=X XG.B.v.*.X._ v k i 7 , ,                         bXvX/.R cXbXbXrXU 7.lX      ",
"nXnXnX    . 5 &.x.0.) l i 7 4 , ; # . .                             bXvXvXbXvXbXbXbXbXbXlX      ",
"nXnXnX      , 7 4 : # # O .                                         zXlXlXlXlXlXlXlXlXlX8X      ",
"nXnXnX      + .                                   nXnX                                          ",
"nXnXnXnX                                          nXnXnXnXnX                                    ",
"nXnXnXnX                                      nXnXnXnXnXnXnXnXnX                                ",
"nXnXnXnXnX                          nXnXnXnXnXnXnXnXnXnXnXnXnXnXnX                              "
};
