/* XPM */
static char *pgpsig_good[] = {
/* columns rows colors chars-per-pixel */
"48 48 143 2",
"   c #000000",
".  c #0C0E0C",
"X  c gray8",
"o  c gray12",
"O  c #251005",
"+  c #20190F",
"@  c #2B1306",
"#  c #201910",
"$  c #311607",
"%  c #351807",
"&  c #371908",
"*  c #3F301C",
"=  c #2F2F2F",
"-  c #2F3C2B",
";  c #303C2B",
":  c #374632",
">  c #3B4B36",
",  c #40321E",
"<  c #42533D",
"1  c #6C5434",
"2  c #755B37",
"3  c #745B39",
"4  c #7A603E",
"5  c gray27",
"6  c #4C4C4C",
"7  c #465840",
"8  c #4A5D44",
"9  c #515C4D",
"0  c #5B5B5B",
"q  c #52674A",
"w  c #566253",
"e  c #586355",
"r  c #586E50",
"t  c #5C7354",
"y  c #626C5E",
"u  c #607758",
"i  c #62795B",
"p  c gray38",
"a  c #697D61",
"s  c #767676",
"d  c #7B7B7B",
"f  c #6C8065",
"g  c #71846A",
"h  c #844E13",
"j  c #875014",
"k  c #8B5214",
"l  c #97551A",
"z  c #9C5217",
"x  c #89683E",
"c  c #A65C1D",
"v  c #A3641C",
"b  c #A56921",
"n  c #AA6C23",
"m  c #AA6E28",
"M  c #AC722A",
"N  c #B86D26",
"B  c #B1752E",
"V  c #BC732A",
"C  c #B17532",
"Z  c #B47935",
"A  c #B57C39",
"S  c #B97E3C",
"D  c #836641",
"F  c #8F7554",
"G  c #94744B",
"H  c #9A7545",
"J  c #9A794D",
"K  c #927E63",
"L  c #A57D4D",
"P  c #A07E50",
"I  c #BA813E",
"U  c #82937C",
"Y  c #AC834E",
"T  c #BB8443",
"R  c #BC8749",
"E  c #BC8845",
"W  c #BC8C4D",
"Q  c #B28753",
"!  c #B28B57",
"~  c #B48D5B",
"^  c #BC8E52",
"/  c #BE9054",
"(  c #BA935E",
")  c #C09256",
"_  c #C1945B",
"`  c #C2985D",
"'  c #C19660",
"]  c #C49962",
"[  c #C49E6E",
"{  c #C99E66",
"}  c #C89F68",
"|  c #CCA36C",
" . c #CAA371",
".. c #D0A66F",
"X. c #D1A573",
"o. c #D0A974",
"O. c #D3AB7C",
"+. c #828282",
"@. c gray54",
"#. c #939393",
"$. c #9C9C9C",
"%. c #A3A3A3",
"&. c #ACABAB",
"*. c #A9B3A6",
"=. c #B1B8AF",
"-. c #B5B5B5",
";. c #BBBBBB",
":. c #CEAF86",
">. c #C5B39B",
",. c #D7AF80",
"<. c #D5B58B",
"1. c #D9B284",
"2. c #DBB88C",
"3. c #D3BD9D",
"4. c #DEBB91",
"5. c #D9BF9E",
"6. c #E0BD94",
"7. c #DDC6A7",
"8. c #E1C19A",
"9. c #E5C5A0",
"0. c #E5C9A4",
"q. c #E5CCA9",
"w. c #E8C7A1",
"e. c #E8CBA6",
"r. c #E8CDAB",
"t. c #E3CFB3",
"y. c #EBCFB0",
"u. c #EAD3AF",
"i. c #EBD3B4",
"p. c #EFDBBE",
"a. c #C2C2C2",
"s. c #CBCBCB",
"d. c #D0D5CE",
"f. c #D2D2D2",
"g. c #DBDBDB",
"h. c #DEE1DD",
"j. c #F4E1CB",
"k. c #F5E6D0",
"l. c #E3E3E3",
"z. c #EBEBEB",
"x. c #F2F2F2",
"c. c #FDFDFD",
"v. c None",
/* pixels */
"v.v.v.v.v.v.v.v.v.v.v.v.v.v.v.v.v.v.v.v.v.v.v.v.v.v.v.v.v.v.v.v.v.v.v.v.v.v.v.v.v.v.v.v.v.v.v.v.",
"v.v.v.v.v.v.v.v.v.v.v.v.v.v.v.v.v.v.v.v.v.v.v.v.v.v.v.v.v.v.v.v.v.v.v.v.v.v.v.v.v.v.v.v.v.v.v.v.",
"v.v.v.v.v.v.v.v.v.v.v.v.v.v.v.v.v.v.v.                          v.v.v.v.v.v.v.v.v.v.v.v.v.v.v.v.",
"v.v.v.v.v.v.v.v.v.v.v.v.v.v.v.v.v.                                  v.v.v.v.v.v.v.v.v.v.v.v.v.v.",
"v.v.v.v.v.v.v.v.v.v.v.v.v.v.v.v.                                      v.v.v.v.v.v.v.v.v.v.v.v.v.",
"v.v.v.v.v.v.v.v.v.v.v.v.v.v.              $.f.l.z.g.a.#.                  v.v.v.v.v.v.v.v.v.v.v.",
"v.v.v.v.v.v.v.v.v.v.v.v.v.            a.z.x.x.x.z.z.l.l.g.$.                v.v.v.v.v.v.v.v.v.v.",
"v.v.v.v.v.v.v.v.v.v.v.v.v.        p l.x.z.z.l.l.l.l.l.l.g.g.-.5             v.v.v.v.v.v.v.v.v.v.",
"v.v.v.v.v.v.v.v.v.v.v.v.        +.z.x.z.l.g.s.a.a.s.g.g.g.g.s.-.p             v.v.v.v.v.v.v.v.v.",
"v.v.v.v.v.v.v.v.v.v.v.        0 z.x.z.g.-.0 X       d ;.l.g.g.a.;.6             v.v.v.v.v.v.v.v.",
"v.v.v.v.v.v.v.v.v.v.v.        l.x.z.g.#.                $.g.l.g.;.-.            v.v.v.v.v.v.v.v.",
"v.v.v.v.v.v.v.v.v.v.        -.x.z.g.@.                    #.g.g.f.&.#.            v.v.v.v.v.v.v.",
"v.v.v.v.v.v.v.v.v.v.        z.x.g.a.                        %.l.g.a.-.            v.v.v.v.v.v.v.",
"v.v.v.v.v.v.v.v.v.v.      %.x.l.a.+.                          g.z.f.&.s           v.v.v.v.v.v.v.",
"v.v.v.v.v.v.v.v.v.v.      s.x.g.a.=                           +.z.g.-.$.          v.v.v.v.v.v.v.",
"v.v.v.v.v.v.v.v.v.        l.x.s.;..                           = z.l.a.&.            v.v.v.v.v.v.",
"v.v.v.v.v.v.v.v.v.        l.x.s.-.                              z.l.a.&.              v.v.v.v.v.",
"v.v.v.v.v.v.v.            g.z.s.&.                              l.l.s.&.                v.v.v.v.",
"v.v.v.v.v.v.v.    $ & & & z N N c & & & & & & & & & & & & & & & c V N l & & & & @         v.v.v.",
"v.v.v.v.v.v.v.    & ] j.j.p.i.i.i.y.y.r.e.w.w.8.9.9.9.w.w.9.9.9.8.8.4.6.4.1.O.v &         v.v.v.",
"v.v.v.v.v.v.      & j.i.y.8.2.1.,.O.O.o.| | | { { { { | | { ] ' _ / E I S C n k &           v.v.",
"v.v.v.v.v.v.      & j.u.e.4.1.O.O.X.X.| | ] ] ] ] ] ] ] ` ] ` _ / / R I S B n k &           v.v.",
"v.v.v.v.v.v.      & j.y.y.8.1.,.,.O.X.X.| ~ J J J ! { ] { ] ` _ / W T I A M v k &           v.v.",
"v.v.v.v.v.v.      & j.y.e.4.O.O.O.o.X.| ~ G 3 #   # 3 { { { ] ' ` / W T T A n k &           v.v.",
"v.v.v.v.v.v.      & j.y.e.6.2.1.,.O.X.| C y           4 { ] ] ' ` / E I S C v k &           v.v.",
"v.v.v.v.v.v.      & j.e.0.4.O.O.O.X...| G #           # 2.} ] ' ` / W E I Z n k &           v.v.",
"v.v.v.v.v.v.      & j.r.q.4.1.O.O.O.X.| G               q.{ ] ' ( W W T I C n k &           v.v.",
"v.v.v.v.v.v.      & j.e.0.2.O.O.X.X.X.} G #           + 7.' ) ) W R I A Z m v k &           v.v.",
"v.v.v.v.v.v.      & j.u.e.2.O.O.X.X.| ] ] 2           2 7.` ) ^ W W I A A M v k &             v.",
"v.v.v.v.v.v.      & k.y.r.6.1.1.1.,.O.o...| 3 #   X K t.<.' _ _ / E T I A C b k &         t     ",
"v.v.v.v.v.v.      & j.r.e.2.O.X.o.| | ] ` ` L       5. .] ' _ ) / W E I A C m k &       t 7     ",
"v.v.v.v.v.v.      & j.e.e.2.O.O.O.X. .| { ( J       >.] ] ` ^ ^ Q R I A C M m h %     t 7 >     ",
"v.v.v.v.v.v.      & k.y.u.4.2.,.O.O.o.| | ~ x       F 7.'                         . t < <       ",
"v.v.v.v.v.v.      & j.e.9.2.O.O.o...| { ] ! 1       1 7.`   c.c.c.c.c.c.c.c.c.c.z.8 < :         ",
"v.v.v.v.v.v.      & j.0.8.2.o.X.o.| } ] ! Y ,       , 3.[   c.z.z.x.x.z.x.x.x.x.a < :           ",
"v.v.v.v.v.v.      & j.0.w.1.o...| | ] ` Q H ,       , D 5.  c.x.g 8 g.z.x.x.f.f 8 -           v.",
"v.v.v.v.v.v.      & j.e.0.2.O.X.o...| { ( 4           2 :.  c.U i i e f.z.h.a 8 9           v.v.",
"v.v.v.v.v.v.      & j.e.0.2.,.O.O...| | { ] ] { ] ] ] ] '   c.*.i t q p =.i 8 q #.          v.v.",
"v.v.v.v.v.v.      & j.0.0.2.O.X...| | ] ] _ ( / ) ) ) ) ^   c.l.s.a t < i 8 e &.%.          v.v.",
"v.v.v.v.v.v.      & j.0.8.2.X. .| | { { ] ` ` ] ] ] ] ] '   c.x.z.f.a t q 9 %.;.a.          v.v.",
"v.v.v.v.v.v.      & j.8.8.1.X...| { ] ] _ ) / / ) _ ` ] ]   c.x.x.z.f.g e %.;.g.g.          v.v.",
"v.v.v.v.v.v.      & B { ` W S I A Z C B M m M m m M M m m   c.x.c.c.z.g.a.a.g.x.l.          v.v.",
"v.v.v.v.v.v.      @ $ & & & & & & & & & & & & & & & & & &   c.c.x.c.c.z.z.z.x.c.l.          v.v.",
"v.v.v.v.v.v.v.                                              z.l.l.g.l.l.l.l.z.l.a.        v.v.v.",
"v.v.v.v.v.v.v.                                                                            v.v.v.",
"v.v.v.v.v.v.v.v.                                                                          v.v.v.",
"v.v.v.v.v.v.v.v.v.                                                                        v.v.v.",
"v.v.v.v.v.v.v.v.v.v.v.v.                                                                v.v.v.v."
};
