/* XPM */
static char *pgpsig_exp[] = {
/* columns rows colors chars-per-pixel */
"48 48 132 2",
"   c #000000",
".  c #0C0501",
"X  c gray6",
"o  c #16110A",
"O  c #131313",
"+  c gray12",
"@  c #251005",
"#  c #2B1306",
"$  c #311607",
"%  c #371908",
"&  c #26221C",
"*  c #2C2114",
"=  c #2B2B2B",
"-  c #58300D",
";  c #413321",
":  c #58452C",
">  c #6F5739",
",  c #6F5839",
"<  c #715836",
"1  c #705839",
"2  c gray27",
"3  c #4C4C4C",
"4  c #5B5B5B",
"5  c gray38",
"6  c #6F6961",
"7  c #706C67",
"8  c #7C7266",
"9  c #7D7469",
"0  c #767676",
"q  c #7C7B79",
"w  c #864C13",
"e  c #894E14",
"r  c #875014",
"t  c #8B5214",
"y  c #925615",
"u  c #97551A",
"i  c #9C5217",
"p  c #995D16",
"a  c #9B5F18",
"s  c #9E6119",
"d  c #A65C1D",
"f  c #A2641C",
"g  c #A36720",
"h  c #A56921",
"j  c #AA6C24",
"k  c #AD722A",
"l  c #B86D26",
"z  c #B1752E",
"x  c #BC732A",
"c  c #B17531",
"v  c #B47935",
"b  c #B67C39",
"n  c #B97E3C",
"m  c #826640",
"M  c #867259",
"N  c #99784D",
"B  c #9C7C51",
"V  c #A17C4B",
"C  c #BA823E",
"Z  c #9C815D",
"A  c #AB8651",
"S  c #BC8443",
"D  c #BC8749",
"F  c #BC8846",
"G  c #BD8B4D",
"H  c #BD8E51",
"J  c #BE9054",
"K  c #A1927E",
"L  c #BE9D72",
"P  c #C08D51",
"I  c #C09256",
"U  c #C1945B",
"Y  c #C2985D",
"T  c #C49961",
"R  c #C69F68",
"E  c #C99E66",
"W  c #C89F68",
"Q  c #CCA26C",
"!  c #CAA573",
"~  c #D0A66F",
"^  c #D1A573",
"/  c #D0A974",
"(  c #D3AB7C",
")  c #828282",
"_  c gray54",
"`  c #939393",
"'  c #9C9C9C",
"]  c #A69C8F",
"[  c #A49B91",
"{  c gray63",
"}  c #ACABAB",
"|  c #B5B5B5",
" . c #BBBBBB",
".. c #C5B299",
"X. c #CBB59A",
"o. c #D7AF80",
"O. c #D3B48B",
"+. c #D9B284",
"@. c #DBB88C",
"#. c #D6B993",
"$. c #DEBB91",
"%. c #D9BD99",
"&. c #E0BD94",
"*. c #D6C4AC",
"=. c #DFC9AB",
"-. c #D2C4B1",
";. c #D8C7B1",
":. c #DBC9B1",
">. c #E1C19A",
",. c #E5C5A0",
"<. c #E5C9A4",
"1. c #E5CBA9",
"2. c #E8C7A1",
"3. c #E8CBA6",
"4. c #E8CDAB",
"5. c #E3CFB4",
"6. c #EBCFB0",
"7. c #EAD3AF",
"8. c #E4D1B8",
"9. c #EBD3B4",
"0. c #EFDBBE",
"q. c #C2C2C2",
"w. c #CBCBCB",
"e. c #D2D2D2",
"r. c #DBDBDB",
"t. c #EBDCC9",
"y. c #F4E1CB",
"u. c #F5E6D0",
"i. c #E2E2E2",
"p. c #EAEAEA",
"a. c #F1F1F1",
"s. c None",
/* pixels */
"s.s.s.s.s.s.s.s.s.s.s.s.s.s.s.s.s.s.s.s.s.s.s.s.s.s.s.s.s.s.s.s.s.s.s.s.s.s.s.s.s.s.s.s.s.s.s.s.",
"s.s.s.s.s.s.s.s.s.s.s.s.s.s.s.s.s.s.s.s.s.s.s.s.s.s.s.s.s.s.s.s.s.s.s.s.s.s.s.s.s.s.s.s.s.s.s.s.",
"s.s.s.s.s.s.s.s.s.s.s.s.s.s.s.s.s.s.s.                          s.s.s.s.s.s.s.s.s.s.s.s.s.s.s.s.",
"s.s.s.s.s.s.s.s.s.s.s.s.s.s.s.s.s.                                  s.s.s.s.s.s.s.s.s.s.s.s.s.s.",
"s.s.s.s.s.s.s.s.s.s.s.s.s.s.s.s.                                      s.s.s.s.s.s.s.s.s.s.s.s.s.",
"s.s.s.s.s.s.s.s.s.s.s.s.s.s.              ' e.i.p.r.w._                   s.s.s.s.s.s.s.s.s.s.s.",
"s.s.s.s.s.s.s.s.s.s.s.s.s.            q.p.a.a.a.p.p.i.i.r.'                 s.s.s.s.s.s.s.s.s.s.",
"s.s.s.s.s.s.s.s.s.s.s.s.s.        5 i.a.a.p.i.i.i.i.i.i.i.e. .2             s.s.s.s.s.s.s.s.s.s.",
"s.s.s.s.s.s.s.s.s.s.s.s.        ) p.a.p.i.r.w.q.q.w.e.r.i.r.w. .5             s.s.s.s.s.s.s.s.s.",
"s.s.s.s.s.s.s.s.s.s.s.        4 p.a.p.r. .4 O       q  .i.r.r.q. .3             s.s.s.s.s.s.s.s.",
"s.s.s.s.s.s.s.s.s.s.s.        i.a.p.r.`                 ' r.i.r. .|             s.s.s.s.s.s.s.s.",
"s.s.s.s.s.s.s.s.s.s.         .a.p.r._                     ` r.r.w.| `             s.s.s.s.s.s.s.",
"s.s.s.s.s.s.s.s.s.s.        p.p.r.q.                        { i.r.q.|             s.s.s.s.s.s.s.",
"s.s.s.s.s.s.s.s.s.s.      { a.p.w.q                           r.p.e.} 0           s.s.s.s.s.s.s.",
"s.s.s.s.s.s.s.s.s.s.      w.a.r.q.=                           ) a.r.| '           s.s.s.s.s.s.s.",
"s.s.s.s.s.s.s.s.s.        i.a.w.q.X                           = p.i. .}             s.s.s.s.s.s.",
"s.s.s.s.s.s.s.s.s.        p.p.w.|                               p.i.q.}               s.s.s.s.s.",
"s.s.s.s.s.s.s.            r.p.w.}                               i.i.w.}                 s.s.s.s.",
"s.s.s.s.s.s.s.    $ % % % i l l d % % % % % % % % % % % % % % % d x l u % % % % #         s.s.s.",
"s.s.s.s.s.s.s.    % T y.y.0.9.9.9.6.4.4.3.,.,.,.,.,.,.2.,.,.,.,.>.>.&.&.$.+.( f %         s.s.s.",
"s.s.s.s.s.s.      % u.7.7.>.@.+.o.o.( / ~ Q E E E E E E W E T T U J F C n v j t %           s.s.",
"s.s.s.s.s.s.      % y.4.3.&.+.( ( ^ ~ Q W T T T T E T T T T Y U P H G C n c f t %           s.s.",
"s.s.s.s.s.s.      % u.9.4.$.+.( o.( ^ ~ Q W E E T E E T E T Y U J H S C b z f r %           s.s.",
"s.s.s.s.s.s.      % u.4.4.$.+.( ( / ! Q W T N : ; ; : B W T T T Y P P S C b j t %           s.s.",
"s.s.s.s.s.s.      % y.4.4.&.O.+.o.( ^ ~ Q *             , T T T J J G C b c h t %           s.s.",
"s.s.s.s.s.s.      % y.4.3.@.( ( ( ~ ^ Q W   & -.5.O.>     Z O.T T J G F C b j t %           s.s.",
"s.s.s.s.s.s.      % y.4.3.$.o.o.( ( ^ Q W o [ #.E E E >   6 #.Y J H G F n c h t %           s.s.",
"s.s.s.s.s.s.      % y.4.2.@.o.( ( ^ ~ W W %.5.T Y T Y m   7 #.H G D C b v k f t %           s.s.",
"s.s.s.s.s.s.      % y.4.3.&.( ( ~ Q W W T Y U U U Y J $   [ o.H G G C n b k h t %           s.s.",
"s.s.s.s.s.s.      % u.6.4.&.+.+.+.o.( / Q Q E E R , O = 8 t.Q J H G S n b c h t %           s.s.",
"s.s.s.s.s.s.      % y.4.2.@./ ^ ^ ! W W T Y U A o   q K =.L J J I G F C b z j t %           s.s.",
"s.s.s.s.s.s.      % y.4.3.@.o.( ( ^ ~ W W T T m   M =.! Y R J J G D C b b c k t %           s.s.",
"s.s.s.s.s.s.      % u.4.4.$.+.+.o.( / Q E R T N   ..T Y T T J J H D S b b k S w %           s.s.",
"s.s.s.s.s.s.      % y.1.,.@.( ( / Q Q Q T Y U Y Y T T T T T J J H G S n b z P e %           s.s.",
"s.s.s.s.s.s.      % y.3.3.+./ ~ Q Q Q Y Y U H *   & O.J T J U P P F V n v z P w %           s.s.",
"s.s.s.s.s.s.      % y.2.,.+./ ^ Q Q R Y U H V *   O ;.J H H G D S C C x z k Y w %           s.s.",
"s.s.s.s.s.s.      % y.3.3.@.( ^ / Q Q Q E Y Z ,   9 *.T T T I I G G S b b z Q t %           s.s.",
"s.s.s.s.s.s.      % y.3.<.@.o.( / ^ ^ Q Q T T L X.:.! T T Y U H P F C b C C Q w %           s.s.",
"s.s.s.s.s.s.      % y.3.<.@.( ^ ~ Q Q E Y U J J U J U J H J H H F S C b b S Q w %           s.s.",
"s.s.s.s.s.s.      % t.<.,.@.^ Q Q Q E T T Y T J Y T T T T T Y U I G F G Y G E w %           s.s.",
"s.s.s.s.s.s.      % y.2.>.+.^ Q Q W T T U I J J I U U T W W ~ W W ( ( ~ ^ P z e %           s.s.",
"s.s.s.s.s.s.      % z T Y G C C b v c z k k k k k k k k k k j j h f f s a p y - #           s.s.",
"s.s.s.s.s.s.      # $ % % % % % % % % % % % % % % % % % % % % % % % % % % % % @ .           s.s.",
"s.s.s.s.s.s.s.                                                                            s.s.s.",
"s.s.s.s.s.s.s.                                                                            s.s.s.",
"s.s.s.s.s.s.s.s.                                                                        s.s.s.s.",
"s.s.s.s.s.s.s.s.s.                                                                    s.s.s.s.s.",
"s.s.s.s.s.s.s.s.s.s.s.s.                                                          s.s.s.s.s.s.s."
};
