/* XPM */
static const char *postscript_xpm[] = {
/* width height ncolors chars_per_pixel */
"32 32 13 1",
/* colors */
"` c #000000",
"a c #FFFFBE",
"b c #BEBE00",
"c c #595959",
"d c #80807F",
"e c #C0C0C0",
"f c #A0A0A0",
"g c #FFFFFF",
"h c #FFFF00",
"i c #003C3C",
"j c #3C3C00",
"k c #3C003C",
"l c #003C00",
/* pixels */
"gggggggggggggggggggggggggggggggg",
"gggggggggggggggggggggggggggggggg",
"gggggggggggggggggggggggggggggggg",
"gggggggggggggggggggggggggggggggg",
"ggggggggggggg`gggg```ggggggggggg",
"gggggggggggg`a``g`gag``ggggggggg",
"ggggggggggg`aaaa`gaggag``ggggggg",
"gggggggggg`ahaaffg``aagag``ggggg",
"ggggggggg`ahaae`fc`fggaagaa``ggg",
"gggggggg`ahahe`dd`fggaggagggg``g",
"ggggggg`hh````df`dgge````agaggg`",
"gggggg`hh````cf`cgggf`````aggg`g",
"ggggg`hh````jd`cggggd``````ga`gg",
"gggg`hbh````fc`agggak``````g`ggg",
"ggg`bbhh``kfd`fggggf````````gggg",
"gg`bhhbb`lfgecceggai```````g``gg",
"g`bhbbhh``ccfeccggd````````gag`g",
"`bbbbhbb`````kfcegi````````gggg`",
"`dbbbbbb``````jdff`````````gag`d",
"g`ldbbbb```````kfc`````````aa`dg",
"ggg``dbb```````cd``````````a`fgg",
"ggggg``d```````dc```````````fggg",
"ggggggg`h`````cc```````````dgggg",
"gggggg`hhh````````````````fggggg",
"ggggg`hhhhhhhhhhaahhaaha`fgggggg",
"ggggg`dhhhhhhhhahhaahha`fggggggg",
"gggggg``dhhhhhhhhahhaa`dgggggggg",
"gggggggg``dhhhhhhhhah`dggggggggg",
"gggggggggg``fhhhhhhh`dgggggggggg",
"gggggggggggg``dhhhh`dggggggggggg",
"gggggggggggggg``dd`fgggggggggggg",
"gggggggggggggggg``fggggggggggggg"
};
