/* XPM */
/* Drawn  by Nico Shirwing for the K Desktop Environment */
/* See http://www.kde.org */
static const char*ksnake[]={
"32 32 8 1",
"# c #000000",
"b c #ffffff",
"c c #008080",
"f c #c00000",
"a c #00c0c0",
"e c #ff0000",
"d c #00ffff",
". c None",
"......####.####.................",
".....#aaaa#aaaa#................",
"....#############...............",
"....#b####b###bb#...............",
"....#bb#b#bb#bbb###.............",
"....##bbb##bbbb#aac#............",
"...#da###aa####aaaac#...........",
"..#daaaaaaaaaaaaaaac#...........",
".#daaaaaaaaaaaaa#aac#...........",
"#daa#aa#aaaaccc#aaac#...........",
"#dcaaaaaaacc####aaac#..........#",
".##ccccccc##caa#aac#..........##",
"...#######caaaaaaac#.........#c#",
"...#ef#..#daaaaaac#.........#a#.",
"..#ef#...#daaaaaac#........#dc#.",
"..#ef#...#daaaaac#........#dc#..",
"..###...#daaaaaac#.......#dac#..",
"..#.#...#daaaaac#.......#dac#...",
".......#daaaaaac#......#daac#...",
".......#daaaaac#......#daac#....",
"......#daaaaaac#......#daac#....",
"......#daaaaac#.......#daaac#...",
".....#daaaaaac#........#daaac#..",
"....#daaaaaac#..........#daaac#.",
"...#daaaaaaac#..........#daaac#.",
"...#daaaaaac##############daaac#",
"..#daaaaaaac#ddddddddddddddaaac#",
"..#daaaaaaaaaaaaaaaaaaaaaaaaaac#",
"..#caaaaaaaaaaaaaaaaaaaaaaaaaac#",
"...#ccaaaaaaaaaaaaaaaaaaaaaacc#.",
"....##cccccccccccccccccccccc##..",
"......######################...."};

