/* XPM */
static char *magick[] = {
/* columns rows colors chars-per-pixel */
"32 32 16 1",
"  c Gray0",
". c #800000",
"X c #008000",
"o c #808000",
"O c #000080",
"+ c #800080",
"@ c #008080",
"# c #c0c0c0",
"$ c #808080",
"% c Red",
"& c Green",
"* c Yellow",
"= c Blue",
"- c Magenta",
"; c Cyan",
": c Gray100",
/* pixels */
"#######  #   ###################",
"###### oo ooo ##################",
"#####       oo #################",
"##### ** *** o #################",
"##### *= *== o #################",
"##### *= *== o #################",
"##### ** *** o  ################",
"####    o   ooo    #############",
"##  ooooooooooo ooo  ###########",
"# ooooooooooooo& oooo ##########",
" ooooooooooo&o&&& oooo #########",
" o oo oooo&o&&&&& oooo #########",
" ooooooo&o&&  &&& ooooo ########",
" &&o&o&o&&&  &o& &ooooo ########",
" &&&&&&&&   o&& &&&oooo ########",
"# &o&o&o   &o&  oo&oooo ########",
"##   %%   o&& # &&&oooo ########",
"##  %%  o&&& ## o&oooo #########",
"## %%&o&&&  ## &&ooooo #########",
"##%%&&&&  ## oo&ooooo ##########",
"#%%     ### &&&ooooo ###########",
"%#%###### oo&&ooooo ########### ",
"##%####  &&&oooooo ###########  ",
"###### ooo&oooooo    ###   ## o ",
"###### &&&oooooo oooo # ooo  oo ",
"##### &&&&ooooo oooooo oooooooo ",
"##### ooo&oooooooooooooooooooo #",
"##### &&&&ooooooooooooooo  && ##",
"##### &&&&&ooooo&ooooooo ##  ###",
"###### ooo&&&&&  &&&&&  ########",
"####### &&&o&  ##     ##########",
"########     ###################"
};
