/* XPM */
static const char *serverspam[] = {
/* columns rows colors chars-per-pixel */
"32 32 188 2",
"   c #364878",
".  c #6B757F",
"X  c #787A76",
"o  c #9F1918",
"O  c #A10000",
"+  c #A30000",
"@  c #A40000",
"#  c #A50000",
"$  c #A40100",
"%  c #A40101",
"&  c #A60000",
"*  c #A70000",
"=  c #A50202",
"-  c #A10B0B",
";  c #B23130",
":  c #CC0000",
">  c #CD0404",
",  c #CD0505",
"<  c #C83232",
"1  c #C93232",
"2  c #D63434",
"3  c #D73636",
"4  c #D83C3C",
"5  c #D94040",
"6  c #DF6464",
"7  c #E06666",
"8  c #7F817C",
"9  c #82847F",
"0  c #3F5583",
"q  c #445C8A",
"w  c #47608C",
"e  c #47608D",
"r  c #49618D",
"t  c #496390",
"y  c #4A6390",
"u  c #4C6692",
"i  c #4C6693",
"p  c #4C6793",
"a  c #4E6793",
"s  c #4F6995",
"d  c #4E6A95",
"f  c #4E6996",
"g  c #4E6A96",
"h  c #4F6A96",
"j  c #516793",
"k  c #506B95",
"l  c #566B95",
"z  c #5A6E96",
"x  c #516D98",
"c  c #506D99",
"v  c #516D99",
"b  c #516E99",
"n  c #57729B",
"m  c #5F779E",
"M  c #68799E",
"N  c #737F9D",
"B  c #6B7DA1",
"V  c #6C7DA0",
"C  c #6E7EA1",
"Z  c #6C7EA2",
"A  c #6F80A2",
"S  c #6E80A3",
"D  c #6F80A3",
"F  c #6E81A4",
"G  c #7081A3",
"H  c #7181A4",
"J  c #7081A5",
"K  c #7182A4",
"L  c #7082A5",
"P  c #7182A5",
"I  c #7283A4",
"U  c #7082A6",
"Y  c #7283A6",
"T  c #7084A6",
"R  c #7284A6",
"E  c #7285A6",
"W  c #7285A7",
"Q  c #7386A7",
"!  c #7484A5",
"~  c #7584A6",
"^  c #7485A7",
"/  c #7585A7",
"(  c #7685A7",
")  c #7586A7",
"_  c #7085A8",
"`  c #7285A8",
"'  c #7386A8",
"]  c #7387A9",
"[  c #7387AA",
"{  c #7586A8",
"}  c #7487A8",
"|  c #7587A9",
" . c #7688A9",
".. c #7588AA",
"X. c #7488AB",
"o. c #7589AB",
"O. c #7688AA",
"+. c #748AAC",
"@. c #758AAC",
"#. c #768BAC",
"$. c #778BAE",
"%. c #838580",
"&. c #868883",
"*. c #878984",
"=. c #888A85",
"-. c #898C86",
";. c #969695",
":. c #A2A2A2",
">. c #A4A4A3",
",. c #A4A5A3",
"<. c #A9A9A8",
"1. c #A9A9A9",
"2. c #A9AAA9",
"3. c #AAAAA9",
"4. c #ACACAB",
"5. c #ADADAC",
"6. c #B0B1AF",
"7. c #B6B7B3",
"8. c #BABDB7",
"9. c #BCBDB9",
"0. c #BCBEB9",
"q. c #BDBDBB",
"w. c #E98F8F",
"e. c #D2BFBD",
"r. c #C0C0BF",
"t. c #C2C4BF",
"y. c #C0C2C2",
"u. c #C3C4C0",
"i. c #C6C7C4",
"p. c #C6C7C5",
"a. c gray78",
"s. c #C7C8C6",
"d. c #C9CCC7",
"f. c #CBCBCA",
"g. c #CBCCC8",
"h. c #CCCCCA",
"j. c #C8CCCD",
"k. c #CDCDCC",
"l. c #D2D3D0",
"z. c #D2D4D1",
"x. c #D3D4D1",
"c. c #D3D6D0",
"v. c #D4D4D3",
"b. c #D4D5D3",
"n. c #D6D6D5",
"m. c #D6D8D5",
"M. c #D7D8D6",
"N. c #D5D7DA",
"B. c #D9DAD8",
"V. c #DADBD9",
"C. c #DBDBD9",
"Z. c #DADDD8",
"A. c #DCDDDB",
"S. c #DCDEDB",
"D. c #DDDDDC",
"F. c #DFDFDC",
"G. c #DEDEDD",
"H. c #DEDFDD",
"J. c #DDE0DB",
"K. c #DFE0DE",
"L. c #DFE1DE",
"P. c #DFE0DF",
"I. c #E0E1DE",
"U. c #E0E1DF",
"Y. c #E1E1DF",
"T. c #E0E3DE",
"R. c gray88",
"E. c #E1E1E0",
"W. c #E1E3E0",
"Q. c #E1E2E1",
"!. c #E2E3E1",
"~. c #E2E3E2",
"^. c #E3E3E2",
"/. c #E3E4E1",
"(. c #E3E5E1",
"). c #E3E4E2",
"_. c #E4E4E2",
"`. c #E4E5E2",
"'. c #E5E5E2",
"]. c #E5E6E3",
"[. c #E5E6E4",
"{. c #E5E7E4",
"}. c #E5E7E5",
"|. c #E6E7E4",
" X c #E6E8E5",
".X c #EDEEED",
"XX c gray100",
"oX c None",
/* pixels */
"oXoXoXoXoXoXoXoXoXoXoXoXoXoXoXoXoXoXoXoXoXoXoXoXoXoXoXoXoXoXoXoX",
"oXoXoXoXoXoXoXoXoXoXoXoX9 9 9 9 9 9 9 9 9 9 9 9 9 9 9 9 X oXoXoX",
"oXoXoXoXoXoXoXoXoXoXoX9 _.l.l.l.l.l.l.l.l.l.l.l.l.l.l.R.9 oXoXoX",
"oXoXoXoXoXoXoXoXoXoXoX9 D.                          Z.b.9 oXoXoX",
"oXoXoXoXoXoXoXoXoXoXoX9 G.  ( ~ ! I H G A C V V M   t.p.9 oXoXoX",
"oXoXoXoXoXoXoXoXoXoXoX9 P.  ) / ^ Y P K D S Z B z   (.n.9 oXoXoX",
"oXoXoXoXoXoXoXoXoXoXoX9 G.   .{ Q E R L J F l r q   t.i.9 oXoXoX",
"oXoXoXoXoXoXoXoXoXoXoX9 H.  O.| } ' W T U j e e w   (.m.9 oXoXoX",
"oXoXoXoXoXoXoXoXoXoXoX9 K.  o...] ] ` _ a y t y t   0.s.9 oXoXoX",
"oXoXoX9 9 9 9 9 9 9 9 9 9 9 9 9 9 9 9 . p u u p i   (.B.9 oXoXoX",
"oXoX9 _.l.l.l.l.l.l.l.l.l.l.l.l.l.l.N.9 g s g f h   (.V.9 oXoXoX",
"oXoX9 D.                        0 Z.j.9 x v b x c   (.S.9 oXoXoX",
"oXoX9 G.  ( ~ ! I H G A C V V M   t.y.9             J.F.9 oXoXoX",
"oXoX9 P.  ) / ^ Y P K D S Z B z   (.v.9 8.J.T.T.T.T.c.I.9 oXoXoX",
"oXoX9 G.   .{ Q E R L J F l r q   t.i.9 '.`.`.).^.~.~.d.9 oXoXoX",
"oXoX9 H.  O.| } ' W T U j e e w   (.z.9 -.-.-.-.-.-.-.%.oXoXoXoX",
"oXoX9 K.  o...] ] ` _ a y t y t   0.s.9 g.u.9.7.8 9 %.&.*.*.oXoX",
"oXoX9 U.  #.@.X.[ m k p u u p i   (.M.9 =.=.=.=.=.=.=.oXoXoX*.oX",
"oXoX9 W.  $.#.+.n h d g s g f h   (.e.o = @ @ @ @ @ @ @ @ $ - oX",
"oXoX9 !.  b v x v v v x v b x c   (.; < 6 7 7 7 7 7 7 7 7 6 1 + ",
"oXoX9 [.                        N J.= 6 , : : : : : : : : , 6 # ",
"oXoX9 |.c.(.(.(.T.8.8.8.J.T.T.T.T.c.@ 7 : > 4 : : : : 5 > : 7 @ ",
"oXoX9 C. X}.{.{.[.[.].'.`.`.).^.~.~.@ 7 : 3 XXw.: : w.XX2 : 7 @ ",
"oXoXoX9 9 9 9 9 9 9 9 -.-.-.-.-.-.-.@ 7 : : w.XXw.w.XXw.: : 7 @ ",
"oXoXoXoXoX9 u.x.A.A.x.g.u.9.7.8 9 %.@ 7 : : : w.XXXXw.: : : 7 @ ",
"oXoXoXoX=.=.=.=.=.=.=.=.=.=.=.=.=.=.@ 7 : : : w.XXXXw.: : : 7 @ ",
"oXoXoX=.:.6.h.4.4.4.4.4.4.5.:.a.r.;.@ 7 : : w.XXw.w.XXw.: : 7 @ ",
"oXoX=.>.s.q.1.2.2.3.3.3.3.f.<.<.k.,.@ 7 : 2 XXw.: : w.XX3 : 7 @ ",
"oX=..XE./.Y.Y.U.Y.Y.Y.Y.Y.~.L.L.Q.[.@ 7 : > 5 : : : : 4 > : 7 @ ",
"oX&.=.=.=.=.=.=.=.=.=.=.=.=.=.=.=.=.% 6 , : : : : : : : : , 6 # ",
"oXoXoXoXoXoXoXoXoXoXoXoXoXoXoXoXoXoXO 1 6 7 7 7 7 7 7 7 7 6 1 * ",
"oXoXoXoXoXoXoXoXoXoXoXoXoXoXoXoXoXoXoX& # @ @ @ @ @ @ @ @ # & oX"
};
