/* XPM */
static char *spam_xpm[] = {
/* columns rows colors chars-per-pixel */
"32 32 26 1",
"  c #fcfce8e8f5f5",
". c #fffff8f8ffff",
"X c #f7f7ffffffff",
"o c #f7f7f7f7f6f6",
"O c #ececc6c6b7b7",
"+ c #eeeecfcfc4c4",
"@ c #d8d898988484",
"# c #e2e2b0b0a0a0",
"$ c #e8e8bbbbacac",
"% c #c5c57e7e6969",
"& c #d1d18b8b7676",
"* c #dddda4a49393",
"= c #f2f2d9d9d2d2",
"- c #bdbd71715e5e",
"; c #f6f6e9e9e6e6",
": c #b5b562625252",
"> c #949434342a2a",
", c #e2e2babab9b9",
"< c #9b9b96969696",
"1 c #7d7d7a7a7a7a",
"2 c #aeaeacacacac",
"3 c None",
"4 c Gray99",
"5 c #efefefefefef",
"6 c #e4e4e4e4e4e4",
"7 c #d5d5d5d5d5d5",
/* pixels */
"33333333333333333333333333333333",
"33333333333333333333333333333333",
"33333333333333333333333333333333",
"33333333333333333333333333333333",
"33333o=443333333333;===;4*=43333",
"333346-,;=43oo==+++OO+OO+O364333",
"333346:%%#=*$O+OOOOOOOOOOO:85333",
"333335-:+=O+#@+$$$$$O$$$$$$#+333",
"3333348>=;==:#$##*##$#######*=43",
"333333#O++O,:&&*@@@###**@%%-:%73",
"333333#$,O$&:%&@&&&@@@&%-%%-:%83",
"33333o$#%*@&-#@&--:-:--%&%%--%83",
"33334#$*1&&&%%@-:-::--%%&%%%:%83",
"335===,*$#*@&&%-:-%-%--%%%-%:%83",
"33,%+,@****@%&&-----:---&%%-:%83",
"337:@@@@***@@&%-:------:@%%::<83",
"336<#*****###*&%-%%%%--%%&&-%273",
"3358:&@**#####*%:%%&%--&&&@@*<73",
"333o8<1<$*###*@@%@*##&111&&@#<63",
"3333578211@#&&&&@#$$*11<<&&@#<63",
"3333334o672@-:<*##$*1865o8&&&253",
"33333333347>:>1@*#$2254337>:-8o3",
"333333333358<28$*$*<7333358<2643",
"333333333346766##$<8533334576o33",
"333333333333336%@1<5333333333333",
"3333333333333362118o333333333333",
"33333333333333o68753333333333333",
"3333333333333334o433333333333333",
"33333333333333333333333333333333",
"33333333333333333333333333333333",
"33333333333333333333333333333333",
"33333333333333333333333333333333"
};
