/* XPM */
static char *spam_xpm[] = {
/* columns rows colors chars-per-pixel */
"32 32 256 2",
"   c #fcfce8e8f5f5",
".  c #fffff8f8ffff",
"X  c #f7f7ffffffff",
"o  c #f7f7f7f7f6f6",
"O  c #ececc6c6b7b7",
"+  c #eeeecfcfc4c4",
"@  c #d8d898988484",
"#  c #e2e2b0b0a0a0",
"$  c #e8e8bbbbacac",
"%  c #c5c57e7e6969",
"&  c #d1d18b8b7676",
"*  c #dddda4a49393",
"=  c #f2f2d9d9d2d2",
"-  c #bdbd71715e5e",
";  c #f6f6e9e9e6e6",
":  c #b5b562625252",
">  c #949434342a2a",
",  c #e2e2babab9b9",
"<  c #9b9b96969696",
"1  c #7d7d7a7a7a7a",
"2  c #aeaeacacacac",
"3  c #c0c0c0c0c0c0",
"4  c Gray99",
"5  c #efefefefefef",
"6  c #e4e4e4e4e4e4",
"7  c #d5d5d5d5d5d5",
"8  c #c3c3c3c3c3c3",
"9  c Gray0",
"0  c Gray0",
"q  c Gray0",
"w  c Gray0",
"e  c Gray0",
"r  c Gray0",
"t  c Gray0",
"y  c Gray0",
"u  c Gray0",
"i  c Gray0",
"p  c Gray0",
"a  c Gray0",
"s  c Gray0",
"d  c Gray0",
"f  c Gray0",
"g  c Gray0",
"h  c Gray0",
"j  c Gray0",
"k  c Gray0",
"l  c Gray0",
"z  c Gray0",
"x  c Gray0",
"c  c Gray0",
"v  c Gray0",
"b  c Gray0",
"n  c Gray0",
"m  c Gray0",
"M  c Gray0",
"N  c Gray0",
"B  c Gray0",
"V  c Gray0",
"C  c Gray0",
"Z  c Gray0",
"A  c Gray0",
"S  c Gray0",
"D  c Gray0",
"F  c Gray0",
"G  c Gray0",
"H  c Gray0",
"J  c Gray0",
"K  c Gray0",
"L  c Gray0",
"P  c Gray0",
"I  c Gray0",
"U  c Gray0",
"Y  c Gray0",
"T  c Gray0",
"R  c Gray0",
"E  c Gray0",
"W  c Gray0",
"Q  c Gray0",
"!  c Gray0",
"~  c Gray0",
"^  c Gray0",
"/  c Gray0",
"(  c Gray0",
")  c Gray0",
"_  c Gray0",
"`  c Gray0",
"'  c Gray0",
"]  c Gray0",
"[  c Gray0",
"{  c Gray0",
"}  c Gray0",
"|  c Gray0",
" . c Gray0",
".. c Gray0",
"X. c Gray0",
"o. c Gray0",
"O. c Gray0",
"+. c Gray0",
"@. c Gray0",
"#. c Gray0",
"$. c Gray0",
"%. c Gray0",
"&. c Gray0",
"*. c Gray0",
"=. c Gray0",
"-. c Gray0",
";. c Gray0",
":. c Gray0",
">. c Gray0",
",. c Gray0",
"<. c Gray0",
"1. c Gray0",
"2. c Gray0",
"3. c Gray0",
"4. c Gray0",
"5. c Gray0",
"6. c Gray0",
"7. c Gray0",
"8. c Gray0",
"9. c Gray0",
"0. c Gray0",
"q. c Gray0",
"w. c Gray0",
"e. c Gray0",
"r. c Gray0",
"t. c Gray0",
"y. c Gray0",
"u. c Gray0",
"i. c Gray0",
"p. c Gray0",
"a. c Gray0",
"s. c Gray0",
"d. c Gray0",
"f. c Gray0",
"g. c Gray0",
"h. c Gray0",
"j. c Gray0",
"k. c Gray0",
"l. c Gray0",
"z. c Gray0",
"x. c Gray0",
"c. c Gray0",
"v. c Gray0",
"b. c Gray0",
"n. c Gray0",
"m. c Gray0",
"M. c Gray0",
"N. c Gray0",
"B. c Gray0",
"V. c Gray0",
"C. c Gray0",
"Z. c Gray0",
"A. c Gray0",
"S. c Gray0",
"D. c Gray0",
"F. c Gray0",
"G. c Gray0",
"H. c Gray0",
"J. c Gray0",
"K. c Gray0",
"L. c Gray0",
"P. c Gray0",
"I. c Gray0",
"U. c Gray0",
"Y. c Gray0",
"T. c Gray0",
"R. c Gray0",
"E. c Gray0",
"W. c Gray0",
"Q. c Gray0",
"!. c Gray0",
"~. c Gray0",
"^. c Gray0",
"/. c Gray0",
"(. c Gray0",
"). c Gray0",
"_. c Gray0",
"`. c Gray0",
"'. c Gray0",
"]. c Gray0",
"[. c Gray0",
"{. c Gray0",
"}. c Gray0",
"|. c Gray0",
" X c Gray0",
".X c Gray0",
"XX c Gray0",
"oX c Gray0",
"OX c Gray0",
"+X c Gray0",
"@X c Gray0",
"#X c Gray0",
"$X c Gray0",
"%X c Gray0",
"&X c Gray0",
"*X c Gray0",
"=X c Gray0",
"-X c Gray0",
";X c Gray0",
":X c Gray0",
">X c Gray0",
",X c Gray0",
"<X c Gray0",
"1X c Gray0",
"2X c Gray0",
"3X c Gray0",
"4X c Gray0",
"5X c Gray0",
"6X c Gray0",
"7X c Gray0",
"8X c Gray0",
"9X c Gray0",
"0X c Gray0",
"qX c Gray0",
"wX c Gray0",
"eX c Gray0",
"rX c Gray0",
"tX c Gray0",
"yX c Gray0",
"uX c Gray0",
"iX c Gray0",
"pX c Gray0",
"aX c Gray0",
"sX c Gray0",
"dX c Gray0",
"fX c Gray0",
"gX c Gray0",
"hX c Gray0",
"jX c Gray0",
"kX c Gray0",
"lX c Gray0",
"zX c Gray0",
"xX c Gray0",
"cX c Gray0",
"vX c Gray0",
"bX c Gray0",
"nX c Gray0",
"mX c Gray0",
"MX c Gray0",
"NX c Gray0",
"BX c Gray0",
"VX c Gray0",
"CX c Gray0",
"ZX c Gray0",
"AX c Gray0",
"SX c Gray0",
"DX c Gray0",
"FX c Gray0",
"GX c Gray0",
"HX c Gray0",
"JX c Gray0",
"KX c Gray0",
"LX c Gray0",
"PX c Gray0",
"IX c Gray0",
"UX c Gray0",
/* pixels */
"8 8 8 8 8 8 8 8 8 8 8 8 8 8 8 8 8 8 8 8 8 8 8 8 8 8 8 8 8 8 8 8 ",
"8 8 8 8 8 8 8 8 8 8 8 8 8 8 8 8 8 8 8 8 8 8 8 8 8 8 8 8 8 8 8 8 ",
"8 8 8 8 8 8 8 8 8 8 8 8 8 8 8 8 8 8 8 8 8 8 8 8 8 8 8 8 8 8 8 8 ",
"3 3 3 3 3 3 3 3 3 3 3 3 3 3 3 3 3 3 3 3 3 3 3 3 3 3 3 3 3 3 3 3 ",
"3 3 3 3 3 o = 4 4 3 3 3 3 3 3 3 3 3 3 ; = = = ; 4 * = 4 3 3 3 3 ",
"3 3 3 3 4 6 - , ; = 4 3 o o = = + + + O O + O O + O 3 6 4 3 3 3 ",
"3 3 3 3 4 6 : % % # = * $ O + O O O O O O O O O O O : 8 5 3 3 3 ",
"3 3 3 3 3 5 - : + = O + # @ + $ $ $ $ $ O $ $ $ $ $ $ # + 3 3 3 ",
"3 3 3 3 3 4 8 > = ; = = : # $ # # * # # $ # # # # # # # * = 4 3 ",
"3 3 3 3 3 3 # O + + O , : & & * @ @ @ # # # * * @ % % - : % 7 3 ",
"3 3 3 3 3 3 # $ , O $ & : % & @ & & & @ @ @ & % - % % - : % 8 3 ",
"3 3 3 3 3 o $ # % * @ & - # @ & - - : - : - - % & % % - - % 8 3 ",
"3 3 3 3 4 # $ * 1 & & & % % @ - : - : : - - % % & % % % : % 8 3 ",
"3 3 5 = = = , * $ # * @ & & % - : - % - % - - % % % - % : % 8 3 ",
"3 3 , % + , @ * * * * @ % & & - - - - - : - - - & % % - : % 8 3 ",
"3 3 7 : @ @ @ @ * * * @ @ & % - : - - - - - - : @ % % : : < 8 3 ",
"3 3 6 < # * * * * * # # # * & % - % % % % - - % % & & - % 2 7 3 ",
"3 3 5 8 : & @ * * # # # # # * % : % % & % - - & & & @ @ * < 7 3 ",
"3 3 3 o 8 < 1 < $ * # # # * @ @ % @ * # # & 1 1 1 & & @ # < 6 3 ",
"3 3 3 3 5 7 8 2 1 1 @ # & & & & @ # $ $ * 1 1 < < & & @ # < 6 3 ",
"3 3 3 3 3 3 4 o 6 7 2 @ - : < * # # $ * 1 8 6 5 o 8 & & & 2 5 3 ",
"3 3 3 3 3 3 3 3 3 4 7 > : > 1 @ * # $ 2 2 5 4 3 3 7 > : - 8 o 3 ",
"3 3 3 3 3 3 3 3 3 3 5 8 < 2 8 $ * $ * < 7 3 3 3 3 5 8 < 2 6 4 3 ",
"3 3 3 3 3 3 3 3 3 3 4 6 7 6 6 # # $ < 8 5 3 3 3 3 4 5 7 6 o 3 3 ",
"3 3 3 3 3 3 3 3 3 3 3 3 3 3 6 % @ 1 < 5 3 3 3 3 3 3 3 3 3 3 3 3 ",
"3 3 3 3 3 3 3 3 3 3 3 3 3 3 6 2 1 1 8 o 3 3 3 3 3 3 3 3 3 3 3 3 ",
"3 3 3 3 3 3 3 3 3 3 3 3 3 3 o 6 8 7 5 3 3 3 3 3 3 3 3 3 3 3 3 3 ",
"3 3 3 3 3 3 3 3 3 3 3 3 3 3 3 4 o 4 3 3 3 3 3 3 3 3 3 3 3 3 3 3 ",
"8 8 8 8 8 8 8 8 8 8 8 8 8 8 8 8 8 8 8 8 8 8 8 8 8 8 8 8 8 8 8 8 ",
"8 8 8 8 8 8 8 8 8 8 8 8 8 8 8 8 8 8 8 8 8 8 8 8 8 8 8 8 8 8 8 8 ",
"8 8 8 8 8 8 8 8 8 8 8 8 8 8 8 8 8 8 8 8 8 8 8 8 8 8 8 8 8 8 8 8 ",
"8 8 8 8 8 8 8 8 8 8 8 8 8 8 8 8 8 8 8 8 8 8 8 8 8 8 8 8 8 8 8 8 "
};
