/* XPM */
static const char *ssllogo_xpm[] = {
/* columns rows colors chars-per-pixel */
"102 47 64 1",
"  c Gray0",
". c Gray100",
"X c Gray60",
"o c Gray80",
"O c #999966669999",
"+ c #999999996666",
"@ c #999966666666",
"# c #999966663333",
"$ c #cccc99996666",
"% c #cccc99999999",
"& c #ccccccccffff",
"* c #99999999cccc",
"= c #cccc9999cccc",
"- c #666699999999",
"; c #ffffccccffff",
": c #99996666cccc",
"> c #66669999cccc",
", c #9999cccccccc",
"< c #666666669999",
"1 c #9999cccc9999",
"2 c #cccccccc9999",
"3 c #cccc66669999",
"4 c #cccccccc6666",
"5 c Gray40",
"6 c #66666666cccc",
"7 c #cccc9999ffff",
"8 c #ccccffffffff",
"9 c #ffffcccccccc",
"0 c #ffffffffcccc",
"q c #ccccffffcccc",
"w c #ffffcccc9999",
"e c #ffff99999999",
"r c #99999999ffff",
"t c #cccc6666cccc",
"y c #ffffffff9999",
"u c #ffff9999ffff",
"i c #9999ccccffff",
"p c #9999ffffffff",
"a c #9999ffffcccc",
"s c #000033330000",
"d c #666600000000",
"f c #666633330000",
"g c #666699996666",
"h c #333366666666",
"j c #666666663333",
"k c #666633336666",
"l c #6666cccc9999",
"z c #999933339999",
"x c #000000003333",
"c c #666633333333",
"v c Gray20",
"b c #999933333333",
"n c #333300003333",
"m c #333333330000",
"M c #666633339999",
"N c #999999993333",
"B c #999933336666",
"V c #9999cccc6666",
"C c #333333336666",
"Z c #333300000000",
"A c Gray0",
"S c Gray0",
"D c Gray0",
"F c Gray0",
/* pixels */
"                                                                                                      ",
" .................................................................................................... ",
" ....X........X..X.........XXo..........X............X..X..........XXo...........XXoX..........XXo... ",
" ....X........oX.X........oX.XX.........X............X..X..........X..X..........X............X...... ",
" ....X........XXoX........X.............X............X..X..........X..X..........XoX...........XX.... ",
" ....X........X.XX........XX.XX.........X............X..X..........X..X..........X...............X... ",
" ....X........X..X.........XoX..........XoXX..........Xo...........XoX...........XXXX.........XXo.... ",
" .................................................................................................... ",
"                                                                                                      ",
" ++@+@+@+@+@+@+@+@+@++@++@+@+@+X+O+X+X+O+@+O+@X@X@X+OX+XOXXXXXXXXXXXX=X*X*X*X*X*XX*XX*XO*X<XO*<X*O*X* ",
" +@+@+@@+@@@#+@@+@X+O+X@X@X+X@X@+X@X@X@+O+@+O+@X@X@X+OX@X@XOX%*%=X=X*X%*%*X*%**=*X:XO-*XO**-OX*<X>O>O ",
" @$@+@@N@@#N@@@+@++3+@$@++@X@X+@X@X$X+@X@X@Og@X@5+O+OXOXXX%o.;q;..oo%*X*XX=o&..o..&o**OX&o&o&o6X6X:X* ",
" +@+@#@@N@@5N@#@+@++O+O+O$X+3+@X+X@XOX+@X@gO+O+XO+O+O+X@Xo.X@hnvvXX.8=X*Xo.oXkvvv5Xo&o**oXXXX&XX:-*O> ",
" @+@@N@+X2o2o%XX+@@@+@+++X+O+@X+3+OX+X@X@+O+O+O5+OgO+OXX9ov         X.o=o.5         5o&oX    o*X6XO>X ",
" +@#@+o92X$+%X29%X+@@X@X@X@+X+O+XX+O+OX+O+@OgO+O@X@XO+Xoo            v.o;v            =8=    o*X6X:X: ",
" @@+%o2fZffcfmd#oo+@+@+@X$O+X@X+XO$XO+X+O+<+O+@X5X@-@XX;      vv      v.-     vvv      0*    &*:-O-:- ",
" +@X0@Zd+;oo92fZf%o@@+@+@+X@X@XO+XX+OX@XX@X@-@O+O+O+OXoX    5.;..X   v&.     o.&.ov   X;1    o*X:-*<* ",
" @+9+ZZ%q%+@+o=fZfo%+5@@@@@X@X@+X@XO+XO+O+OgO@+<+<@-@X;5    .o=X*.o 5.;o    X.=**o.5 o&o*    o,O-:-:X ",
" +%ofdj9X#@@@+o@mdjo+@XXXXX%oXXO+XXX=1=XXO+XX*XX%o*XXXo5    o.ooo=o.&ooX    5.&oo*=8;,X*=    &*O>OX<* ",
" +o+dm#o@@j@j@%2dff9ooo2ooo22o9XXO2;2%oooXooooooo%oo%X&+     +*oo&.&oX=o     vX=o&.&o*6=1    o**<X<*< ",
" %offdX2@#+@@gXofZfX%+bfo%fZdf2oXoo#mfZfoo%+fb.#Zfd@o%o*          5Xo8o&m         v5=.o**    o*<*<*<* ",
" %ofdm22@@5#5#@offZ#@fZf@fcfdmdo;2Zf9&#df%@mdf#cjffZ+o*.5            X;&o            vo8%    o*-O<O-O ",
" 2offdo%g#@@@@+o#fd+.+dm@0o.jdm#&fZ2o,ofZ@.@mdX0&%fZ#&X=.+            5.&ov            .*    &*O><*<> ",
" %ofdfo1@#@g#5+ocfZ@.+ZfoX+=offc2df&=o&fdj.@Zf.X=8fd#&XX%&.*5vv        8=o.o55v        Xo    o*<O<X<O ",
" Xofmd+=@5#@@@+offZ+;+dfoX5+ocdjXdfjcfffZj.#Zf.XXofZ#o*XXooo;&0&oX     oo*&o&&.;8Xv    Co    o*<-6<-6 ",
" X9cdf@o+j@@j@Xofdfoo+ZfoX@Oo#Z#+Zf+2%2%ooo@ff&*X&fdj&%*.&;oXX**o.X    X.&9&*X***.&    vo    o*X6XO*O ",
" +o%mdj9X@j@@52=fZ#o=+dfo@5XofZ%%Zd%8oo*%,;#Zf.X=ofm#o&.@ v.;o=*o.5    .ov o.&*=,;o    5o    &.&&&&&- ",
" X2ofdm%o+@5+X9#Zf%Xo$ZfoX5%odf.1dm#&XOX,=8@fc0*XofZ#.o     Xo..o5     5    ko...X     *o    5555555X ",
" @X9XfZfoo2%ooXdZ+oX=+df+;o8#Z2&ofdfX.o&o%.#Zf.o*ofdj..s              *5              v.*           5 ",
" X+%q%fZd+=o+fdm$oX@o+ZfZ#+ffooXo%mZdf#cf%1fZd+ooofZdX.;v            O..X            vo&X           5 ",
" X@XXo9X#dmdfj%ooX@5o$Zf#Zd@ooO@X&o#fff#%o@+++@%&o@++#%8;X         v,.**.ov         5.oo*           5 ",
" +X+@X%ooo2ooooX@@5@o$Zf&ooo2OgOXXoo&oo&oooo&&&oXoo&&&o=,;8oX5555Xo&;X*X*&.oXX555XX&.***oX*X*2*X*X*Xo ",
" %O+X@+@XXO+OX@@5@5@o+dfoXXO5X@O+OXXX*X*XX*XXXXX:XXXXXXXX*=o&.&..&o=*X*XO**o&&&&&.o**O<**oo*o*o*o***< ",
" XX+O+O+@@@@@@5@+5@5oXZfoX@5X@O+-OXOXOXXXOXOXOXOXX:X*O*O*OX*X**X****X*X:*-*O*X*XX*<*<X>O-:<<6<<<<<<<< ",
" X$X+O+Og@g@g@X5O+@X&$ZfooXO+O-O+O+OXXOXXX*XX*X*XXXX*XX-X*OX*X*X*X*X***X*O*-:X6X6OX6X6X6X<*<X<<<<<<<< ",
" +XOX@X+O+@X@O5+@5Xo$fZZ#%oX<XO+OXOXXOXXX:XXOX*OX:X:XO*O*O>X*O*X:X*X**X*:X**X:X>OX6X<*O>O>O-O<6O-O<<< ",
"                   o+$%X++;                                                                           ",
" .................. oooooo% ......................................................................... ",
"                                                                                                      ",
"                                                                                                      ",
"  ..  ... .   .... ..... ..   ... ...   .   ...  .  ..   .    ...  ..  ... .... .  . .  .   ...  .... ",
" .  . .  . . . .  .  .  .  . .    .  .  ..  .  . .  . . .    .    .  . .     .  .  . .  ..  .  . .    ",
" .    ....  .  ...   .  .  . . .. .... . .  ...  ....  .      ..  .  . ...   .  . .... . .  .... ...  ",
" .  . . .   .  .     .  .  . .  . . .  .... .    .  .  .        . .  . .     .   .. .  .... . .  .    ",
"  ..  .  .  .  .     .   ..   ... .  ..   . .    .  .  .     ...   ..  .     .   .  . .   . .  . .... ",
"                                                                                                      ",
"                                                                                                      "
};
