/* XPM */
static const char *magick[] = {
/* columns rows colors chars-per-pixel */
"32 32 77 1",
"  c Gray0",
". c #000000008080",
"X c #000000008b8b",
"o c #000000009494",
"O c #000000009c9c",
"+ c #000000009e9e",
"@ c #000000009f9f",
"# c #00000000a2a2",
"$ c #00000000aeae",
"% c #00000000b9b9",
"& c #00000000bfbf",
"* c #00000000d6d6",
"= c #00000000dcdc",
"- c #00000000dddd",
"; c #00000000dfdf",
": c Blue",
"> c #808000000000",
", c #8b8b00000000",
"< c #949400000000",
"1 c #979700000000",
"2 c #9c9c00000000",
"3 c #9e9e00000000",
"4 c #9f9f00000000",
"5 c #a2a200000000",
"6 c #aeae00000000",
"7 c #b9b900000000",
"8 c #bfbf00000000",
"9 c #d6d600000000",
"0 c #dcdc00000000",
"q c #dddd00000000",
"w c #dfdf00000000",
"e c Red",
"r c #a0a0a0a0a4a4",
"t c #a4a4a3a3a6a6",
"y c #a5a5a4a4a6a6",
"u c #a7a7a6a6a7a7",
"i c #a8a8a7a7a8a8",
"p c #a9a9a7a7a8a8",
"a c #aaaaa9a9a9a9",
"s c #ababa9a9a9a9",
"d c #ababaaaaaaaa",
"f c #acacaaaaaaaa",
"g c #afafacacabab",
"h c #b1b1aeaeacac",
"j c #b5b5b1b1aeae",
"k c #b5b5b2b2aeae",
"l c #b6b6b3b3afaf",
"z c #b7b7b3b3afaf",
"x c #b7b7b4b4b0b0",
"c c #babab5b5b0b0",
"v c #bdbdb8b8b2b2",
"b c #bebeb9b9b2b2",
"n c #c2c2bdbdb5b5",
"m c #c3c3bdbdb5b5",
"M c #c3c3bebeb6b6",
"N c #c4c4bebeb5b5",
"B c #cbcbc3c3b8b8",
"V c #cbcbc4c4b9b9",
"C c #ccccc5c5b9b9",
"Z c #cdcdc6c6baba",
"A c #cecec7c7bbbb",
"S c #cfcfc8c8bcbc",
"D c #d2d2c9c9bcbc",
"F c #d8d8cecebfbf",
"G c #e3e3e0e0b1b1",
"H c #dadad1d1c1c1",
"J c #dbdbd2d2c2c2",
"K c #e1e1d6d6c4c4",
"L c #e5e5d9d9c6c6",
"P c #e6e6dbdbc7c7",
"I c #e7e7dcdcc8c8",
"U c #f0f0e3e3cccc",
"Y c #f2f2e5e5cdcd",
"T c #f3f3e6e6cece",
"R c #fffff0f0d4d4",
"E c Gray100",
"W c None",
/* pixels */
"WWWWW rWWWWWWWWWWWWWWWWWWWW rWWW",
"WWWWW rWWWWWWWWWWWWWWWWWWWW rWWW",
"WWWW   rWWWWWWWWWWWWWWWWWWW rWWW",
"WWWW G rWWWWWWWWWWWWWWWWWWW rWWW",
"W         rWWWWWW     rWWWW rWWW",
" RTIJSMxdr rWWWW rrrrr rWWW rWWW",
" RYPHAnzsr rWWW rWWWWWW rWW rWWW",
" RYP;&@lsr rWWW rWWWWWW rWW rWWW",
" RY:-C+.sr rWWW rWWWWWW rWW rWWW",
" RY:=%O.ar rWW   rWWWWW rWW rWWW",
" UL*&No.pr rW RSr rWWWW rWW rWWW",
" KF$#bX.ur rW RAr rWWWW rWW rWWW",
" DBNvzhsyr rW RZr rWWWW rWW rWWW",
" mbcjhfitr rW RCr rWWW   r   rWW",
"r         rWW RVr rWWW G r G rWW",
"Wr G r G rWWW RVr rWW         rW",
"WW   r   rWWW UNr rW RTIJSMxdr r",
"WWr rWr rWWWW Kbr rW RYPHAnzsr r",
"WWW rWW rWWWW Dzr rW RYew84lsr r",
"WWW rWW rWWWW mhr rW RYeqC3>sr r",
"WWW rWW rWWWWr   rWW RYe072kar r",
"WWW rWW rWWWWWW rWWW UL98N<>pr r",
"WWW rWW rWWWWWW rWWW KF651,gur r",
"WWW rWW rWWWWWW rWWW DBNvzhsyr r",
"WWW rWWW rWWWW rWWWW mbcjhfitr r",
"WWW rWWWW     rWWWWWr         rW",
"WWW rWWWWWrrrrWWWWWWWrrr G rrrWW",
"WWW rWWWWWWWWWWWWWWWWWWW   rWWWW",
"WWW rWWWWWWWWWWWWWWWWWWWW rWWWWW",
"WWW rWWWWWWWWWWWWWWWWWWWW rWWWWW",
"WWW rWWWWWWWWWWWWWWWWWWWW rWWWWW",
"WWW rWWWWWWWWWWWWWWWWWWWW rWWWWW"
};
