/* XPM */
static char *magick[] = {
/* columns rows colors chars-per-pixel */
"24 23 250 2",
"   c Gray0",
".  c #070000",
"X  c #070707",
"o  c #0d0e04",
"O  c #090906",
"+  c #140000",
"@  c #141400",
"#  c #1b1b00",
"$  c #1d1d09",
"%  c #181818",
"&  c #191919",
"*  c #1b1b1a",
"=  c #250000",
"-  c #260000",
";  c #2a0000",
":  c #2b0000",
">  c #2b0200",
",  c #2c0000",
"<  c #2c0707",
"1  c #2a1b00",
"2  c #320909",
"3  c #3c1100",
"4  c #2a2a00",
"5  c #2b2b00",
"6  c #2a2d00",
"7  c #2c2c00",
"8  c #343400",
"9  c #3d3d00",
"0  c #27262c",
"q  c #2a2a2a",
"w  c Gray17",
"e  c #2a2929",
"r  c #2c2c2c",
"t  c #302f2f",
"y  c #393b2a",
"u  c #323232",
"i  c Gray20",
"p  c #313131",
"a  c #343434",
"s  c #3a3a3a",
"d  c Gray23",
"f  c #363c40",
"g  c #650000",
"h  c #7a0000",
"j  c #7a1414",
"k  c #595900",
"l  c #595e00",
"z  c #656500",
"x  c #646800",
"c  c #646c00",
"v  c #7b7b00",
"b  c #7e7e00",
"n  c Gray25",
"m  c #414141",
"M  c #414242",
"N  c #505050",
"B  c #515151",
"V  c #505555",
"C  c #55555e",
"Z  c #565d59",
"A  c #575760",
"S  c #585861",
"D  c #5c5c60",
"F  c #53597d",
"G  c #576161",
"H  c #5f6262",
"J  c #5e6767",
"K  c #606060",
"L  c #626263",
"P  c #606a6a",
"I  c #666868",
"U  c #666b6b",
"Y  c #7a6565",
"T  c #767676",
"R  c Gray46",
"E  c Gray47",
"W  c Gray48",
"Q  c #7b7b7b",
"!  c #0d0e80",
"~  c #1c1cff",
"^  c #1d1dff",
"/  c #3105d3",
"(  c #312bf8",
")  c #3334ff",
"_  c #505680",
"`  c #505684",
"'  c #4343ff",
"]  c #5757ff",
"[  c #6465ff",
"{  c #646cff",
"}  c #970000",
"|  c #972c2c",
" . c #a10065",
".. c #c50000",
"X. c #d20000",
"o. c #d30000",
"O. c #d40000",
"+. c #d50000",
"@. c #d60000",
"#. c #d40800",
"$. c #d60909",
"%. c #d80300",
"&. c #ed0012",
"*. c #fe0000",
"=. c Red",
"-. c #ff0200",
";. c #ff0707",
":. c #ff0f00",
">. c #f31e00",
",. c #ff160d",
"<. c #ff2700",
"1. c #ff2b00",
"2. c #ff2c00",
"3. c #ff3400",
"4. c #ff3f00",
"5. c #ff2525",
"6. c #fe2a2a",
"7. c #ff2828",
"8. c #da2448",
"9. c #ff4300",
"0. c #ff4700",
"q. c #ff4800",
"w. c #ff4c00",
"e. c #ff5400",
"r. c #ff5a00",
"t. c #f47123",
"y. c #f77a23",
"u. c #d35b5b",
"i. c #df5761",
"p. c #dc5469",
"a. c #e55d69",
"s. c #e85e64",
"d. c #e76061",
"f. c #ee6668",
"g. c #ef6c6c",
"h. c #ff6c64",
"j. c #f97776",
"k. c #b73785",
"l. c #fd7e80",
"z. c #808000",
"x. c #818100",
"c. c #828200",
"v. c #808300",
"b. c #858500",
"n. c #808800",
"m. c #848d00",
"M. c #888800",
"N. c #a2a200",
"B. c #afaf00",
"V. c #b7bb00",
"C. c #b1b31e",
"Z. c #81817a",
"A. c #c19600",
"S. c #d38300",
"D. c #ffa700",
"F. c #ffab00",
"G. c #ffaf00",
"H. c #f9bc13",
"J. c #d2d200",
"K. c #d3d400",
"L. c #d4d400",
"P. c #d6d600",
"I. c #d3da00",
"U. c #d9d900",
"Y. c #fbcc0d",
"T. c #ffd400",
"R. c #ffd700",
"E. c #fade00",
"W. c #fadf00",
"Q. c #ffdb00",
"!. c #e0e000",
"~. c #e1e100",
"^. c #e6e600",
"/. c #eded00",
"(. c #faed00",
"). c #ffef00",
"_. c #fdf000",
"`. c #f8f800",
"'. c #fbfc00",
"]. c #fefe00",
"[. c Yellow",
"{. c #fbfb0b",
"}. c #faf110",
"|. c #fcfe1f",
" X c #f2f429",
".X c #d7da7b",
"XX c #d9d175",
"oX c #e5ef4d",
"OX c #909090",
"+X c #939393",
"@X c Gray59",
"#X c #979797",
"$X c #959595",
"%X c #ae9d9d",
"&X c #bbbe9f",
"*X c #a0a0a0",
"=X c Gray63",
"-X c #a2a2a2",
";X c #a4a4a4",
":X c #a5a5a5",
">X c #a7a7a7",
",X c #a4a4aa",
"<X c #a6a8a4",
"1X c #b2b2b2",
"2X c Gray70",
"3X c #b1b1b1",
"4X c #b5b5b2",
"5X c #babab2",
"6X c #b9b9b1",
"7X c Gray72",
"8X c #b9b9b9",
"9X c #bbbbbb",
"0X c #bcbcbc",
"qX c #9696ff",
"wX c #aaaaff",
"eX c #b3b3ff",
"rX c #b7b7ff",
"tX c #bdbdff",
"yX c #ef9d9d",
"uX c #ff8381",
"iX c #dab5d9",
"pX c #ccce9a",
"aX c #ced397",
"sX c #d0d08f",
"dX c #cacca4",
"fX c #c0c0c0",
"gX c #c1c1c1",
"hX c Gray76",
"jX c #c3c3c3",
"kX c Gray77",
"lX c #c5c5c5",
"zX c #d3cfcf",
"xX c #d3d3d3",
"cX c Gray83",
"vX c #d4d7d7",
"bX c #dadadb",
"nX c #dadaff",
"mX c #dad9ff",
"MX c #dfdfff",
"NX c #f9c5c5",
"BX c #fed3d3",
"VX c #e0e0fe",
"CX c #e5e5ff",
"ZX c #ededff",
"AX c #f8f8fe",
"SX c #fbfbff",
"DX c #fffbfb",
"FX c #fefefe",
"GX c Gray100",
"HX c #fcfcff",
/* pixels */
"-XI . = } ;.5.| r r r r r r r r r e < , = . H lX",
">XU + g ..,.h.h.Z.Q W W W W W W W Y j h g + H lX",
"=XJ ; X.&.8.iXmXVXAXFXFXFXFXFXFXFXBX6.*.X.; G jX",
"=XJ : @. ./ ( ) ] MXGXGXGXGXGXGXGXBX7.=.+.; G kX",
"=XJ : O.k.{ [ [ [ CXGXGXGXGXGXGXGXGXuXh.u.u.V 2X",
"=XJ ; o.l.SXSXSXHXFXGXGXGXGXGXGXGXGXDXDXzXe M @X",
":XP ; o.uXGXGXGXGXGXGXGXGXGXGXGXGXGXGXGXvXw t R ",
"L f = o.j.bX,X#X,XbXNXyX%X%XqXqXqXwXZXGXcXq a Q ",
"O o 3 %.f.<Xy $ y <Xg.$.2 ! ^ ^ ^ ' mXGXxXq m $X",
"# l A.>.a.&XC.B.C.&Xs.o.- F rXrXeXtXAXGXcXq p T ",
"7 m.Q.2.p.dX|.[.|.dXa.O.; _ wXwXnXGXGXGXcXq i E ",
"5 n.T.1.i.pX X{. XpXd.+.: ! ~ ~ ~ GXGXGXxXq m $X",
"5 n.T.1.t.oX.XsX.XoXy.o.; ` wXwXnXGXGXGXbXw u E ",
"5 n.T.<.e.H.XXaXXXH.r.o.; Z 6X5X4X3X1X1X+X* i R ",
"5 n.R.3.:.4.Y.}.Y.4.:.#.> O & % & & % & % X N #X",
"5 v.).G.0.-.q.r.q.-.w.S.1 0 B s M N d M B n U #X",
"5 z.[.[.D.9.4.4.4.9.F.I.6 N =X=X+X*X*X+X*X*XOX;X",
"5 z.].'.(.W.W.E.W.W._.K.4 C 0X7X8X9X7X8X9X7X8X0X",
"5 b.^.z.x c c c c c V.L.5 S jXkXhXhXjXhXhXjXhXgX",
"7 M.~.k 8 8 8 8 8 8 N.P.5 A gXgXfXfXfXfXfXfXfXfX",
"5 x.`.!.U.U.U.U.U.U./.J.4 A gXgXfXfXfXfXfXfXfXfX",
"@ 9 v x.c.c.c.c.c.c.b z @ D gXgXfXfXfXfXfXfXfXfX",
"                          K gXgXfXfXfXfXfXfXfXfX"
};
