/* XPM */
static const char *tb_document[] = {
/* width height num_colors chars_per_pixel */
"    24    24       17            1",
/* colors */
". c #000000",
"# c #004000",
"a c #004040",
"b c #008000",
"c c #404000",
"d c #585858",
"e c #808080",
"f c #a0a0a4",
"g c none",
"h c #c0c000",
"i c #ff0000",
"j c #ff8000",
"k c #ffa858",
"l c #ffc0c0",
"m c #ffff00",
"n c #ffffc0",
"o c #ffffff",
/* pixels */
"gggggggggggggggggggggggg",
"gggggggggggggggggggggggg",
"gggggggggggggggggggggggg",
"gggggggggg.ggg..gggggggg",
"ggggggggg.o.g.oo..gggggg",
"gggggggggooo.oodoo.ggggg",
"ggggggg.ooo.oo.oomdoo.gg",
"gggggg.ooo.oo.iimmmdoo..",
"ggggggooo.oo.bimmm.ooooo",
"gggg.non.nodb.ooo.oooo.g",
"ggg.non.nono.ooooo..o.gg",
"gggnon.noooooolooooo.ggg",
"g.nnn.nnoocookjijoooooo.",
".mmn.nnnncoooooiijoooooo",
".emmcannnooojkjojlooooo.",
"ggg.emm#nhnooojonoooo.fg",
"gggg...noohhnoojnoooofgg",
"ggggg.nnhnoohnonhhnn.ggg",
"gggg.nnnnnhhnoohno.fgggg",
"gggg.ennnnnnhooonnfggggg",
"ggggg.ennnnnnhhnn#gggggg",
"gggggggg.fnnnnn#eggggggg",
"ggggggggg..ennnegggggggg",
"ggggggggggg.ee.ggggggggg"
};
