/* XPM */
static const char *magick[] = {
/* columns rows colors chars-per-pixel */
"24 24 220 2",
"   c Gray0",
".  c #020202",
"X  c #101010",
"o  c #111111",
"O  c Gray7",
"+  c #131313",
"@  c #202020",
"#  c #2c2c2d",
"$  c #2d2d2e",
"%  c #3b3b3a",
"&  c #3c3c3d",
"*  c #3e3e3f",
"=  c #3f3f3f",
"-  c #3e3e40",
";  c Gray25",
":  c Gray26",
">  c #434343",
",  c #444444",
"<  c #484848",
"1  c #4c4c4c",
"2  c #505050",
"3  c #5f5f60",
"4  c #606061",
"5  c Gray38",
"6  c #656566",
"7  c #686867",
"8  c #6b6b6c",
"9  c #6c6c6b",
"0  c #6d6d6d",
"q  c Gray43",
"w  c #6e6e6f",
"e  c #6f6f6e",
"r  c #6e6e71",
"t  c #70706f",
"y  c Gray44",
"u  c #707071",
"i  c Gray47",
"p  c #797979",
"a  c Gray48",
"s  c #7c7c7c",
"d  c #7c7c7f",
"f  c #7e7e7d",
"g  c Gray50",
"h  c #838383",
"j  c #87878a",
"k  c #8d8d8d",
"l  c #8e8e8e",
"z  c Gray56",
"x  c #8f8f90",
"c  c #8f8f92",
"v  c #909090",
"b  c #919190",
"n  c Gray57",
"m  c #929292",
"M  c Gray58",
"N  c #969695",
"B  c #979797",
"V  c #969698",
"C  c #97979c",
"Z  c Gray60",
"A  c #9a9a9a",
"S  c #99999e",
"D  c #9b9b9f",
"F  c Gray61",
"G  c #9d9d9d",
"H  c #9f9fa2",
"J  c #a0a0a0",
"K  c #a0a0a2",
"L  c #a1a1a5",
"P  c #a1a1a6",
"I  c #a5a5a5",
"U  c #a4a4a8",
"Y  c #a6a6a8",
"T  c #a7a7a9",
"R  c Gray66",
"E  c #a9a9a9",
"W  c #aaaaaa",
"Q  c Gray67",
"!  c #ababac",
"~  c #acacac",
"^  c Gray68",
"/  c #acacaf",
"(  c #adadae",
")  c #aeaeac",
"_  c #aeaeae",
"`  c #adadb0",
"'  c #afafb1",
"]  c #afafb2",
"[  c #b0b0b1",
"{  c #b0b0b2",
"}  c #b2b2b2",
"|  c #b1b1b4",
" . c #b2b2b7",
".. c Gray71",
"X. c #b4b4b6",
"o. c #b5b5b6",
"O. c #b6b6b6",
"+. c #b6b6b7",
"@. c #b7b7b6",
"#. c #b7b7b7",
"$. c #b4b4b9",
"%. c #b5b5b9",
"&. c #b7b7b9",
"*. c #b6b6ba",
"=. c #b6b6bb",
"-. c #b7b7ba",
";. c Gray72",
":. c #b9b9b9",
">. c #b8b8bb",
",. c #b8b8bc",
"<. c #b8b8bd",
"1. c #b9b9bc",
"2. c #bababc",
"3. c #bdbdbe",
"4. c #bebebe",
"5. c #bebebf",
"6. c Gray75",
"7. c #bcbcc1",
"8. c #c0c0c0",
"9. c #c0c0c1",
"0. c #c1c1c1",
"q. c #c2c2c1",
"w. c Gray76",
"e. c #c3c3c3",
"r. c #c1c1c4",
"t. c Gray77",
"y. c #c5c5c6",
"u. c #c5c5c7",
"i. c #c6c6c6",
"p. c #c6c6c7",
"a. c #c7c7c6",
"s. c Gray78",
"d. c #c6c6c8",
"f. c #c7c7ca",
"g. c #c8c8c7",
"h. c #c8c8c8",
"j. c Gray79",
"k. c #c8c8ca",
"l. c #c8c8cb",
"z. c #c9c9ca",
"x. c #c9c9cb",
"c. c #cacac9",
"v. c #cacaca",
"b. c #cacacb",
"n. c #cbcbcb",
"m. c #cacacc",
"M. c #cbcbcc",
"N. c #cccccd",
"B. c #cdcdcd",
"V. c #cccccf",
"C. c #cdcdce",
"Z. c #cdcdcf",
"A. c #cecece",
"S. c #d0d0cf",
"D. c #d0d0d0",
"F. c #d0d0d1",
"G. c #d1d1d0",
"H. c Gray82",
"J. c #d2d2d1",
"K. c #d2d2d2",
"L. c #d3d3d2",
"P. c #d3d3d3",
"I. c Gray83",
"U. c #d4d4d5",
"Y. c #d5d5d4",
"T. c #d5d5d5",
"R. c #d5d5d6",
"E. c #d7d7d5",
"W. c Gray84",
"Q. c #d7d7d7",
"!. c #d8d8d8",
"~. c Gray85",
"^. c #dadada",
"/. c #dadadb",
"(. c Gray86",
"). c #dbdbdc",
"_. c gainsboro",
"`. c #dcdcdd",
"'. c #dddddc",
"]. c #dddddd",
"[. c #dcdcde",
"{. c Gray87",
"}. c #dfdfdf",
"|. c #e0e0df",
" X c Gray88",
".X c #e1e1e0",
"XX c #e1e1e1",
"oX c #e1e1e2",
"OX c #e2e2e1",
"+X c #e2e2e2",
"@X c #e3e3e2",
"#X c Gray89",
"$X c #e4e4e4",
"%X c Gray90",
"&X c #e5e5e6",
"*X c #e7e7e7",
"=X c Gray91",
"-X c #e9e9e9",
";X c #eaeaea",
":X c #ebebea",
">X c Gray92",
",X c #ececec",
"<X c Gray93",
"1X c #eeeeed",
"2X c #eeeeee",
"3X c #efefef",
"4X c #f0f0ef",
"5X c Gray94",
"6X c #f1f1f0",
"7X c Gray95",
"8X c #f3f3f2",
"9X c #f3f3f3",
"0X c #f4f4f4",
"qX c Gray96",
"wX c #f6f6f6",
"eX c Gray97",
"rX c #f8f8f8",
"tX c #f9f9f9",
"yX c Gray100",
"uX c None",
/* pixels */
"uX  # * & & & & & & & & & & & & & & & & - $   uX",
"uX  c K <. . .$. . .$.%.*.,.=.=.,.=.=.7.K r   uX",
"uX  d 9 3.....+.o.o.:.H C D S S D S S P 3 %   uX",
"uX  > i a s f g p y t 8 8 0 8 8 0 8 8 u i :   uX",
"uX  , yXs.n A F F 5X9X4X6X9X3X3X8X5X5XqXrX,   uX",
"uX  = <Xv._ _ F F t.~.A.0.i.!.B.!.t.0.I.;X;   uX",
"uX  ; -X$X*X`.&.&.@.5.+.4.a.x.;.L.[ 6.+X=X;   uX",
"uX  = <X;X<X&Xm.V.).l.r.].D.3.5.d.-.J.%X>X;   uX",
"uX  = 5XI 5 9 e w e 7 s.OX+XXX X#XXX(.+X=X;   uX",
"uX  ; ;X{.Q.S.U L y.{ Z.] q.W.G.b.| o.XX=X;   uX",
"uX  ; ,X%X%X}.2.' N.XX_.! T p.!.1.3.|.$X>X;   uX",
"uX  ; ;X{.E.W.z.k.b.].{.N.F.R./.M.U.{. X=X;   uX",
"uX  = 5XI 5 6 4 q 2 V }._.Z.L.T.K.H.I. X=X;   uX",
"uX  = <X>X1XoX9.:Xf.Z.g.K.` c.D.y.i.H.$X>X;   uX",
"uX  ; =X}.(.Q.W >..X@X8.( Y.#XC.u.}.'.XX=X;   uX",
"uX  ; -X=X<X+X%.,.C.<.-.P.P.X./ o.Y s.XX=X;   uX",
"uX  = 7X#.h l N M b n m @X%XOX#X*X#X X$X>X;   uX",
"uX  = <Xj.^ ) j x } ..G 6.H.].P.A.(.h. X=X;   uX",
"uX  ; ;X<XeX9X[.^.-X;XD.0.H.].P.A.(.h. X=X;   uX",
"uX  = 7XO.h k v z  X$X+X#X%X XXX$XXX X$X>X;   uX",
"uX  = ,Xn.Q Z A B w.t.w.w.e.w.w.e.8.i. X-X;   uX",
"uX  , rXwXeXwXtX0X2X2X;X;X2X;X;X2X;X;X9X7X<   uX",
"uX  1 } W R R W R R W E E W E E W E R ~ J @   uX",
"uX  X + O O O O O O O O O O O O O O O O o .   uX"
};
