/* XPM */
static const char *magick[] = {
/* columns rows colors chars-per-pixel */
"24 24 54 1",
"  c Black",
". c #060605",
"X c #756020",
"o c Gray43",
"O c #7e7e71",
"+ c #4abebe",
"@ c #8e7d45",
"# c #a84f4f",
"$ c #a65353",
"% c #a65757",
"& c #ac5757",
"* c #ab5959",
"= c #aa6c6c",
"- c #ad8e30",
"; c #818174",
": c #828279",
"> c #8b8b7d",
", c Gray53",
"< c #9b9b9b",
"1 c #a3a395",
"2 c #a7a79a",
"3 c #a7a7a7",
"4 c #b2b9b6",
"5 c none",
"6 c #c48b8b",
"7 c #d4c38d",
"8 c #dccb94",
"9 c #c0c0bb",
"0 c #c5c5bf",
"q c #c1c1c1",
"w c #c6c6c6",
"e c Gray78",
"r c #c8c8c8",
"t c #cdcdcd",
"y c #cecece",
"u c Gray81",
"i c #dacaca",
"p c #d6d6d0",
"a c Gray83",
"s c #d9d9d2",
"d c #d9d9d3",
"f c #dadad4",
"g c Gray85",
"h c #dadad9",
"j c #dadada",
"k c Gray86",
"l c gainsboro",
"z c #d6e1e0",
"x c #dfe1e1",
"c c #e9dddd",
"v c #e4e4e4",
"b c Gray90",
"n c #f3f3f3",
"m c Gray96",
/* pixels */
"55555555555555555555555+",
"555555555555555555555555",
"555555555555555555555555",
"5555555555555  555555555",
"55555555555  by 55555 55",
"555555555  tbbb 5555 8 5",
"555555   lbbbbbe 55 8@ 5",
"5555  tbbbbubqbb 5 8@ 55",
"555 lbbbb*bgbu,bk 8@ 555",
"555 abbbb#3b<,bb 8@ 5555",
"5555 bbmn%bobbb 8@ 55555",
"5555 li&6=bbbb 8@ g 5555",
"55555 bc$%bbb 8@ ubw 555",
"55555 abbbbb 7@ gvp9: 55",
"555555 bbbm-X  02222; 55",
"555555 lbxz. 112222r 555",
"5555555 b2>O4sdfbh  5555",
"5555555 abbbbbbbr 555555",
"55555555 bbbbbb  5555555",
"55555555 lbbbr 555555555",
"555555555 bj  5555555555",
"5555555555  555555555555",
"555555555555555555555555",
"555555555555555555555555"
};
