/* XPM */
static char *tb_mail_replyall[] = {
/* columns rows colors chars-per-pixel */
"24 24 43 1",
"  c black",
". c gray32",
"X c #5a5252",
"o c #5a5a5a",
"O c #63635a",
"+ c #736352",
"@ c #7b6b5a",
"# c gray39",
"$ c #7b7b73",
"% c #7b7b7b",
"& c #847363",
"* c #8c7b6b",
"= c #9c846b",
"- c #a58c73",
"; c #ad947b",
": c #848484",
"> c #94948c",
", c gray58",
"< c #9c9494",
"1 c #9c9c94",
"2 c #b59c84",
"3 c #a5a59c",
"4 c #bda58c",
"5 c #a5a5a5",
"6 c #adada5",
"7 c #b5b5ad",
"8 c gray71",
"9 c #bdbdb5",
"0 c None",
"q c #c6ad8c",
"w c #e7deb5",
"e c #c6c6c6",
"r c #cecec6",
"t c #cecece",
"y c gray84",
"u c #deded6",
"i c #e7e7de",
"p c #efe7e7",
"a c #efefe7",
"s c #efefef",
"d c #f7efef",
"f c #f7f7ef",
"g c gray97",
/* pixels */
"000000000000000000000000",
"000000000000000000000000",
"0000000000000    0000000",
"00000000     %ea0 000000",
"000     o0isssat, 00 000",
"00 #8ggfffsssaa.95  w 00",
"00 e%.ufdssaaa<  p www 0",
"00 :y5.%ysaaaa 2 i  www ",
"000 ffd71#>aa 42        ",
"000 tsssa09$ q42;-=*&@+ ",
"000 5ssaa#ap q42;-=*&@ 0",
"0000 aaa9,ppi 42      00",
"0000 aaa#piiii 2 r3  000",
"0000 8a9,iiiiir    00000",
"00000 pOiiir>   000 0000",
"00000 $>r6   00000 w 000",
"00000 X$  0000  0 www 00",
"000000  00000 2 00 www 0",
"000000000000 42        0",
"00000000000 q42;-=*&@+ 0",
"00000000000 q42;-=*&@ 00",
"000000000000 42      000",
"0000000000000 2 00000000",
"00000000000000  00000000"
};
