/* XPM */
static const char * tb_mail_xpm[] = {
"24 24 115 2",
"  	c None",
". 	c #000000",
"+ 	c #92918E",
"@ 	c #9B9A97",
"# 	c #4F4E4C",
"$ 	c #EFEEE8",
"% 	c #F0EFEA",
"& 	c #F1F0EB",
"* 	c #F2F1ED",
"= 	c #CCCCCC",
"- 	c #F3F2EE",
"; 	c #F4F3F0",
"> 	c #F5F4F1",
", 	c #DBDBD9",
"' 	c #F1F0EC",
") 	c #F3F3EF",
"! 	c #F4F4F0",
"~ 	c #F5F5F2",
"{ 	c #F6F6F3",
"] 	c #F7F7F5",
"^ 	c #2A2A2A",
"/ 	c #D2D2CD",
"( 	c #F0EFEB",
"_ 	c #F1F1EC",
": 	c #F2F2EE",
"< 	c #E3E3DF",
"[ 	c #E5E5E5",
"} 	c #7F7F7F",
"| 	c #B2B2B2",
"1 	c #BFBFBC",
"2 	c #FFFFFF",
"3 	c #969592",
"4 	c #EFEEE9",
"5 	c #4F4F4D",
"6 	c #BDBCB8",
"7 	c #A7A6A3",
"8 	c #C6C6C4",
"9 	c #525251",
"0 	c #999894",
"a 	c #62625F",
"b 	c #BCBCB6",
"c 	c #EBE9E3",
"d 	c #838381",
"e 	c #D7D6D4",
"f 	c #A8A8A6",
"g 	c #515150",
"h 	c #7E7D7C",
"i 	c #DAD9D5",
"j 	c #EEEDE7",
"k 	c #BCBBB6",
"l 	c #EBE9E2",
"m 	c #EAE8E1",
"n 	c #F6F5F2",
"o 	c #F4F3EF",
"p 	c #B5B4B1",
"q 	c #646361",
"r 	c #EEEDE8",
"s 	c #EDECE6",
"t 	c #4E4E4C",
"u 	c #797976",
"v 	c #797874",
"w 	c #E9E8E1",
"x 	c #E8E7DF",
"y 	c #B4B3AF",
"z 	c #D0D0CD",
"A 	c #F2F2ED",
"B 	c #BFBEBA",
"C 	c #BEBDB9",
"D 	c #7A7A77",
"E 	c #979691",
"F 	c #EAE9E2",
"G 	c #959590",
"H 	c #787773",
"I 	c #B8B7B0",
"J 	c #E6E4DC",
"K 	c #A9A9A6",
"L 	c #626260",
"M 	c #ECEBE4",
"N 	c #EBEAE3",
"O 	c #E9E7E0",
"P 	c #E8E6DF",
"Q 	c #E7E5DD",
"R 	c #777671",
"S 	c #93918C",
"T 	c #BEBDB8",
"U 	c #989793",
"V 	c #ECEAE4",
"W 	c #E8E6DE",
"X 	c #E6E4DB",
"Y 	c #E4E3DA",
"Z 	c #75746F",
"` 	c #91908A",
" .	c #EEECE7",
"..	c #62615F",
"+.	c #EBEAE4",
"@.	c #E7E6DE",
"#.	c #E6E5DC",
"$.	c #E5E4DB",
"%.	c #E4E2DA",
"&.	c #CCCBC4",
"*.	c #A3A29D",
"=.	c #B6B5B2",
"-.	c #BCBCB7",
";.	c #CDCCC6",
">.	c #959490",
",.	c #ECEBE5",
"'.	c #61615E",
").	c #E9E8E0",
"!.	c #CECDC7",
"~.	c #797875",
"{.	c #969590",
"].	c #CFCEC8",
"^.	c #AEADA8",
"/.	c #585754",
"(.	c #7B7A76",
"                                                ",
"                                                ",
"                                                ",
"                                                ",
"                . . + . @                       ",
"            # . $ % & * . . .                   ",
"            . = % & * - ; > , .                 ",
"          . = % ' * ) ! ~ { ] . . ^             ",
"        . / ( _ : ) < [ [ [ } | . . .           ",
"      . 1 & 2 2 [ [ } | } | | ( / 3 .           ",
"      . [ [ | | } | = ) [ ' % 4 5 6 7 .         ",
"      . 8 | 9 , > ; - * & % 4 0 a b c .         ",
"      . d e f g h i * & % $ j # k l m .         ",
"        . n > o p @ q + r s t u v w x y .       ",
"        . z ) A ' ( B C D t E F G H I J .       ",
"        . K * ' % 4 L s M N m O P Q R S .       ",
"          . & % $ T U V c m O W Q X Y Z ` .     ",
"          . ( $  ...+.F w x @.#.$.%.&.*.. .     ",
"          . =.s -.E F w x @.J ;.>.. . .         ",
"            . ,.'.F ).P !.G . . .               ",
"            . ~.{.].^.. . .                     ",
"            . /.(.. .                           ",
"              . .                               ",
"                                                "};
