/* XPM */
static const char * tb_openany_xpm[] = {
"24 24 85 1",
" 	c None",
".	c None",
"+	c #D1CC1A",
"@	c #A39A35",
"#	c #FFFF00",
"$	c #857847",
"%	c #EFED09",
"&	c #E0DD11",
"*	c #000000",
"=	c #E2E200",
"-	c #A3A79F",
";	c #E5EADF",
">	c #E5E9DE",
",	c #E5E9DD",
"'	c #555500",
")	c #C6C600",
"!	c #94893E",
"~	c #E6ECE4",
"{	c #ACB0AA",
"]	c #A4A8A0",
"^	c #E5EAE0",
"/	c #A59D37",
"(	c #E6EDE5",
"_	c #E6ECE3",
":	c #E6EBE2",
"<	c #E6EBE1",
"[	c #7A6E54",
"}	c #A29270",
"|	c #D8C295",
"1	c #E3D360",
"2	c #F0E930",
"3	c #7A6F55",
"4	c #A49471",
"5	c #DAC597",
"6	c #D9C396",
"7	c #D8C294",
"8	c #D7C093",
"9	c #E3D461",
"0	c #ECE140",
"a	c #D4BC90",
"b	c #D3BB8E",
"c	c #AAAA00",
"d	c #80837F",
"e	c #7B7156",
"f	c #A49573",
"g	c #DBC799",
"h	c #DAC698",
"i	c #D9C497",
"j	c #D8C395",
"k	c #D6BF92",
"l	c #D5BD91",
"m	c #D4BC8F",
"n	c #D2B98D",
"o	c #DCC89A",
"p	c #D9C496",
"q	c #D7C194",
"r	c #D6C093",
"s	c #D5BD90",
"t	c #D3BA8E",
"u	c #D1B88C",
"v	c #ACB0A9",
"w	c #DBC798",
"x	c #D5BE91",
"y	c #D4BD90",
"z	c #D1B78B",
"A	c #D0B68A",
"B	c #80837D",
"C	c #D7C193",
"D	c #D3BB8F",
"E	c #D2BA8E",
"F	c #D2B98C",
"G	c #CFB489",
"H	c #D2BA8D",
"I	c #D0B78B",
"J	c #CFB58A",
"K	c #9B8666",
"L	c #73644B",
"M	c #ABAFA7",
"N	c #9B8767",
"O	c #80827C",
"P	c #9C8968",
"Q	c #74654D",
"R	c #9E8B6A",
"S	c #75674E",
"T	c #9E8D6B",
"........................",
"..................+@....",
".................@##....",
"...............$.@##..$.",
"...............%%&##+%%.",
"............***=######%.",
"....***..***-;>,'###)!..",
"..***~{**]^^;***/####@..",
"..*(~~_:<^***[}|##12##..",
"..*{~_:***34567890abc@..",
"..*d_:*efghij78klmbn*...",
"...*::*og5pjqrksmtnu*...",
"...*v<*w5p|qrxymtnzA*...",
"...*B^*5p|CkxyDEFzAG*...",
"....*^*678kxabHuIJKL*...",
"....*M*78klmbnuINL**....",
"....*O*rksmtnPQ***......",
".....**xymRS***.........",
".....**T.***............",
"......***...............",
"........................",
"........................",
"........................",
"........................"};
