/* XPM */
static char * tb_openany_xpm[] = {
"24 24 71 1",
" 	c #000000000000",
".	c #FAFA13134040",
"X	c #A3A3A7A79F9F",
"o	c #E5E5EAEADFDF",
"O	c #E5E5E9E9DEDE",
"+	c #E5E5E9E9DDDD",
"@	c #E6E6ECECE4E4",
"#	c #ACACB0B0AAAA",
"$	c #A4A4A8A8A0A0",
"%	c #E5E5EAEAE0E0",
"&	c #78786C6C5353",
"*	c #A1A190906E6E",
"=	c #D6D6C0C09393",
"-	c #D5D5BEBE9191",
";	c #E6E6EDEDE5E5",
":	c #E6E6ECECE3E3",
">	c #E6E6EBEBE2E2",
",	c #E6E6EBEBE1E1",
"<	c #7A7A6E6E5454",
"1	c #A2A292927070",
"2	c #D8D8C2C29595",
"3	c #D7D7C1C19393",
"4	c #D6D6BFBF9292",
"5	c #D4D4BDBD9090",
"6	c #7A7A6F6F5555",
"7	c #A4A494947171",
"8	c #DADAC5C59797",
"9	c #D9D9C3C39696",
"0	c #D8D8C2C29494",
"q	c #D7D7C0C09393",
"w	c #D4D4BCBC9090",
"e	c #D3D3BBBB8E8E",
"r	c #808083837F7F",
"t	c #7B7B71715656",
"y	c #A4A495957373",
"u	c #DBDBC7C79999",
"i	c #DADAC6C69898",
"p	c #D9D9C4C49797",
"a	c #D8D8C3C39595",
"s	c #D5D5BDBD9191",
"d	c #D4D4BCBC8F8F",
"f	c #D2D2B9B98D8D",
"g	c #DCDCC8C89A9A",
"h	c #D9D9C4C49696",
"j	c #D7D7C1C19494",
"k	c #D5D5BDBD9090",
"l	c #D3D3BABA8E8E",
"z	c #D1D1B8B88C8C",
"x	c #ACACB0B0A9A9",
"c	c #DBDBC7C79898",
"v	c #D1D1B7B78B8B",
"b	c #D0D0B6B68A8A",
"n	c #808083837D7D",
"m	c #D3D3BBBB8F8F",
"M	c #D2D2BABA8E8E",
"N	c #D2D2B9B98C8C",
"B	c #CFCFB4B48989",
"V	c #D2D2BABA8D8D",
"C	c #D0D0B7B78B8B",
"Z	c #CFCFB5B58A8A",
"A	c #9B9B86866666",
"S	c #737364644B4B",
"D	c #ABABAFAFA7A7",
"F	c #9B9B87876767",
"G	c #808082827C7C",
"H	c #9C9C89896868",
"J	c #747465654D4D",
"K	c #9E9E8B8B6A6A",
"L	c #757567674E4E",
"P	c #9E9E8D8D6B6B",
"I	c #767668685050",
"   ..                   ",
"   ..                   ",
" .......                ",
" .......                ",
"   ..                   ",
"   ..                   ",
"            XoO+        ",
"     @#  $%%o   &*=-    ",
"   ;@@:>,%   <1234-5    ",
"   #@:>   67890q4-we    ",
"   r:> tyuipa0q4sdef    ",
"    >> gu8haj=4kdlfz    ",
"    x, c8h2j=-5dlfvb    ",
"    n% 8h234-5mMNvbB    ",
"     % 90q4-weVzCZAS    ",
"     D 0q4sdefzCFS      ",
"     G =4kdlfHJ         ",
"       -5dKL            ",
"       PI               ",
"                        ",
"                        ",
"                        ",
"                        ",
"                        "};
