/* XPM */
static const char *tb_open[] = {
/* width height num_colors chars_per_pixel */
"    24    24       71            2",
/* colors */
".. c #000000",
".# c #a3a79f",
".a c #e5eadf",
".b c #e5e9de",
".c c #e5e9dd",
".d c #e6ece4",
".e c #acb0aa",
".f c #a4a8a0",
".g c #e5eae0",
".h c #786c53",
".i c #a1906e",
".j c #d6c093",
".k c #d5be91",
".l c #e6ede5",
".m c #e6ece3",
".n c #e6ebe2",
".o c #e6ebe1",
".p c #7a6e54",
".q c #a29270",
".r c #d8c295",
".s c #d7c193",
".t c #d6bf92",
".u c #d4bd90",
".v c #7a6f55",
".w c #a49471",
".x c #dac597",
".y c #d9c396",
".z c #d8c294",
".A c #d7c093",
".B c #d4bc90",
".C c #d3bb8e",
".D c #80837f",
".E c #7b7156",
".F c #a49573",
".G c #dbc799",
".H c #dac698",
".I c #d9c497",
".J c #d8c395",
".K c #d5bd91",
".L c #d4bc8f",
".M c #d2b98d",
".N c #dcc89a",
".O c #d9c496",
".P c #d7c194",
".Q c #d5bd90",
".R c #d3ba8e",
".S c #d1b88c",
".T c #acb0a9",
".U c #dbc798",
".V c #d1b78b",
".W c #d0b68a",
".X c #80837d",
".Y c #d3bb8f",
".Z c #d2ba8e",
".0 c #d2b98c",
".1 c #cfb489",
".2 c #d2ba8d",
".3 c #d0b78b",
".4 c #cfb58a",
".5 c #9b8666",
".6 c #73644b",
".7 c #abafa7",
".8 c #9b8767",
".9 c #80827c",
"#. c #9c8968",
"## c #74654d",
"#a c #9e8b6a",
"#b c #75674e",
"#c c #9e8d6b",
"#d c #766850",
"#e c none",
/* pixels */
"#e#e#e#e#e#e#e#e#e#e#e#e#e#e#e#e#e#e#e#e#e#e#e#e",
"#e#e#e#e#e#e#e#e#e#e#e#e#e#e#e#e#e#e#e#e#e#e#e#e",
"#e#e#e#e#e#e#e#e#e#e#e#e#e#e#e#e#e#e#e#e#e#e#e#e",
"#e#e#e#e#e#e#e#e#e#e#e#e#e#e#e#e#e#e#e#e#e#e#e#e",
"#e#e#e#e#e#e#e#e#e#e#e#e#e#e#e#e#e#e#e#e#e#e#e#e",
"#e#e#e#e#e#e#e#e#e#e#e#e..........#e#e#e#e#e#e#e",
"#e#e#e#e......#e#e.......#.a.b.c..........#e#e#e",
"#e#e.......d.e.....f.g.g.a.......h.i.j.k..#e#e#e",
"#e#e...l.d.d.m.n.o.g.......p.q.r.s.t.k.u..#e#e#e",
"#e#e...e.d.m.n.......v.w.x.y.z.A.t.k.B.C..#e#e#e",
"#e#e...D.m.n...E.F.G.H.I.J.z.A.t.K.L.C.M..#e#e#e",
"#e#e#e...n.n...N.G.x.O.J.P.j.t.Q.L.R.M.S..#e#e#e",
"#e#e#e...T.o...U.x.O.r.P.j.k.u.L.R.M.V.W..#e#e#e",
"#e#e#e...X.g...x.O.r.s.t.k.u.Y.Z.0.V.W.1..#e#e#e",
"#e#e#e#e...g...y.z.A.t.k.B.C.2.S.3.4.5.6..#e#e#e",
"#e#e#e#e...7...z.A.t.K.L.C.M.S.3.8.6....#e#e#e#e",
"#e#e#e#e...9...j.t.Q.L.R.M#.##......#e#e#e#e#e#e",
"#e#e#e#e#e.....k.u.L#a#b......#e#e#e#e#e#e#e#e#e",
"#e#e#e#e#e....#c#d......#e#e#e#e#e#e#e#e#e#e#e#e",
"#e#e#e#e#e#e......#e#e#e#e#e#e#e#e#e#e#e#e#e#e#e",
"#e#e#e#e#e#e#e#e#e#e#e#e#e#e#e#e#e#e#e#e#e#e#e#e",
"#e#e#e#e#e#e#e#e#e#e#e#e#e#e#e#e#e#e#e#e#e#e#e#e",
"#e#e#e#e#e#e#e#e#e#e#e#e#e#e#e#e#e#e#e#e#e#e#e#e",
"#e#e#e#e#e#e#e#e#e#e#e#e#e#e#e#e#e#e#e#e#e#e#e#e"
};
