/* XPM */
static const char *tb_preferences[] = {
/* width height num_colors chars_per_pixel */
"    24    24       53            1",
/* colors */
". c #000000",
"# c #e5e5e5",
"a c #cecece",
"b c #cdcdcd",
"c c #dccb94",
"d c #dcdcdc",
"e c #c7c7c7",
"f c #8e7d45",
"g c #cfcfcf",
"h c #c1c1c1",
"i c #ab5959",
"j c #d9d9d9",
"k c #878787",
"l c #dbdbdb",
"m c #d4d4d4",
"n c #a84f4f",
"o c #a7a7a7",
"p c #9b9b9b",
"q c #f5f5f5",
"r c #f3f3f3",
"s c #a65757",
"t c #6e6e6e",
"u c #dacaca",
"v c #ac5757",
"w c #c48b8b",
"x c #aa6c6c",
"y c #e9dddd",
"z c #a65353",
"A c #c6c6c6",
"B c #d4c38d",
"C c #e4e4e4",
"D c #d6d6d0",
"E c #c0c0bb",
"F c #828279",
"G c #ad8e30",
"H c #756020",
"I c #c5c5bf",
"J c #a7a79a",
"K c #818174",
"L c #dfe1e1",
"M c #d6e1e0",
"N c #060605",
"O c #a3a395",
"P c #c8c8c8",
"Q c #8b8b7d",
"R c #7e7e71",
"S c #b2b9b6",
"T c #d9d9d2",
"U c #d9d9d3",
"V c #dadad4",
"W c #dadad9",
"X c #dadada",
"Y c none",
/* pixels */
"YYYYYYYYYYYYYYYYYYYYYYYY",
"YYYYYYYYYYYYYYYYYYYYYYYY",
"YYYYYYYYYYYYYYYYYYYYYYYY",
"YYYYYYYYYYYYY..YYYYYYYYY",
"YYYYYYYYYYY..#a.YYYYY.YY",
"YYYYYYYYY..b###.YYYY.c.Y",
"YYYYYY...d#####e.YY.cf.Y",
"YYYY..b####g#h##.Y.cf.YY",
"YYY.d####i#j#gk#l.cf.YYY",
"YYY.m####no#pk##.cf.YYYY",
"YYYY.##qrs#t###.cf.YYYYY",
"YYYY.duvwx####.cf.j.YYYY",
"YYYYY.#yzs###.cf.g#A.YYY",
"YYYYY.m#####.Bf.jCDEF.YY",
"YYYYYY.###qGH..IJJJJK.YY",
"YYYYYY.d#LMN.OOJJJJP.YYY",
"YYYYYYY.#JQRSTUV#W..YYYY",
"YYYYYYY.m#######P.YYYYYY",
"YYYYYYYY.######..YYYYYYY",
"YYYYYYYY.d###P.YYYYYYYYY",
"YYYYYYYYY.#X..YYYYYYYYYY",
"YYYYYYYYYY..YYYYYYYYYYYY",
"YYYYYYYYYYYYYYYYYYYYYYYY",
"YYYYYYYYYYYYYYYYYYYYYYYY"
};
