/* XPM */
static const char *tb_palmos[] = {
/* width height num_colors chars_per_pixel */
"    18    24       34            1",
/* colors */
". c #666666",
"# c #003333",
"a c #000000",
"b c #336666",
"c c #330033",
"d c #99cccc",
"e c #cccccc",
"f c #333366",
"g c #999999",
"h c #333333",
"i c #996699",
"j c #ccffff",
"k c #666699",
"l c #669999",
"m c #663366",
"n c #9999cc",
"o c #003300",
"p c #000033",
"q c #cccc99",
"r c #669966",
"s c #99cc99",
"t c #cc9999",
"u c #003366",
"v c #996666",
"w c #999966",
"x c #336633",
"y c #666633",
"z c #663333",
"A c #330000",
"B c #ffffcc",
"C c #333300",
"D c #ccccff",
"E c #660000",
"F c #ffffff",
/* pixels */
"..................",
"abcefgh.........h.",
"h.hoooooooooooooo.",
"p.hgggggggggggggh.",
"#.he.stel.geeeggh.",
"h.hqlqgeqeggvrg.h.",
"f.hqgxgh.hsaessgh.",
"h.hsyw.gg..slgggh.",
"p.hs..y.zsgssggrh.",
"A.heggx..ghzgsggh.",
"p.he.wg.slgggwgrh.",
"#.hqb.hhAagrlrrgh.",
"p.he.yhh#grg.gr.h.",
"p.haaag..holhhehh.",
"p.hahClry.hw.hx.h.",
"f.h..gggssgngshhh.",
"h.hjwlgggggggsegh.",
"A.hqfwgggggglgrfh.",
"p.hgaxa...b.rheah.",
"p.heeeeeeeeeeeeeh.",
"p.kaaaa#aaaaaaaaf.",
"x.aDg#faha#hDh.ea.",
"p.mkhh.Dpefhasnhe.",
"E#...............a"
};
