/* XPM */
static const char *txt_xpm[] = {
/* width height num_colors chars_per_pixel */
"    32    32       16            1",
/* colors */
". c #000000",
"# c #ffffbe",
"a c #ffdfaa",
"b c #bebe00",
"c c #80807f",
"d c #ff8200",
"e c #ffaa59",
"f c #a0a0a0",
"g c #be5900",
"h c #ffffff",
"i c #ffff00",
"j c #003c3c",
"k c #3c3c00",
"l c #003c00",
"m c #00003c",
"n c #c3c3c3",
/* pixels */
"hhhhhhhhhhhhhhhhhhhhhhhhhhhhhhhh",
"hhhhhhhhhhhhhhhhhhhhhhhhhhhhhhhh",
"hhhhhhhhhhhhhhhhhhhhhhhhhhhhhhhh",
"hhhhhhhhhhhhhhhhhhhhhhhhhhhhhhhh",
"hhhhhhhhhhhhh.hhhh...hhhhhhhhhhh",
"hhh...hhhhhh.#..h.h#h..hhhhhhhhh",
"hh.ea#.hhhh.####.h#hh#h..hhhhhhh",
"hh.dea#.hh.#i##.hh#h##h#h..hhhhh",
"hh.gdea#..#i##.hh###hh##h##..hhh",
"hhh.gdea#.i#i.h#####h#hh#hhhh..h",
"hhhh.gdea#.i.#h#h#h.#hh#h#h#hhh.",
"hhhhh.gdea#.hh####.h..###h#hhh.h",
"hhhhh..gdea#.###h.h#hh..###h#.hh",
"hhhh.ib.gdea#.#h.h#hhhhh..hh.hhh",
"hhh.bbib.gdea#..h#h#hhhhhh..hhhh",
"hh.bbbb.#.gdea#.h#h#hhh#hhhh..hh",
"h.bbbb.ii#.gdean.h#hh#hh#h#h#h.h",
".bbbb.iiiii.gdnn.bb#h##h#h#hhhh.",
".cbbbkjbiiik.nnc.##bbhh#h##h#h.c",
"h.lcbbbklbk##....#h##bb###h##.ch",
"hhh..cbbblhhb####bb####bb###.fhh",
"hhhhh..c.####bb####bb######.fhhh",
"hhhhhh..i#b####bb####bb###.chhhh",
"hhhhhh.iiiibb####bb######mfhhhhh",
"hhhhh.iiiiiiibb####bb###.fhhhhhh",
"hhhhh.ciiiiiiiibb######.fhhhhhhh",
"hhhhhh..ciiiiiiiibbii#lchhhhhhhh",
"hhhhhhhh..ciiiiiiiiii.chhhhhhhhh",
"hhhhhhhhhh..fiiiiiiilchhhhhhhhhh",
"hhhhhhhhhhhh..ciiii.chhhhhhhhhhh",
"hhhhhhhhhhhhhh.lcc.fhhhhhhhhhhhh",
"hhhhhhhhhhhhhhhh..fhhhhhhhhhhhhh"
};
