/* XPM */
static const char *tgz_xpm[] = {
/* width height ncolors chars_per_pixel */
"32 32 9 1",
/* colors */
"` c #000000",
"a c #FFFFBE",
"b c #BEBE00",
"c c #80807F",
"d c #FF0000",
"e c #FFFFFF",
"f c #FFFF00",
"g c #3C3C00",
"h c #00003C",
/* pixels */
"eeeeeeeeeeeeeeeeeeeeeeeeeeeeeeee",
"eeeeeeeeeeeeeeeeeeeeeeeeeeeeeeee",
"eeeeeeeeeeeeeeeeeeeeeeeeeeeeeeee",
"eeeeeeeeeeeeeee``eeee``eeeeeeeee",
"eeeeeeeeeeeeee`aa``e`ee``eeeeeee",
"eeeeeeeeeeeee`aaaaa`eeaee``eeeee",
"eeeeeddeeeee`aaaaa`eeaeaaee``eee",
"eeeedddeeee`aaaaa`eaaeaaeaeee`ee",
"eeeddddeee`aafaa`eaa``eeeaaee`ee",
"eedddddee`affaa`aaa`ee``eeee`eee",
"edddddde`ffaaf`aaa`eeaee``e`eeee",
"e```````ffaff`aaa`aeaeaeee``eeee",
"eeeeee`fffff`aaa`eeaaeeaeaea``ee",
"eeeee`fffbf`afa`aaaeaaeaeaeee`ee",
"eeee`ffbbf`ffa`aaabbeeaeaaee`cee",
"eee`fbbff`fff`aaaeaabbaaaee`ceee",
"ee`bbbfb`fff`aaabbaaaabbae`ceeee",
"ee`cbbbbghc`aaaaaabbaaaaa`ceeeee",
"eee``cbbbb`aaabbaaaabbaa`ceeeeee",
"eeeee``cb`aaaaaabbaaaaa`ceeeeeee",
"eeeeeee``fffbbaaaabbaa`ddddddeee",
"eeeeeee`ffffffbbaaaaa`cddddd`eee",
"eeeeee`cffffffffbbaa`cedddd`eeee",
"eeeeeee``cfffffffff`ceeddd`eeeee",
"eeeeeeeee``cffffff`ceeedd`eeeeee",
"eeeeeeeeeee``cfff`ceeeed`eeeeeee",
"eeeeeeeeeeeee``c`ceeeeeeeeeeeeee",
"eeeeeeeeeeeeeee`ceeeeeeeeeeeeeee",
"eeeeeeeeeeeeeeeeeeeeeeeeeeeeeeee",
"eeeeeeeeeeeeeeeeeeeeeeeeeeeeeeee",
"eeeeeeeeeeeeeeeeeeeeeeeeeeeeeeee",
"eeeeeeeeeeeeeeeeeeeeeeeeeeeeeeee"
};
