/* XPM */
static const char *thread_xpm[] = {
/* columns rows colors chars-per-pixel */
"11 11 2 1",
". c black",
"  c None",
/* pixels */
"           ",
" .         ",
" .         ",
" .....     ",
" .         ",
" ......    ",
" .  .      ",
" .  .....  ",
" .         ",
" ......... ",
"           "
};
