/* XPM */
static const char *unknown_xpm[] = {
/* width height ncolors chars_per_pixel */
"32 32 16 1",
/* colors */
"` c #000000",
"a c #FFFFBE",
"b c #BEBEFF",
"c c #BEBE00",
"d c #595959",
"e c #80807F",
"f c #0000BE",
"g c #C0C0C0",
"h c #A0A0A0",
"i c #000080",
"j c #FFFFFF",
"k c #FFFF00",
"l c #003C3C",
"m c #3C3C00",
"n c #003C00",
"o c #00003C",
/* pixels */
"jjjjjjjjjjjjjjjjjjjjjjjjjjjjjjjj",
"jjjjjjjjjjjjjjjjjjjiiiidjjjjjjjj",
"jjjjjjjjjjjjjjjjjjjiiiiiijjjjjjj",
"jjjjjjjjjjjjjjjjjjjjjjjjdijjjjjj",
"jjjjjjjjjjjjj`jjjj```jjjjdijjjjj",
"jjjjjjjjjjjj`a``j`jaj``jjjidjjjj",
"jjjjjjjjjjj`aaaa`jajjaj``jiijjjj",
"jjjjjjjjjj`akaa`jjajaajaj`iidjjj",
"jjjjjjjjj`akaa`jjaaajjaajbiiijjj",
"jjjjjjjj`akak`jaaaaajajjgdfie``j",
"jjjjjjj`kkkk`ajajaj`ehbdfiifejj`",
"jjjjjj`kkkk`jjaaaa`hdiifiiiejj`j",
"jjjjj`kckk`aaaaaj`jjdfiiiieba`jj",
"jjjj`kckk`aaaaaj`jajdfdbb`jj`jjj",
"jjj`cckc`aakaaj`jajjdfbjjj``jjjj",
"jj`cccc`akaaaa`ajajjdiaajjjj``jj",
"j`cccc`kkaakamjjcjajdfjjajajaj`j",
"`cccc`kkkkkamjajaccajaajajajjjj`",
"`ecccmlckkkmjjcajaaccjjajaajaj`e",
"j`necccmncmaaaaccajaaccaaajaa`ej",
"jjj``ecccnjjcaaaaccadebjcaaa`hjj",
"jjjjj``e`aaaaccaaaaefiieaaa`hjjj",
"jjjjjj``kacaaaaccaafiiifaa`ejjjj",
"jjjjjj`kkkkccaaaacciiifdaohjjjjj",
"jjjjj`kkkkkkkccaaaacheej`hjjjjjj",
"jjjjj`ekkkkkkkkccaaaaja`hjjjjjjj",
"jjjjjj``ekkkkkkkkcckkanejjjjjjjj",
"jjjjjjjj``ekkkkkkkkkk`ejjjjjjjjj",
"jjjjjjjjjj``hkkkkkkknejjjjjjjjjj",
"jjjjjjjjjjjj``ekkkk`ejjjjjjjjjjj",
"jjjjjjjjjjjjjj`nee`hjjjjjjjjjjjj",
"jjjjjjjjjjjjjjjj``hjjjjjjjjjjjjj"
};
