/* XPM */
static const char *vcard[] = {
/* width height num_colors chars_per_pixel */
"    32    32       54            1",
/* colors */
". c #ffffff",
"# c #ffffcc",
"a c #ffccff",
"b c #ffcccc",
"c c #ffcc99",
"d c #ffcc66",
"e c #ffcc33",
"f c #ff99cc",
"g c #ff9999",
"h c #ff9966",
"i c #ff9933",
"j c #ff6699",
"k c #ff6666",
"l c #ff3366",
"m c #ff3333",
"n c #ff0066",
"o c #ff0033",
"p c #cccccc",
"q c #cc9999",
"r c #cc6699",
"s c #cc3366",
"t c #cc0033",
"u c #999999",
"v c #996699",
"w c #993333",
"x c #990033",
"y c #666666",
"z c #663333",
"A c #660000",
"B c #333333",
"C c #330000",
"D c #ee0000",
"E c #dd0000",
"F c #bb0000",
"G c #aa0000",
"H c #880000",
"I c #770000",
"J c #550000",
"K c #440000",
"L c #220000",
"M c #110000",
"N c #001100",
"O c #000011",
"P c #eeeeee",
"Q c #dddddd",
"R c #bbbbbb",
"S c #aaaaaa",
"T c #888888",
"U c #777777",
"V c #555555",
"W c #444444",
"X c #222222",
"Y c #111111",
"Z c #000000",
/* pixels */
"................#cc.............",
"................cccc.....P......",
"..........#c#...#hhi...Qhdb.....",
"..........cccQ..Phie...chd#.....",
"..........cdih...cih...dic....c#",
"..........Qdii....ic...hd#..#dcc",
"....Pcdd....ii.....PVWp.....iedc",
"....#cdhc...cc....RTSpyu...#iib.",
"......heic......uVQ....PVT......",
"......ciic....QuWR......QVTQ....",
"#cdh........RUVP....QWT...PTUR..",
"bchd#......RVB......YX..SR..VWp.",
"..dii#..QuXU..PT......TYQ...uBXS",
"...chP.PUBQ...BZ.....PZU...PWOxq",
".....RVX....PTUZ....YX....yYJGjb",
"....TyVQ..SU..QZ....RP...ROZGlgb",
"..TBu...SYZV..Pyp.......WZAtmjbP",
"..zZSP.QZZZZyp.uu.....PuZMtDlgbP",
"..gsZX....UZZZZXY....RXZAtmlgf..",
"..brCZTP...PYZZZZR..SVZLtoljbb..",
"..PbmHZB......SWZu.uNMtollfb....",
"..QfltMZuP......p.uBMIomkgbP....",
"..PbkmoHZW......PUZLtokgba......",
"...PglotMZSP....UXCHmlgfPP......",
"....bglmoIZV..SVYIomjgb.........",
"....QbklotZOSRWZHtlkgb..........",
"......fglltHYNJFmlgfP...........",
"......QfklotOZtoljfb............",
"........fgmlEtlkgb..............",
"........QgklookjbQ..............",
".........Pggkkgb................",
"..........bgjgbP................"
};
