/* XPM */
static const char *video_xpm[] = {
/* width height ncolors chars_per_pixel */
"32 32 12 1",
/* colors */
"` c #000000",
"a c #FFFFBE",
"b c #BEBE00",
"c c #80807F",
"d c #C0C0C0",
"e c #A0A0A0",
"f c #FFFFFF",
"g c #FFFF00",
"h c #003C3C",
"i c #3C3C00",
"j c #003C00",
"k c #00003C",
/* pixels */
"ffffffffffffffffffffffffffffffff",
"ffffffffffffffffffffffffffffffff",
"ffffffffffffffffffffffffffffffff",
"ffffffffffffffffffffffffffffffff",
"fffffffffffff`ffff```fffffffffff",
"ffffffffffff`a``f`faf``fffffffff",
"fffffffffff`affa`faffaf``fffffff",
"ffffffffff`a```fffafa``````fffff",
"fffffffff`a``f`ffaaa``f`f````fff",
"ffffffff`a`f`c`aaaa`f``````ff``f",
"fffffff`ga``cc`afa```ccdd``afff`",
"ffffff`gg`f`cc`aa`f`c`cdd``fff`f",
"fffff`gbg``ccc`a```c`f```f`fa`ff",
"ffff`gbgg`f`````f`cc``f`f``f`fff",
"fff`bbgbgc``f`f``ddc`f```d``ffff",
"ff`bbbb`gcd`````cddc`ffddd`f``ff",
"f`bbbb`ggcdfddc`cddc`ffddd`faf`f",
"`bbbb`gggcdfddc`cdc``ffddd`ffff`",
"`cbbbihbgcdfddc`cd`c`ffddd`faf`c",
"f`jcbbbijcdfddc`c`f```fdd``aa`cf",
"fff``cbbbc`fddc````a`f```f`a`eff",
"fffff``c``f`````f`aaa`f`f`a`efff",
"ffffff``gg``f`f``aaaaa```a`cffff",
"ffffff`gggg````aaaaaaaaaakefffff",
"fffff`gggggggggaaaaaaaaa`effffff",
"fffff`cggggggggggaaaaaa`efffffff",
"ffffff``cggggggggggaaajcffffffff",
"ffffffff``cgggggggggg`cfffffffff",
"ffffffffff``egggggggjcffffffffff",
"ffffffffffff``cgggg`cfffffffffff",
"ffffffffffffff`jcc`effffffffffff",
"ffffffffffffffff``efffffffffffff"
};
