/* XPM */
static char *wxlogo_xpm[] = {
/* columns rows colors chars-per-pixel */
"200 53 50 1",
"  c #65565dde5b39",
". c #00006363adad",
"X c #08086363adad",
"o c #00006363b5b5",
"O c #00006b6bb5b5",
"+ c #0a0a6868b7b7",
"@ c #073e642db67f",
"# c #144e662fb13d",
"$ c #17c164e4ae01",
"% c #22c37b9bc3e3",
"& c #7658a5a5cece",
"* c #7373adadd6d6",
"= c #795bab3cd6d6",
"- c #5e40928dca83",
"; c #3a708234c037",
": c #dede31312121",
"> c #de0a3a0d2a8b",
", c #dede34df257b",
"< c #dede29292121",
"1 c #e7e7372c2706",
"2 c #e87337942f5e",
"3 c #df902b531818",
"4 c #dc3346d2371a",
"5 c #e86046d83622",
"6 c #e4565259480d",
"7 c #e1756d376323",
"8 c #b0741a75157f",
"9 c #ffffe7e74242",
"0 c #ffffefef4242",
"q c #ffffe7e752a4",
"w c #ffffe9827b7b",
"e c #d801b46049dd",
"r c #b2a1cf13e708",
"t c #9e9ec0c0e0e0",
"y c #d1ee96328d46",
"u c #f254b40eaf56",
"i c #e7fb9fe199d6",
"p c #c50fc7efc50f",
"a c #d31ad5b5d8b6",
"s c #dac2e6feeed9",
"d c #f385d654d4a9",
"f c #eb6eebccec48",
"g c #fb68ecdaec90",
"h c Gray97",
"j c #f7f7ffffffff",
"k c Gray100",
"l c #fcd3faabfa2b",
"z c #f0c7f414f6bc",
"x c #d186de81ebc8",
"c c #adf3b4a7be82",
/* pixels */
"kkkkkkkkkkkkkkkkkkkkkkkkkkkkkkkkkkkkkkkkkkkkkkkkkkkkkkkkkkkkkkkkkkkkkkkkkkkkkkkkkkkluulkkkkkkkkkkkkkkkkkkkkkkkkkkkkkkkkkkkkkkkkkkkkkkkkkgdiulkkkkkkkkkkkkkkkkkkkkkkkkkkkkkkkkkkkkkkkkkkkkkkkkkkkkkkkkkkk",
"kkkkkkkkkkkkkkkkkkkkkkkkkkkkkkkkkkkkkkkkkkkkkkkkkkkkkkkkkkkkkkkkkkkkkkkkkkkkkkkkkkki::ikkkkkkkkkkkkkkkkkkkkkkkkkkkkkkkkkkkkkkkkkkkkkkku7:31:7jkkkkkkkkkkkkkkkkkkkkkkkkkkkkkkkkkkkkkkkkkkkkkkkkkkkkkkkkkk",
"kkkkkkkkkkkkkkkkkkkkkkkkkkkkkkkkkkkkkkkkkkkkkkkkkkkkkkkkkkkkkkkkkkkkkkkkkkkkkkkkkkdy1>6lkkkkkkkkkkkkkkkkkkkkkkkkkkkkkkkkkkkkkkkkkkkkg7111>>16kkkkkkkkkkkkkkkkkkkkkkkkkkkkkkkkkkkkkkkkkkkkkkkkkkkkkkkkkkk",
"kkkkkkkkkkkkkkkkkkkkkkkkkklkkkkkkkkkkkkkkkldiikkkkkkkkkkkkkkkkkkkkkkkkkkklkkkkkkkjxp,>5dkkklgidkkkkkkkkkkkkkkkkkkkkkkkkkkkkkkkkkkkkd64yyy777dkkkkkkkkkkkkkkkkkkkkkkkkkkkkkkkkkkkkkkkkkkkkkkkkkkkkkkkkkkk",
"kkkkkkkllgu7kkkkgiikkkkkki>dlkkkkli7gkkkkg7311ujkkkkkkkkkkkkkkkkkkkkkkkkudlkkkkkkkfp7,1gkkkd51>lkkkkkkkkkkkkkkkkkkkkkkkkkkkkkkkkkkg6:daapprgkkkkkkkkkkkkkkkkkkkkkkkkkkkkkkkkkkkkkkkkkkkkkkkkkkkkkkkkkkkk",
"kkkdi6,<<,>1gkkl7:1dkkkkf427lkkku>157kklg4:1:2dkkkkkkkluii75ikkkkkkkkkku<hkkkkkkkkhp746gkkhy:>:lkkkkkkkkkkkkkkkkkkkkkkkkkkkkkkkkkj717hhkjkljkkkkkkkkkkkkkkkkkkkkkkkkkkkkkkkkkkkkkkkkkkkkkkkkkkkkkkkkkkkk",
"kli367ycy>4fkkku:1:ukkkka7,7kkl747416lkg42yichkkkkkgu6312:16llkkkkkkkku>4kkkkkkkkkkay:7jklay::7kkkkkkkkkkkkkkkkkkkkkkkkkkkkkkkkkhd,,ukkkkkkkkkkkkkkkkkkkkkkkkkkkkkkkkkkkkkkkkkkkkkkkkkkkkkkkkkkkkkkkkkkk",
"ku3ysszi11ujkkh7>>1dkkkkfc26kk77sx71:dg46affjkkkkku>47ca4>1ukkkkkkkkld427kkkkkkkkkkp7:ukkkapyilkkkkkkkkkkkkkkkkkkkkkkkkkkkkkkkkkf7><gkkkkkkkkkkkkkkkkkkkkkkkkkkkkkkkkkkkkkkkkkkkkkkkkkkkkkkkkkkkkkkkkkkk",
"h7,dlkd3>6lkkkf>>24lkkkkhp27ksuzjfy,:u76gjkkkkkkg71ypffy,17kkkkkkkkkd41>ilkkkkkkkkkp>>gkkkgaalkkkkkkkkkkkkkkkkkkkkkkkkkkkkkkkkkkp>>6hkkkkkkkkkkkkkkkkkkkkkkkkkkkkkkkkkkkkkkkkkkkkkkkkkkkkkkkkkkkkkkkkkkk",
"f73ykh41:ukkkkp,>:ikkkkkkp1ukhzkjzp:>6>gkkkkkkkk74uzkkd,>1dkkkkkkkkz7>><ukkkkkkkkkhy17kkkkjkkkkkkkkkkkkkkkkkkkkkkkkkkkkkkkkkkkkhy,>7kkkkkkkkkkkkkkkkkkkkkkkkkkkkkkkkkkkkkkkkkkkkkkkkkkkkkkkkkkkkkkkkkkkk",
"fpydlu,45gkkklu>>,dkkkkkky<gkkkkklp4>:ukkkkkkkky1uklkz7>,6kkkkkkkkky>411dlkkkkkkkks44dkkkkkkkkkkkkkkkkkkkkkkkkkkkkkkkkkkkkkkkkks7,:ukkkkkkkkkkkkkkkkkkkkkkkkkkkkkkkkkkkkkkkkkkkkkkkkkkkkkkkkkkkkkkkkkkkk",
"ksfkj7,:7jkkjgp:,7kkkkkkh67jkkkkkka74>gkkkkkkjd>ikkkkp>>>ukkkkkkkkd,76>3gkkkkkkkkjy17lkkkkkkkkkkkkkkkkkkkkkkkkkkkkkkkkkkkkkkkkla,>>dkkkkkkkkkkkkkkkkkkkkkkkkkkkkkkkkkkkkkkkkkkkkkkkkkkkkkkkkkkkkkkkkkkkk",
"kkkkf44:ilkkkfy1>7kkkkkku,dkkkkkkkf7>3dkkkkkkhy<dlkkfy>2>gkkkkkkkz46p4><kkkkkkkkks4,dkkkklggkkkkkkkkhggkkkkklgglkkkkkkkkkkkklgfp3>6lkkkkkkkkkkllgggkkkkkkkkkkkkkkkglkkkkkggkkkkkkkgigkkkkkkkklggggkkkkkk",
"kkkks41:ukkkkhy>17lkkkkh>ykkkkkkkhd:41ikkkkkka66gkkks7416kkkkkkkj7,dc<>1lkkkkkkkhy3ikkkgi6:>dkkkkkgu7<5glkkg7117hkkkkkkkkkgu6:<>>17hkkkkkkkkgd743<2ihkkkkkkgdduuu7<ikkkku>>gkkkkkh736kkkkkklu6:315ihkkkk",
"kkkkx44:ukkkkg7:>6kkkkl76gkkkkkkkg>74>7kkkkklp>>glkja6,>ikkkkkkku>ifu:>7lkkkkkkkd36lkkd6:1>:dlkkkd61:,6hkki52>>2kkkkkkkkkd6321:>>:ukkkkkkkkg736y4>>:7kkkkd76<324,15ukkld>>1ikkkkka71>dkkkkl727y7>>1ikkkk",
"kkkks7:1ikkkj7:416kkkli1dkkkkkkkj76a6>5kkkkklc4:ikkha4>>ikkkkkks64hay>>6jkkkkkkf6:dlku167>>5gkkku576427jg7<74>1>hkkkkkkku26ycpy41:dkkkkkkkd52yapa7>21ukku>6yipp7>1dkkkz7,>1ikkkklpy,>dkkkji27spr7>:7hkkk",
"kkkkdy:>7kkl75u:>4kkki3ukkkkkkkku2da7>3hkkkkgp415hkhp4>,dkkkkkh7,dkay>>7kkkkkkjy,ylku:yay4,7gkku,up7>,ug16ppy>>5kkkkkkju17affap>>5gkkkkkkg41ijkfpc>5>6kd46asfzy147kkkkx4>>:dgkkkkap45gkkkd><gkhpp76ukkkk",
"kkkjsy:17lk71dr4>2hly3ukkkkhkkkd,uksy>>ukkkkhpy,6lkgc>>:dkkkkku47kka7>57jkkkkjd16llf6ylx7>1iklf4dzx4>>u>yzhs74>7kkkkkkd,6gjkkfu,17kkkkkkz7:7kkkkfp7,13hp:7kkki,>:jkkkhp3>5<gkkkkkzp65gkkzy>>uhkzppzkkkkk",
"kkkkhp341d65dja4>>u71uhkkkd6ukd17jkzc>>ilkkkjppakkkfp>>1lkkkkf44gkkay,>7kkkkkf>4dkhpflka>>1dkfpzjzp>>41ikkka7>,ukkkkkf6>dlkkkdy:,ilkkkkji>:dlkkkjp7>>3dc35gjd4>>yllkkfy,>:7lkkkkkkp47jkksy>>7lkkjkkkkkkk",
"kkkklp,4127fkka74>54dhkkkj7157>7lkkla416jkkkklflkkkgp413dkkkj74ukkkp7>1yjkkkj7,ikkkgkkfp,>4lklzkkfy>>1ijkkhp4><gkkkkky:7gkkkja7,,ukkkkkf4>1jkkkkkpy>><apy7hhy>11dlkkkay>11ukkkkkkhc3ukkkac11:ikkkkkkkkkk",
"kkkkka614yhhkkfy,:7fhjkkkfp<:57jkkkka741gkkkkkkkkkkfp,>1dkkkd37jkkka7>,ilkkki:7kkkkkkkf7:>7kkkklks74>4lkkkgy,>7lkkkka11ukkkkjp4>>hkkkkhy4>7kkkkkjay:>3gpdkks6>,6lkkkka7>>6zkkkkkkf74glkkdp64,1ikkkkkkkkk",
"kkkkkx7ydjkkkjgc6phjkkkkkgpcuajkkkkkfp>,ukkkkkkkkkkfp4>3dkkf44lkkkja74:ikkku>6lkkkkkkja6>1ukkkkkkx6>3ukkkks7,:ijkkkj7,4gkkkkgc,>6kkkkjf711ukkkkkkay,,1kjlkkp:157jkkkja7>>6kkkkkkkx3ikkkkzpy1>11ukkkkkkkk",
"kkkkkfafhlkkkkkpgkkkkkkkkkhhzjkkkkkklp617lkkkkkkkkkgp44:ulj7,ujkkkjp7>:ilkf4>glkkkkkkhp>>>gkkkkkhp4>,glkkka443dlkkka4>7kkkkkfy3>ilkkkhp4,,dlkkkkla7>>7lkkkfp:>:ikkkkkp74>6kkkkkkh74glkkkhap74>>>dkkkkkkk",
"kkkkklljkkkkkkklkkkkkkkkkkkkkkkkkkkkkap32ukkkkguzkkhp411iku3ykkkkkjp7>1ikg4:ukkkkkkkkfy>17hkkkkjfu,>5kkkkkc:>5lkkkhy>1ukkkkka6>1ikkkklc:>:dkkkkkka6>1ikkkkdp:>:ukkkkkr7>,7lkkkkkp,ukkkkkkjpa64127lkkkkkk",
"kkkkkkkkkkkkkkkkfsdsdsdsdsdsdsdslkkkklpy:6dkkk7:ilkhp6>>id46llkkkkkp643ul74ihkkkkkkkkf7>>ilkkkkkfy3>ylkkkfy:17kkkkf6>1dkkkkhp>1:lkkkkfi353dkkkkkkp6>>hkkkkfp32:ikkkkky1,>6lkkkkd17kkkkkkkkzpr6>4:glkkkkk",
"kkkkkkkkkkkkkkkz X.............Xdkkkkkfc726dgd2:ukkhr6>1y6,dkkkkkkjp6>:ui<7gkkkkkkkkha6,1ulkkkkja7>1ikkkka651ukkkhp4>>gkkkkf7>>5hkkkkay:,1dkkkkkgp<:ikkkklsa1>57jkkku,4>>6lkkkd66lkkkkkkkkkfpp,>1ukkkkkk",
"kkkkkkkkkkkkkkkk .c;X.X.XX.XX.X pjkkkkkapy6>6:>ihkkhp7>,4:ikkkkkkkkp64:y16gkkkkkkkkkhp>>3lkkdgkhp>>3gkkkkp4,,gkkddc15>lkkkky3>47kkkdgay4>:ukkkkkf7:6gkkkkkgp6>>7kkku47y4,5glkd66gkkkkg77lkkkap71:ukkkkkk",
"kkkkkkkkkkkkkkjj %gcXX.X.X.X.X..flkkkkkkhpppyuphkkkhp7>117lkkkkkkkkc6>>52dkkkkkkkkkkgc:>5kki,dklc>,5kkkkzp3>6gkd5yu,>1ukkly3711ikgi1gau:>17hkkklp:>dkkkkkjjp7>26lku17ap34:dkd56dkkkkl711ikkkkp7>1gkkkkkk",
"kkkkkkkkkkkkkkkj %grXXX.XX.XX.X plkkkkkkklhffzlkkkkkay:>6hkkkkkkkkkp4>>:ukkkkkkkkkkksy3>7hi2dlkfy3>7kkkkfy:>7gd:iai>>>4ii6:y74:7d64dkap4141lkkkf4:dlkkkkkkkpy:>,gi17kfp,13du16fkkkkla64,ihkkka647jkkkkkk",
"kkkkkkkkkkkkkkkj %gpX.XX.XXX.X..flkkkkkkkklkkkkkkkkkpy>>dkkkkkkkkkhp44:ukkkkkkkkkkkla7>116,dllka711ikkkkay1157<igfc4>1>211ua6>22:7gkkfpy:>>6gld4<dlkkkkkkkkac1>>5:ikksa4>15<7hlkkkkhpy>27lkjh7:4gkkkkkkk",
"kkkkkkkkkkkkkkkj %jrXX.XXXXX.X. alkkkkkkkkkkkkkkkkkkau<ukkkkkkkkkkhp4,ikkkkkkkkkkkklay3>>6gkkkhp4::dkkkkau,,>4dlkfp74>1>6djp,>>4ujjkkkpp7>>><,:7dkkkkkkkkkkdp>>14djkkzp7,>1ihkkkkkkjaa7>16771,7gkkkkkkkk",
"kkkkkkkkkkkkkkkl;%grXXXXX.XXXX..flkkkkkkkkkkkkkkkkkkacyjkkkkkkkkkkhp,ikkkkkkkkkkkkklac76phkkkkgpppdlkkkkary6yflkkhapy67pfjfp77yfjjkkkkfppi777yphkkkkkkkkkkksp44yzkkkkkcy,7djkkkkkkkkhppc7777yphjkkkkkkkk",
"kkkkkkkkkkkkkkkl %grXXOXOX.XX.X phhzhhzhhzhhhkkkkkkkfdllkkkkkkkkkkhp7llkkkkkkkkkkkkkfpaslkkkkkhfdfkkkkkkhppsjklkkkfapxfhkkzpaszjkkkkkkkzxprapflkkkkkkkkkkkklpyajkkkkkkacuzjjkkkkkkkkkhxaaarafkkkkkkkkkkk",
"kkkkkkkkkkkkkkkj %grXO+XO+XXX      e  e  e  cjkkkkkkljkkkkkkkkkkkkfalkkkkkkkkkkkkkkkklkkkkkkkkkkkkkkkkkkkkkkkkkkkkkkhkjkkkkljlkkkkkkkkkkkjhkkkkkkkkkkkkkkkkjajkkkkkkkkdgjjjkkkkkkkkkkkkkhhlkkkkkkkkkkkkk",
"kkkkkkkkkkkkkkkk %lrXXO+XOXX$900000000000000yskkkkkkkkkkkkkkkkkkkkhlkkkkkkkkkkkkkkkkkkkkkkkkkkkkkkkkkkkkkkkkkkkkkkkkkkkkkkkkkkkkkkkkkkkkkkkkkkkkkkkkkkkkkkkkkkkkkkkkkkjkjkkkkkkkkkkkkkkkkklkkkkkkkkkkkkk",
"kkkkklc          %lrXOXO+XX..ewd000999999990 kkkkkkkkkkkkkkkkkkkkkkkkkkkkkkkkkkkkkkkkkkkkkkkkkkkkkkkkkkkkkkkkkkkkkkkkkkkkkkkkkkkkkkkkkkkkkkkkkkkkkkkkkkkkkkkkkkkkkkkkkkkkkkkkkkkkkkkkkkkkkkkkkkkkkkkkkkk",
"kkkkkk 256656562 $lrXX@+OOXX ewzw0999999999eczkkkkzt*==*=&*==*=&*==*=&*==*=&*==*=&*==*=&*==*=&*==*=&*==*=&*==*=&*==*=&*==*=&*==*=&*==*=&*==*=&*==*=&*==*=&*==*=&*==*=&*==*=&*==*=&*==*=&*==*=&*=xhkkkkkk",
"kkkkkk 5u712122< %ztX+OX+X...edlq99999999909chkkkt#.X.@.XoXoXoXoXOXOXoXoXOXoXoXOXoXOXoXOXoXOXoXoXoXoXOXOXoXOXoXoXOXOXoXOXOXoXOXOX@XoXoXoXoXoXoXoXoXoXoXoXoXoXoXoXoXoXoXOXOXoXOXOXoXoXOXoXOXOX@Xo.-skkkkk",
"kkkkkk 6lu121211 .%$#XO+OX+.Xewhw9999999999e lkkrX+O@OX+O+OX+O+XO+OX+O+XO+OX+OX+O+XO+XO+OX+O+XO+OX+O+XO+OX+OX+O+XO+XO+OX+O+XO+OX@O+XO+OX+OX+O+XO+XO+OX+O+XO+OX+O+XO+OX+OX+O+XO+XO+OX+O+XO+OXXO+OX.%hkkkk",
"kkkkkk 6ku1>42288@@+OOOO+O.X.9wgw99999999900cjkz$o+.++OX+.X+X.+OX+XO+XO+XO+OX+O+XO+XO+OXX.X.XO%%+OX+.+OX;#+$-$OX+OX+OX+O+XO+XO+OX+.+OX+.$X.+XOX.+.XoX.@XO+X.X+X%%+;#XO+XO+XO+XO+OX+O+XO+XO+OX+XO++X=kkkk",
"kkkkkk 6lu51>142   8         eplw0999999999e kktX@OX+OXO+%rfzx;XO+O+XO+XO+X+OX+OX+O+XOX+-ffx-Xrr.XO+OX+@s&$jh%XOX+O+XO+XO+XO+XOX+O+XOX-xzfx;.@r&+-s#-f.+OX;f;+%fr%z;+OX+OX+OX+OX+OX+OX+OX+XO+OX+XOX%fkkk",
"kkkkkk 6hu>>4>1,<<8>88zjkkkzc9wgw99999999900clk%@+.+OX+X%gs&&rl;$X$+O$X$OXO$$+OXX$XO+X++-h=rf$rr.XX$X#X#f&%h-X+XX$+.@$X+X$X$.+X$+XO+.-zr-&xs#+s=X-z%-hXOX+;h%.X&-$k;$$oX+X$+X+X$X$@$X#$XO@X$+XO+O+Xorkkk",
"kkkkkk 6lu1>1>>41>>>>8skkkkjcewjw9999999999e kf%X+O+XO+Xrx#@XX-.txs$%shs-.%fjtX&hf-XO+OX-h#-l$xt.%zhxs=rkzxkz%%xhf-+&ss;axskt=lh-.O+Xz=+@oo;O#s=X-f#-k.X@O%l;+Xrt$kazh=X&sz;$slxxr$zxts&@Xx=XO+XOX+O=kkk",
"kkkkkk 5hu,2>>1,>>>>< hkkkkhcedhw99999999900cjs$+.+OX+OXz=XO@@.Xrs;#fr;=g%ts-&#xr&;XX.X@&ksht.xt$fr;=k=;h=-g&$sr;&h;&z;#xf;tkr;xs.X+;h;++;$%%of=O-z%-l.X+X;h;OXx=%kr;&h-&j-Xxs;&sx$k=#&sX;h%+XO+XO+X&kkk",
"kkkkkk 6lu4>14,4>>>2>8flkkklcewzw99q9999999e kx+++XO+OXXf=XO@oX.rr@-z%##h-;hx%X=hr$+trt.-h=-#orr;l%XXrtXz&$l;-h%#Xxt&f..sto$l;$&z.@X%h-X%zllr$x=X-s%-k.@o+;h;oXx=%g;X@xt-s##h-o.tr$l;@#l-trXXO+XO+XO&kkk",
"kkkkkk 6lu>,41>1>2>,48gkkkkhyedhw999990e9900clz%O+OX+X@Ots%@o#-XrtX;z%.Xz&X%rgX#;fro&t&X-z#@@orr;g%+Xs=+s&#l;;g;o$x=&f.Xx=#%k%@&s.@O.xx#$%-l&os=X-z$-l.X+.;l%.Xxc%z;@.xt&z#@z&Xotr$k;@@txl;XO+XO+OX+=lkk",
"kkkkkk 6lu>1>>4,>4,>>8sjkkkjceqf09999990099e kk;+XO+OXO@#szttsz%rro#xs&rl#-rrg#rtxrXX.XO&z@OXoxt$ss&rl=#z&#k;Xrz&rz$=s@.x=#$k%$&z.X@.;hft=hxo.thtzrX-k.Xo+;hrr%x=%ls&tl;-s%.rz=tlx#l;#+;krXX+XO+OX+Xrkkk",
"kkkkkk 5lu4>>2>1>1>>< hkkkkgce00999q99999990clktXO+XO+X++#=xst%X==@O$tft%X;rx;@-xr#@oX@@;r#O@X==o%tftt&+t-$r%X.tst;#-t.@t-+#a%@-t.@O++$tss=.@X.tst#X-r.@+X%rrx$t&$r=xx;o-r@@Xtsr=t#r;O+#z-X+O+OX+O#$hkkk",
"kkkkkk 6du11>>4,>>5>:8fkkkklp               chkf%XOX+O+OX+XX.X.X$@X@@X.X.@+XX@++XX@o+OX+XoOX+O@Xo@X..o.@o@@X#@@XXX@X@@@@X@+@X@#o@@@X+OXO.Xo+o@@..X+OX.@oX+XXX.#X@@X@X.@oo.@OX..XoXo@XOXtx.o+OX+OX+Xtkkkk",
"kkkkkk 151,>>1,5>>,>3 gkkkklhgghlllhllllhhhhhkkkrX+OX+XO+XO@o@XO@OXO@o@X@@o@@X+oX@O+XO@O+OX+OX@OX@Xo@X@O@OX+@Xo@@@XO@X@@@X+O@XO@X+OX+XO@XO+XO+.@XO+XO@OX+O+.+o@@o@@@@@XO+.@Xo@oX@oX+O+Xr;X+OXOX+OX;jkkkk",
"kkkkkk <88888888888888skkkkkllkllllllllllllllkkkkr%X.OXXOXOXX.@.@.@.@X.@.XOX.@.@.@.XOX@XoXOXXOXoXOXoXOXoX.@XoXoXoXOXoXoXo@.@oXoXOX.OXOX.+.@.@.XoXoXo@.X+.XOXoXoX.XoXOXo@.+.XOXoXoXoX@.XX$OX.X.+.X-zjkkkk",
"kkkkkkfasasaxxxasxasrahkkkkkkkkkkkkkkkkkkkkkkkkkkkfr==*&*&*&*&*&*&*&*&*&*&&*=*&*&**&&*&*&*&=*&*=*&&*&&*&=*&*&**&*&&*&*&*&&*&*=*&*&=*&=*&=*&*&*=&*&*&*=&*&*&=*&*&*=*&&*&*&*&*&*&*=&**&*&&*&=*&*&tskkkkkkk",
"kkkkkkkkkljkkhkkkkjkhjjkkkkkkkkkkkkkkkkkkkkkkkkkkkkkkkkkkkkkkkkkkkkkkjlkkkkkkkkkkkkkkkkkkkkkkkkkkklkjlkklkkkjkkkkklkklkkkkkkklkkjkkkkkkkkkkkkklkkkkklkkjkkkkkkkkkklkkjlkkkkkkkklkkkjkkkjkkkkkkjjjkkkkkkk"
};
