/* XPM */
static const char *Micon[] = {
/* width height num_colors chars_per_pixel */
"    48    48        2            1",
/* colors */
". c #000000",
"# c #ffffff",
/* pixels */
"................................................",
"................................................",
"................................................",
"...........................#..#.................",
"....................#.#......#...#..............",
"..................#......#.#.#.#....#...........",
"..............#......##.#...##.#.##...#.........",
"............#...#...#..#.#.####.#..#.#..........",
"...............#..#...###.####.##.#.#...#.......",
"..........#..#...#.#.##.#########.##..#.........",
"..................#.#..###.####.########........",
"....................###################..#......",
".........#.........#.#################..........",
"......#.........#.#.#.##############.##.........",
"........#.........#.##################.##.#.....",
"..................#.#.##################........",
".........#.....##..####################..#......",
".........#...#..#...#############.#####.#.......",
"........#..#.....##..############.#####.#.#.....",
".........#..#..##.##..################.#........",
"............#..#.#.#.#########.#.######..#......",
".........#.#.#.#.####.#.########..###...........",
"..........#.#...######.#######...##..##.#.......",
"...........###.#.####.##.#####...#####..........",
"..........#.##.#.#.###..######..#.#####.#.#.....",
".........#.###..#.####.#######.#####.#..........",
"......#...#.#..#.######..####.#.#.#.##..#.......",
"..........#.##..#..##########.###.##............",
"..........####.#..#.####.###..#.#.#..#..#.......",
"..........####....#.#####.#....#.#.##...........",
"...........###.#...#.#..###....#.#..............",
"........#.####...#...#.####.#..#.#.#....#.......",
"..........#.##.....#.######.....#.#.............",
".........#.#..........####..#...#...............",
"..........####...#..#..#.#.......#..............",
"..........####.........##...............#.......",
"...........###.#............#...#...............",
"..........####.......#..........................",
".........####.#.................................",
"................................#...............",
"..................................#.............",
"....................................#...........",
"................................................",
"................................................",
"................................................",
"................................................",
"................................................",
"................................................"
};
