/* XPM */
static char * file_dot_tif_xpm[] = {
"48 48 242 2",
"  	c None",
" .	c #040204",
" +	c #000000",
" @	c #FCFDFC",
" #	c #ACAAAC",
" $	c #1C1E1C",
" %	c #DCDCDC",
" &	c #545554",
" *	c #E5E5E5",
" =	c #343534",
" -	c #747274",
" ;	c #3C3B3C",
" >	c #C4C4C4",
" ,	c #E4E4E4",
" '	c #CCCCCC",
" )	c #5C5A5B",
" !	c #6C6B6C",
" ~	c #FCFAF0",
" {	c #F4F4F4",
" ]	c #ECECEC",
" ^	c #D4D4D4",
" /	c #0C0C0C",
" (	c #2C2C2C",
" _	c #242624",
" :	c #141414",
" <	c #1C1A1B",
" [	c #242223",
" }	c #B4B4B4",
" |	c #949494",
" 1	c #4C4C4C",
" 2	c #5C5E5C",
" 3	c #646464",
" 4	c #444444",
" 5	c #848484",
" 6	c #1C1204",
" 7	c #7C7A7C",
" 8	c #9C9B9C",
" 9	c #2C2A22",
" 0	c #2C2414",
" a	c #241E0C",
" b	c #241A04",
" c	c #241404",
" d	c #1C0804",
" e	c #140704",
" f	c #2C1A08",
" g	c #2C220C",
" h	c #0C0604",
" i	c #A4A4A4",
" j	c #FCFEF1",
" k	c #FCFACC",
" l	c #FCF5B4",
" m	c #F4F29A",
" n	c #FCE284",
" o	c #F4CE52",
" p	c #ECB236",
" q	c #DC9824",
" r	c #C48214",
" s	c #A44204",
" t	c #742804",
" u	c #9C3F04",
" v	c #AC4E04",
" w	c #AC5E0C",
" x	c #BC7614",
" y	c #DC8A24",
" z	c #CC8A1C",
" A	c #D47A1C",
" B	c #D47614",
" C	c #CC6208",
" D	c #C4630A",
" E	c #8C3A04",
" F	c #8C2E04",
" G	c #A43804",
" H	c #441E04",
" I	c #FCFBE4",
" J	c #FCFAC2",
" K	c #F4F6A9",
" L	c #FCEE94",
" M	c #F4DE76",
" N	c #F4DA6F",
" O	c #F4CA50",
" P	c #B45E04",
" Q	c #642204",
" R	c #4C1404",
" S	c #5C1B04",
" T	c #541A04",
" U	c #641D04",
" V	c #642A04",
" W	c #743204",
" X	c #6C3604",
" Y	c #843604",
" Z	c #842E04",
" `	c #8C4104",
". 	c #A44D04",
"..	c #9C3004",
".+	c #646656",
".@	c #FCFAD6",
".#	c #FCF6BC",
".$	c #F4F2A4",
".%	c #FCE690",
".&	c #F4D664",
".*	c #ECAE34",
".=	c #D4A628",
".-	c #8C3304",
".;	c #340504",
".>	c #3C0604",
".,	c #440A04",
".'	c #7C2204",
".)	c #943A04",
".!	c #944604",
".~	c #942E04",
".{	c #8C2904",
".]	c #6C1E04",
".^	c #5C1604",
"./	c #AC3E04",
".(	c #542204",
"._	c #F4EE9C",
".:	c #F4EE94",
".<	c #FCEA8F",
".[	c #F4D262",
".}	c #F4B244",
".|	c #D4961C",
".1	c #943F04",
".2	c #6C2204",
".3	c #6C2904",
".4	c #7C2E04",
".5	c #9C5204",
".6	c #9C4A04",
".7	c #9C4604",
".8	c #9C5704",
".9	c #9C5E04",
".0	c #742E04",
".a	c #AC3A04",
".b	c #ECC654",
".c	c #E4BA34",
".d	c #CC951C",
".e	c #6C2E04",
".f	c #642E04",
".g	c #5C3607",
".h	c #7C3304",
".i	c #BC5204",
".j	c #441204",
".k	c #FCF6A9",
".l	c #F4DF84",
".m	c #ECBE34",
".n	c #3C1A04",
".o	c #341B04",
".p	c #743A04",
".q	c #943204",
".r	c #3C1404",
".s	c #F4EA91",
".t	c #F4D66C",
".u	c #F4B239",
".v	c #744204",
".w	c #3C0A04",
".x	c #5C4A04",
".y	c #2C1204",
".z	c #4C1C04",
".A	c #DCA62C",
".B	c #BC5A0C",
".C	c #9C6E04",
".D	c #342604",
".E	c #54520C",
".F	c #342E04",
".G	c #2C0604",
".H	c #541504",
".I	c #442604",
".J	c #BCBCBC",
".K	c #FCEE9C",
".L	c #B4720C",
".M	c #C46E04",
".N	c #5C2204",
".O	c #341604",
".P	c #D45604",
".Q	c #FCF2A9",
".R	c #ECB644",
".S	c #E49B24",
".T	c #CC7604",
".U	c #C47604",
".V	c #B45204",
".W	c #9C3A04",
".X	c #C45604",
".Y	c #C45E0C",
".Z	c #F4E27C",
".`	c #E4B634",
"+ 	c #E4A72C",
"+.	c #E48C14",
"++	c #DC8410",
"+@	c #E47A0C",
"+#	c #CC7A0C",
"+$	c #BC6604",
"+%	c #B44604",
"+&	c #945604",
"+*	c #5C2604",
"+=	c #F4AE38",
"+-	c #F4AA24",
"+;	c #ECA224",
"+>	c #F49A23",
"+,	c #F4921F",
"+'	c #F48E1E",
"+)	c #EC9214",
"+!	c #E47E1C",
"+~	c #E47614",
"+{	c #D47D04",
"+]	c #CC6E0C",
"+^	c #E45E04",
"+/	c #945204",
"+(	c #CC660C",
"+_	c #8C8D8C",
"+:	c #ECC23C",
"+<	c #F4A63C",
"+[	c #ECAA20",
"+}	c #F4A222",
"+|	c #F48A1C",
"+1	c #AC4604",
"+2	c #B44004",
"+3	c #D4700C",
"+4	c #542E08",
"+5	c #DCAE24",
"+6	c #F49E21",
"+7	c #F4A22C",
"+8	c #F4841B",
"+9	c #EC6E0C",
"+0	c #ECAE24",
"+a	c #F4A235",
"+b	c #DC680C",
"+c	c #EC7E14",
"+d	c #F49622",
"+e	c #FCA237",
"+f	c #F47A14",
"+g	c #EC821C",
"+h	c #EC6A0C",
"+i	c #ECAE2C",
"+j	c #B44A04",
"+k	c #5C5A4C",
"+l	c #5C5A40",
"+m	c #5C4F27",
"+n	c #544214",
"+o	c #4C360C",
"+p	c #4C2804",
"+q	c #54330C",
"+r	c #5C3A0C",
"+s	c #5C3A14",
" . . . . . . . . . . . . . . . . . . . . . . . . . . . . . . . . . . . . . . . . . . . . . . . .",
" . + + + + + + + + . . . . . . . . . . . . . . . . . . . . . . . . . . . . . . @ # . $ % @ & . .",
" . + + + * + * + + . . . . . . . . . . . . . . . . . . . . . . . . . . # @ . . & = . & @ - . . .",
" . + * + + + + + * . . . . . . . . . . . . . . . . . . . . . . . . . = % @ # . @ # ; > @ > = . .",
" . + + + * * * + + . . . . . . . . . . . . . . . . . . . . . . . . . = , @ # . @ # = > @ ' = . .",
" . + + * + + + * + . . . . . . . . . . . . . . . . . . . . . . . . . . # @ . . @ # . ) @ & . . .",
" . + * + + * + + * . . . . . . . . . . . . . . . . . . . . . . . . . . # @ . . @ # . & @ & . . .",
" . + + * + + + * + . . . . . . . . . . . . . . . . . . . . . . . . . . # @ . . @ # . & @ & . . .",
" . + + + * * * + + . . . . . . . . . . . . . . . . . . . . . . = # ! . # @ & . @ # . & @ & . . .",
" . + * + + + + + * . . . . . . . . . . . . . . . . . . . . . . & @ # . & @ @ . @ # . & @ & . . .",
" . + + + * + * + + . . . . . . . . . . . . . . . . . . . . . . . . . . . . . . . . . . . . . . .",
" . + + + + + + + + . . . . . . . . . . . . . . . . . . . . . . . . . . . . . . . . . . . . . . .",
" . . . . . . . . . . . . . . . . . . . . . . . . . . . . . . . . . . . . . . . . . . . . . . . .",
" . @ @ @ @ @ @ @ @ @ @ @ @ @ @ @ ~ { { { { ] { ] ] ] ] , ] , , , , , % , % % % % ^ % ^ ^ ^ ^ ^ .",
" . @ @ @ @ @ @ @ @ @ @ { { { ] ] { ] ] ] ] ] , ] , , , , , , % % % % % % ^ % ^ ^ ^ % ^ % ^ ^ ^ .",
" . @ @ @ @ @ @ @ / ( / . _ : . $ $ . < _ . / _ . / _ / . [ : . $ $ . : $ . / [ / } ' ^ ^ ^ ^ ' .",
" . @ @ @ @ @ @ @ ( | = . ! 1 . & 2 . ; - . ( ! < : 3 ( . 2 4 . 1 & . = ! . _ 3 < 5 } ' ^ ^ ^ ^ .",
" . @ @ @ @ @ @ ~ _ | = . & 1 . 4 2 . = ! . $ 2 : : & ( . 1 4 . 4 & . ( 3 . $ & 6 7 # ' ^ ^ ' ' .",
" . @ @ @ @ @ @ ~ _ 8 ; . ) & . 1 3 . = 7 . _ 3 $ : 2 = . & 1 . 4 2 . = - . $ 2 _ 5 # ' ^ ^ ' ^ .",
" . @ @ @ @ @ @ { . : 9 _ ( _ 0 _ 0 a a b c d e d 6 c b f b g b c c 6 c e e d h . - i ' ' ^ ' ' .",
" . @ @ @ @ @ @ { . 3 ~ j k l m n o o p q r s t u v w x y z A B B C D D E F G H . 1 8 ' ' ' ' ' .",
" . @ @ @ @ @ @ { . 3 j I J K L M N O p q P Q R S T U V W X Y Y Y Z `.  Y.. s H . ; 8 > ^ ' ' ' .",
" . @ @ @ @ @ @ ] ..+.@ k.#.$.% M.& o.*.=.- T.;.;.>., T.'.-.).!.~.{.{.].^.../.( . ; | > ' ' ' ' .",
" . @ @ @ @ ~ @ ] ..+ k.#._.:.< M N.[.}.|.1 V S.2.3 t.4.~ u.5.6.7.8.9.7.].0.a H . ; | > ' ' ' > .",
" . @ @ @ @ ~ { ] ..+.#.$.$.< M M.&.b.c.d.8.e.3 t.f.g.3.h Y.1 u u s.i.1.0 Y.{.j . = | > ' ' > ' .",
" . @ @ @ { @ { ] . 2 k k.k.:.l n N o.m.d.9.h.3 T.n.o.o.o H S.0.p.q.) Z.3 u...r . ; | > ' > ' > .",
" . @ @ ~ ~ { { ] ..+ k k K.:.<.s.t.[.u.d.v.3.^.w.>.g.x.y 6 e 6.w.z.0 U.^.-..., . = | > ' > ' > .",
" . @ { ~ { { { ] . 3 I.@.# m L L N.[.A D.B.h.z.>.z.C.C.D.E g.F e.G.r.,.H.5. .I . ; |.J ' > > > .",
" . { @ { { @ { , ..+ @ j k K._.K N.b z.L.M.  ` V.] `.8.N.j.O.g.j.G.G.w.3.a.P.( . = |.J ' > > > .",
" . { ~ { { { { ] . 3 j ~ J.Q m L.t.R.S y.T.M.U.L.V u.-.W t Q Q S.^ U.H.'.X.Y.( . = |.J > > >.J .",
" . { { { { { ] , . 3.@.@ k.$.s.Z.[.`+ .S+.+++++.+@+#.M+$.5 v v+%+&. .].q.X C+* . = |.J > > > > .",
" . @ { { { { { , ..+ I.@ J K L M N.b+=+-+;+>+,+'+)+!+~+{+@+{+{+]+#+^ G+/+(+^+* . ;+_.J > >.J.J .",
" . { { { ] ] ] , ..+ k.# K.K.l M.t+:+=+<+[.S+}+>+'+|+)+'+|+|+'+|+'+~+1+2+3+]+4 . =+_.J > >.J > .",
" . { { { { ] { , . 2 k.#.K._ L M N O.m+=+5+ +6+7+)+'+,+'+8+8+.+'+}+) P..+8+9.N . ;+_.J.J >.J.J .",
" . { ] ] { ] ] , ..+ J k K.$.Q.% N o p.u+ +0+}+a+7+}+6+>+)+>+6+}+}+'+b G+c+b.N . =+_.J >.J.J.J .",
" . { ] { ] ] ] % ..+.@ k J J m L N O.*+a.|+}+}+7+a+a+7+a+>+d+e+7+,+d+f.a+g+h.N . =+_.J.J.J.J.J .",
" . ] { ] ] ] ] , . 3 j.@ k K.Q L.& O+i+-.=+}+7+e+7+e+7+6+e+6+6+>+|+8+f.a D C.( . =+_ }.J.J.J.J .",
" . { ] ] ] ] ] % ..+ ~ ~ k.#.$.s.[ O p.S r+d+d+7+e+a+e+a+6+6+)+d+|+8+c+2+j.Y.z . =+_.J.J.J.J } .",
" . ] ] ] ] , , % . [ ) )+k+l+l+m+m+m+n+o+p.g+q+r+s+s+s+s+q+s+4+q+4+q.f.r.r.( 6 . = 5 }.J.J }.J .",
" . ] ] ] , ] ] % . . . . . . . . . . . . . . . . . . . . . . . . . . . . . . . . =+_ }.J }.J } .",
" . ] ] ] , , , % [ & : . < : . : $ . / [ . / < . . < / . : : . / $ . / $ . . < / 4+_ }.J }.J } .",
" . ] , ] , ] , % _ 7 _ . 4 ; . = 4 . _ & . < 4 : / 4 [ . ; = . ( 4 . [ 1 . : 4 / 3 | }.J } } } .",
" . , ] , , , , % [ 5 = . 1 4 . 4 2 . ( ! . $ ) < / & ( . 4 4 . ; & . ( 2 . $ 1 < ! | # } } } } .",
" . ] , ] , , , % . < / . / / . / / . / : . . / . . / / . / / . / / . / / . / / . ! | } } } } } .",
" . , , , , , , %.J 5 - 2 2 ! 3 2 3 3 ) 2 ! & 2 3 2 & 3 & & 3 2 & 2 2 1 2 2 1 & 2 - | } } } } # .",
" . , , , , , % % ' } # # i # i i i i 8 i i 8 8 8 8 | 8 8 | | | | | |+_ | |+_+_+_ | # } } } } } .",
" . , , , % , % % % ^ ^ ^ ' ' ' ' ' ' ' > > > > > > >.J.J.J.J.J.J.J }.J } } } } } } } } # } # # .",
" . . . . . . . . . . . . . . . . . . . . . . . . . . . . . . . . . . . . . . . . . . . . . . . ."};
